<?xml version="1.0" encoding="utf-8"?>
<!-- Generator: Adobe Illustrator 23.0.1, SVG Export Plug-In . SVG Version: 6.00 Build 0)  -->
<svg version="1.1" id="Layer_1" xmlns="http://www.w3.org/2000/svg" xmlns:xlink="http://www.w3.org/1999/xlink" x="0px" y="0px"
	 viewBox="0 0 273 178.8" style="enable-background:new 0 0 273 178.8;" xml:space="preserve">
<style type="text/css">
	.st0{fill:#D4DF36;stroke:#231F20;stroke-miterlimit:10;}
	.st1{fill:#F8EDC5;stroke:#231F20;stroke-miterlimit:10;}
	.st2{fill:#F6EE6E;stroke:#231F20;stroke-miterlimit:10;}
	.st3{fill:#FFFFFF;stroke:#231F20;stroke-miterlimit:10;}
	.st4{fill:#F6EE9A;}
	.st5{fill:#F6EEBD;}
	.st6{fill:#F6EEC2;}
	.st7{fill:#F6EEAD;}
</style>
<title>lemon</title>
<g>
	<g>
		<path class="st0" d="M263.7,37.6c0,77.3-61.3,140-136.8,140C58.7,177.6,2.2,126.7-8.3,60L258.6-0.1
			C261.9,11.9,263.7,24.6,263.7,37.6z"/>
		<path class="st1" d="M258.6,40.9c0,72.3-58.5,130.9-130.6,130.9c-65,0-118.9-47.6-128.9-110L253.8,5.7
			C256.9,16.9,258.6,28.7,258.6,40.9z"/>
		<path class="st2" d="M77.9,107.6c-23.7,25.7-34.2,29.7-58.2-11s22.5-43.3,22.5-43.3l65.9-5.6l10.9-0.7
			C119,47.1,101.7,81.9,77.9,107.6z"/>
		<path class="st2" d="M144,118.2c3,34.4-1.1,44.7-46.8,35.8c-45.7-9-16.6-45.1-16.6-45.1l39.9-52.3l6.8-8.5
			C127.1,48.1,141,83.8,144,118.2z"/>
		<path class="st2" d="M208.1,18.4c33.6-9.8,44.6-7.8,44.2,39.4s-41.6,25.5-41.6,25.5l-59.3-29.2l-9.7-5
			C141.7,49.1,174.5,28.3,208.1,18.4z"/>
		<path class="st2" d="M196.4,85.8c26.6,20.1,31,29.3-7.3,52.8s-43.6-18.2-43.6-18.2l-9.3-59l-1.3-9.8
			C134.8,51.7,169.8,65.7,196.4,85.8z"/>
		<path class="st3" d="M108.4,52.9c0,0-10.7-2.3-8.4,5.7C102.3,66.5,108.4,52.9,108.4,52.9z"/>
		<path class="st3" d="M150,48.9c0,0,11.6,10.6,20.7,2.7C179.8,43.9,150,48.9,150,48.9z"/>
		<path class="st3" d="M145.6,62.7c0,0-1.9,10.8,6,8.1C159.3,68.3,145.6,62.7,145.6,62.7z"/>
	</g>
	<path class="st4" d="M198,38c5.5-5.2,13.6-4.1,18.5-3.5c4.2,0.6,9.3,1.3,13.5,5.5c0.8,0.8,6.9,6.8,5,13c-2.2,7.5-14.3,10.4-18,7
		c-3.3-3,1.3-9.9-2-13c-4.7-4.4-17.9,5.6-21,2C192.2,46.9,194.6,41.2,198,38z"/>
	<path class="st5" d="M116,87c-2.6,1-8.8,3.8-12.6,10.3c-1.2,2-1.9,4-2.4,5.7c2.4,5.8,4.7,13.9,1,20c-3.5,5.8-10,6-10,9
		c0.1,5.6,23,11.9,26,7c1.5-2.6-4.2-5.2-5-13c-0.3-3.1,0.3-5.1,9-25c0.7-1.7,2.4-5.6,4-11c3.2-11.1,1.4-13.3,0.6-14
		c-1.2-1-2.6-1.4-3.8-1.4"/>
	<path class="st6" d="M161,76c3.7-1.6,10.2,1.5,12,6c2.2,5.4-3.4,9.7-1,14c1.9,3.4,6,1.7,12,6c1.9,1.4,7.2,5.2,7,10
		c-0.2,6.5-10.1,12.2-14,10c-3.1-1.8,0-7.4-4-13c-3.8-5.3-8.8-3.4-13-8C153.5,94,155.1,78.6,161,76z"/>
	<g>
		<path class="st7" d="M46,70c-1.6,1.7-2,4.8-3,11c-1.2,7.9-2.8,17.8,1,20c4.9,2.9,19.8-6.8,22-19c1-5.5-1.4-7,0-11
			c4.3-12.5,33.3-14.8,34-12.4c0.4,1.4-8.5,6.2-17,8.4C64.4,71.8,52.2,63,46,70z"/>
		<path class="st3" d="M122.7,61.3c0,0-7.5,8,0.5,10.1C131.2,73.4,122.7,61.3,122.7,61.3z"/>
	</g>
</g>
</svg>
