<svg xmlns="http://www.w3.org/2000/svg" xmlns:xlink="http://www.w3.org/1999/xlink" viewBox="0 0 1252.91 480.61"><defs><style>.cls-1,.cls-100,.cls-102,.cls-2,.cls-3,.cls-5,.cls-84,.cls-85,.cls-87,.cls-88,.cls-96,.cls-98,.cls-99{fill:none;}.cls-1,.cls-100,.cls-2,.cls-3,.cls-5,.cls-84,.cls-85,.cls-87,.cls-88,.cls-96,.cls-98,.cls-99{stroke:#808285;stroke-width:0.75px;}.cls-1,.cls-100,.cls-101,.cls-102,.cls-103,.cls-2,.cls-3,.cls-4,.cls-5,.cls-7,.cls-8,.cls-82,.cls-83,.cls-84,.cls-85,.cls-87,.cls-88,.cls-9,.cls-96,.cls-97,.cls-98,.cls-99{stroke-miterlimit:10;}.cls-2{stroke-dasharray:12.43 12.43;}.cls-3{stroke-dasharray:12.03 12.03;}.cls-4,.cls-97{fill:#ff94ac;}.cls-4,.cls-7,.cls-8,.cls-82,.cls-83,.cls-9,.cls-97{stroke:#fff;}.cls-4,.cls-8,.cls-83,.cls-9{stroke-width:2px;}.cls-5{stroke-dasharray:10.8 10.8;}.cls-6{fill:#66b449;}.cls-7,.cls-8{fill:#7ec67e;}.cls-7,.cls-82,.cls-97{stroke-width:0.5px;}.cls-9{fill:#7ec62b;}.cls-10,.cls-89{font-size:12px;font-family:MyriadPro-Regular, Myriad Pro;}.cls-11{letter-spacing:-0.07em;}.cls-12{letter-spacing:-0.01em;}.cls-13{letter-spacing:-0.01em;}.cls-14{letter-spacing:0em;}.cls-15{fill:#ed0000;}.cls-16{letter-spacing:-0.02em;}.cls-17{letter-spacing:-0.01em;}.cls-18{letter-spacing:-0.01em;}.cls-19{letter-spacing:0.01em;}.cls-20{letter-spacing:0em;}.cls-21,.cls-38{letter-spacing:-0.05em;}.cls-22{letter-spacing:-0.07em;}.cls-23{letter-spacing:-0.01em;}.cls-24{letter-spacing:0.01em;}.cls-25{letter-spacing:-0.04em;}.cls-26{letter-spacing:0em;}.cls-27{letter-spacing:0em;}.cls-28{letter-spacing:0.01em;}.cls-29{letter-spacing:0em;}.cls-30{fill:#e50000;}.cls-31{letter-spacing:-0.01em;}.cls-32,.cls-37{letter-spacing:0em;}.cls-33,.cls-34,.cls-35,.cls-36,.cls-37,.cls-38,.cls-39{fill:#ee212b;}.cls-33{letter-spacing:-0.02em;}.cls-34,.cls-55{letter-spacing:-0.01em;}.cls-36{letter-spacing:-0.01em;}.cls-39,.cls-45{letter-spacing:-0.07em;}.cls-40{letter-spacing:0.01em;}.cls-41{letter-spacing:-0.04em;}.cls-42{fill:#000;}.cls-43{letter-spacing:0em;}.cls-44{letter-spacing:-0.01em;}.cls-46{letter-spacing:0.01em;}.cls-47,.cls-89{letter-spacing:0em;}.cls-48{letter-spacing:0em;}.cls-49{letter-spacing:0em;}.cls-50{letter-spacing:-0.01em;}.cls-51{letter-spacing:-0.01em;}.cls-52{letter-spacing:-0.01em;}.cls-53,.cls-54{fill:#ed1a3a;}.cls-53,.cls-70{letter-spacing:0em;}.cls-56{letter-spacing:0.01em;}.cls-57{letter-spacing:0.02em;}.cls-58{letter-spacing:-0.01em;}.cls-59{letter-spacing:-0.01em;}.cls-60{letter-spacing:-0.02em;}.cls-61{letter-spacing:0em;}.cls-62{letter-spacing:0.01em;}.cls-63{letter-spacing:0em;}.cls-64{letter-spacing:-0.01em;}.cls-65{letter-spacing:0em;}.cls-66{letter-spacing:0.01em;}.cls-67{letter-spacing:0em;}.cls-68{letter-spacing:-0.01em;}.cls-69{letter-spacing:0em;}.cls-71{letter-spacing:-0.01em;}.cls-72{letter-spacing:-0.05em;}.cls-73{letter-spacing:-0.03em;}.cls-74{fill:#ff1543;}.cls-75{letter-spacing:0em;}.cls-76{letter-spacing:-0.01em;}.cls-77{letter-spacing:0.02em;}.cls-78{letter-spacing:-0.01em;}.cls-79{letter-spacing:0.01em;}.cls-80{letter-spacing:-0.02em;}.cls-81,.cls-82,.cls-83{fill:#ffe782;}.cls-84{stroke-dasharray:11.73 11.73;}.cls-85{stroke-dasharray:11.33 11.33;}.cls-86{letter-spacing:-0.05em;}.cls-87{stroke-dasharray:9.83 9.83;}.cls-88{stroke-dasharray:12.84 12.84;}.cls-90{letter-spacing:0em;}.cls-91{letter-spacing:0em;}.cls-92{letter-spacing:-0.05em;}.cls-93{letter-spacing:-0.05em;}.cls-94{letter-spacing:-0.07em;}.cls-95{letter-spacing:-0.01em;}.cls-96{stroke-dasharray:7.14 7.14;}.cls-98{stroke-dasharray:13.6 13.6;}.cls-99{stroke-dasharray:11.32 11.32;}.cls-100{stroke-dasharray:12.02 12.02;}.cls-101{fill:#d0d0d0;stroke:#8c8c8c;stroke-width:0.01px;opacity:0.11;}.cls-102,.cls-103{stroke:#a39fa0;stroke-width:0px;}.cls-103{fill:#333;}</style></defs><title>tree</title><g id="Layer_2" data-name="Layer 2"><g id="Layer_1-2" data-name="Layer 1"><line class="cls-1" x1="722.66" y1="186.11" x2="722.66" y2="192.11"/><line class="cls-2" x1="722.66" y1="204.54" x2="722.66" y2="223.18"/><polyline class="cls-1" points="722.66 229.39 722.66 235.39 728.66 235.39"/><line class="cls-3" x1="740.69" y1="235.39" x2="903.06" y2="235.39"/><line class="cls-1" x1="909.07" y1="235.39" x2="915.07" y2="235.39"/><path class="cls-4" d="M782.74,150.9s-2.06-18.36-20.9-17.54-.88-2.5-8.62,0"/><path class="cls-4" d="M783.61,151.86s-22,10.37-30.47-9.93-3.3.78-4.31-9"/><line class="cls-1" x1="478.7" y1="169.79" x2="478.7" y2="163.79"/><polyline class="cls-1" points="478.7 155.88 478.7 149.88 472.7 149.88"/><line class="cls-5" x1="461.91" y1="149.88" x2="380.93" y2="149.88"/><line class="cls-1" x1="375.53" y1="149.88" x2="369.53" y2="149.88"/><path class="cls-6" d="M779.39,144.18a8.92,8.92,0,0,1-10.06,5.31h0l3.76-6.35C775.47,142,777.89,141.76,779.39,144.18Z"/><path class="cls-7" d="M773.07,142.89l-4.8,7.84h0s-5.78,23-14.48,17.5l-.23-.15h0l-.07-.11,0-.05c1.92-3.57,4.76-8.6,7.84-13.2,2.29-3.42,2.26-5.12,4.54-7.32a41.38,41.38,0,0,1,3.8-2.7h0a27.07,27.07,0,0,1,2.8-1.55h0Z"/><path class="cls-8" d="M769.71,144.7h0a12.33,12.33,0,0,0-3.8,2.7"/><path class="cls-8" d="M762,150.74c-16,1.68-8.41,17.35-8.41,17.35L751,173.24"/><path class="cls-8" d="M817.35,203s-2.06-18.36-20.91-17.55-.87-2.5-8.61,0"/><path class="cls-9" d="M819.58,204.06s-22,10.36-30.46-9.94-3.3.79-4.31-9"/><path class="cls-8" d="M850.28,202.75s-2.06-18.36-20.9-17.54-.88-2.5-8.61,0"/><path class="cls-9" d="M852.52,203.83s-22,10.37-30.47-9.93-3.3.79-4.31-9"/><text class="cls-10" transform="translate(681.49 400.04)"><tspan class="cls-11">T</tspan><tspan x="5.11" y="0">odd </tspan><tspan class="cls-12" x="27.78" y="0">C</tspan><tspan x="34.61" y="0">onstabl</tspan><tspan class="cls-13" x="72.02" y="0">e</tspan><tspan class="cls-14" x="77.89" y="0">,</tspan><tspan class="cls-15"><tspan class="cls-16" x="0" y="14.4">P</tspan><tspan class="cls-17" x="6.19" y="14.4">r</tspan><tspan x="10" y="14.4">o</tspan><tspan class="cls-18" x="16.58" y="14.4">f</tspan><tspan x="19.93" y="14.4">essor of </tspan><tspan class="cls-19" x="61.14" y="14.4">R</tspan><tspan x="67.74" y="14.4">adiology </tspan><tspan class="cls-20" x="114.01" y="14.4">a</tspan><tspan x="119.75" y="14.4">t</tspan><tspan class="cls-21" x="123.72" y="14.4"> </tspan><tspan class="cls-22" x="125.71" y="14.4">Y</tspan><tspan x="131.36" y="14.4">ale Uni</tspan><tspan class="cls-23" x="165.77" y="14.4">v</tspan><tspan x="171.42" y="14.4">ersi</tspan><tspan class="cls-24" x="188.91" y="14.4">t</tspan><tspan class="cls-25" x="192.99" y="14.4">y</tspan><tspan class="cls-14" x="198.18" y="14.4">,</tspan></tspan><tspan x="0" y="28.8">1994 -</tspan></text><image width="400" height="400" transform="translate(643.98 385.21) scale(0.08 0.08)" xlink:href="../../../Downloads/BM2l8SG0_400x400.jpg"/><image width="153" height="214" transform="translate(407.69 247.84) scale(0.2 0.19)" xlink:href="../../../Downloads/dustin.jpg"/><text class="cls-10" transform="translate(444.06 257.01)"><tspan class="cls-26">D</tspan><tspan class="cls-27" x="8.03" y="0">ustin </tspan><tspan class="cls-28" x="35.38" y="0">S</tspan><tspan x="41.36" y="0">cheinos</tspan><tspan class="cls-29" x="80.22" y="0">t</tspan><tspan x="84.15" y="0">,</tspan><tspan class="cls-30"><tspan class="cls-31" x="0" y="14.4">A</tspan><tspan x="7.27" y="14.4">ssista</tspan><tspan class="cls-32" x="34.09" y="14.4">n</tspan><tspan x="40.7" y="14.4">t </tspan><tspan class="cls-33" x="47.22" y="14.4">P</tspan><tspan class="cls-34" x="53.41" y="14.4">r</tspan><tspan class="cls-35" x="57.22" y="14.4">o</tspan><tspan class="cls-36" x="63.8" y="14.4">f</tspan><tspan class="cls-35" x="67.15" y="14.4" xml:space="preserve">essor  </tspan><tspan class="cls-37" x="98.27" y="14.4">a</tspan><tspan class="cls-35" x="104" y="14.4">t</tspan><tspan class="cls-38" x="107.98" y="14.4"> </tspan><tspan class="cls-39" x="109.97" y="14.4">Y</tspan><tspan class="cls-35" x="115.62" y="14.4">ale</tspan></tspan><tspan class="cls-35"><tspan x="0" y="28.8">Uni</tspan><tspan class="cls-17" x="17.23" y="28.8">v</tspan><tspan x="22.88" y="28.8">ersi</tspan><tspan class="cls-40" x="40.38" y="28.8">t</tspan><tspan class="cls-41" x="44.46" y="28.8">y</tspan><tspan class="cls-42" x="49.64" y="28.8">,</tspan></tspan><tspan x="0" y="43.2">2013-</tspan></text><image width="512" height="512" transform="translate(932.47 156.97) scale(0.06 0.06)" xlink:href="../../../Downloads/Mehraveh_Salehi.jpg"/><image width="400" height="400" transform="translate(305.21 70.57) scale(0.07 0.08)" xlink:href="../../../Downloads/VLJCPecf_400x400.jpg"/><image width="399" height="399" transform="translate(747.14 309.89) scale(0.08 0.08)" xlink:href="../../../Downloads/EZcRPMpd_400x400-2.jpg"/><image width="400" height="400" transform="translate(683.4 18.86) scale(0.07 0.08)" xlink:href="../../../Downloads/CmlpkDFS_400x400.jpg"/><image width="400" height="400" transform="translate(267.82 2.53) scale(0.09 0.09)" xlink:href="../../../Downloads/94iMbTDD_400x400.jpg"/><image width="400" height="400" transform="translate(823.94 109.73) scale(0.07 0.08)" xlink:href="../../../Downloads/HiUt9VUz_400x400.jpg"/><text class="cls-10" transform="translate(862.31 117.66)"><tspan class="cls-29">A</tspan><tspan class="cls-43" x="7.31" y="0">bigail G</tspan><tspan class="cls-17" x="45.37" y="0">r</tspan><tspan x="49.18" y="0">eene ,</tspan><tspan class="cls-44" x="0" y="14.4">P</tspan><tspan x="6.32" y="14.4">hD stude</tspan><tspan class="cls-20" x="51.63" y="14.4">n</tspan><tspan x="58.25" y="14.4">t </tspan><tspan class="cls-20" x="64.76" y="14.4">a</tspan><tspan x="70.5" y="14.4">t</tspan><tspan class="cls-21" x="74.47" y="14.4"> </tspan><tspan class="cls-45" x="76.46" y="14.4">Y</tspan><tspan class="cls-27" x="82.11" y="14.4">ale Uni</tspan><tspan class="cls-17" x="116.52" y="14.4">v</tspan><tspan x="122.17" y="14.4">ersi</tspan><tspan class="cls-24" x="139.66" y="14.4">t</tspan><tspan class="cls-41" x="143.74" y="14.4">y</tspan><tspan x="148.93" y="14.4">,</tspan><tspan x="0" y="28.8">2014-2021</tspan></text><text class="cls-10" transform="translate(721.56 24.61)"><tspan class="cls-46">M</tspan><tspan class="cls-47" x="9.73" y="0">onica </tspan><tspan class="cls-48" x="39.56" y="0">R</tspan><tspan class="cls-49" x="46.08" y="0">osenbe</tspan><tspan class="cls-50" x="83" y="0">r</tspan><tspan class="cls-51" x="86.84" y="0">g</tspan><tspan x="93.38" y="0">,</tspan><tspan class="cls-15"><tspan class="cls-31" x="0" y="14.4">A</tspan><tspan x="7.27" y="14.4">ssista</tspan><tspan class="cls-32" x="34.09" y="14.4">n</tspan><tspan class="cls-43" x="40.7" y="14.4">t </tspan><tspan class="cls-16" x="47.22" y="14.4">P</tspan><tspan class="cls-17" x="53.41" y="14.4">r</tspan><tspan class="cls-43" x="57.22" y="14.4">o</tspan><tspan class="cls-52" x="63.8" y="14.4">f</tspan><tspan x="67.15" y="14.4">essor </tspan><tspan class="cls-53" x="95.72" y="14.4">a</tspan><tspan class="cls-54" x="101.46" y="14.4">t </tspan></tspan><tspan class="cls-54"><tspan x="0" y="28.8">Uni</tspan><tspan class="cls-55" x="17.23" y="28.8">v</tspan><tspan x="22.88" y="28.8">ersi</tspan><tspan class="cls-56" x="40.38" y="28.8">t</tspan><tspan x="44.46" y="28.8">y of Chicago</tspan></tspan><tspan x="0" y="43.2">2019-</tspan></text><text class="cls-10" transform="translate(337.11 80.57)"><tspan class="cls-57">K</tspan><tspan class="cls-43" x="6.7" y="0">angjoo </tspan><tspan class="cls-58" x="44.48" y="0">L</tspan><tspan class="cls-43" x="49.98" y="0">e</tspan><tspan class="cls-59" x="55.99" y="0">e</tspan><tspan x="61.86" y="0">,</tspan><tspan class="cls-60" x="0" y="14.4">P</tspan><tspan x="6.08" y="14.4">ost doc </tspan><tspan class="cls-61" x="45.22" y="14.4">a</tspan><tspan x="50.95" y="14.4">t</tspan><tspan class="cls-21" x="54.92" y="14.4"> </tspan><tspan class="cls-45" x="56.92" y="14.4">Y</tspan><tspan x="62.57" y="14.4">ale</tspan><tspan x="0" y="28.8">2018-2020</tspan></text><text class="cls-10" transform="translate(974.83 163.84)"><tspan class="cls-62">M</tspan><tspan x="9.72" y="0">eh</tspan><tspan class="cls-63" x="22.39" y="0">r</tspan><tspan class="cls-64" x="26.26" y="0">a</tspan><tspan class="cls-23" x="31.94" y="0">v</tspan><tspan x="37.6" y="0">eh </tspan><tspan class="cls-65" x="52.81" y="0">S</tspan><tspan x="58.76" y="0">alehi,</tspan><tspan class="cls-63" x="0" y="14.4">P</tspan><tspan x="6.32" y="14.4">hD </tspan><tspan class="cls-20" x="23.52" y="14.4">a</tspan><tspan x="29.26" y="14.4">t Ele</tspan><tspan class="cls-66" x="50.52" y="14.4">c</tspan><tspan x="56.05" y="14.4">t</tspan><tspan class="cls-67" x="60.02" y="14.4">r</tspan><tspan x="64" y="14.4">ical En</tspan><tspan class="cls-68" x="95.9" y="14.4">g</tspan><tspan x="102.54" y="14.4">inee</tspan><tspan class="cls-69" x="124.03" y="14.4">r</tspan><tspan x="128" y="14.4">ing </tspan><tspan class="cls-70" x="146.72" y="14.4">a</tspan><tspan x="152.46" y="14.4">t</tspan><tspan class="cls-21" x="156.43" y="14.4"> </tspan><tspan class="cls-45" x="158.42" y="14.4">Y</tspan><tspan x="164.07" y="14.4">al</tspan><tspan class="cls-71" x="172.69" y="14.4">e</tspan><tspan class="cls-14" x="178.56" y="14.4">,</tspan><tspan x="0" y="28.8">2014-2019</tspan></text><image width="400" height="400" transform="translate(71.98 47.2) scale(0.07 0.09)" xlink:href="../../../Downloads/Bgp2mZTm_400x400.jpg"/><text class="cls-10" transform="translate(113.53 57.86)">Daniel Ba<tspan class="cls-69" x="46.92" y="0">r</tspan><tspan class="cls-55" x="50.89" y="0">r</tspan><tspan x="54.69" y="0">on,</tspan><tspan class="cls-60" x="0" y="14.4">P</tspan><tspan x="6.08" y="14.4">ost doc </tspan><tspan class="cls-20" x="45.22" y="14.4">a</tspan><tspan x="50.95" y="14.4">t</tspan><tspan class="cls-72" x="54.92" y="14.4"> </tspan><tspan class="cls-45" x="56.91" y="14.4">Y</tspan><tspan x="62.57" y="14.4">ale</tspan><tspan x="0" y="28.8">2016-2018</tspan></text><text class="cls-10" transform="translate(789.49 318.82)">Emily <tspan class="cls-73" x="29.75" y="0">F</tspan><tspan x="35.28" y="0">inn,</tspan><tspan class="cls-74"><tspan class="cls-60" x="0" y="14.4">P</tspan><tspan x="6.08" y="14.4">ost doc </tspan><tspan class="cls-20" x="45.22" y="14.4">a</tspan><tspan x="50.95" y="14.4">t NIH,</tspan></tspan><tspan x="0" y="28.8">2017-</tspan></text><text class="cls-10" transform="translate(309.87 10.04)"><tspan class="cls-50">E</tspan><tspan class="cls-17" x="5.82" y="0">v</tspan><tspan x="11.47" y="0">elyn Lak</tspan><tspan class="cls-71" x="52.25" y="0">e</tspan><tspan x="58.12" y="0">,</tspan><tspan class="cls-60" x="0" y="14.4">P</tspan><tspan x="6.08" y="14.4">os</tspan><tspan class="cls-68" x="17.42" y="14.4">t</tspan><tspan x="21.32" y="14.4">doc </tspan><tspan class="cls-20" x="42.6" y="14.4">a</tspan><tspan x="48.33" y="14.4">t</tspan><tspan class="cls-21" x="52.31" y="14.4"> </tspan><tspan class="cls-45" x="54.3" y="14.4">Y</tspan><tspan x="59.95" y="14.4">al</tspan><tspan class="cls-71" x="68.57" y="14.4">e</tspan><tspan class="cls-75" x="74.44" y="14.4">,</tspan><tspan x="0" y="28.8">2018-2020</tspan></text><image width="613" height="600" transform="translate(0 107.65) scale(0.06 0.06)" xlink:href="../../../Downloads/IMG_3250.jpg"/><image width="400" height="400" transform="translate(181.52 138.7) scale(0.1 0.09)" xlink:href="../../../Downloads/ulkUmtzK_400x400.jpg"/><text class="cls-10" transform="translate(47.08 115.92)">J<tspan class="cls-76" x="4.44" y="0">a</tspan><tspan x="10.13" y="0">vid Dadash</tspan><tspan class="cls-77" x="65.76" y="0">k</tspan><tspan x="71.6" y="0">a</tspan><tspan class="cls-69" x="77.39" y="0">r</tspan><tspan class="cls-14" x="81.36" y="0">imi,</tspan><tspan class="cls-63" x="0" y="14.4">P</tspan><tspan x="6.32" y="14.4">hD in </tspan><tspan class="cls-78" x="35.53" y="14.4">c</tspan><tspan x="40.84" y="14.4">ompu</tspan><tspan class="cls-78" x="70.87" y="14.4">t</tspan><tspan x="74.77" y="14.4">er scien</tspan><tspan class="cls-68" x="112.86" y="14.4">c</tspan><tspan class="cls-71" x="118.16" y="14.4">e</tspan><tspan class="cls-14" x="124.03" y="14.4">,</tspan><tspan x="0" y="28.8">2017-2023,</tspan><tspan class="cls-21" x="55.41" y="28.8"> </tspan><tspan class="cls-45" x="57.41" y="28.8">Y</tspan><tspan class="cls-75" x="63.06" y="28.8">ale Uni</tspan><tspan class="cls-17" x="97.46" y="28.8">v</tspan><tspan x="103.11" y="28.8">ersi</tspan><tspan class="cls-24" x="120.61" y="28.8">t</tspan><tspan class="cls-75" x="124.69" y="28.8">y</tspan></text><image width="400" height="400" transform="translate(0 186.29) scale(0.1 0.1)" xlink:href="../../../Downloads/zsDNagy6_400x400.jpg"/><text class="cls-10" transform="translate(49.11 194.63)">Siyuan <tspan class="cls-79" x="35.98" y="0">G</tspan><tspan x="43.82" y="0">a</tspan><tspan class="cls-80" x="49.61" y="0">o</tspan><tspan class="cls-75" x="55.91" y="0">,</tspan><tspan class="cls-63" x="0" y="14.4">P</tspan><tspan x="6.32" y="14.4">hD </tspan><tspan class="cls-20" x="23.52" y="14.4">a</tspan><tspan x="29.26" y="14.4">t En</tspan><tspan class="cls-68" x="48.34" y="14.4">g</tspan><tspan x="54.97" y="14.4">inee</tspan><tspan class="cls-69" x="76.46" y="14.4">r</tspan><tspan x="80.44" y="14.4">ing and </tspan><tspan class="cls-29" x="120.91" y="14.4">A</tspan><tspan x="128.22" y="14.4">pplied </tspan><tspan class="cls-62" x="162.84" y="14.4">S</tspan><tspan x="168.83" y="14.4">cien</tspan><tspan class="cls-68" x="189.68" y="14.4">c</tspan><tspan class="cls-71" x="194.99" y="14.4">e</tspan><tspan x="200.85" y="14.4">,</tspan><tspan class="cls-45" x="0" y="28.8">Y</tspan><tspan x="5.65" y="28.8">ale Uni</tspan><tspan class="cls-17" x="40.06" y="28.8">v</tspan><tspan x="45.71" y="28.8">ersi</tspan><tspan class="cls-24" x="63.2" y="28.8">t</tspan><tspan class="cls-25" x="67.28" y="28.8">y</tspan><tspan class="cls-14" x="72.47" y="28.8">, 2016-2022</tspan></text><path class="cls-8" d="M405.27,150.14s15.41-10.2,26.87,4.77,2.49-.93,5.55,6.59"/><path class="cls-9" d="M404,149.28s6.2,23.56,27.17,17,1.52,3,9.67-2.47"/><path class="cls-8" d="M383.08,173.07s17.05-7.1,25.48,9.77,2.61-.44,4.2,7.52"/><path class="cls-9" d="M381.05,171.64s1.62,24.3,23.46,21.83.92,3.26,10-.6"/><path class="cls-81" d="M486.8,173.39s3.23,5.94,13.41,4.83h0l-5-5.77C492,171.4,488.8,171.2,486.8,173.39Z"/><path class="cls-82" d="M495.23,172.22l6.39,7.13h0s7.7,21,19.29,15.91l.31-.13h0l.09-.1,0-.05a158.32,158.32,0,0,0-10.45-12c-3-3.11-3-4.66-6.06-6.66-1.44-.79-3.17-1.65-5-2.45h0c-1.19-.51-2.45-1-3.73-1.41h0Z"/><path class="cls-83" d="M504.78,176.32a17.9,17.9,0,0,0-5-2.45h0"/><path class="cls-83" d="M507.48,178c21.27,1.53,11.21,15.77,11.21,15.77l3.42,4.69"/><polyline class="cls-1" points="415.42 134.33 415.42 127.33 409.42 127.33"/><line class="cls-84" x1="397.69" y1="127.33" x2="192.45" y2="127.33"/><line class="cls-1" x1="186.59" y1="127.33" x2="180.59" y2="127.33"/><line class="cls-1" x1="389.48" y1="199.85" x2="389.48" y2="205.85"/><polyline class="cls-1" points="389.48 206.84 389.48 212.84 383.48 212.84"/><line class="cls-85" x1="372.15" y1="212.83" x2="264.5" y2="212.83"/><line class="cls-1" x1="258.83" y1="212.83" x2="252.83" y2="212.83"/><text class="cls-10" transform="translate(232.99 144.9)"><tspan class="cls-29">S</tspan><tspan class="cls-78" x="5.88" y="0">t</tspan><tspan x="9.78" y="0">ephanie Nobl</tspan><tspan class="cls-71" x="77.23" y="0">e</tspan><tspan class="cls-14" x="83.1" y="0">,</tspan><tspan class="cls-60" x="0" y="14.4">P</tspan><tspan x="6.08" y="14.4">ost doc </tspan><tspan class="cls-70" x="45.22" y="14.4">a</tspan><tspan class="cls-14" x="50.95" y="14.4">t</tspan><tspan class="cls-86" x="54.92" y="14.4"> </tspan><tspan class="cls-45" x="56.92" y="14.4">Y</tspan><tspan x="62.57" y="14.4">ale Uni</tspan><tspan class="cls-23" x="96.97" y="14.4">v</tspan><tspan x="102.62" y="14.4">ersi</tspan><tspan class="cls-24" x="120.12" y="14.4">t</tspan><tspan class="cls-25" x="124.2" y="14.4">y</tspan><tspan class="cls-14" x="129.38" y="14.4">,</tspan><tspan x="0" y="28.8">2019-2021</tspan></text><path class="cls-83" d="M711.85,255.23s-2.06-18.36-20.91-17.54-.88-2.5-8.61,0"/><path class="cls-83" d="M714.08,256.31s-22,10.37-30.47-9.93-3.3.78-4.31-9"/><line class="cls-1" x1="711.56" y1="266.28" x2="711.56" y2="272.28"/><line class="cls-87" x1="711.56" y1="282.11" x2="711.56" y2="316.51"/><polyline class="cls-1" points="711.56 321.43 711.56 327.43 722.66 327.43"/><line class="cls-1" x1="808" y1="207.33" x2="808" y2="213.33"/><polyline class="cls-1" points="808 214.31 808 220.31 814 220.31"/><line class="cls-85" x1="825.34" y1="220.32" x2="932.99" y2="220.32"/><line class="cls-1" x1="938.66" y1="220.32" x2="944.66" y2="220.32"/><image width="161" height="162" transform="translate(958.19 209) scale(0.21 0.19)" xlink:href="../../../Downloads/corey_horien21.jpg"/><text class="cls-10" transform="translate(1000.53 218.19)"><tspan class="cls-12">C</tspan><tspan x="6.83" y="0">o</tspan><tspan class="cls-17" x="13.42" y="0">r</tspan><tspan x="17.22" y="0">ey Ho</tspan><tspan class="cls-69" x="45.84" y="0">r</tspan><tspan x="49.81" y="0">ien,</tspan><tspan class="cls-63" x="0" y="14.4">P</tspan><tspan x="6.32" y="14.4">hD stude</tspan><tspan class="cls-20" x="51.64" y="14.4">n</tspan><tspan x="58.25" y="14.4">t </tspan><tspan class="cls-70" x="64.76" y="14.4">a</tspan><tspan x="70.5" y="14.4">t</tspan><tspan class="cls-21" x="74.47" y="14.4"> </tspan><tspan class="cls-45" x="76.46" y="14.4">Y</tspan><tspan x="82.12" y="14.4">ale Uni</tspan><tspan class="cls-17" x="116.52" y="14.4">v</tspan><tspan x="122.17" y="14.4">ersi</tspan><tspan class="cls-24" x="139.67" y="14.4">t</tspan><tspan class="cls-41" x="143.75" y="14.4">y</tspan><tspan x="148.93" y="14.4">,</tspan><tspan x="0" y="28.8">2014-2021</tspan></text><line class="cls-1" x1="838.91" y1="186.15" x2="838.9" y2="180.15"/><polyline class="cls-1" points="838.9 178.07 838.88 172.07 844.88 172.06"/><line class="cls-88" x1="857.72" y1="172.04" x2="902.66" y2="171.95"/><line class="cls-1" x1="909.07" y1="171.94" x2="915.07" y2="171.93"/><polyline class="cls-1" points="781.35 141.65 781.32 130.82 787.32 130.82"/><line class="cls-1" x1="799.73" y1="130.8" x2="805.73" y2="130.8"/><line class="cls-1" x1="438.58" y1="91.35" x2="438.58" y2="85.35"/><polyline class="cls-1" points="438.57 70.25 438.57 64.25 432.57 64.25"/><line class="cls-84" x1="420.85" y1="64.25" x2="215.61" y2="64.25"/><line class="cls-1" x1="209.74" y1="64.25" x2="203.74" y2="64.25"/><path class="cls-82" d="M421.78,109.32l7.09,8.65h0s8.53,25.41,21.37,19.3l.34-.17h0l.1-.12,0-.06c-2.84-3.93-7-9.47-11.58-14.55-3.38-3.77-3.33-5.65-6.7-8.08-1.61-1-3.51-2-5.6-3h0c-1.32-.62-2.71-1.2-4.14-1.71h0C422.32,109.5,422.05,109.4,421.78,109.32Z"/><path class="cls-83" d="M436.36,116.32c23.55,1.86,12.41,19.13,12.41,19.13l3.79,5.68"/><line class="cls-1" x1="420.52" y1="242.16" x2="420.51" y2="236.16"/><polyline class="cls-1" points="420.5 234.07 420.49 228.07 426.49 228.06"/><line class="cls-88" x1="439.33" y1="228.04" x2="484.26" y2="227.96"/><line class="cls-1" x1="490.68" y1="227.95" x2="496.68" y2="227.93"/><image width="400" height="400" transform="translate(915.07 277.5) scale(0.08 0.09)" xlink:href="../../../Downloads/FpuiGQ3b_400x400.jpg"/><text class="cls-89" transform="translate(957.58 283.88)">D<tspan class="cls-50" x="8" y="0">a</tspan><tspan x="13.7" y="0">vid O</tspan><tspan class="cls-90" x="39.92" y="0">&apos;</tspan><tspan class="cls-17" x="42.16" y="0">C</tspan><tspan class="cls-91" x="49" y="0">onno</tspan><tspan class="cls-92" x="75.54" y="0">r</tspan><tspan class="cls-91" x="78.84" y="0">,</tspan><tspan class="cls-20"><tspan x="0" y="14.4">P</tspan><tspan class="cls-47" x="6.34" y="14.4">hD stude</tspan><tspan class="cls-29" x="51.74" y="14.4">n</tspan><tspan class="cls-91" x="58.37" y="14.4">t </tspan><tspan class="cls-29" x="64.91" y="14.4">a</tspan><tspan class="cls-47" x="70.66" y="14.4">t</tspan><tspan class="cls-93" x="74.64" y="14.4"> </tspan><tspan class="cls-94" x="76.64" y="14.4">Y</tspan><tspan class="cls-47" x="82.31" y="14.4">al</tspan><tspan class="cls-95" x="90.95" y="14.4">e</tspan><tspan class="cls-47" x="96.83" y="14.4">,</tspan></tspan><tspan x="0" y="28.8">2017-2023</tspan></text><line class="cls-1" x1="664.72" y1="379" x2="664.72" y2="373"/><polyline class="cls-1" points="664.72 363.18 664.72 357.18 658.72 357.18"/><line class="cls-96" x1="651.58" y1="357.18" x2="640.86" y2="357.18"/><line class="cls-1" x1="637.29" y1="357.18" x2="631.29" y2="357.18"/><path class="cls-81" d="M505.7,106.33s2.72,4.37,11.3,3.55h0l-4.23-4.24C510.1,104.87,507.38,104.72,505.7,106.33Z"/><path class="cls-82" d="M512.8,105.47l5.39,5.24h0s9.25,16.41,19,12.7l.26-.1h0l.08-.07,0,0a121.37,121.37,0,0,0-8.82-8.83,49.66,49.66,0,0,0-7.86-5.89c-1.22-.58-2.67-1.21-4.26-1.8h0c-1-.38-2.06-.73-3.15-1h0Z"/><path class="cls-83" d="M520.85,108.48a16.07,16.07,0,0,0-4.26-1.8h0"/><path class="cls-83" d="M525.27,110.71c17.93,1.13,12.21,12.6,12.21,12.6l2.88,3.44"/><path class="cls-97" d="M701.14,69.92,707.08,78h0s7.15,23.82,17.92,18.09l.28-.16h0l.08-.11,0,0c-2.38-3.69-5.9-8.88-9.71-13.64-2.83-3.54-2.8-5.29-5.62-7.57a51.81,51.81,0,0,0-4.7-2.78h0a37.9,37.9,0,0,0-3.47-1.6h0Z"/><path class="cls-4" d="M713.37,76.49c19.74,1.74,10.4,17.93,10.4,17.93L727,99.74"/><path class="cls-83" d="M443.7,87s17.06-7.1,25.48,9.77,2.62-.44,4.2,7.52"/><path class="cls-83" d="M441.67,85.59s1.63,24.3,23.47,21.83.91,3.26,10-.6"/><line class="cls-1" x1="498.79" y1="97.39" x2="498.79" y2="91.39"/><polyline class="cls-1" points="498.79 89.84 498.79 83.84 492.79 83.84"/><line class="cls-98" x1="479.19" y1="83.84" x2="431.59" y2="83.84"/><line class="cls-1" x1="424.79" y1="83.84" x2="418.79" y2="83.84"/><line class="cls-1" x1="422.33" y1="105.78" x2="422.33" y2="99.78"/><line class="cls-99" x1="422.33" y1="88.46" x2="422.33" y2="26.19"/><polyline class="cls-1" points="422.33 20.52 422.33 14.53 416.33 14.53"/><line class="cls-1" x1="415.59" y1="14.52" x2="409.59" y2="14.52"/><line class="cls-1" x1="671.59" y1="38.2" x2="665.59" y2="38.2"/><polyline class="cls-1" points="665.12 38.2 659.12 38.2 659.12 44.2"/><line class="cls-100" x1="659.12" y1="56.22" x2="659.12" y2="122.35"/><line class="cls-1" x1="659.12" y1="128.36" x2="659.11" y2="134.36"/><path class="cls-8" d="M709.64,178.39s1.77-10.39,18-9.93.75-1.42,7.41,0"/><path class="cls-9" d="M707.72,179s19,5.86,26.21-5.62,2.84.44,3.71-5.1"/><line class="cls-1" x1="930.87" y1="262.94" x2="930.87" y2="256.94"/><polyline class="cls-1" points="930.87 241.13 930.87 235.13 920 235.13"/><path class="cls-101" d="M1251.81,413.15c-.75.26-1.71.65-2.65,1.06h0l0,0a6.52,6.52,0,0,0-1.57.44l-1.3.44c-.85.29-2.12.72-3.8,1.17s-3.75,1-6.22,1.56l1.29-.3,2.57-.61.86-.25,3.06-.88a8.51,8.51,0,0,0,1.09-.37l-.87.27-2.87.78s-1.1.35-3.26.81c-1.08.25-2.42.58-4,.84l-2.59.47-3,.41a117.45,117.45,0,0,1-15.66.92,174,174,0,0,1-21.26-1.56c-8-1.05-16.78-2.65-26.43-4.6s-20.15-4.22-31.61-6.13c-5.72-.95-11.7-1.79-17.94-2.33-5.43-.49-11.07-.67-16.78-.63l.74-.32.38-.16.39-.17.79-.36.83-.38c1.11-.51,2.28-1.06,3.47-1.67l1.77-.89,1.75-.92,1.72-.93,1.69-.94,1.5-.83,1-.56,3.67-2.1,6.55-3.83,11-6.56,2.31-1.4a21.52,21.52,0,0,1,2-1.09,21.26,21.26,0,0,1,3.72-1.39,38.35,38.35,0,0,1,5.42-1.09c5-.65,9.71-.77,13.89-1.38a31,31,0,0,0,10.51-3.12,17.64,17.64,0,0,0,5.3-4.27,8.67,8.67,0,0,0,.81-1.13l0-.1h0v0l0,0a.64.64,0,0,0,.06-.1s0,0-.15.1l-.31.33h0s0,0-.18.16l-.16.15a4.06,4.06,0,0,1-.46.44l-.44.39.25-.23a3.94,3.94,0,0,0,.51-.47,4.15,4.15,0,0,1-.46.42l-.41.35c-.26.24-.68.54-1.22.94A19.69,19.69,0,0,1,1172,374a32.67,32.67,0,0,1-8.59,1.36c-3.39.17-7.24,0-11.55.05a51.14,51.14,0,0,0-6.81.46,25.88,25.88,0,0,0-7.39,2.12l-14.58,7.31-7.92,3.92-4.21,2.06-1.1.53-1.45.71-.77.37-.77.38-1.57.78-.79.4-.4.2-.21.1-.2.11-.8.41-.79.42-2.93,1.58-2.44,1.39-.53.32-.52.31-.48.3-.39.23c-1.93,1.2-3.14,2-4.15,2.78-.5.38-.93.72-1.3,1s-.7.59-1,.86l-.49.5c-10.57.52-21.4,1.58-32.4,2.28q-5.24.34-10.5.51c-3.43.07-6.9.08-10.42-.1a215.67,215.67,0,0,1-21.73-2.17c-5.76-.84-11.64-1.84-17.67-2.91.79-.4,1.58-.8,2.35-1.23s1.82-1,2.71-1.54,1.77-1.08,2.65-1.64,1.75-1.16,2.6-1.75,1.51-1.11,2.26-1.67l1.45-1.14c1.87-1.51,3.55-3,5.15-4.36,3.19-2.81,6-5.4,8.82-7.6a52.19,52.19,0,0,1,8-5.44,33.25,33.25,0,0,1,7.64-2.89c5-1.22,9.72-1.59,13.56-2.19a60.22,60.22,0,0,0,8.88-1.87A37.32,37.32,0,0,0,1067,367c1.76-.87,3.42-1.76,5.06-2.65,3.26-1.78,6.3-3.58,9.12-5.32,5.64-3.5,10.39-6.77,14.15-9.48s6.51-4.83,8.11-6.14a16.43,16.43,0,0,0,1.51-1.34.77.77,0,0,0,.09-.13v0h0l0,0,.06,0a.73.73,0,0,0,.11-.13c0-.05-.08,0-.24.08l-.57.36h0s-.06,0-.32.16L1103,343c.89-.55.85-.54-.15.07l-2.71,1.61c-1.76,1.05-4.36,2.58-7.7,4.46s-7.43,4.13-12.21,6.53q-3.59,1.8-7.67,3.66c-1.36.62-2.77,1.23-4.21,1.85l-2.19.9c-.74.3-1.46.53-2.19.81a42.91,42.91,0,0,1-9.59,1.81c-3.41.31-7,.37-10.9.66a47.08,47.08,0,0,0-12.15,2.28,44.11,44.11,0,0,0-6.14,2.76c-2,1.12-4,2.32-5.83,3.65-3.81,2.63-7.44,5.6-11.16,8.43-1.87,1.42-3.75,2.81-5.72,4.11-.5.33-1,.67-1.5,1-.65.4-1.25.78-2,1.21l-1.09.62-1.11.62c-.75.42-1.5.83-2.27,1.24l-1.16.62-.59.3-.29.16-.29.15-1.19.62-1.17.6-4.36,2.18-3.7,1.78-.81.4-.8.38-.75.35-.6.29-1.06.51h0c-2.16-.29-4.32-.61-6.5-.86l-6.55-.53a197.17,197.17,0,0,0-26.61.25c-8.91.71-17.85,1.91-26.77,3.39-17.82,3-35.54,7-53.31,10l-6.66,1-1.67.25-1.59.2c-1,.12-2.11.28-3.17.36-4.25.45-8.56.68-12.93.74a201.17,201.17,0,0,1-27-1.59c-4.66-.56-9.4-1.24-14.25-2-2.33-.37-5.12-.81-7.79-1.19s-5.42-.72-8.17-1-5.6-.59-8.41-.82c-3.65-.29-7.08-.53-11-.7-1.92-.09-3.85-.16-5.78-.21s-3.9-.07-5.85-.1c-3.92,0-7.88,0-11.86.15-2,.05-4,.16-6,.25l-3,.18-1.52.09-1.51.12-6,.49-5.8.55-21.05,2.23-9.09,1-8.18.8-3.75.31-3.65.31-3.39.23-2.72.2c-1.7.15-3.27.15-4.82.25s-3,.2-4.41.22c-2.77,0-5.36.19-7.7.19s-4.53,0-6.57,0-3.9-.12-5.73-.13l-9.57-.4c-1.43-.12-2.76-.2-4-.26s-2.49,0-3.6-.15c-2.22-.16-4.24-.21-6-.16-.92,0-1.74,0-2.51.05s-1.49.08-2.15.16c-5.36.68-7.8,3.05-6.46,7.59a16.17,16.17,0,0,0,1.82,3.87c.45.73,1,1.49,1.57,2.3.29.41.61.83.94,1.25l1.1,1.2a74,74,0,0,0,5.88,5.52c1.21.92,2.53,1.88,4,2.89l2.31,1.56,1.24.81c.43.26.88.5,1.33.75,1.82,1,3.76,2,5.93,3.15s4.57,2,7.29,3.12c.68.27,1.4.57,2.13.82l2.19.72,4.87,1.53c.8.27,1.71.5,2.68.72l1.69.41,2,.49c1.34.29,2.8.68,4.25.9l4.34.75c1.38.24,3.06.53,4.63.69l4.76.57c1.67.2,3.36.33,5.07.44l5.27.36,5.5.18,2.8.07H681l5.82,0,6-.17c8.07-.27,16.54-.78,25-1.41l12.28-.78q6.08-.35,12.11-.55c4-.12,8-.24,12-.24s7.91,0,11.7.13c3.47.09,6.91.27,10.34.48,2.28.16,4.56.33,6.82.54l7.12.64,7.07.54c4.69.3,9.3.5,13.89.59a205.46,205.46,0,0,0,26.89-1.19c4.38-.48,8.69-1.18,12.93-2l3.16-.63,3-.68L863,450c15.41-3.75,29.51-7.94,42.53-11.44,4.58-1.24,9-2.39,13.38-3.45.78.34,1.57.67,2.34,1s1.79.84,2.66,1.31,1.74.94,2.57,1.41,1.52.92,2.27,1.37c.51.3,1,.65,1.5,1,2,1.28,3.8,2.58,5.61,3.86,3.59,2.59,7,5.11,10.44,7.36a70.13,70.13,0,0,0,10.21,5.68l2.51,1,2.39.82c1.56.55,3.07,1.08,4.55,1.48a115.38,115.38,0,0,0,15.18,3.41c4.17.66,7.38.95,9.5,1.18a198.21,198.21,0,0,0,23.18.53c6.87-.22,12.79-.65,17.52-1.06s8.27-.79,10.36-1.07a14.23,14.23,0,0,0,2-.37l.14-.07,0,0h.11l.17-.05s-.07-.06-.27-.07h-.72s-.06,0-.37,0l-4.38-.08,2.68.05c1.38,0,1.43,0,.11,0l-12.55-.32a287.81,287.81,0,0,1-33.31-2.62,138.08,138.08,0,0,1-22-5.06,109.08,109.08,0,0,1-11.66-4.52,61.07,61.07,0,0,1-11.18-6.93c-3.72-2.83-7.47-6.06-11.59-9.37q-2-1.62-4.18-3.23c2.38-.45,4.74-.85,7.06-1.2a159.48,159.48,0,0,1,30.89-1.85l3.5.18,1.72.09,1.81.16,7.06.63,13.27,1.2c6.53.57,12.56,1,18,1.16l1.33.45,1.46.51.74.26.78.27,1.53.58c.54.2,1.08.39,1.61.61,2.15.84,4.4,1.78,6.66,2.83,1.13.51,2.23,1.09,3.34,1.62s2.19,1.13,3.25,1.76l1.59.92,1.68,1,3.33,2,3,1.78,2,1.18c2.6,1.55,5.05,3,7.46,4.34,4.81,2.72,9.4,5.14,13.89,7.18a114,114,0,0,0,13,5c2.1.68,4.06,1.17,6,1.71s3.78,1,5.59,1.45c7.2,1.81,13.41,3.06,18.47,4s8.94,1.56,11.52,2c10.3,1.61,19.81,2.75,28.19,3.68s15.64,1.65,21.45,2.22,10.17,1,12.76,1.12a15.38,15.38,0,0,0,2.5,0,.44.44,0,0,0,.19-.05h.16a.45.45,0,0,0,.21,0s-.08-.08-.31-.14l-.85-.18h0s-.1-.06-.47-.14l-3.89-.86,1.83.4c1.68.36,1.74.36.14,0,0,0-5.5-1.25-15.21-3.29s-23.73-4.81-40.6-8.74c-8.43-2-17.57-4.33-27.19-7.29l-3.63-1.13-3.66-1.22c-2.47-.8-4.94-1.71-7.46-2.62a103.44,103.44,0,0,1-14.79-6.71c-4.94-2.7-9.91-5.82-15.07-9.26l-8-5.39-2.12-1.44-2.31-1.55c1.52-.19,3-.38,4.53-.59,4.24-.59,8.39-1.26,12.45-1.93,8.14-1.35,15.94-2.74,23.47-3.83a183.89,183.89,0,0,1,42.56-1.74c13.54.86,26.38,2.47,38.27,3.5a261.17,261.17,0,0,0,32.63,1.23,128.6,128.6,0,0,0,25.34-3.27,86.2,86.2,0,0,0,16.58-5.73c2-.9,3.61-1.84,4.86-2.52a21,21,0,0,0,2.59-1.77,1.64,1.64,0,0,0,.45-.49l0-.08v0l.15-.09.26-.16a2.53,2.53,0,0,0,.56-.45C1253,412.79,1252.56,412.88,1251.81,413.15Zm-52.76-33.38.06,0Z"/><path class="cls-102" d="M523.09,39.66c3.07-.11,10.71,1.87,14.31.79-1.84.54-12.22-1.07-14.56-.79h0C523.42,39.65,525.07,39.58,523.09,39.66Z"/><path class="cls-103" d="M835.08,185.45A21.35,21.35,0,0,0,831,185c.82,0,1.7.18,2.5.17-13.68.23-23.93,6.26-36,11-16.19,6.41-34.12,12.87-52,15.21-13.46,1.75-26.32-1.65-39.75-.88,15-7.6,35.87-20,53.64-22.14,10-1.24,28.67,5.48,36.65.49-5.31,3.21-25.18-2.34-32.32-2.68,14.67-5,29.66-9.25,44.87-13,4.12-1,12.18-1.54,15.53-4-.85.61-5.48.65-6.15.74l3-.42c-11.63,3.12-24.85,3.74-36.8,6.3a449.27,449.27,0,0,0-50.67,14c.56-2.92-.31-6.16,2-8.72,3.07-3.43,17-5.7,17-11l0-.06a3.06,3.06,0,0,1-.62.53c-1.14.22-4.52,3.38-6.21,4.3-2.46,1.35-5.67,2-8,3.35-4.64,2.72-3.89,3.9-6.13,7.8-.7,1.22.24,3.11-.62,4.33-2.15,3.07-17.25,6.74-21.53,8.49-7.37,3-14.54,6.28-21.77,9.49,2.7-6.12,5.33-12.26,9.32-17.93,2.57-3.64,9.15-7.75,10.54-11.48-.58,1.48-7.21,5.69-9,7.5-5.77,5.94-8.78,12.62-12.83,19.25-2.25,3.68-.75,3.12-5,5.6-12.27,7.17-30.45,5.74-44.25,9.53,3.07-4.79,2.71-11,3.79-16.1,1.6-7.57,7.31-11.84,10.55-18.7.36-.78.92-2.88.23-3.67,1.61,1.91-2.9,6.21-4,7.5-7.27,8.39-8.89,15.42-11.87,25.28-2.23,7.36-6.26,7.62-13.68,12.11a60,60,0,0,0-3-40.34c-1.68-3.94-7.39-11.51-6.15-15.33.31-1,2-1.91,2.71-2.77,3.41-4.35,9.7-8.71,15.14-11,5.6-2.4,11.7-2.84,17.77-4,7.5-1.47,16.39-7,23.58-7.74,9-.95,20.42,2.11,29.69,2.17,7.37,0,15-.32,21.83-2.86,7-2.61,10.66-7.8,16.85-11.21s9.75-2.17,15.53-.4c-.43-.14-1.34-1.28-1.69-1.48a4.45,4.45,0,0,1,.58.38c.72-.73-7.39-1.87-8.29-1.81-4.52.28-7.9,2.48-11.36,4.62-9.38,5.84-15.65,9-27.95,9-9.29,0-18.49-1.62-27.78-1.85,18.34-8.88,40.4-12.3,57.81-22.11,6.52-3.67,21.73-13.42,21.77-20.82,0,.76-2.79,3.22-3.12,3.58.61-.68,1.2-1.36,1.78-2-9.8,16.08-34.67,21.39-53.78,25.88a19.66,19.66,0,0,1,4.53-6.77c2.8-2.66,7.25-3.84,9.67-6.76s2-6.23,3.58-9.26c.86-1.71,2.5-3.09,3.32-4.64-.09.17-.81.45-.92.52-1.58,1-3.34,5.12-4.53,7.43-3.34,6.51-9.46,7.34-14.28,12.63-.88,1-1.38,2.28-2.25,3.2-3.86,4,1,3.27-8.34,6.09-12.29,3.69-23.36,9.6-35.65,13.27-9.81,2.92-20.48,2.58-30.16,5.63a41.26,41.26,0,0,0-20.87,15c-3.86-10-3.58-18.3-.32-28.34,1.63-5,2-9.71,6.83-12.25,4.57-2.4,12.05-3.19,17.1-4.46,3.71-.94,11.94-1.51,14.69-3.69-3.65,2.8-18.55,3.23-23.35,4.24-3.44.72-7,1.39-10.3,2.42,3.81-11.42,3.89-18.28,16.31-25.84,9.33-5.68,21-8.34,30.68-13.83,4.57-2.59,6-3.8,10.15-4.14a61.17,61.17,0,0,1,6.9.45c6.79.35,21.8,3.54,28,1.58-1.52.47-5.14-.83-6.68-1-7-1-14.09-2-21.16-2.29-2.76-.11-5.67-.4-8.37.2,7.86-4.68,16.25-9,26-10.38,1.92-.28,5.06.08,6.83-.6-3.71,1.39-11.35.11-15.73,1.14-16.26,3.81-29,14-44.83,18.79,3.15-5.54,17.39-12.93,12.56-19.82a.43.43,0,0,0,0-.05c0,.05-1,3.67-.51,1.9a4,4,0,0,0,.38-1.46c-1.63,6.86-7.63,13.82-13.8,18.61s-16.74,6.91-23,13.21c-.11-15.18-3.83-30.27-3-45.47.33-6.18.57-16.49,5.84-20.89s17.39-4.42,21.56-9.61l-.64.23c-6.44,2.44-14.61,5-21.44,8.15,2.46-5.8,10.34-17.48,7.35-24,.46,1.06-2.75,7.05-3.06,7.7a27.1,27.1,0,0,0,1.12-2.68c-.4,3-3.37,7.07-4.81,9.58-1.36-2.62-3.45-7.94-5.91-9.28,1.32.76,4.41,6.82,4.69,8.79.42,3,.93-2.12-.42,3.32-1.14,4.62-5.54,9.4-7.43,13.93a66.64,66.64,0,0,0-4.45,17.9A49.67,49.67,0,0,0,590,48.67c-8.56-2.4-22.67-1.38-29.56-5.45-7.84-4.62-1.91-21.41-11.77-22.66,7.48,1,3.82,17.46,9.17,22.48a98.16,98.16,0,0,1-28.48-9.84c-2-1.05-4.9-3.73-7.22-4.13,0,0,1.87,1.53,1.42,1.18a.86.86,0,0,0-.22-.15c18.77,14.72,42.7,15.95,65.84,23.23,3.46,1.09,7.47,2.16,10.5,3.83,1.37.76,4.28,1.11,5.07,2.21,2.65,3.7-.34,18.05-.32,22.44-6-5.2-26.93-9.39-33.15-6.45,5.68-2.6,20.66,3.48,27.2,5.45,3.71,1.11,4.46,1.28,5.95,3.5,3.32,4.93-1.45,20.94-3,26.11-2.07,6.93-5.65,13.44-8.64,20.12a45.41,45.41,0,0,0-20-20.23c-9.71-5-21.3-6.54-31-11.6-7.33-3.83-18.64-9.39-23.85-15s-6.48-12.48-12.7-18.07c-10-9-.82-2,.65-11.24-.3,1.56-4.82,4.59-6.4,6.13-3.55-5,.33-18.49-4.3-21.63l0-.09c3.69,3.57-.75,15.34,1.08,20.22,2.22,6,8.89,9.46,12.27,15,1.25,2.07,2.07,4.33,3.19,6.45-16.09-7.94-36-8.28-51.35-17.39C452.51,58.48,447,52.6,442,46c-.85-1.12-1.38-3-2.65-3.88.59.41,1.33,3.33,1.62,3.94-.3-.66-.64-1.3-.93-2,2.49,2.82,3.57,6.93,5.91,10a57.06,57.06,0,0,0,14.88,13.31A42.37,42.37,0,0,0,443,68.56h0a9.41,9.41,0,0,1,1.17-.2l-.76.14c6-1.11,13.48-1.32,19.56.32,3.36.9,6.66,3.15,10,4.42,7.4,2.85,15.3,4.67,22.77,7.39,13.95,5.08,23.75,14,35.28,21.85,15,10.2,34.7,12.79,47.14,25.47,1.89,1.93,3.58,4,5.31,6,2.53,3,4.87,5,5.17,8.33.24,2.75-1.18,5.91-1.24,8.78-.32,13.64,6.39,26.28,11,39.15a95.89,95.89,0,0,0-20-15c-8.21-4.53-24.43-6.46-29.33-12.62-5.06-6.37-4.38-16.72-7.92-23.93-1.47-3-4.44-11.44-8.11-13.55,2.65,1.56,4.41,9.09,5.45,11.57,3.59,8.54,3.58,17.39,6.66,25.92-13.57-6.59-25.68-15.23-39-22.16q-8.13-4.23-16.51-8.12c-2.82-1.31-8.75-2.82-10.75-5-5.11-5.64,4.14-18.76-7.66-20.09,7.53-2.28,3.55,16.25,4.82,19.08-9.72-4.12-19.68-8.07-29.93-11.25-1.83-.57-4.64-2-6.67-1.83,1-.06,4.26,1.87,4.73,2.07a21.92,21.92,0,0,0-2.52-1c19.29,5.21,39.16,18.18,55.4,27.71-5.31-.16-10.69.49-16,.09-6.91-.52-12.93-3-19.6-4.37-2.1-.42-7.76-1.94-10.11-.66.88-.47,4.05.17,4.94.35,11.49,2.41,20.42,6.75,32.58,7.25,16.34.66,23,6.1,36,15.1a85.7,85.7,0,0,0-25.6-2.5h-.05a5.32,5.32,0,0,1,.78.06c6.72.37,16.46,1.29,23.89,3.5a22.21,22.21,0,0,1,8.13,3.91c10.88,7.34,23.59,10.22,35.27,16.38,9.51,5,17.51,11.69,25.67,18,8.66,6.7,10,7.34,7.63,17.29-2.43,10.21-7.74,19.84-10.76,29.94-12-14.46-28.57-27.37-50-31.47-10.44-2-11.72-.37-15.62-9.07a63.06,63.06,0,0,1-3.09-9,4.91,4.91,0,0,1,.08.8c-2.39,2,4,13.45,5.34,15.87-10.61-.47-25.88.59-32.86-7-5.45-5.88-5.58-12.57-13-18-9.08-6.55-19.27-12.39-28.92-18.35-2.88-1.78-7.95-6.34-11.59-6.82,0,0,3.68,2.73,2.14,1.6a3.81,3.81,0,0,0-.86-.61c16.59,12.23,38.83,23.46,45.44,41.32-24.8-11-46.94-22.45-75.18-27a195,195,0,0,0-39.84-2.29c-3.54.17-10.38-.22-13.52,1.5.87-.46,5.5,0,6.09,0l-2.61.06c11.35-1.63,26,1,37,2.9a195.46,195.46,0,0,1,48.69,14.87c-7.76-.11-15.38,1.2-23.12,1.36-4.09.08-10.38-1.79-14.21-1.24,2.14-.29,9.56,2.16,13.23,2.34,8.76.43,18-1.32,26.65.15,10.46,1.77,19.17,9.22,28.06,14,17,9,32.06,10.6,51.47,13.41,23.63,3.43,36.76,18.82,51.48,32.49,4.35,4,7.23,6,8.61,11.34,1.92,7.46,5.34,14.57,9,21.55,7.13,13.53-8.28,26-7,40.86,1.92,23-3.42,45.8-4.09,68.72-.2,6.57-2.25,32.11,8.12,34.27,9,1.88,48.38-11.88,39.6-30.4-18.79-39.61-4.12-73.67-15.07-112.4-3.15-11.11-10.38-29.24-5.51-41.36,2.59-6.44,14.83-13.29,21.6-16.26,7.2-3.16,22.45-8.47,30.43-5.66,5.33,1.88,10.23,10.65,17.12,6.2-2.42,5.1-15.38-7-17.24-7.79a93.85,93.85,0,0,0,16.06-5.19c3.83-1.61,8.41-5.18,12.44-5.9,2.43-.44,6.28.39,8.92.6,10.21.82,20.38,2.52,30.67,2.23,22.1-.63,44.29-10.38,63.12-19.2C807.2,195.38,823.77,183,835.08,185.45Zm-112-85.1c.13-.11.25-.19.34-.26Zm-.23.19a1.92,1.92,0,0,0-.22.18Zm104.59,84.63.19,0Zm.9-.1.44,0Zm-178.14.65.09-.19Zm.31-.7c0-.11.08-.21.11-.31C650.59,184.81,650.55,184.91,650.51,185ZM620.12,18.15l.26-.49ZM650.8,184.06c0-.18.05-.33.07-.46C650.85,183.74,650.83,183.89,650.8,184.06Zm100.53-52.87.21.06Zm.61.2.35.13ZM697.54,65l-1.16,0Zm-76-49.73c.49-1,.74-1.55.75-1.57C622.1,14.22,621.85,14.75,621.57,15.31ZM550,21.66l0,0Zm-.51-.45-.27-.21ZM441.48,47c-.13-.23-.24-.44-.34-.64C441.24,46.53,441.36,46.75,441.48,47Zm30.73,60.5-.39-.11Zm.54.21.08,0ZM681.91,235.79l-.15,0Zm.52-.12-.2.05Z"/><path class="cls-102" d="M443.32,68.52Z"/></g></g></svg>