<svg xmlns="http://www.w3.org/2000/svg" viewBox="0 0 273.01 178.8"><defs><style>.cls-1{fill:#d4df36;}.cls-1,.cls-2,.cls-3,.cls-4{stroke:#231f20;stroke-miterlimit:10;}.cls-2{fill:#f8edc5;}.cls-3{fill:#f6ee6e;}.cls-4{fill:#fff;}</style></defs><title>lemon</title><g id="Layer_2" data-name="Layer 2"><g id="Layer_1-2" data-name="Layer 1"><path class="cls-1" d="M272.51,38.3c0,77.32-61.27,140-136.84,140C67.54,178.3,11,127.37.57,60.69L267.48.59A142.82,142.82,0,0,1,272.51,38.3Z"/><path class="cls-2" d="M267.43,41.62c0,72.31-58.46,130.92-130.57,130.92-65,0-118.91-47.63-128.91-110L262.64,6.35A131.54,131.54,0,0,1,267.43,41.62Z"/><path class="cls-3" d="M86.78,108.31C63.05,134.05,52.6,138,28.59,97.34S51.1,54.05,51.1,54.05L117,48.49l10.89-.7S110.51,82.58,86.78,108.31Z"/><path class="cls-3" d="M152.8,118.86c3,34.43-1.11,44.75-46.84,35.78s-16.64-45.06-16.64-45.06l39.91-52.33,6.76-8.5S149.82,84.43,152.8,118.86Z"/><path class="cls-3" d="M217,19.11c33.59-9.82,44.59-7.82,44.22,39.38S219.58,84,219.58,84l-59.34-29.2-9.7-5S183.36,28.94,217,19.11Z"/><path class="cls-3" d="M205.23,86.46c26.55,20.09,31,29.3-7.26,52.83s-43.65-18.15-43.65-18.15l-9.35-59-1.33-9.76S178.67,66.36,205.23,86.46Z"/><path class="cls-4" d="M117.24,53.62s-10.73-2.3-8.35,5.65S117.24,53.62,117.24,53.62Z"/><path class="cls-4" d="M158.81,49.54s11.62,10.57,20.74,2.73S158.81,49.54,158.81,49.54Z"/><path class="cls-4" d="M154.42,63.42s-1.89,10.82,6,8.14S154.42,63.42,154.42,63.42Z"/><path class="cls-4" d="M132.58,62s-5.48,9.51,2.82,9.69S132.58,62,132.58,62Z"/></g></g></svg>