<svg xmlns="http://www.w3.org/2000/svg" viewBox="0 0 456.83 391.02"><defs><style>.cls-1,.cls-24,.cls-25,.cls-29,.cls-30{fill:none;}.cls-1,.cls-2,.cls-24,.cls-25,.cls-29{stroke:#000;}.cls-1,.cls-2,.cls-21,.cls-22,.cls-23,.cls-24,.cls-25,.cls-26,.cls-28,.cls-29,.cls-30{stroke-miterlimit:10;}.cls-1,.cls-22,.cls-23,.cls-24,.cls-25,.cls-26,.cls-28{stroke-width:2px;}.cls-1{opacity:0.67;}.cls-2{font-size:74px;}.cls-2,.cls-3{fill:#303030;font-family:MyriadPro-Regular, Myriad Pro;}.cls-3{opacity:0.61;font-size:17px;}.cls-4{letter-spacing:0em;}.cls-5{letter-spacing:0em;}.cls-6{letter-spacing:-0.01em;}.cls-7{letter-spacing:0.02em;}.cls-8{letter-spacing:0.01em;}.cls-9{letter-spacing:-0.01em;}.cls-10{letter-spacing:0em;}.cls-11{letter-spacing:-0.01em;}.cls-12{letter-spacing:0em;}.cls-13{letter-spacing:-0.01em;}.cls-14{letter-spacing:0em;}.cls-15{letter-spacing:-0.01em;}.cls-16{letter-spacing:0.01em;}.cls-17{letter-spacing:-0.01em;}.cls-18{letter-spacing:-0.05em;}.cls-19{letter-spacing:-0.07em;}.cls-20{letter-spacing:0em;}.cls-21,.cls-23,.cls-27{fill:#00356b;}.cls-21,.cls-22,.cls-23,.cls-26,.cls-28{stroke:#fff;}.cls-21{stroke-width:0.5px;}.cls-22{fill:#7ec67e;}.cls-25{opacity:0.73;}.cls-26{fill:#e90013;}.cls-28{fill:#7ec62b;}.cls-30{stroke:#7b7b7b;stroke-width:0px;}</style></defs><title>Asset 33</title><g id="Layer_2" data-name="Layer 2"><g id="Layer_1-2" data-name="Layer 1"><path class="cls-1" d="M270.56,4.44c-29.28-8.62-87.28,0-117,14.36S108.19,46.52,92.63,46.52,70.09,77.26,62.71,85.93,31.23,107.67,21.1,159.12s50.68,83.7,71.53,79.53a139.54,139.54,0,0,0,38.27-14.36L62.71,159.12l68.19-1,62.73,42.5-25.71,23.67,112.22,19-47-103.47L197.63,79.24h80.59l79.56,60.53-68.3,14.35,80.8,41.64-52.12,42.89"/><text class="cls-2" transform="translate(0.5 348.96)">Lindsa</text><text class="cls-3" transform="translate(2.33 382.44)"><tspan xml:space="preserve"> Labo</tspan><tspan class="cls-4" x="38.83" y="0">r</tspan><tspan class="cls-5" x="44.3" y="0">a</tspan><tspan class="cls-6" x="52.43" y="0">t</tspan><tspan x="57.95" y="0">o</tspan><tspan class="cls-7" x="67.29" y="0">r</tspan><tspan x="73.27" y="0">y of </tspan><tspan class="cls-8" x="102.78" y="0">I</tspan><tspan x="107.01" y="0">n</tspan><tspan class="cls-9" x="116.45" y="0">f</tspan><tspan x="121.19" y="0">o</tspan><tspan class="cls-10" x="130.52" y="0">r</tspan><tspan x="136.15" y="0">m</tspan><tspan class="cls-5" x="150.33" y="0">a</tspan><tspan x="158.46" y="0">tic</tspan><tspan class="cls-11" x="175.68" y="0">s</tspan><tspan class="cls-12" x="182.22" y="0">, Neu</tspan><tspan class="cls-13" x="218.41" y="0">r</tspan><tspan class="cls-14" x="223.8" y="0">oima</tspan><tspan class="cls-6" x="259.48" y="0">g</tspan><tspan class="cls-14" x="268.89" y="0">in</tspan><tspan class="cls-15" x="282.3" y="0">g</tspan><tspan x="291.55" y="0">, &amp; D</tspan><tspan class="cls-5" x="323.88" y="0">a</tspan><tspan x="332.01" y="0">ta </tspan><tspan class="cls-16" x="349.43" y="0">S</tspan><tspan class="cls-12" x="357.91" y="0">cien</tspan><tspan class="cls-17" x="387.46" y="0">c</tspan><tspan class="cls-14" x="394.97" y="0">e </tspan><tspan class="cls-13" x="407.09" y="0">A</tspan><tspan x="417.33" y="0">t</tspan><tspan class="cls-18" x="422.95" y="0"> </tspan><tspan class="cls-19" x="425.78" y="0">Y</tspan><tspan class="cls-20" x="433.78" y="0">ale</tspan></text><path class="cls-21" d="M222.84,346l-.53-.3v0l-.15-.22a.47.47,0,0,1,.06-.09"/><line class="cls-22" x1="222.31" y1="345.69" x2="216.46" y2="355.76"/><path class="cls-23" d="M214.29,287.56c3.29-4.89-15.39,28.31,4.28,41.34,27,17.92-4.53,10.61,8.65,15.52"/><path class="cls-23" d="M215.29,284.06s26.57,17.49,18.6,49.11,5.36,2.41-2.74,14.6"/><line class="cls-24" x1="374.14" y1="234.65" x2="418.1" y2="234.65"/><polyline class="cls-25" points="370.28 195.76 426.54 159.13 418.1 125.41"/><polyline class="cls-1" points="130.91 158.13 130.91 224.29 167.92 224.29"/><polyline class="cls-1" points="357.78 139.76 426.54 159.13 418.1 234.65 357.78 139.76 418.1 125.41 359.78 57.21"/><polygon class="cls-1" points="62.71 159.13 92.63 238.65 48.35 218.98 62.71 159.13"/><polyline class="cls-1" points="62.71 159.13 19.97 186.26 48.35 218.98"/><polyline class="cls-1" points="122.55 46.52 183.28 104.29 183.28 18.8 305.17 46.52 278.22 79.24 233.15 139.76 202.63 253.01"/><path class="cls-1" d="M418.1,125.41c-8.45-33.72-25.34-56.6-72.68-93.25s-45.58-19.1-74.86-27.72"/><polyline class="cls-1" points="167.92 224.29 202.63 253.01 280.14 243.24 289.48 154.13 318.16 238.65 374.14 234.65 370.28 195.76 357.78 139.76 359.78 57.21 315.99 85.93 305.17 46.52 329.78 46.52"/><line class="cls-1" x1="62.71" y1="159.12" x2="122.55" y2="46.52"/><polygon class="cls-1" points="122.55 46.52 130.91 158.13 183.28 104.29 193.63 200.62 233.15 139.76 289.48 154.13 278.22 79.24 226.32 57.21 197.63 79.24 202.63 42.85 183.28 18.8 122.55 46.52"/><circle class="cls-26" cx="183.28" cy="104.29" r="14.36"/><circle class="cls-26" cx="289.48" cy="154.12" r="14.36"/><circle class="cls-26" cx="280.14" cy="243.24" r="14.36"/><circle class="cls-26" cx="233.15" cy="139.77" r="14.36"/><circle class="cls-26" cx="278.22" cy="79.24" r="14.36"/><circle class="cls-26" cx="315.99" cy="85.93" r="14.36"/><circle class="cls-26" cx="357.78" cy="139.77" r="14.36"/><circle class="cls-26" cx="359.78" cy="57.21" r="14.36"/><circle class="cls-26" cx="374.14" cy="234.65" r="14.36"/><circle class="cls-26" cx="226.32" cy="57.21" r="14.36"/><circle class="cls-26" cx="318.16" cy="238.65" r="14.36"/><path class="cls-26" d="M77.07,159.12a14.36,14.36,0,1,1-14.36-14.35A14.35,14.35,0,0,1,77.07,159.12Z"/><circle class="cls-26" cx="122.55" cy="46.52" r="14.36"/><circle class="cls-26" cx="193.63" cy="200.62" r="14.36"/><circle class="cls-26" cx="167.92" cy="224.29" r="14.36"/><circle class="cls-26" cx="130.9" cy="158.12" r="14.36"/><circle class="cls-26" cx="206.63" cy="253.01" r="14.36"/><circle class="cls-26" cx="197.63" cy="79.24" r="9.5"/><path class="cls-26" d="M183.28,4.44A14.36,14.36,0,1,1,168.92,18.8,14.35,14.35,0,0,1,183.28,4.44"/><circle class="cls-26" cx="370.28" cy="195.76" r="9.5"/><circle class="cls-26" cx="305.17" cy="46.52" r="9.5"/><circle class="cls-26" cx="202.63" cy="42.85" r="9.5"/><circle class="cls-26" cx="329.78" cy="46.52" r="9.5"/><path class="cls-27" d="M286.59,299.29s-6.53,12.81-27.14,10.41h0l10.15-12.44"/><path class="cls-21" d="M211.14,349.48a330.23,330.23,0,0,1,21.17-25.89c6.18-6.71,12.72-13,18.88-17.29,2.93-1.7,6.42-3.55,10.23-5.28h0c2.41-1.1,5-2.14,7.56-3"/><path class="cls-21" d="M269.54,296.46l-13,15.39h0S234.37,360,210.89,349.11"/><path class="cls-23" d="M211.14,349.48c-1.06-2.87-3.34-34.11,29.44-36.63l-8.27,10.74-20.42,26.52"/><path class="cls-22" d="M375.5,279s-2.24-17.53-22.68-16.75-.95-2.39-9.34,0"/><path class="cls-28" d="M377.92,280s-23.9,9.89-33.05-9.49-3.58.75-4.67-8.6"/><polygon class="cls-29" points="317.68 261.44 287.12 262.46 312.66 309.68 317.68 261.44"/><polygon class="cls-29" points="337.19 288.83 316.68 314.31 364.24 316.34 337.19 288.83"/><polygon class="cls-29" points="332.8 273.22 324.38 265.44 320.4 291.82 332.8 273.22"/><path d="M337.43,259.16s0,0,0,0a31.67,31.67,0,0,1-3.78-3.08,29.69,29.69,0,0,1-3.73-4.31c-.59-.88-.89-1.71-.72-1.81s.72.56,1.3,1.42a35.1,35.1,0,0,0,3.4,4.46A31.15,31.15,0,0,0,337.43,259.16Z"/><path class="cls-30" d="M337.33,259.08c.08.07.08.07,0,0s-.3-.24-.81-.69a26.5,26.5,0,0,1-2.07-1.95c-.41-.42-.84-.9-1.29-1.42s-.89-1.09-1.35-1.69c-.22-.31-.45-.61-.67-.94l-.33-.49-.08-.12-.06-.09-.1-.16-.11-.16-.1-.13-.08-.1,0,0v0l0,0-.28-.31-.1-.09-.09,0a.13.13,0,0,0-.11,0c-.05,0-.07.09-.05.21a1.67,1.67,0,0,0,.06.24l.06.15.07.17.1.2,0,.06,0,0v0h0v0l.05.08,0,0,0,0,0,0h0l0,0,.06.09.28.36c.18.24.36.48.54.7.36.44.7.83,1,1.17.61.67,1.07,1.14,1.31,1.38,1,.94,1.93,1.78,2.7,2.4l1,.76.32.24.06.05h0l0,0h0l0,0,.05,0v0h0l-.15-.09-.7-.46a28.17,28.17,0,0,1-2.55-2.07c-.25-.24-.76-.7-1.43-1.4-.33-.35-.7-.76-1.1-1.23-.21-.23-.41-.48-.63-.75l-.33-.43-.09-.12-.14-.17-.15-.2-.14-.21-.15-.21-.14-.22-.27-.42-.06-.1-.06-.1,0-.05,0-.05-.06-.09-.09-.17,0-.08,0-.08,0-.08,0-.07,0,0v0l0,0,0-.08,0-.08-.09-.24-.05-.18,0-.14a.34.34,0,0,1,0-.17c0-.08.09-.09.18,0l.18.14.12.12.13.15.4.49,0,0,0,.06.05.06,0,.07.21.29c.11.15.19.28.24.35l.06.09.07.1,0,0v0l0,0,.07.1.12.19.06.09.06.09.12.17.09.13.34.5c.21.3.44.61.66.91.44.59.88,1.13,1.3,1.63s.84,1,1.24,1.35c.78.82,1.47,1.44,2,1.87S337.33,259.08,337.33,259.08Z"/></g></g></svg>