<svg xmlns="http://www.w3.org/2000/svg" viewBox="0 0 163.56 201.3"><defs><style>.cls-1,.cls-2{fill:none;}.cls-1,.cls-2,.cls-4,.cls-5,.cls-6{stroke:#231f20;}.cls-1,.cls-2,.cls-3,.cls-4,.cls-5,.cls-6{stroke-miterlimit:10;}.cls-2{stroke-width:2px;}.cls-3{fill:#ed1c24;stroke:#ed1c24;}.cls-4{fill:#369;}.cls-5{fill:#00a5e1;}.cls-6{fill:#fff;}.cls-7{fill:#3378b8;}</style></defs><title>lemon_blue</title><g id="Layer_2" data-name="Layer 2"><g id="Layer_1-2" data-name="Layer 1"><path class="cls-1" d="M81.78,1h0c44.63,0,80.78,34.1,80.78,76.2v47.4c0,42.1-36.15,76.2-80.78,76.2h0C37.15,200.8,1,166.7,1,124.6V77.2C1,35.1,37.15,1,81.78,1Z"/><path class="cls-2" d="M88.78,9.6c17.81-5.9,77,54.1,65.2,112.8-7.11,35.4-39.55,67.6-55.77,62.8-14.31-4.2-15-37-16.32-101.3C81,36.2,80.51,12.3,88.78,9.6Z"/><ellipse class="cls-2" cx="81.78" cy="100.3" rx="80.78" ry="99.3"/><polyline class="cls-1" points="162.56 167.8 148.46 167.8 141.36 167.8 135.63 167.8 130.87 167.8 108.71 167.8 86.98 167.8 81.78 167.8 76.69 167.8 74.47 167.8"/><polyline class="cls-1" points="162.56 134.5 161.93 134.5 157.69 134.5 150.69 134.5 135.63 134.5 108.71 134.5 83.37 134.5 81.78 134.5 80.19 134.5 78.07 134.5"/><polyline class="cls-1" points="162.56 101.3 155.35 101.3 135.63 101.3 108.71 101.3 82.31 101.3 81.78 101.3 81.25 101.3 79.24 101.3"/><polyline class="cls-1" points="162.56 68 161.93 68 158 68 147.09 68 135.63 68 108.71 68 81.99 68 81.78 68 81.67 68 79.87 68"/><polyline class="cls-1" points="162.56 34.7 148.46 34.7 142.1 34.7 135.63 34.7 126.73 34.7 108.71 34.7 81.89 34.7 81.78 34.7 81.67 34.7 80.08 34.7"/><line class="cls-1" x1="135.64" y1="1.4" x2="135.64" y2="201.1"/><line class="cls-1" x1="108.71" y1="1.4" x2="108.71" y2="201.1"/><ellipse class="cls-3" cx="122.91" cy="148.9" rx="3.6" ry="3.4"/><ellipse class="cls-3" cx="122.91" cy="118.4" rx="3.6" ry="3.4"/><ellipse class="cls-3" cx="95.46" cy="118" rx="3.6" ry="3.4"/><ellipse class="cls-3" cx="122.91" cy="52.6" rx="3.6" ry="3.4"/><ellipse class="cls-3" cx="122.91" cy="86" rx="3.6" ry="3.4"/><ellipse class="cls-3" cx="95.46" cy="149.9" rx="3.6" ry="3.4"/><ellipse class="cls-3" cx="95.88" cy="52.6" rx="3.6" ry="3.4"/><ellipse class="cls-3" cx="95.88" cy="86" rx="3.6" ry="3.4"/><ellipse class="cls-3" cx="145.18" cy="118.4" rx="3.6" ry="3.4"/><path class="cls-4" d="M59.93,183.81C22.1,173-1.9,125.61,6.32,78,13.74,35.09,44.8,6.64,78.56,9.38l.36,176.55A56.29,56.29,0,0,1,59.93,183.81Z"/><path class="cls-5" d="M58.86,180.15C23.48,170,1.17,125,9,79.56c7.08-40.94,36.24-68.23,67.84-65.79l-.22,168.3A51.78,51.78,0,0,1,58.86,180.15Z"/><path class="cls-4" d="M45.88,57c-10-18.55-10.8-25.69,11.7-35.11S76.32,42.14,76.32,42.14L71.86,84.43l-.84,7S55.89,75.57,45.88,57Z"/><path class="cls-4" d="M33.54,97.12c-17.17-3-21.77-7-12.4-34.52S45,58.44,45,58.44L66.25,90.9l3.42,5.45S50.71,100.07,33.54,97.12Z"/><path class="cls-4" d="M75.36,151.51c1.15,22.54-1,29.18-24.08,22.33s-8-29.77-8-29.77l20.74-33.29,3.5-5.41S74.21,129,75.36,151.51Z"/><path class="cls-4" d="M43.69,134.68C31,148.6,26,150.13,18.63,122.71S32.26,97.76,32.26,97.76l29.87,2.37,4.92.54S56.41,120.77,43.69,134.68Z"/><path class="cls-6" d="M69.33,83.86s2.29-6.44-1.86-6S69.33,83.86,69.33,83.86Z"/><path class="cls-6" d="M66.8,110.62s-6.44,5.83-3.59,12.68S66.8,110.62,66.8,110.62Z"/><path class="cls-6" d="M60.49,105.91s-5.09-2.71-4.63,2.62S60.49,105.91,60.49,105.91Z"/><path class="cls-6" d="M63.58,92.36s-4-4.79-5,.42S63.58,92.36,63.58,92.36Z"/><path class="cls-7" d="M67.42,61.85l1.27-21.3s-3.91-11.72-7.94-5.34-7.83,2.43-.36,10.85S54.53,60.58,61,61.21s2.41,4.07,5.47,7.3S67.42,61.85,67.42,61.85Z"/><path class="cls-7" d="M64,128.43s4.8,11.12,0,17.27-1.94,18.55-5.13,12.05-11.48-.93-3.18-6.49"/><path class="cls-7" d="M55,84.06a13.84,13.84,0,0,0-9-11.9C37.41,69,39.43,54.9,32.91,62.33s-13.16,8.11-2.81,9.28,9-2.83,11.73,6.89S55,84.06,55,84.06Z"/><path class="cls-7" d="M53.15,110.39s3.06-7.41-8.92-4.06-19.57,5.83-11,7.43,10.14-2.14,8.39,4.26-7.46,9.4,5.14-.07S53.15,110.39,53.15,110.39Z"/></g></g></svg>