<svg xmlns="http://www.w3.org/2000/svg" viewBox="0 0 163.56 202.1"><defs><style>.cls-1,.cls-2{fill:none;}.cls-1,.cls-2,.cls-4,.cls-5,.cls-7{stroke:#231f20;}.cls-1,.cls-2,.cls-3,.cls-4,.cls-5,.cls-7{stroke-miterlimit:10;}.cls-2{stroke-width:2px;}.cls-3{fill:#ed1c24;stroke:#ed1c24;}.cls-4,.cls-6{fill:#369;}.cls-5{fill:#00a5e1;}.cls-7{fill:#fff;}.cls-8{fill:#3378b8;}</style></defs><title>lemon_blue_brain</title><g id="Layer_2" data-name="Layer 2"><g id="Layer_1-2" data-name="Layer 1"><path class="cls-1" d="M81.78,1h0c44.63,0,80.78,34.1,80.78,76.2v47.4c0,42.1-36.15,76.2-80.78,76.2h0C37.15,200.8,1,166.7,1,124.6V77.2C1,35.1,37.15,1,81.78,1Z"/><path class="cls-2" d="M89.94,8.75c18.21-5.92,78.67,54.36,66.65,113.35-7.27,35.57-40.42,67.92-57,63.1C85,181,84.2,148,82.9,83.41,82,35.48,81.49,11.47,89.94,8.75Z"/><ellipse class="cls-2" cx="81.78" cy="100.3" rx="80.78" ry="99.3"/><polyline class="cls-1" points="163.56 168.8 149.46 168.8 142.36 168.8 136.63 168.8 131.87 168.8 109.71 168.8 87.98 168.8 82.78 168.8 77.69 168.8 75.47 168.8"/><polyline class="cls-1" points="163.56 135.5 162.93 135.5 158.69 135.5 151.69 135.5 136.63 135.5 109.71 135.5 84.37 135.5 82.78 135.5 81.19 135.5 79.07 135.5"/><polyline class="cls-1" points="163.56 102.3 156.35 102.3 136.63 102.3 109.71 102.3 83.31 102.3 82.78 102.3 82.25 102.3 80.24 102.3"/><polyline class="cls-1" points="163.56 69 162.93 69 159 69 148.09 69 136.63 69 109.71 69 82.99 69 82.78 69 82.67 69 80.87 69"/><polyline class="cls-1" points="163.56 35.7 149.46 35.7 143.1 35.7 136.63 35.7 127.73 35.7 109.71 35.7 82.89 35.7 82.78 35.7 82.67 35.7 81.08 35.7"/><line class="cls-1" x1="136.64" y1="2.4" x2="136.64" y2="202.1"/><line class="cls-1" x1="109.71" y1="2.4" x2="109.71" y2="202.1"/><ellipse class="cls-3" cx="123.91" cy="149.9" rx="3.6" ry="3.4"/><ellipse class="cls-3" cx="123.91" cy="119.4" rx="3.6" ry="3.4"/><ellipse class="cls-3" cx="96.46" cy="119" rx="3.6" ry="3.4"/><ellipse class="cls-3" cx="123.91" cy="53.6" rx="3.6" ry="3.4"/><ellipse class="cls-3" cx="123.91" cy="87" rx="3.6" ry="3.4"/><ellipse class="cls-3" cx="96.46" cy="150.9" rx="3.6" ry="3.4"/><ellipse class="cls-3" cx="96.88" cy="53.6" rx="3.6" ry="3.4"/><ellipse class="cls-3" cx="96.88" cy="87" rx="3.6" ry="3.4"/><ellipse class="cls-3" cx="146.18" cy="119.4" rx="3.6" ry="3.4"/><path class="cls-4" d="M60.93,184.81C23.1,174-.9,126.61,7.32,79,14.74,36.09,45.8,7.64,79.56,10.38l.36,176.55A56.29,56.29,0,0,1,60.93,184.81Z"/><path class="cls-5" d="M59.86,181.15C24.48,171,2.17,126,10,80.56c7.08-40.94,36.24-68.23,67.84-65.79l-.22,168.3A51.78,51.78,0,0,1,59.86,181.15Z"/><path class="cls-6" d="M46.88,58c-10-18.55-10.8-25.69,11.7-35.11S77.32,43.14,77.32,43.14L72.86,85.43l-.84,7S56.89,76.57,46.88,58Z"/><path class="cls-6" d="M34.54,98.12c-17.17-3-21.77-7-12.4-34.52S46,59.44,46,59.44L67.25,91.9l3.42,5.45S51.71,101.07,34.54,98.12Z"/><path class="cls-6" d="M76.36,152.51c1.15,22.54-1,29.18-24.08,22.33s-8-29.77-8-29.77l20.74-33.29,3.5-5.41S75.21,130,76.36,152.51Z"/><path class="cls-6" d="M44.69,135.68C32,149.6,27,151.13,19.63,123.71S33.26,98.76,33.26,98.76l29.87,2.37,4.92.54S57.41,121.77,44.69,135.68Z"/><path class="cls-7" d="M70.33,84.86s2.29-6.44-1.86-6S70.33,84.86,70.33,84.86Z"/><path class="cls-7" d="M67.8,111.62s-6.44,5.83-3.59,12.68S67.8,111.62,67.8,111.62Z"/><path class="cls-7" d="M61.49,106.91s-5.09-2.71-4.63,2.62S61.49,106.91,61.49,106.91Z"/><path class="cls-7" d="M64.58,93.36s-4-4.79-5,.42S64.58,93.36,64.58,93.36Z"/><path class="cls-8" d="M68.42,62.85l1.27-21.3s-3.91-11.72-7.94-5.34-7.83,2.43-.36,10.85S55.53,61.58,62,62.21s2.41,4.07,5.47,7.3S68.42,62.85,68.42,62.85Z"/><path class="cls-8" d="M65,129.43s4.8,11.12,0,17.27-1.94,18.55-5.13,12.05-11.48-.93-3.18-6.49"/><path class="cls-8" d="M56,85.06a13.84,13.84,0,0,0-9-11.9C38.41,70,40.43,55.9,33.91,63.33s-13.16,8.11-2.81,9.28,9-2.83,11.73,6.89S56,85.06,56,85.06Z"/><path class="cls-8" d="M54.15,111.39s3.06-7.41-8.92-4.06-19.57,5.83-11,7.43,10.14-2.14,8.39,4.26-7.46,9.4,5.14-.07S54.15,111.39,54.15,111.39Z"/></g></g></svg>