<svg xmlns="http://www.w3.org/2000/svg" viewBox="0 0 454.51 391.47"><defs><style>.cls-1{fill:#00356b;}.cls-2,.cls-22,.cls-23,.cls-27,.cls-28{fill:none;}.cls-2,.cls-22,.cls-23,.cls-27,.cls-3{stroke:#000;}.cls-2,.cls-22,.cls-23,.cls-24,.cls-25,.cls-26,.cls-27,.cls-28,.cls-29,.cls-3,.cls-30,.cls-32{stroke-miterlimit:10;}.cls-2,.cls-22,.cls-23,.cls-24,.cls-25,.cls-26,.cls-29,.cls-30{stroke-width:2px;}.cls-2{opacity:0.67;}.cls-3{font-size:74px;}.cls-3,.cls-4{fill:#303030;font-family:MyriadPro-Regular, Myriad Pro;}.cls-4{opacity:0.61;font-size:17px;}.cls-5{letter-spacing:0em;}.cls-6{letter-spacing:0em;}.cls-7{letter-spacing:-0.01em;}.cls-8{letter-spacing:0.02em;}.cls-9{letter-spacing:0.01em;}.cls-10{letter-spacing:-0.01em;}.cls-11{letter-spacing:0em;}.cls-12{letter-spacing:-0.01em;}.cls-13{letter-spacing:0em;}.cls-14{letter-spacing:-0.01em;}.cls-15{letter-spacing:0em;}.cls-16{letter-spacing:-0.01em;}.cls-17{letter-spacing:0.01em;}.cls-18{letter-spacing:-0.01em;}.cls-19{letter-spacing:-0.05em;}.cls-20{letter-spacing:-0.07em;}.cls-21{letter-spacing:0em;}.cls-23{opacity:0.73;}.cls-24{fill:#e90013;}.cls-24,.cls-25,.cls-26,.cls-29,.cls-30,.cls-32{stroke:#fff;}.cls-25,.cls-32{fill:#7ec67e;}.cls-26{fill:#7ec62b;}.cls-28{stroke:#7b7b7b;stroke-width:0px;}.cls-29{fill:#ffcb5f;}.cls-30{fill:#ffb235;}.cls-31{fill:#66b449;}.cls-32{stroke-width:0.5px;}</style></defs><title>lindsay2</title><g id="Layer_2" data-name="Layer 2"><g id="Layer_1-2" data-name="Layer 1"><path class="cls-1" d="M195.69,294.39v-3.52h34.76v3.52l-16.14,1.32h-2.48ZM229.83,330l-27.19-39.16h12.91l22.6,34.67H233.8L257,290.87h6.33L236.66,330Zm4.72,15,17.38,1.32v3.52H214.68v-3.52L232.07,345Zm-6.83-21.56h11.17c0,10,0,18.56.38,26.4H227.35C227.72,342.17,227.72,333.55,227.72,323.43Zm28.68-27.72-13.78-1.32v-3.52h28.55v3.52l-12.41,1.32Z"/><path class="cls-2" d="M276.23,4.44C247-4.18,189,4.44,159.23,18.8S113.86,46.52,98.3,46.52,75.76,77.26,68.38,85.93s-31.47,21.74-41.61,73.19,50.68,83.7,71.53,79.53,38.28-14.36,38.28-14.36l-68.2-65.17,68.2-1,62.73,42.5-25.72,23.67,112.22,19-47-103.47L203.31,79.24h80.58l79.56,60.53-68.29,14.35L376,195.76l-52.12,42.89"/><text class="cls-3" transform="translate(3.63 349.41)">Lindsa</text><text class="cls-4" transform="translate(0 382.44)"><tspan xml:space="preserve"> Labo</tspan><tspan class="cls-5" x="38.83" y="0">r</tspan><tspan class="cls-6" x="44.3" y="0">a</tspan><tspan class="cls-7" x="52.43" y="0">t</tspan><tspan x="57.95" y="0">o</tspan><tspan class="cls-8" x="67.29" y="0">r</tspan><tspan x="73.27" y="0">y of </tspan><tspan class="cls-9" x="102.78" y="0">I</tspan><tspan x="107.01" y="0">n</tspan><tspan class="cls-10" x="116.45" y="0">f</tspan><tspan x="121.19" y="0">o</tspan><tspan class="cls-11" x="130.52" y="0">r</tspan><tspan x="136.15" y="0">m</tspan><tspan class="cls-6" x="150.33" y="0">a</tspan><tspan x="158.46" y="0">tic</tspan><tspan class="cls-12" x="175.68" y="0">s</tspan><tspan class="cls-13" x="182.22" y="0">, Neu</tspan><tspan class="cls-14" x="218.41" y="0">r</tspan><tspan class="cls-15" x="223.8" y="0">oima</tspan><tspan class="cls-7" x="259.48" y="0">g</tspan><tspan class="cls-15" x="268.89" y="0">in</tspan><tspan class="cls-16" x="282.3" y="0">g</tspan><tspan x="291.55" y="0">, &amp; D</tspan><tspan class="cls-6" x="323.88" y="0">a</tspan><tspan x="332.01" y="0">ta </tspan><tspan class="cls-17" x="349.43" y="0">S</tspan><tspan class="cls-13" x="357.91" y="0">cien</tspan><tspan class="cls-18" x="387.46" y="0">c</tspan><tspan class="cls-15" x="394.97" y="0">e </tspan><tspan class="cls-14" x="407.09" y="0">A</tspan><tspan x="417.33" y="0">t</tspan><tspan class="cls-19" x="422.95" y="0"> </tspan><tspan class="cls-20" x="425.78" y="0">Y</tspan><tspan class="cls-21" x="433.78" y="0">ale</tspan></text><line class="cls-22" x1="379.81" y1="234.65" x2="423.77" y2="234.65"/><polyline class="cls-23" points="375.95 195.76 432.22 159.13 423.77 125.41"/><polyline class="cls-2" points="136.58 158.13 136.58 224.29 173.59 224.29"/><polyline class="cls-2" points="363.45 139.76 432.22 159.13 423.77 234.65 363.45 139.76 423.77 125.41 365.45 57.21"/><polygon class="cls-2" points="68.38 159.13 98.3 238.65 54.02 218.98 68.38 159.13"/><polyline class="cls-2" points="68.38 159.13 25.64 186.26 54.02 218.98"/><polyline class="cls-2" points="128.22 46.52 188.95 104.29 188.95 18.8 310.85 46.52 283.89 79.24 238.82 139.76 208.31 253.01"/><path class="cls-2" d="M423.77,125.41c-8.45-33.72-25.34-56.6-72.68-93.25s-45.57-19.1-74.86-27.72"/><polyline class="cls-2" points="173.59 224.29 208.31 253.01 285.81 243.24 295.16 154.13 323.83 238.65 379.81 234.65 375.95 195.76 363.45 139.76 365.45 57.21 321.66 85.93 310.85 46.52 335.45 46.52"/><line class="cls-2" x1="68.38" y1="159.12" x2="128.22" y2="46.52"/><polygon class="cls-2" points="128.22 46.52 136.58 158.13 188.95 104.29 199.31 200.62 238.82 139.76 295.16 154.13 283.89 79.24 231.99 57.21 203.31 79.24 208.31 42.85 188.95 18.8 128.22 46.52"/><circle class="cls-24" cx="188.95" cy="104.29" r="14.36"/><circle class="cls-24" cx="295.16" cy="154.12" r="14.36"/><circle class="cls-24" cx="285.81" cy="243.24" r="14.36"/><circle class="cls-24" cx="238.82" cy="139.77" r="14.36"/><circle class="cls-24" cx="283.89" cy="79.24" r="14.36"/><circle class="cls-24" cx="321.66" cy="85.93" r="14.36"/><circle class="cls-24" cx="363.45" cy="139.77" r="14.36"/><circle class="cls-24" cx="365.45" cy="57.21" r="14.36"/><circle class="cls-24" cx="379.81" cy="234.65" r="14.36"/><circle class="cls-24" cx="231.99" cy="57.21" r="14.36"/><circle class="cls-24" cx="323.83" cy="238.65" r="14.36"/><path class="cls-24" d="M82.74,159.12a14.36,14.36,0,1,1-14.36-14.35A14.35,14.35,0,0,1,82.74,159.12Z"/><circle class="cls-24" cx="128.22" cy="46.52" r="14.36"/><circle class="cls-24" cx="199.31" cy="200.62" r="14.36"/><circle class="cls-24" cx="173.59" cy="224.29" r="14.36"/><circle class="cls-24" cx="136.58" cy="158.12" r="14.36"/><circle class="cls-24" cx="212.31" cy="253.01" r="14.36"/><circle class="cls-24" cx="203.31" cy="79.24" r="9.5"/><path class="cls-24" d="M189,4.44A14.36,14.36,0,1,1,174.59,18.8,14.36,14.36,0,0,1,189,4.44"/><circle class="cls-24" cx="375.95" cy="195.76" r="9.5"/><circle class="cls-24" cx="310.85" cy="46.52" r="9.5"/><circle class="cls-24" cx="208.31" cy="42.85" r="9.5"/><circle class="cls-24" cx="335.46" cy="46.52" r="9.5"/><path class="cls-25" d="M381.17,279s-2.23-17.53-22.68-16.75-.95-2.39-9.34,0"/><path class="cls-26" d="M383.59,280s-23.9,9.89-33-9.49-3.58.75-4.68-8.6"/><polygon class="cls-27" points="323.35 265.44 292.79 266.46 318.33 313.68 323.35 265.44"/><polygon class="cls-27" points="342.86 288.83 322.35 314.31 369.91 316.34 342.86 288.83"/><polygon class="cls-27" points="338.47 273.22 330.05 265.44 326.08 291.82 338.47 273.22"/><path d="M343.1,259.16s0,0,0,0a31.67,31.67,0,0,1-3.78-3.08,29.4,29.4,0,0,1-3.72-4.31c-.6-.88-.9-1.71-.73-1.8s.73.55,1.31,1.41a33.71,33.71,0,0,0,3.39,4.46A32.14,32.14,0,0,0,343.1,259.16Z"/><path class="cls-28" d="M343,259.08c.08.07.08.07,0,0s-.31-.24-.82-.69a26.68,26.68,0,0,1-2.06-1.95c-.41-.42-.85-.9-1.29-1.42s-.9-1.09-1.35-1.69c-.22-.31-.46-.61-.67-.94l-.34-.49-.08-.12-.05-.09-.11-.16-.11-.16-.1-.13-.07-.1,0,0,0,0,0,0a2.32,2.32,0,0,0-.28-.31l-.1-.09-.08,0c-.05,0-.08,0-.11,0s-.07.09-.05.21a1.67,1.67,0,0,0,.06.24l.05.15.08.17.09.2,0,.06,0,0,0,0h0v0l.06.08,0,0,0,0,0,0h0v0l.07.09.27.36c.19.24.36.48.55.7.35.44.69.83,1,1.17.61.67,1.08,1.14,1.32,1.38.95.94,1.92,1.78,2.69,2.4l1,.76.31.24.06.05h0l0,0h0l0,0,0,0,0,0h0l-.14-.09c-.14-.09-.39-.24-.7-.46a28.06,28.06,0,0,1-2.56-2.07c-.25-.24-.76-.7-1.42-1.4q-.51-.53-1.11-1.23c-.2-.23-.41-.48-.62-.75l-.34-.43-.09-.12-.13-.17-.15-.2-.15-.21-.15-.21-.14-.22-.27-.42-.06-.1-.05-.1,0-.05,0-.05-.05-.09-.09-.17-.05-.08,0-.08,0-.07,0-.08,0,0v0l0,0,0-.08,0-.08-.09-.24-.06-.18,0-.14a.46.46,0,0,1,0-.17c0-.08.08-.09.18,0a1.53,1.53,0,0,1,.17.14l.12.12.14.15c.1.12.22.26.39.49l0,0,.05.06,0,.06.05.07.21.29.24.35.06.09.06.1,0,0,0,0,0,0,.06.1.13.19.06.09.06.09.11.17.09.13.34.5c.22.3.44.61.67.91.43.59.88,1.13,1.3,1.63s.84,1,1.23,1.35c.78.82,1.47,1.44,2,1.87S343,259.08,343,259.08Z"/><path class="cls-29" d="M230.28,278.12s-10.92,16.8,7.82,29.65-3.13,7.61,6,11.13"/><path class="cls-30" d="M228.9,275.61s25.34,12.55,19.82,35.23,3.72,1.72-1.89,10.47"/><path class="cls-31" d="M294.88,284.15s-4.53,9.19-18.81,7.47h0l7-8.92"/><path class="cls-32" d="M241.89,319.65a235.9,235.9,0,0,1,14.68-18.57,87.86,87.86,0,0,1,13.08-12.41c2-1.21,4.45-2.54,7.09-3.78h0c1.67-.79,3.43-1.53,5.24-2.18"/><path class="cls-32" d="M283.06,282.34l-9,11h0s-15.4,34.52-31.67,26.72"/><path class="cls-25" d="M241.89,319.65c-.88-2.49-7.7-24,20.41-26.28l-5.74,7.71-14.15,19"/></g></g></svg>