<svg xmlns="http://www.w3.org/2000/svg" viewBox="0 0 429.23 389.47"><defs><style>.cls-1,.cls-15,.cls-16,.cls-20,.cls-21{fill:none;}.cls-1,.cls-15,.cls-16,.cls-2,.cls-20{stroke:#000;}.cls-1,.cls-15,.cls-16,.cls-17,.cls-18,.cls-19,.cls-2,.cls-20,.cls-21,.cls-22,.cls-23{stroke-miterlimit:10;}.cls-1,.cls-15,.cls-16,.cls-17,.cls-18,.cls-19,.cls-22,.cls-23{stroke-width:2px;}.cls-1{opacity:0.67;}.cls-2{font-size:74px;font-family:AdobeArabic-Regular, Adobe Arabic;letter-spacing:-0.02em;}.cls-2,.cls-6{fill:#303030;}.cls-3{font-size:52px;letter-spacing:0.01em;}.cls-4{letter-spacing:0.11em;}.cls-5{letter-spacing:0.1em;}.cls-6{opacity:0.61;font-size:17px;font-family:MyriadPro-Regular, Myriad Pro;letter-spacing:0.02em;}.cls-7{letter-spacing:0.01em;}.cls-8{letter-spacing:0.02em;}.cls-9{letter-spacing:0.02em;}.cls-10{letter-spacing:0.02em;}.cls-11{letter-spacing:0.01em;}.cls-12{letter-spacing:0.01em;}.cls-13{letter-spacing:0.01em;}.cls-14{letter-spacing:0.01em;}.cls-16{opacity:0.73;}.cls-17{fill:#e90013;}.cls-17,.cls-18,.cls-19,.cls-22{stroke:#fff;}.cls-18{fill:#7ec67e;}.cls-19{fill:#7ec62b;}.cls-21{stroke:#7b7b7b;stroke-width:0px;}.cls-22{fill:#ffe09f;}.cls-23{fill:#ffc629;stroke:#ffc629;}</style></defs><title>minds1</title><g id="Layer_2" data-name="Layer 2"><g id="Layer_1-2" data-name="Layer 1"><path class="cls-1" d="M272.1,4.44c-29.28-8.62-87.28,0-117,14.36S109.73,46.52,94.17,46.52,71.63,77.26,64.25,85.93s-31.48,21.74-41.61,73.19,50.68,83.7,71.53,79.53,38.28-14.36,38.28-14.36l-68.2-65.17,68.2-1,62.73,42.5-25.72,23.67,112.22,19-47-103.47L199.18,79.24h80.58l79.56,60.53L291,154.12l80.79,41.64L319.7,238.65"/><text class="cls-2" transform="translate(0.5 332.45)">M <tspan class="cls-3" x="59.87" y="0">I</tspan><tspan class="cls-4" x="73.88" y="0">n</tspan><tspan class="cls-5" x="111.49" y="0">D</tspan><tspan class="cls-4" x="159.81" y="0">s</tspan></text><text class="cls-6" transform="translate(1.87 360.44)">MRI in<tspan class="cls-7" x="45.93" y="0">f</tspan><tspan class="cls-8" x="51.02" y="0">o</tspan><tspan class="cls-9" x="60.69" y="0">r</tspan><tspan x="66.66" y="0">m</tspan><tspan class="cls-10" x="81.17" y="0">a</tspan><tspan x="89.64" y="0">tic</tspan><tspan class="cls-11" x="107.88" y="0">s</tspan><tspan class="cls-8" x="114.77" y="0">, neu</tspan><tspan class="cls-12" x="150.91" y="0">r</tspan><tspan x="156.64" y="0">oima</tspan><tspan class="cls-13" x="193.68" y="0">g</tspan><tspan x="203.42" y="0">ing &amp; D</tspan><tspan class="cls-10" x="257.53" y="0">a</tspan><tspan class="cls-8" x="266" y="0">ta scien</tspan><tspan class="cls-14" x="322.42" y="0">c</tspan><tspan x="330.27" y="0">e </tspan></text><line class="cls-15" x1="375.68" y1="234.65" x2="419.64" y2="234.65"/><polyline class="cls-16" points="371.82 195.76 428.08 159.13 419.64 125.41"/><polyline class="cls-1" points="132.45 158.13 132.45 224.29 169.46 224.29"/><polyline class="cls-1" points="359.32 139.76 428.08 159.13 419.64 234.65 359.32 139.76 419.64 125.41 361.32 57.21"/><polygon class="cls-1" points="64.25 159.13 94.17 238.65 49.89 218.98 64.25 159.13"/><polyline class="cls-1" points="64.25 159.13 21.51 186.26 49.89 218.98"/><polyline class="cls-1" points="124.09 46.52 184.82 104.29 184.82 18.8 306.71 46.52 279.76 79.24 234.69 139.76 204.18 253.01"/><path class="cls-1" d="M419.64,125.41C411.19,91.69,394.3,68.81,347,32.16S301.38,13.06,272.1,4.44"/><polyline class="cls-1" points="169.46 224.29 204.18 253.01 281.68 243.24 291.03 154.13 319.7 238.65 375.68 234.65 371.82 195.76 359.32 139.76 361.32 57.21 317.53 85.93 306.71 46.52 331.32 46.52"/><line class="cls-1" x1="64.25" y1="159.12" x2="124.09" y2="46.52"/><polygon class="cls-1" points="124.09 46.52 132.45 158.13 184.82 104.29 195.18 200.62 234.69 139.76 291.03 154.13 279.76 79.24 227.86 57.21 199.18 79.24 204.18 42.85 184.82 18.8 124.09 46.52"/><circle class="cls-17" cx="184.82" cy="104.29" r="14.36"/><circle class="cls-17" cx="291.03" cy="154.12" r="14.36"/><circle class="cls-17" cx="281.68" cy="243.24" r="14.36"/><circle class="cls-17" cx="234.69" cy="139.77" r="14.36"/><circle class="cls-17" cx="279.76" cy="79.24" r="14.36"/><circle class="cls-17" cx="317.53" cy="85.93" r="14.36"/><circle class="cls-17" cx="359.32" cy="139.77" r="14.36"/><circle class="cls-17" cx="361.32" cy="57.21" r="14.36"/><circle class="cls-17" cx="375.68" cy="234.65" r="14.36"/><circle class="cls-17" cx="227.86" cy="57.21" r="14.36"/><circle class="cls-17" cx="319.7" cy="238.65" r="14.36"/><path class="cls-17" d="M78.61,159.12a14.36,14.36,0,1,1-14.36-14.35A14.35,14.35,0,0,1,78.61,159.12Z"/><circle class="cls-17" cx="124.09" cy="46.52" r="14.36"/><circle class="cls-17" cx="195.18" cy="200.62" r="14.36"/><circle class="cls-17" cx="169.46" cy="224.29" r="14.36"/><circle class="cls-17" cx="132.45" cy="158.12" r="14.36"/><circle class="cls-17" cx="208.18" cy="253.01" r="14.36"/><circle class="cls-17" cx="199.18" cy="79.24" r="9.5"/><path class="cls-17" d="M184.82,4.44A14.36,14.36,0,1,1,170.46,18.8,14.36,14.36,0,0,1,184.82,4.44"/><circle class="cls-17" cx="371.82" cy="195.76" r="9.5"/><circle class="cls-17" cx="306.71" cy="46.52" r="9.5"/><circle class="cls-17" cx="204.18" cy="42.85" r="9.5"/><circle class="cls-17" cx="331.32" cy="46.52" r="9.5"/><path class="cls-18" d="M377,279s-2.24-17.53-22.68-16.75-.95-2.39-9.34,0"/><path class="cls-19" d="M379.46,280s-23.9,9.89-33-9.49-3.58.75-4.67-8.6"/><polygon class="cls-20" points="319.22 265.44 288.66 266.46 314.2 313.68 319.22 265.44"/><polygon class="cls-20" points="338.73 288.83 318.22 314.31 365.78 316.34 338.73 288.83"/><polygon class="cls-20" points="334.34 273.22 325.92 265.44 321.94 291.82 334.34 273.22"/><path d="M339,259.16s0,0,0,0a31.67,31.67,0,0,1-3.78-3.08,29.4,29.4,0,0,1-3.72-4.31c-.6-.88-.9-1.71-.73-1.8s.72.55,1.3,1.41a35.1,35.1,0,0,0,3.4,4.46A31.15,31.15,0,0,0,339,259.16Z"/><path class="cls-21" d="M338.87,259.08h0s-.31-.24-.82-.69a26.5,26.5,0,0,1-2.07-1.95c-.4-.42-.84-.9-1.28-1.42s-.9-1.09-1.35-1.69c-.22-.31-.46-.61-.68-.94l-.33-.49-.08-.12-.06-.09-.1-.16-.11-.16-.1-.13-.08-.1,0,0v0l0,0a3.31,3.31,0,0,0-.28-.31l-.1-.09-.08,0c-.05,0-.09,0-.11,0s-.08.09-.06.21a1.67,1.67,0,0,0,.06.24l.06.15.08.17.09.2,0,.06,0,0v0h0v0l.05.08,0,0,0,0,0,0h0l0,0,.07.09c.08.11.17.24.27.36s.36.48.54.7c.36.44.7.83,1,1.17.61.67,1.07,1.14,1.32,1.38.95.94,1.92,1.78,2.69,2.4l1,.76.31.24.06.05h0l0,0h0l0,0,0,0v0h0l-.14-.09c-.15-.09-.39-.24-.7-.46a26.43,26.43,0,0,1-2.56-2.07c-.25-.24-.76-.7-1.43-1.4-.33-.35-.7-.76-1.1-1.23l-.63-.75-.33-.43-.09-.12-.14-.17-.14-.2-.15-.21-.15-.21-.14-.22-.27-.42-.06-.1-.06-.1,0-.05,0-.05-.05-.09-.1-.17,0-.08,0-.08,0-.07,0-.08,0,0v0l0,0,0-.08,0-.08-.1-.24-.05-.18,0-.14c0-.08,0-.14,0-.17s.08-.09.17,0l.18.14.12.12.14.15c.09.12.22.26.39.49l0,0,0,.06,0,.06,0,.07.21.29c.11.15.19.28.24.35l.07.09.06.1,0,0v0l0,0,.06.1.12.19.06.09.06.09.12.17.09.13.34.5.66.91c.44.59.88,1.13,1.3,1.63s.85,1,1.24,1.35c.78.82,1.47,1.44,2,1.87S338.87,259.08,338.87,259.08Z"/><path class="cls-22" d="M66.19,290.27s-7.79-7.78-3.65-16,8.61-15.37,6-18,4.73,5.18,4.73,5.18,3.07,7.8.8,13.25S66.19,290.27,66.19,290.27Z"/><path class="cls-23" d="M60.57,275.17s-5.33-6.49-2.37-13.5,6.14-13.09,4.35-15.26,3.24,4.32,3.24,4.32,2,6.56.4,11.2S60.57,275.17,60.57,275.17Z"/></g></g></svg>