<svg xmlns="http://www.w3.org/2000/svg" viewBox="0 0 409.24 316.89"><defs><style>.cls-1,.cls-2,.cls-3,.cls-7,.cls-8{fill:none;}.cls-1,.cls-2,.cls-3,.cls-7{stroke:#000;}.cls-1,.cls-10,.cls-2,.cls-3,.cls-4,.cls-5,.cls-6,.cls-7,.cls-8,.cls-9{stroke-miterlimit:10;}.cls-1,.cls-10,.cls-2,.cls-3,.cls-4,.cls-5,.cls-6,.cls-9{stroke-width:2px;}.cls-1{opacity:0.67;}.cls-3{opacity:0.73;}.cls-4{fill:#e90013;}.cls-4,.cls-5,.cls-6,.cls-9{stroke:#fff;}.cls-5{fill:#7ec67e;}.cls-6{fill:#7ec62b;}.cls-8{stroke:#7b7b7b;stroke-width:0px;}.cls-9{fill:#ffe09f;}.cls-10{fill:#ffc629;stroke:#ffc629;}</style></defs><title>minds1_1</title><g id="Layer_2" data-name="Layer 2"><g id="Layer_1-2" data-name="Layer 1"><path class="cls-1" d="M252.11,4.44c-29.28-8.62-87.29,0-117,14.36S89.74,46.52,74.18,46.52,51.64,77.26,44.26,85.93,12.78,107.67,2.65,159.12s50.68,83.7,71.53,79.53a139.54,139.54,0,0,0,38.27-14.36L44.26,159.12l68.19-1,62.73,42.5-25.71,23.67,112.22,19-47-103.47L179.18,79.24h80.59l79.56,60.53L271,154.12l80.8,41.64-52.12,42.89"/><line class="cls-2" x1="355.69" y1="234.65" x2="399.65" y2="234.65"/><polyline class="cls-3" points="351.83 195.76 408.09 159.13 399.65 125.41"/><polyline class="cls-1" points="112.45 158.13 112.45 224.29 149.47 224.29"/><polyline class="cls-1" points="339.33 139.76 408.09 159.13 399.65 234.65 339.33 139.76 399.65 125.41 341.33 57.21"/><polygon class="cls-1" points="44.26 159.13 74.18 238.65 29.9 218.98 44.26 159.13"/><polyline class="cls-1" points="44.26 159.13 1.52 186.26 29.9 218.98"/><polyline class="cls-1" points="104.09 46.52 164.82 104.29 164.82 18.8 286.72 46.52 259.77 79.24 214.7 139.76 184.18 253.01"/><path class="cls-1" d="M399.65,125.41C391.2,91.69,374.31,68.81,327,32.16s-45.58-19.1-74.86-27.72"/><polyline class="cls-1" points="149.47 224.29 184.18 253.01 261.69 243.24 271.03 154.13 299.71 238.65 355.69 234.65 351.83 195.76 339.33 139.76 341.33 57.21 297.54 85.93 286.72 46.52 311.33 46.52"/><line class="cls-1" x1="44.26" y1="159.12" x2="104.1" y2="46.52"/><polygon class="cls-1" points="104.09 46.52 112.45 158.13 164.82 104.29 175.18 200.62 214.7 139.76 271.03 154.13 259.77 79.24 207.87 57.21 179.18 79.24 184.18 42.85 164.82 18.8 104.09 46.52"/><circle class="cls-4" cx="164.82" cy="104.29" r="14.36"/><circle class="cls-4" cx="271.03" cy="154.12" r="14.36"/><circle class="cls-4" cx="261.69" cy="243.24" r="14.36"/><circle class="cls-4" cx="214.7" cy="139.77" r="14.36"/><circle class="cls-4" cx="259.77" cy="79.24" r="14.36"/><circle class="cls-4" cx="297.54" cy="85.93" r="14.36"/><circle class="cls-4" cx="339.33" cy="139.77" r="14.36"/><circle class="cls-4" cx="341.33" cy="57.21" r="14.36"/><circle class="cls-4" cx="355.69" cy="234.65" r="14.36"/><circle class="cls-4" cx="207.87" cy="57.21" r="14.36"/><circle class="cls-4" cx="299.71" cy="238.65" r="14.36"/><path class="cls-4" d="M58.62,159.12a14.36,14.36,0,1,1-14.36-14.35A14.35,14.35,0,0,1,58.62,159.12Z"/><circle class="cls-4" cx="104.1" cy="46.52" r="14.36"/><circle class="cls-4" cx="175.18" cy="200.62" r="14.36"/><circle class="cls-4" cx="149.47" cy="224.29" r="14.36"/><circle class="cls-4" cx="112.45" cy="158.12" r="14.36"/><circle class="cls-4" cx="188.18" cy="253.01" r="14.36"/><circle class="cls-4" cx="179.18" cy="79.24" r="9.5"/><path class="cls-4" d="M164.82,4.44A14.36,14.36,0,1,1,150.47,18.8,14.35,14.35,0,0,1,164.82,4.44"/><circle class="cls-4" cx="351.83" cy="195.76" r="9.5"/><circle class="cls-4" cx="286.72" cy="46.52" r="9.5"/><circle class="cls-4" cx="184.18" cy="42.85" r="9.5"/><circle class="cls-4" cx="311.33" cy="46.52" r="9.5"/><path class="cls-5" d="M357.05,279s-2.24-17.53-22.68-16.75-.95-2.39-9.34,0"/><path class="cls-6" d="M359.47,280s-23.9,9.89-33.05-9.49-3.58.75-4.67-8.6"/><polygon class="cls-7" points="299.23 265.44 268.67 266.46 294.21 313.68 299.23 265.44"/><polygon class="cls-7" points="318.74 288.83 298.23 314.31 345.79 316.34 318.74 288.83"/><polygon class="cls-7" points="314.35 273.22 305.93 265.44 301.95 291.82 314.35 273.22"/><path d="M319,259.16s0,0,0,0a31.67,31.67,0,0,1-3.78-3.08,29.69,29.69,0,0,1-3.73-4.31c-.59-.88-.89-1.71-.72-1.8s.72.55,1.3,1.41a35.1,35.1,0,0,0,3.4,4.46A31.15,31.15,0,0,0,319,259.16Z"/><path class="cls-8" d="M318.88,259.08c.08.07.08.07,0,0s-.3-.24-.81-.69a26.5,26.5,0,0,1-2.07-1.95c-.41-.42-.84-.9-1.29-1.42s-.89-1.09-1.35-1.69c-.22-.31-.45-.61-.67-.94l-.33-.49-.08-.12-.06-.09-.1-.16-.11-.16-.1-.13-.08-.1,0,0v0l0,0-.28-.31-.1-.09-.09,0a.13.13,0,0,0-.11,0c-.05,0-.07.09-.05.21a1.67,1.67,0,0,0,.06.24l.06.15.07.17.1.2,0,.06,0,0v0h0v0l.05.08,0,0,0,0,0,0h0l0,0,.06.09.28.36c.18.24.36.48.54.7.36.44.7.83,1,1.17.61.67,1.07,1.14,1.31,1.38,1,.94,1.93,1.78,2.69,2.4l1,.76.32.24.06.05h0l0,0h0l0,0,.05,0v0h0l-.15-.09-.7-.46a26.52,26.52,0,0,1-2.55-2.07c-.25-.24-.76-.7-1.43-1.4-.33-.35-.7-.76-1.1-1.23-.21-.23-.41-.48-.63-.75l-.33-.43-.09-.12-.14-.17-.15-.2-.14-.21-.15-.21-.14-.22-.27-.42-.06-.1-.06-.1,0-.05,0-.05-.05-.09-.09-.17,0-.08,0-.08,0-.07,0-.08,0,0v0l0,0,0-.08,0-.08-.09-.24-.05-.18,0-.14a.34.34,0,0,1,0-.17c0-.08.09-.09.18,0l.18.14.12.12.13.15.4.49,0,0,0,.06.05.06,0,.07.21.29c.11.15.19.28.24.35l.06.09.07.1,0,0v0l0,0,.07.1.12.19.06.09.06.09.12.17.09.13.34.5c.21.3.44.61.66.91.44.59.88,1.13,1.3,1.63s.84,1,1.24,1.35c.78.82,1.47,1.44,2,1.87S318.88,259.08,318.88,259.08Z"/><path class="cls-9" d="M44.2,291.27s-7.79-7.78-3.66-16,8.62-15.37,6-18,4.73,5.18,4.73,5.18,3.07,7.8.79,13.25S44.2,291.27,44.2,291.27Z"/><path class="cls-10" d="M40.89,272.17s-4.2-4.27-1.87-8.88,4.85-8.6,3.44-10S45,256.1,45,256.1s1.62,4.31.33,7.36S40.89,272.17,40.89,272.17Z"/></g></g></svg>