<svg xmlns="http://www.w3.org/2000/svg" viewBox="0 0 444.19 375.11"><defs><style>.cls-1,.cls-2,.cls-6,.cls-7{fill:none;}.cls-1,.cls-2,.cls-6,.cls-8{stroke:#000;}.cls-1,.cls-19,.cls-2,.cls-20,.cls-21,.cls-3,.cls-4,.cls-5,.cls-6,.cls-7,.cls-8{stroke-miterlimit:10;}.cls-1,.cls-2,.cls-20,.cls-21,.cls-3,.cls-4,.cls-5{stroke-width:2px;}.cls-2{opacity:0.8;}.cls-3{fill:#e90013;}.cls-19,.cls-20,.cls-21,.cls-3,.cls-4,.cls-5{stroke:#fff;}.cls-19,.cls-4{fill:#7ec67e;}.cls-5{fill:#7ec62b;}.cls-7{stroke:#7b7b7b;stroke-width:0px;}.cls-8{font-size:74px;}.cls-10,.cls-8{fill:#303030;font-family:MyriadPro-Regular, Myriad Pro;}.cls-9{letter-spacing:0.01em;}.cls-10{font-size:17px;}.cls-11{letter-spacing:-0.01em;}.cls-12{letter-spacing:-0.01em;}.cls-13{letter-spacing:0em;}.cls-14{letter-spacing:0.01em;}.cls-15{letter-spacing:0em;}.cls-16{letter-spacing:-0.01em;}.cls-17{letter-spacing:-0.05em;}.cls-18{letter-spacing:-0.07em;}.cls-19{stroke-width:0.5px;}.cls-20{fill:#ffcb5f;}.cls-21{fill:#ffb235;}.cls-22{fill:#66b449;}</style></defs><title>nids1_1</title><g id="Layer_2" data-name="Layer 2"><g id="Layer_1-2" data-name="Layer 1"><line class="cls-1" x1="390.64" y1="234.65" x2="434.6" y2="234.65"/><polyline class="cls-2" points="386.78 195.76 443.04 159.13 434.6 125.41"/><path class="cls-2" d="M434.6,125.41c-8.45-33.72-25.34-56.6-72.68-93.25s-45.58-19.1-74.86-27.72-87.28,0-117,14.36-45.37,27.72-60.93,27.72S86.59,77.26,79.21,85.93,47.73,107.67,37.6,159.12s50.68,83.7,71.53,79.53,38.28-14.36,38.28-14.36l-68.2-65.17,68.2-1,62.73,42.5-25.72,23.67,112.22,19-47-103.47L214.14,79.24h80.58l79.56,60.53L306,154.12l80.8,41.64-52.12,42.89"/><polyline class="cls-2" points="184.42 224.29 219.13 253.01 296.64 243.24 305.99 154.13 334.66 238.65 390.64 234.65 386.78 195.76 374.28 139.76 376.28 57.21 332.49 85.93 321.67 46.52 346.28 46.52"/><circle class="cls-3" cx="296.64" cy="243.24" r="14.36"/><circle class="cls-3" cx="390.64" cy="234.65" r="14.36"/><circle class="cls-3" cx="334.66" cy="238.65" r="14.36"/><circle class="cls-3" cx="386.78" cy="195.76" r="9.5"/><path class="cls-4" d="M389.42,278.79s-2.23-17.54-22.68-16.76-.95-2.39-9.34,0"/><path class="cls-5" d="M391.84,279.82s-23.9,9.9-33-9.49-3.58.75-4.68-8.6"/><polygon class="cls-6" points="331.6 261.24 301.04 262.26 326.58 309.48 331.6 261.24"/><polygon class="cls-6" points="351.11 288.63 330.6 314.11 378.16 316.13 351.11 288.63"/><polygon class="cls-6" points="347.24 272.78 339.58 265.24 335.96 290.82 347.24 272.78"/><path d="M351.72,259.67s0,0,0,0a10.76,10.76,0,0,1-1.27-.65,11.78,11.78,0,0,1-2.5-2.06,12.22,12.22,0,0,1-1.94-2.85,10.81,10.81,0,0,1-.73-1.92c-.25-1-.16-1.86,0-1.87s.39.77.63,1.71a12.26,12.26,0,0,0,.59,1.84,11.82,11.82,0,0,0,1.69,2.87,11.55,11.55,0,0,0,2.3,2.19A10.65,10.65,0,0,0,351.72,259.67Z"/><path class="cls-7" d="M351.61,259.61c.09.05.08.05,0,0l-.23-.12c-.15-.08-.37-.22-.64-.4a11.13,11.13,0,0,1-2.05-1.75,11.44,11.44,0,0,1-1.11-1.43,12.08,12.08,0,0,1-1-1.78c-.13-.34-.28-.67-.38-1l-.17-.53,0-.13,0-.1-.05-.17,0-.18-.05-.15,0-.11,0,0v0a3.33,3.33,0,0,0-.14-.37l-.06-.11-.05-.08a.12.12,0,0,0-.09-.06c-.05,0-.09,0-.13.16a1.4,1.4,0,0,0,0,.23v.34l0,.22v.14h0v0l0,.09v.05l0,.05v0h0v0l0,.11c0,.14.09.28.14.42s.2.54.32.79c.23.5.47.93.69,1.31a11.46,11.46,0,0,0,1.08,1.48,12.22,12.22,0,0,0,2.56,2.3,10.87,10.87,0,0,0,1,.6l.34.18.06,0h0l0,0h.05l0,0,.05,0v0h0l-.15-.05a7.47,7.47,0,0,1-.73-.34,10.11,10.11,0,0,1-2.56-1.85,12.92,12.92,0,0,1-1.26-1.46,11,11,0,0,1-.86-1.35c-.15-.26-.28-.54-.42-.85-.07-.15-.14-.31-.21-.49l-.05-.13-.07-.21a2,2,0,0,1-.08-.22l-.07-.24-.07-.24-.07-.25-.09-.48,0-.11v-1.13l0-.25,0-.18,0-.13a.34.34,0,0,1,.07-.15c.05-.06.11,0,.17,0a.85.85,0,0,1,.09.19l0,.15.05.19.14.57v.06l0,.06V251l0,.07a2.61,2.61,0,0,0,.08.33l.08.39,0,.1,0,.11v.1l0,.1,0,.21,0,.1,0,.1.06.18.05.14c.06.19.1.37.17.54.14.34.26.67.41,1a11.5,11.5,0,0,0,2.06,3,11.2,11.2,0,0,0,1.95,1.66,5.83,5.83,0,0,0,.61.37Z"/><polyline class="cls-2" points="147.41 158.13 147.41 224.29 184.42 224.29"/><polyline class="cls-2" points="374.28 139.76 443.04 159.13 434.6 234.65 374.28 139.76 434.6 125.41 376.28 57.21"/><polygon class="cls-2" points="79.21 159.13 109.13 238.65 64.85 218.98 79.21 159.13"/><polyline class="cls-2" points="79.21 159.13 36.47 186.26 64.85 218.98"/><polyline class="cls-2" points="139.05 46.52 199.78 104.29 199.78 18.8 321.67 46.52 294.72 79.24 249.65 139.76 219.13 253.01"/><line class="cls-2" x1="79.21" y1="159.12" x2="139.05" y2="46.52"/><polygon class="cls-2" points="139.05 46.52 147.41 158.13 199.78 104.29 210.13 200.62 249.65 139.76 305.99 154.13 294.72 79.24 242.82 57.21 214.13 79.24 219.13 42.85 199.78 18.8 139.05 46.52"/><circle class="cls-3" cx="199.78" cy="104.29" r="14.36"/><circle class="cls-3" cx="305.98" cy="154.12" r="14.36"/><circle class="cls-3" cx="249.65" cy="139.77" r="14.36"/><circle class="cls-3" cx="294.72" cy="79.24" r="14.36"/><circle class="cls-3" cx="332.49" cy="85.93" r="14.36"/><circle class="cls-3" cx="374.28" cy="139.77" r="14.36"/><circle class="cls-3" cx="376.28" cy="57.21" r="14.36"/><circle class="cls-3" cx="242.82" cy="57.21" r="14.36"/><path class="cls-3" d="M93.57,159.12a14.36,14.36,0,1,1-14.36-14.35A14.35,14.35,0,0,1,93.57,159.12Z"/><circle class="cls-3" cx="139.05" cy="46.52" r="14.36"/><circle class="cls-3" cx="210.14" cy="200.62" r="14.36"/><circle class="cls-3" cx="184.42" cy="224.29" r="14.36"/><circle class="cls-3" cx="147.41" cy="158.12" r="14.36"/><circle class="cls-3" cx="219.14" cy="253.01" r="14.36"/><circle class="cls-3" cx="214.14" cy="79.24" r="9.5"/><circle class="cls-3" cx="199.78" cy="18.8" r="14.36"/><circle class="cls-3" cx="321.67" cy="46.52" r="9.5"/><circle class="cls-3" cx="219.14" cy="42.85" r="9.5"/><circle class="cls-3" cx="346.28" cy="46.52" r="9.5"/><text class="cls-8" transform="translate(0.89 333.05)"><tspan class="cls-9">N</tspan><tspan x="49.43" y="0">iDS</tspan></text><text class="cls-10" transform="translate(0 366.53)"><tspan xml:space="preserve"> Neu</tspan><tspan class="cls-11" x="32.67" y="0">r</tspan><tspan x="38.06" y="0">oima</tspan><tspan class="cls-12" x="73.75" y="0">g</tspan><tspan x="83.15" y="0">ing &amp; D</tspan><tspan class="cls-13" x="134.88" y="0">a</tspan><tspan x="143" y="0">ta </tspan><tspan class="cls-14" x="160.43" y="0">S</tspan><tspan class="cls-15" x="168.91" y="0">cien</tspan><tspan class="cls-16" x="198.46" y="0">c</tspan><tspan class="cls-15" x="205.97" y="0">e </tspan><tspan class="cls-13" x="218.09" y="0">a</tspan><tspan x="226.22" y="0">t</tspan><tspan class="cls-17" x="231.84" y="0"> </tspan><tspan class="cls-18" x="234.66" y="0">Y</tspan><tspan x="242.67" y="0">ale</tspan></text><path class="cls-19" d="M191.27,338.82l-.52-.29v0s-.08-.1-.16-.22a.47.47,0,0,0,.06-.09"/><line class="cls-4" x1="190.75" y1="338.53" x2="184.89" y2="348.6"/><path class="cls-20" d="M175.72,280.4S160,303.82,187,321.74s-4.52,10.6,8.65,15.51"/><path class="cls-21" d="M173.73,276.9s36.56,17.49,28.6,49.11,5.36,2.41-2.74,14.6"/><path class="cls-22" d="M268.92,288.81s-6.53,12.8-27.14,10.41h0l10.14-12.44"/><path class="cls-19" d="M192.47,338.29a332.09,332.09,0,0,1,21.17-25.89c6.18-6.7,12.72-13,18.88-17.29,2.93-1.69,6.42-3.55,10.24-5.28h0c2.41-1.1,5-2.13,7.56-3"/><path class="cls-19" d="M251.87,286.27l-13,15.39h0s-22.21,48.12-45.69,37.25"/><path class="cls-4" d="M192.47,338.29c-1.28-3.47-11.11-33.51,29.44-36.62l-8.27,10.73-20.42,26.52"/></g></g></svg>