<svg xmlns="http://www.w3.org/2000/svg" viewBox="0 0 421.69 384.02"><defs><style>.cls-1{font-size:74px;}.cls-1,.cls-3{fill:#303030;font-family:MyriadPro-Regular, Myriad Pro;}.cls-1,.cls-14,.cls-15,.cls-16{stroke:#000;}.cls-1,.cls-11,.cls-12,.cls-13,.cls-14,.cls-15,.cls-16,.cls-17,.cls-18,.cls-20,.cls-21,.cls-22,.cls-24{stroke-miterlimit:10;}.cls-2{letter-spacing:0.01em;}.cls-3{opacity:0.61;font-size:17px;}.cls-4{letter-spacing:-0.01em;}.cls-5{letter-spacing:-0.01em;}.cls-6{letter-spacing:0em;}.cls-7{letter-spacing:0.01em;}.cls-8{letter-spacing:-0.01em;}.cls-9{letter-spacing:-0.05em;}.cls-10{letter-spacing:-0.07em;}.cls-11,.cls-12{fill:#7ec67e;}.cls-11,.cls-12,.cls-13,.cls-17,.cls-21,.cls-24{stroke:#fff;}.cls-11,.cls-24{stroke-width:0.5px;}.cls-12,.cls-13,.cls-14,.cls-15,.cls-16,.cls-17,.cls-21{stroke-width:2px;}.cls-13,.cls-23,.cls-24{fill:#355cff;}.cls-14,.cls-15,.cls-16,.cls-18,.cls-20,.cls-22{fill:none;}.cls-15{opacity:0.73;}.cls-16{opacity:0.67;}.cls-17{fill:#e90013;}.cls-18,.cls-20,.cls-22{stroke:#7b7b7b;}.cls-18{stroke-width:0px;}.cls-19{opacity:0.44;}.cls-20{stroke-width:0.01px;}.cls-21{fill:#7ec62b;}.cls-22{stroke-width:0px;}</style></defs><title>nids2</title><g id="Layer_2" data-name="Layer 2"><g id="Layer_1-2" data-name="Layer 1"><text class="cls-1" transform="translate(0.5 341.96)"><tspan class="cls-2">N</tspan><tspan x="49.43" y="0" xml:space="preserve">iDS  </tspan></text><text class="cls-3" transform="translate(8.33 375.44)">Neu<tspan class="cls-4" x="29.07" y="0">r</tspan><tspan x="34.46" y="0">oima</tspan><tspan class="cls-5" x="70.14" y="0">g</tspan><tspan x="79.54" y="0">ing &amp; D</tspan><tspan class="cls-6" x="131.27" y="0">a</tspan><tspan x="139.4" y="0">ta </tspan><tspan class="cls-7" x="156.82" y="0">S</tspan><tspan x="165.31" y="0">cien</tspan><tspan class="cls-8" x="194.85" y="0">c</tspan><tspan x="202.37" y="0">e </tspan><tspan class="cls-6" x="214.49" y="0">a</tspan><tspan x="222.61" y="0">t</tspan><tspan class="cls-9" x="228.24" y="0"> </tspan><tspan class="cls-10" x="231.06" y="0">Y</tspan><tspan x="239.07" y="0">ale</tspan></text><path class="cls-11" d="M186.84,346l-.53-.3v0l-.15-.22a.47.47,0,0,1,.06-.09"/><line class="cls-12" x1="186.31" y1="345.69" x2="180.46" y2="355.76"/><path class="cls-13" d="M178.29,287.56c3.29-4.89-15.39,28.31,4.28,41.34,27,17.92-4.53,10.61,8.65,15.52"/><path class="cls-13" d="M179.29,284.06s26.57,17.49,18.6,49.11,5.36,2.41-2.74,14.6"/><line class="cls-14" x1="368.14" y1="234.65" x2="412.1" y2="234.65"/><polyline class="cls-15" points="364.28 195.76 420.54 159.13 412.1 125.41"/><polyline class="cls-16" points="124.91 158.13 124.91 224.29 161.92 224.29"/><polyline class="cls-16" points="351.78 139.76 420.54 159.13 412.1 234.65 351.78 139.76 412.1 125.41 353.78 57.21"/><polygon class="cls-16" points="56.71 159.13 86.63 238.65 42.35 218.98 56.71 159.13"/><polyline class="cls-16" points="56.71 159.13 13.97 186.26 42.35 218.98"/><polyline class="cls-16" points="116.55 46.52 177.28 104.29 177.28 18.8 299.17 46.52 272.22 79.24 227.15 139.76 196.63 253.01"/><path class="cls-16" d="M264.56,4.44c-29.28-8.62-87.28,0-117,14.36S102.19,46.52,86.63,46.52,64.09,77.26,56.71,85.93,25.23,107.67,15.1,159.12s50.68,83.7,71.53,79.53a139.54,139.54,0,0,0,38.27-14.36L56.71,159.12l68.19-1,62.73,42.5-25.71,23.67,112.22,19-47-103.47L191.63,79.24h80.59l79.56,60.53-68.3,14.35,80.8,41.64-52.12,42.89"/><path class="cls-16" d="M412.1,125.41c-8.45-33.72-25.34-56.6-72.68-93.25s-45.58-19.1-74.86-27.72"/><polyline class="cls-16" points="161.92 224.29 196.63 253.01 274.14 243.24 283.48 154.13 312.16 238.65 368.14 234.65 364.28 195.76 351.78 139.76 353.78 57.21 309.99 85.93 299.17 46.52 323.78 46.52"/><line class="cls-16" x1="56.71" y1="159.12" x2="116.55" y2="46.52"/><polygon class="cls-16" points="116.55 46.52 124.91 158.13 177.28 104.29 187.63 200.62 227.15 139.76 283.48 154.13 272.22 79.24 220.32 57.21 191.63 79.24 196.63 42.85 177.28 18.8 116.55 46.52"/><circle class="cls-17" cx="177.28" cy="104.29" r="14.36"/><circle class="cls-17" cx="283.48" cy="154.12" r="14.36"/><circle class="cls-17" cx="274.14" cy="243.24" r="14.36"/><circle class="cls-17" cx="227.15" cy="139.77" r="14.36"/><circle class="cls-17" cx="272.22" cy="79.24" r="14.36"/><circle class="cls-17" cx="309.99" cy="85.93" r="14.36"/><circle class="cls-17" cx="351.78" cy="139.77" r="14.36"/><circle class="cls-17" cx="353.78" cy="57.21" r="14.36"/><circle class="cls-17" cx="368.14" cy="234.65" r="14.36"/><circle class="cls-17" cx="220.32" cy="57.21" r="14.36"/><circle class="cls-17" cx="312.16" cy="238.65" r="14.36"/><path class="cls-17" d="M71.07,159.12a14.36,14.36,0,1,1-14.36-14.35A14.35,14.35,0,0,1,71.07,159.12Z"/><circle class="cls-17" cx="116.55" cy="46.52" r="14.36"/><circle class="cls-17" cx="187.63" cy="200.62" r="14.36"/><circle class="cls-17" cx="161.92" cy="224.29" r="14.36"/><circle class="cls-17" cx="124.9" cy="158.12" r="14.36"/><circle class="cls-17" cx="196.63" cy="253.01" r="14.36"/><circle class="cls-17" cx="191.63" cy="79.24" r="9.5"/><path class="cls-17" d="M177.28,4.44A14.36,14.36,0,1,1,162.92,18.8,14.35,14.35,0,0,1,177.28,4.44"/><circle class="cls-17" cx="364.28" cy="195.76" r="9.5"/><circle class="cls-17" cx="299.17" cy="46.52" r="9.5"/><circle class="cls-17" cx="196.63" cy="42.85" r="9.5"/><circle class="cls-17" cx="323.78" cy="46.52" r="9.5"/><path d="M288.92,264.62c-.08,0-.08,0,0,0l.72-.06a11.92,11.92,0,0,1,1.95,0,13.21,13.21,0,0,1,5.65,2.09,27.11,27.11,0,0,1,7.18,7.23c1.05,1.6,1.54,3.09,1.24,3.25s-1.27-1-2.28-2.56a28.46,28.46,0,0,0-6.49-7.4,12.83,12.83,0,0,0-5.33-2.41,11.81,11.81,0,0,0-1.91-.16Z"/><path class="cls-18" d="M289.15,264.63c-.19,0-.18,0,0,0h.49a6.9,6.9,0,0,1,1.39.09,12,12,0,0,1,4.67,1.67,15.23,15.23,0,0,1,1.35.91l.68.53.67.59a25,25,0,0,1,2.61,2.78c.41.53.84,1.06,1.23,1.64.19.28.41.56.59.86l.14.22.11.15.18.29.2.28.17.24.13.18.06.07,0,0,0,.05a4.82,4.82,0,0,0,.49.54.86.86,0,0,0,.18.16.61.61,0,0,0,.14.1.29.29,0,0,0,.19.06c.1,0,.13-.15.11-.38s-.06-.25-.11-.42l-.1-.27-.13-.32c-.06-.12-.11-.25-.16-.36l-.05-.09,0-.1,0,0h0l0,0-.09-.14-.05-.08,0-.07-.05-.06v0l0,0-.12-.16-.49-.66c-.32-.41-.66-.82-1-1.23l-1-1.09-.91-.92a22.11,22.11,0,0,0-2.62-2.2,14.51,14.51,0,0,0-5.86-2.57,5.87,5.87,0,0,0-1.2-.15,6.71,6.71,0,0,0-1,0l-.71,0h-.45a1.1,1.1,0,0,1,.28-.06,9.15,9.15,0,0,1,1.51-.12,11.71,11.71,0,0,1,5.7,1.52,17.39,17.39,0,0,1,3,2,25.94,25.94,0,0,1,2.16,2c.4.39.76.84,1.18,1.31.21.24.4.5.61.76l.17.21.24.32c.09.11.18.24.27.36l.26.37.26.38c.09.12.18.25.26.38l.46.77.11.18.1.18,0,.09.05.08.09.17.16.31.07.15.07.14.06.13.06.13,0,.06,0,.05,0,.09.07.15.05.14.16.44c0,.13.06.23.09.32s0,.18,0,.25a.79.79,0,0,1,0,.31c0,.13-.15.15-.32.05a1.47,1.47,0,0,1-.31-.25l-.2-.21-.24-.29c-.17-.22-.38-.47-.68-.89l-.06-.08-.07-.11-.08-.11-.08-.12-.36-.52-.42-.63-.11-.17-.11-.17,0,0,0,0-.06-.09-.11-.17-.22-.33-.11-.16-.1-.16-.2-.31-.16-.23c-.2-.28-.41-.57-.61-.87-.42-.54-.81-1.09-1.24-1.57a22.93,22.93,0,0,0-2.54-2.64c-.42-.39-.89-.7-1.3-1s-.88-.57-1.3-.85a11.63,11.63,0,0,0-4.47-1.53l-.76-.09h-1Z"/><g class="cls-19"><path d="M361.84,247.84c0-.37,0-.39.05,0l.05.24c0,.15,0,.39,0,.69a4.88,4.88,0,0,1-1,2.49,8.63,8.63,0,0,1-3.31,2.69,13.63,13.63,0,0,1-5.54,1,31,31,0,0,0-6.49.56,11,11,0,0,0-5.69,3.89,41.89,41.89,0,0,0-4,6.74,35.45,35.45,0,0,1-4.68,7.35l-.79.85c-.27.28-.59.52-.89.78a11.45,11.45,0,0,1-1.92,1.39,23.4,23.4,0,0,1-4.16,1.9,78.07,78.07,0,0,0-7.71,2.75,14.65,14.65,0,0,0-1.56.88c-.23.15-.28.26-.45.37l-.43.52a14,14,0,0,0-1.45,3,46.15,46.15,0,0,0-1.73,6.8c-.81,4.48-1.2,8.55-1.49,11.74-.29,3.62-.47,5.83-.54,6.74-.79,9.42-2.39,17.08-4.15,17s-3-7.9-2.15-17.57c.11-1.2.35-3.61.82-6.89a123.92,123.92,0,0,1,2.29-12.19,49.88,49.88,0,0,1,2.43-7.49,18.22,18.22,0,0,1,2.36-4c.31-.34.61-.67,1-1a10.43,10.43,0,0,1,1.23-.87,18.47,18.47,0,0,1,2.11-1,78.91,78.91,0,0,1,8.3-2.37,19.92,19.92,0,0,0,3.62-1.35,9.25,9.25,0,0,0,1.56-1c.24-.19.5-.35.74-.56l.69-.64c3.68-3.62,5.74-9.14,9.49-13.23a12.82,12.82,0,0,1,6.9-4,31.57,31.57,0,0,1,6.82-.12,13,13,0,0,0,5.28-.56,8.13,8.13,0,0,0,3.31-2.3,4.68,4.68,0,0,0,1.12-2.31c0-.29,0-.52,0-.67Z"/><path class="cls-20" d="M361.77,248.93a4.44,4.44,0,0,0,.08-.66,2.8,2.8,0,0,1-.08.73,3.9,3.9,0,0,1-.18.58,5,5,0,0,1-.91,1.52,7.79,7.79,0,0,1-2.26,1.8,8.4,8.4,0,0,1-3.73,1c-1.5.11-3.18,0-5.07-.08a15,15,0,0,0-6.3.84,14.16,14.16,0,0,0-5.81,4.54,66.38,66.38,0,0,0-4.32,6.56,27,27,0,0,1-4.88,6.25c-1.94,1.7-4.49,2.6-7.47,3.34-1.48.38-3.06.74-4.69,1.24a23.57,23.57,0,0,0-2.49.92c-.42.19-.84.37-1.26.6-.21.12-.4.2-.63.35L311,279a9.65,9.65,0,0,0-1.2,1.19c-.3.41-.62.83-.89,1.25s-.49.84-.72,1.27L307.6,284a43.33,43.33,0,0,0-1.81,5.16,98.58,98.58,0,0,0-2.3,10.64c-.3,1.8-.56,3.62-.8,5.44l-.17,1.35c0,.32-.09.68-.12.95-.07.63-.13,1.23-.19,1.78s-.12,1.22-.15,1.79,0,.95-.07,1.53v1.16c0,.16,0,.32,0,.48v.51a27.71,27.71,0,0,0,.38,3.78,11.85,11.85,0,0,0,.28,1.19,7,7,0,0,0,.31.84,1.48,1.48,0,0,0,.68.8c.48.18,1-.27,1.5-1.31a14.68,14.68,0,0,0,.79-2c.13-.43.27-.88.4-1.4s.27-1.05.41-1.66.27-1.25.4-1.94l.1-.52.09-.53.05-.27v-.12l0-.19.1-.85,0-.46,0-.42,0-.37v-.13l0-.25.07-1c.1-1.3.2-2.68.3-4.05.23-2.69.51-5.3.86-7.78a69.55,69.55,0,0,1,1.28-7,25.29,25.29,0,0,1,2-5.77,6,6,0,0,1,1.43-1.82,12.89,12.89,0,0,1,2.18-1.23,36.57,36.57,0,0,1,4.38-1.62,35.84,35.84,0,0,0,6.39-2.47,14.14,14.14,0,0,0,3.76-2.91,21,21,0,0,0,2.75-3.65c1.57-2.55,2.77-5.15,4.17-7.52a26.4,26.4,0,0,1,2.28-3.33,12.79,12.79,0,0,1,2.87-2.55,10.06,10.06,0,0,1,1.66-.86,9,9,0,0,1,1.73-.56,19.87,19.87,0,0,1,3.46-.37,47.12,47.12,0,0,0,6.15-.27,8.92,8.92,0,0,0,4.35-2,6.3,6.3,0,0,0,1.95-2.81c.06-.22.09-.43.13-.62a.59.59,0,0,0,0-.14h0c0-.12,0,.27,0-.27v-.19l0-.16h0v-.12l0-.26c0-.17-.1-.34-.13-.48s0-.21,0-.19l.06.1,0,0,0,0h0a.25.25,0,0,1,.07.09,1.33,1.33,0,0,1,.22.49l.12.43,0,.55c.13,1.62-1.36,4.47-4.82,6a17,17,0,0,1-6,1,20.65,20.65,0,0,0-6.5.87,11.62,11.62,0,0,0-5.27,4.58c-1.47,2.18-2.69,4.81-4.23,7.6a27.12,27.12,0,0,1-4.33,6.07,10.9,10.9,0,0,1-1,.91,11.52,11.52,0,0,1-1.14.89,17.82,17.82,0,0,1-2.64,1.52,48.13,48.13,0,0,1-6,2.15,24.22,24.22,0,0,0-5.74,2.42l-.15.09-.06.07-.12.12c-.09.05-.21.26-.33.38a4.43,4.43,0,0,0-.35.53,4.32,4.32,0,0,0-.35.65A19.88,19.88,0,0,0,312,287.7a63.14,63.14,0,0,0-1.72,8.17c-.22,1.5-.43,3.05-.62,4.72,0,.43-.09.85-.14,1.28-.06.64-.13,1.29-.19,1.94L309.1,306c-.06.75-.13,1.54-.19,2.23s-.13,1.53-.2,2.26-.12,1.45-.19,2.27c-.12,1.27-.25,2.73-.4,4.43l-.1,1.05c0,.32-.06.66-.09,1l-.05.5c0,.15,0,.31-.05.47l-.1.94c-.06.55-.12,1.14-.19,1.74l-.09.8c0,.25-.06.5-.09.77l-.09.73-.09.71-.05.34,0,.28L307,327l-.12.82-.12.74c-.16.92-.31,1.65-.45,2.3s-.28,1.17-.42,1.64a12.41,12.41,0,0,1-.41,1.19,4,4,0,0,1-.79,1.36c-.52.5-1,.31-1.55-.56a8.63,8.63,0,0,1-.74-1.9c-.12-.43-.24-.9-.35-1.46s-.23-1.16-.33-1.87a55.06,55.06,0,0,1-.53-5.79l0-.53,0-.67,0-.71v-.73c0-1,0-2.12,0-3.32s.07-2.54.16-3.94l.07-1.07c0-.36.05-.71.08-1.07l0-.27,0-.27.05-.53.1-1.06.23-2.08.13-1,.13-1,.26-1.91.22-1.47c.3-1.91.62-3.75,1-5.56a71.39,71.39,0,0,1,2.81-10.49,23.07,23.07,0,0,1,2.56-5.08l.47-.63c.17-.21.38-.42.57-.63a7.8,7.8,0,0,1,1.42-1.18A16.5,16.5,0,0,1,314,277c3.35-1.3,6.46-1.73,9.1-2.57a13,13,0,0,0,6.4-3.91,42.31,42.31,0,0,0,4.43-6.32,39.78,39.78,0,0,1,4.44-6.2,12.88,12.88,0,0,1,6.05-3.8,19.42,19.42,0,0,1,6-.39,32.09,32.09,0,0,0,4.78,0,8.25,8.25,0,0,0,5.57-2.87,5.06,5.06,0,0,0,.83-1.46A2.42,2.42,0,0,0,361.77,248.93Z"/></g><path class="cls-12" d="M384.92,282.79s-2.24-17.54-22.68-16.76-.95-2.39-9.34,0"/><path class="cls-21" d="M387.34,283.82s-23.9,9.9-33-9.49-3.57.75-4.67-8.6"/><path d="M346.18,266.1h0a14.09,14.09,0,0,0-1.63-.25,14.29,14.29,0,0,0-3.66.18,14,14,0,0,0-3.66,1.21,14.77,14.77,0,0,0-1.93,1.13c-.93.63-1.71,1.14-1.87,1s.45-.94,1.44-1.61a12.47,12.47,0,0,1,2.1-1.09,14.34,14.34,0,0,1,3.86-1,14.17,14.17,0,0,1,3.74.08A12.88,12.88,0,0,1,346.18,266.1Z"/><path class="cls-22" d="M346,266.06c.12,0,.11,0,0,0l-.29-.08c-.2-.06-.49-.12-.86-.19a13.69,13.69,0,0,0-5.28.08,14.35,14.35,0,0,0-2.35.69,12.51,12.51,0,0,0-1.19.54l-.6.31-.14.09-.1.06-.19.12-.18.12-.16.11-.11.09,0,0,0,0,0,0a4.27,4.27,0,0,0-.32.34.47.47,0,0,0-.09.12.28.28,0,0,0-.05.09.23.23,0,0,0,0,.13q0,.09.24,0l.25-.09.16-.07.18-.09.21-.11.06,0,.05,0,0,0h0l.08-.05.05,0,0,0,0,0h0l0,0,.1-.07a3.42,3.42,0,0,1,.4-.26c.29-.16.55-.35.82-.48.54-.28,1.05-.5,1.51-.69a12.52,12.52,0,0,1,2-.6,12.89,12.89,0,0,1,3.93-.3,9.46,9.46,0,0,1,1.35.18l.43.1.08,0h0s0,0,0,0h.09l.06,0h0l-.18,0c-.19,0-.49-.09-.91-.13a14,14,0,0,0-3.55,0,15.11,15.11,0,0,0-2.09.44,11.51,11.51,0,0,0-1.65.59,9.75,9.75,0,0,0-.94.44,5.25,5.25,0,0,0-.51.28l-.13.07-.2.12-.23.14-.22.14-.23.15-.23.15-.43.3-.1.08-.1.06-.05,0,0,0-.09.07a1.77,1.77,0,0,0-.17.12l-.08.06-.07,0-.07.05-.07.05,0,0,0,0-.05,0-.08.05-.07.05-.23.17-.17.1-.13.07a.41.41,0,0,1-.19.05c-.09,0-.12-.05-.09-.17a.84.84,0,0,1,.1-.23l.09-.16.13-.19a3.65,3.65,0,0,1,.47-.55l.05,0,.05-.06.07-.06.06-.07c.09-.09.2-.17.31-.27l.39-.3.1-.08.11-.07,0,0,0,0,.06,0,.11-.07.22-.14.1-.06.11-.07.21-.11.16-.08c.21-.11.41-.22.62-.31a10.71,10.71,0,0,1,1.2-.48,14.08,14.08,0,0,1,2.28-.61,15.84,15.84,0,0,1,2.05-.21,12.57,12.57,0,0,1,3,.25,8.27,8.27,0,0,1,.81.18Z"/><path class="cls-23" d="M251.59,300s-6.53,12.81-27.14,10.41h0L234.6,298"/><path class="cls-24" d="M175.14,349.48a330.23,330.23,0,0,1,21.17-25.89c6.18-6.71,12.72-13,18.88-17.29,2.93-1.7,6.42-3.55,10.23-5.28h0c2.41-1.1,4.95-2.14,7.56-3"/><path class="cls-24" d="M234.54,297.46l-12.95,15.39h0S199.37,361,175.89,350.11"/><path class="cls-13" d="M175.14,349.48c-1.06-2.87-3.34-34.11,29.44-36.63l-8.27,10.74-20.42,26.52"/></g></g></svg>