<svg xmlns="http://www.w3.org/2000/svg" viewBox="0 0 423.19 375.11"><defs><style>.cls-1,.cls-2,.cls-22,.cls-6,.cls-8{fill:none;}.cls-1,.cls-2,.cls-9{stroke:#000;}.cls-1,.cls-2,.cls-20,.cls-21,.cls-22,.cls-23,.cls-24,.cls-25,.cls-3,.cls-4,.cls-6,.cls-8,.cls-9{stroke-miterlimit:10;}.cls-1,.cls-2,.cls-20,.cls-21,.cls-24,.cls-25,.cls-3,.cls-4{stroke-width:2px;}.cls-2,.cls-4{opacity:0.8;}.cls-3,.cls-4{fill:#e90013;}.cls-20,.cls-21,.cls-23,.cls-24,.cls-25,.cls-3,.cls-4{stroke:#fff;}.cls-5{opacity:0.59;}.cls-22,.cls-6,.cls-8{stroke:#7b7b7b;}.cls-6{stroke-width:0px;}.cls-7{opacity:0.44;}.cls-8{stroke-width:0.01px;}.cls-9{font-size:74px;}.cls-11,.cls-9{fill:#303030;font-family:MyriadPro-Regular, Myriad Pro;}.cls-10{letter-spacing:0.01em;}.cls-11{font-size:17px;}.cls-12{letter-spacing:-0.01em;}.cls-13{letter-spacing:-0.01em;}.cls-14{letter-spacing:0em;}.cls-15{letter-spacing:0.01em;}.cls-16{letter-spacing:0em;}.cls-17{letter-spacing:-0.01em;}.cls-18{letter-spacing:-0.05em;}.cls-19{letter-spacing:-0.07em;}.cls-20,.cls-23{fill:#7ec67e;}.cls-21{fill:#7ec62b;}.cls-22{stroke-width:0px;}.cls-23{stroke-width:0.5px;}.cls-24{fill:#ffcb5f;}.cls-25{fill:#ffb235;}.cls-26{fill:#66b449;}</style></defs><title>nids1</title><g id="Layer_2" data-name="Layer 2"><g id="Layer_1-2" data-name="Layer 1"><line class="cls-1" x1="369.64" y1="234.65" x2="413.6" y2="234.65"/><polyline class="cls-2" points="365.78 195.76 422.04 159.13 413.6 125.41"/><polyline class="cls-2" points="126.41 158.13 126.41 224.29 163.42 224.29"/><polyline class="cls-2" points="353.28 139.76 422.04 159.13 413.6 234.65 353.28 139.76 413.6 125.41 355.28 57.21"/><polygon class="cls-2" points="58.21 159.13 88.13 238.65 43.85 218.98 58.21 159.13"/><polyline class="cls-2" points="58.21 159.13 15.47 186.26 43.85 218.98"/><polyline class="cls-2" points="118.05 46.52 178.78 104.29 178.78 18.8 300.67 46.52 273.72 79.24 228.65 139.76 198.13 253.01"/><path class="cls-2" d="M413.6,125.41c-8.45-33.72-25.34-56.6-72.68-93.25s-45.58-19.1-74.86-27.72-87.28,0-117,14.36S103.69,46.52,88.13,46.52,65.59,77.26,58.21,85.93,26.73,107.67,16.6,159.12s50.68,83.7,71.53,79.53,38.28-14.36,38.28-14.36l-68.2-65.17,68.2-1,62.73,42.5-25.72,23.67,112.22,19-47-103.47L193.14,79.24h80.58l79.56,60.53L285,154.12l80.8,41.64-52.12,42.89"/><polyline class="cls-2" points="163.42 224.29 198.13 253.01 275.64 243.24 284.99 154.13 313.66 238.65 369.64 234.65 365.78 195.76 353.28 139.76 355.28 57.21 311.49 85.93 300.67 46.52 325.28 46.52"/><line class="cls-2" x1="58.21" y1="159.12" x2="118.05" y2="46.52"/><polygon class="cls-2" points="118.05 46.52 126.41 158.13 178.78 104.29 189.13 200.62 228.65 139.76 284.99 154.13 273.72 79.24 221.82 57.21 193.13 79.24 198.13 42.85 178.78 18.8 118.05 46.52"/><circle class="cls-3" cx="178.78" cy="104.29" r="14.36"/><circle class="cls-3" cx="284.98" cy="154.12" r="14.36"/><circle class="cls-3" cx="275.64" cy="243.24" r="14.36"/><circle class="cls-3" cx="228.65" cy="139.77" r="14.36"/><circle class="cls-3" cx="273.72" cy="79.24" r="14.36"/><circle class="cls-3" cx="311.49" cy="85.93" r="14.36"/><circle class="cls-3" cx="353.28" cy="139.77" r="14.36"/><circle class="cls-3" cx="355.28" cy="57.21" r="14.36"/><circle class="cls-3" cx="369.64" cy="234.65" r="14.36"/><circle class="cls-3" cx="221.82" cy="57.21" r="14.36"/><circle class="cls-3" cx="313.66" cy="238.65" r="14.36"/><path class="cls-3" d="M72.57,159.12a14.36,14.36,0,1,1-14.36-14.35A14.35,14.35,0,0,1,72.57,159.12Z"/><circle class="cls-3" cx="118.05" cy="46.52" r="14.36"/><circle class="cls-4" cx="189.14" cy="200.62" r="14.36"/><circle class="cls-3" cx="163.42" cy="224.29" r="14.36"/><circle class="cls-3" cx="126.41" cy="158.12" r="14.36"/><circle class="cls-3" cx="198.14" cy="253.01" r="14.36"/><circle class="cls-3" cx="193.14" cy="79.24" r="9.5"/><circle class="cls-3" cx="178.78" cy="18.8" r="14.36"/><circle class="cls-3" cx="365.78" cy="195.76" r="9.5"/><circle class="cls-3" cx="300.67" cy="46.52" r="9.5"/><circle class="cls-3" cx="198.14" cy="42.85" r="9.5"/><circle class="cls-3" cx="325.28" cy="46.52" r="9.5"/><g class="cls-5"><path d="M290.42,264.62c-.08,0-.08,0,0,0l.73-.06a11.8,11.8,0,0,1,1.94,0,13.21,13.21,0,0,1,5.65,2.09,27.11,27.11,0,0,1,7.18,7.23c1.05,1.6,1.54,3.09,1.24,3.25s-1.27-1-2.28-2.56a28.46,28.46,0,0,0-6.49-7.4,12.83,12.83,0,0,0-5.33-2.41,11.81,11.81,0,0,0-1.91-.16Z"/><path class="cls-6" d="M290.65,264.63c-.19,0-.18,0,0,0h.49a6.9,6.9,0,0,1,1.39.09,12,12,0,0,1,4.67,1.67,15.23,15.23,0,0,1,1.35.91l.68.53.67.59a25,25,0,0,1,2.61,2.78c.41.53.84,1.06,1.23,1.64.2.28.41.56.59.86l.15.22.1.15.18.29.2.28.17.24.13.18.06.07,0,0,0,.05a6,6,0,0,0,.49.54.86.86,0,0,0,.18.16l.14.1a.29.29,0,0,0,.19.06c.1,0,.14-.15.11-.38s-.06-.25-.11-.42l-.1-.27-.13-.32-.16-.36-.05-.09,0-.1,0,0v0h0l0,0-.09-.14-.05-.08,0-.07-.05-.06v0l0,0-.12-.16-.48-.66-1-1.23-1-1.09-.91-.92a23.14,23.14,0,0,0-2.61-2.2,14.49,14.49,0,0,0-5.86-2.57,6.05,6.05,0,0,0-1.21-.15,6.71,6.71,0,0,0-1,0l-.71,0h-.45a1.1,1.1,0,0,1,.28-.06,9.15,9.15,0,0,1,1.51-.12,11.69,11.69,0,0,1,5.7,1.52,17.39,17.39,0,0,1,3,2,24.46,24.46,0,0,1,2.16,2c.4.39.76.84,1.18,1.31.21.24.4.5.61.77l.17.2.24.32c.09.11.18.24.27.36l.26.37c.15.21.2.28.26.38s.18.25.26.38l.46.77.11.18.1.18,0,.09.05.08.09.17.16.31.07.15.07.14.06.13.06.13,0,.06,0,.05,0,.09.07.15.05.14.16.44c0,.13.07.23.09.32s0,.18.05.25a1,1,0,0,1,0,.31c0,.13-.15.15-.32.05a1.77,1.77,0,0,1-.31-.25l-.2-.21-.24-.29c-.17-.22-.38-.47-.68-.89l-.06-.08-.07-.11-.08-.11-.08-.12-.36-.52-.42-.63-.11-.17-.11-.17,0,0,0,0-.06-.09-.11-.17-.22-.33-.1-.16-.11-.16-.2-.31-.16-.23c-.2-.28-.41-.57-.61-.87-.42-.54-.81-1.09-1.23-1.57a23,23,0,0,0-2.55-2.64c-.42-.39-.89-.7-1.3-1s-.88-.57-1.3-.85a11.63,11.63,0,0,0-4.47-1.53l-.76-.09h-1Z"/></g><g class="cls-7"><path d="M363.34,247.89c0-.39,0-.4.05,0l.05.25a6.93,6.93,0,0,1,0,.74,4.92,4.92,0,0,1-1.13,2.59,8.74,8.74,0,0,1-3.63,2.68,17.5,17.5,0,0,1-5.91.82,19.52,19.52,0,0,0-6.75.9,12.42,12.42,0,0,0-5.53,4.84c-1.49,2.2-2.69,4.76-4.11,7.37a23.13,23.13,0,0,1-5.78,7.42c-2.69,2.09-5.88,3-8.7,3.92a41.77,41.77,0,0,0-4,1.45,18,18,0,0,0-1.75.9,2.75,2.75,0,0,0-.65.46,1.54,1.54,0,0,1-.19.17l-.21.29a11.62,11.62,0,0,0-1.52,3.22c-.22.6-.38,1.26-.57,1.87s-.32,1.28-.46,1.92c-.55,2.57-.94,5.11-1.25,7.53-1.17,9.7-1.37,17.25-1.58,19.75-.7,10-2.39,18.14-4.25,18.09s-3.14-8.35-2.43-18.56a196.32,196.32,0,0,1,2.67-20.17c.48-2.51,1.06-5.16,1.85-7.92.2-.69.43-1.39.65-2.09s.49-1.42.8-2.15l.47-1.08c.17-.37.37-.74.56-1.11a9.57,9.57,0,0,1,.68-1.12l.37-.56c.16-.2.33-.39.49-.58l.51-.56c.22-.19.46-.38.69-.55a6.68,6.68,0,0,1,1.24-.75,19.07,19.07,0,0,1,2.29-1,42.83,42.83,0,0,1,4.53-1.3c2.92-.72,5.67-1.37,7.8-2.81a15.1,15.1,0,0,0,2.93-2.69,34.93,34.93,0,0,0,2.46-3.41c1.54-2.4,3-5,4.74-7.24a14.23,14.23,0,0,1,6.74-5.06,20.5,20.5,0,0,1,7.29-.5,16.71,16.71,0,0,0,5.67-.35,8.27,8.27,0,0,0,3.6-2.27,4.47,4.47,0,0,0,1.33-3.1C363.35,248,363.34,247.89,363.34,247.89Z"/><path class="cls-8" d="M363.23,249.05a2.8,2.8,0,0,0,.11-.69,3.08,3.08,0,0,1-.11.77l0,.15-.17.45a5.27,5.27,0,0,1-1,1.57A8.61,8.61,0,0,1,355.5,254c-1.59.06-3.38-.11-5.41-.13a16,16,0,0,0-3.24.26,8.79,8.79,0,0,0-1.7.47,9.83,9.83,0,0,0-1.69.76,17.06,17.06,0,0,0-5.57,5.4c-1.53,2.19-2.86,4.61-4.39,6.92a17.43,17.43,0,0,1-5.65,5.77c-2.39,1.33-5.39,1.9-8.7,2.78a24.58,24.58,0,0,0-5.14,1.89l-.65.34c-.26.18-.54.39-.8.59l-.39.32-.29.32-.57.67c-.33.44-.59.88-.89,1.33l-.69,1.33a52.33,52.33,0,0,0-3.29,10.81c-.78,3.68-1.38,7.44-1.9,11.26-.26,1.91-.5,3.84-.71,5.76l-.15,1.43c0,.33-.07.72-.1,1-.06.66-.12,1.29-.17,1.88s-.1,1.28-.13,1.89,0,1.13,0,1.61v1.23l0,.51v.21l0,.32a28.41,28.41,0,0,0,.45,4,10.77,10.77,0,0,0,.31,1.27,5.68,5.68,0,0,0,.33.88,1.49,1.49,0,0,0,.73.84c.5.19,1-.29,1.57-1.39a16,16,0,0,0,.82-2.17c.14-.45.27-.93.41-1.48s.28-1.12.41-1.77.27-1.33.4-2.06l.1-.56.09-.56,0-.28v-.13l0-.2.09-.91,0-.49,0-.45,0-.39v-.4l.06-1.06.23-4.31c.18-2.87.39-5.65.65-8.3a84.66,84.66,0,0,1,2.34-14.13,14.35,14.35,0,0,1,2.2-4.92,3.33,3.33,0,0,1,.34-.32l.17-.16.25-.16c.34-.22.69-.42,1-.6a20.37,20.37,0,0,1,2.1-.95c2.77-1,5.14-1.67,6.68-2.28a19.11,19.11,0,0,0,4.45-2.28,16.26,16.26,0,0,0,3.46-3.47,62.26,62.26,0,0,0,4.63-7.89,22,22,0,0,1,4.94-6.7,11,11,0,0,1,1.61-1.14,16.2,16.2,0,0,1,1.76-.8,13.68,13.68,0,0,1,3.62-.65c2.38-.14,4.58,0,6.53-.23a9,9,0,0,0,4.72-1.89,6.5,6.5,0,0,0,2.18-2.89,4.71,4.71,0,0,0,.16-.65l0-.14v0h0c0-.12,0,.29,0-.29h0v-.19a.58.58,0,0,0,0-.16v-.14l0-.28a4.5,4.5,0,0,0-.13-.5c0-.14-.05-.23,0-.2s0,0,.07.11l0,0,0,0h0a.24.24,0,0,1,.08.09,1.59,1.59,0,0,1,.23.53,3.76,3.76,0,0,1,.15,1c.06,1.71-1.6,4.72-5.39,6.11a22.31,22.31,0,0,1-6.36.8c-2.25.09-4.64.18-6.63,1.33a4.44,4.44,0,0,0-.74.45c-.23.18-.49.31-.72.51a12.2,12.2,0,0,0-1.32,1.28,19.64,19.64,0,0,0-2.33,3.27c-1.45,2.45-2.73,5.32-4.54,8.27a29.6,29.6,0,0,1-2,2.72c-.43.52-1,1.07-1.54,1.64a19.21,19.21,0,0,1-2.07,1.65,23.32,23.32,0,0,1-5.4,2.52c-1.95.67-4,1.23-5.93,2a14.61,14.61,0,0,0-2.71,1.36l-.16.1,0,.06-.09.09-.06,0-.07.11-.15.21a2.44,2.44,0,0,0-.33.53,4.35,4.35,0,0,0-.33.65,33.18,33.18,0,0,0-2.06,7.22c-.53,2.76-.94,5.73-1.29,9-.17,1.62-.33,3.28-.48,5.07L311,307l-.15,2.07c-.06.77-.11,1.57-.17,2.33s-.11,1.64-.16,2.38-.11,1.62-.17,2.4-.11,1.55-.17,2.42c-.11,1.37-.23,2.93-.36,4.71l-.1,1.11-.09,1.06,0,.53,0,.51-.1,1c-.06.59-.12,1.21-.18,1.85l-.1.85-.09.82-.09.77-.1.76,0,.36,0,.3-.07.48-.13.87-.13.77c-.16,1-.31,1.76-.46,2.44s-.3,1.25-.44,1.75-.29.89-.43,1.26a4.2,4.2,0,0,1-.84,1.44c-.55.53-1.1.33-1.64-.59a9.31,9.31,0,0,1-.79-2c-.13-.45-.25-.94-.37-1.53s-.24-1.23-.36-2a60.22,60.22,0,0,1-.59-6.11l0-.57,0-.7,0-.76,0-.77c0-1.05,0-2.23,0-3.51s.06-2.68.13-4.16l.06-1.12.07-1.14,0-.28,0-.29,0-.56.09-1.12c.06-.68.13-1.42.2-2.2l.11-1.08.12-1.06.23-2,.2-1.54c.26-2,.54-4,.84-5.88.62-3.81,1.32-7.48,2.24-11.07a54.94,54.94,0,0,1,1.68-5.34,17.88,17.88,0,0,1,3-5.34,5.72,5.72,0,0,1,.65-.66c.27-.22.55-.44.83-.64l.21-.15.17-.08.32-.17c.22-.12.43-.24.65-.34a22.74,22.74,0,0,1,2.59-1c1.7-.56,3.33-.93,4.85-1.3,3-.74,5.66-1.5,7.6-3.11a24,24,0,0,0,5-6.09,76.69,76.69,0,0,1,4.39-6.62A13.23,13.23,0,0,1,351,253.72c1.92.07,3.62.22,5.12.13a8.37,8.37,0,0,0,6-2.73,5,5,0,0,0,.95-1.5A2.17,2.17,0,0,0,363.23,249.05Z"/></g><text class="cls-9" transform="translate(0.89 333.05)"><tspan class="cls-10">N</tspan><tspan x="49.43" y="0">iDS</tspan></text><text class="cls-11" transform="translate(0 366.53)"><tspan xml:space="preserve"> Neu</tspan><tspan class="cls-12" x="32.67" y="0">r</tspan><tspan x="38.06" y="0">oima</tspan><tspan class="cls-13" x="73.75" y="0">g</tspan><tspan x="83.15" y="0">ing &amp; D</tspan><tspan class="cls-14" x="134.88" y="0">a</tspan><tspan x="143" y="0">ta </tspan><tspan class="cls-15" x="160.43" y="0">S</tspan><tspan class="cls-16" x="168.91" y="0">cien</tspan><tspan class="cls-17" x="198.46" y="0">c</tspan><tspan class="cls-16" x="205.97" y="0">e </tspan><tspan class="cls-14" x="218.09" y="0">a</tspan><tspan x="226.22" y="0">t</tspan><tspan class="cls-18" x="231.84" y="0"> </tspan><tspan class="cls-19" x="234.66" y="0">Y</tspan><tspan x="242.67" y="0">ale</tspan></text><path class="cls-20" d="M386.42,282.79s-2.23-17.54-22.68-16.76-.95-2.39-9.34,0"/><path class="cls-21" d="M388.84,283.82s-23.9,9.9-33-9.49-3.58.75-4.68-8.6"/><g class="cls-5"><path d="M347.68,266.1h0a14.09,14.09,0,0,0-1.63-.25,14.31,14.31,0,0,0-3.66.18,14,14,0,0,0-3.66,1.21,14.77,14.77,0,0,0-1.93,1.13c-.93.63-1.71,1.14-1.86,1s.44-.94,1.43-1.61a12.92,12.92,0,0,1,2.1-1.09,14.34,14.34,0,0,1,3.86-1,14.17,14.17,0,0,1,3.74.08A12.88,12.88,0,0,1,347.68,266.1Z"/><path class="cls-22" d="M347.54,266.06c.12,0,.11,0,0,0l-.29-.08a8.7,8.7,0,0,0-.86-.19,13.69,13.69,0,0,0-5.28.08,14,14,0,0,0-2.34.69,11.62,11.62,0,0,0-1.2.54l-.6.31-.14.09-.1.06-.19.12-.18.12-.16.11-.11.09,0,0,0,0,0,0a4.27,4.27,0,0,0-.32.34.47.47,0,0,0-.09.12l-.05.09a.23.23,0,0,0,0,.13q0,.09.24,0l.25-.09.16-.07.18-.09.21-.11.06,0,.06,0,0,0h0l.09-.05,0,0,0,0,0,0h0l0,0,.1-.07a2.85,2.85,0,0,1,.41-.26c.28-.16.54-.35.81-.48.54-.28,1.05-.5,1.51-.69a14.18,14.18,0,0,1,2-.61,13.17,13.17,0,0,1,3.93-.29,9.26,9.26,0,0,1,1.35.18l.43.1.08,0h0s0,0,0,0h.09l.06,0h0l-.18,0c-.18,0-.49-.09-.91-.13a14,14,0,0,0-3.55,0,15.11,15.11,0,0,0-2.09.44,12.88,12.88,0,0,0-1.65.59,9.75,9.75,0,0,0-.94.44,5.25,5.25,0,0,0-.51.28l-.13.07-.2.12-.23.14-.22.14-.23.15-.23.15-.43.3-.1.08-.1.06-.05,0,0,0-.09.07-.17.12-.07.06-.08,0-.07.05-.07.05,0,0,0,0-.05,0-.08.05-.07.05-.23.17-.17.1-.13.07a.41.41,0,0,1-.19.05c-.09,0-.12-.05-.09-.17a1.33,1.33,0,0,1,.1-.23l.09-.16.13-.19a3.65,3.65,0,0,1,.47-.55l.05,0,.05-.06.07-.06.06-.07c.09-.09.2-.17.31-.27l.39-.3.1-.08.12-.07,0,0,0,0,.06,0,.11-.07.22-.14.11-.06.1-.07.21-.11.16-.08c.22-.11.41-.22.62-.31a10.71,10.71,0,0,1,1.2-.48,14.08,14.08,0,0,1,2.28-.61,15.84,15.84,0,0,1,2.05-.21,12.57,12.57,0,0,1,3,.25,7.64,7.64,0,0,1,.81.18Z"/></g><path class="cls-23" d="M170.27,338.82l-.52-.29v0s-.08-.1-.16-.22a.47.47,0,0,0,.06-.09"/><line class="cls-20" x1="169.75" y1="338.53" x2="163.89" y2="348.6"/><path class="cls-24" d="M154.72,280.4S139,303.82,166,321.74s-4.52,10.6,8.65,15.51"/><path class="cls-25" d="M152.73,276.9s36.56,17.49,28.6,49.11,5.36,2.41-2.74,14.6"/><path class="cls-26" d="M247.92,288.81s-6.53,12.8-27.14,10.41h0l10.14-12.44"/><path class="cls-23" d="M171.47,338.29a332.09,332.09,0,0,1,21.17-25.89c6.18-6.7,12.72-13,18.88-17.29,2.93-1.69,6.42-3.55,10.24-5.28h0c2.41-1.1,5-2.13,7.56-3"/><path class="cls-23" d="M230.87,286.27l-13,15.39h0s-22.21,48.12-45.69,37.25"/><path class="cls-20" d="M171.47,338.29c-1.28-3.47-11.11-33.51,29.44-36.62l-8.27,10.73-20.42,26.52"/></g></g></svg>