<svg xmlns="http://www.w3.org/2000/svg" viewBox="0 0 421.69 384.02"><defs><style>.cls-1,.cls-15,.cls-16,.cls-20,.cls-21{fill:none;}.cls-1,.cls-15,.cls-16,.cls-2,.cls-20{stroke:#000;}.cls-1,.cls-12,.cls-13,.cls-14,.cls-15,.cls-16,.cls-17,.cls-19,.cls-2,.cls-20,.cls-21{stroke-miterlimit:10;}.cls-1,.cls-13,.cls-14,.cls-15,.cls-16,.cls-17,.cls-19{stroke-width:2px;}.cls-1{opacity:0.67;}.cls-2{font-size:74px;}.cls-2,.cls-4{fill:#303030;font-family:MyriadPro-Regular, Myriad Pro;}.cls-3{letter-spacing:0.01em;}.cls-4{opacity:0.61;font-size:17px;}.cls-5{letter-spacing:-0.01em;}.cls-6{letter-spacing:-0.01em;}.cls-7{letter-spacing:0em;}.cls-8{letter-spacing:0.01em;}.cls-9{letter-spacing:-0.01em;}.cls-10{letter-spacing:-0.05em;}.cls-11{letter-spacing:-0.07em;}.cls-12,.cls-14,.cls-18{fill:#00356b;}.cls-12,.cls-13,.cls-14,.cls-17,.cls-19{stroke:#fff;}.cls-12{stroke-width:0.5px;}.cls-13{fill:#7ec67e;}.cls-16{opacity:0.73;}.cls-17{fill:#e90013;}.cls-19{fill:#7ec62b;}.cls-21{stroke:#7b7b7b;stroke-width:0px;}</style></defs><title>nids2_1</title><g id="Layer_2" data-name="Layer 2"><g id="Layer_1-2" data-name="Layer 1"><path class="cls-1" d="M264.56,4.44c-29.28-8.62-87.28,0-117,14.36S102.19,46.52,86.63,46.52,64.09,77.26,56.71,85.93,25.23,107.67,15.1,159.12s50.68,83.7,71.53,79.53a139.54,139.54,0,0,0,38.27-14.36L56.71,159.12l68.19-1,62.73,42.5-25.71,23.67,112.22,19-47-103.47L191.63,79.24h80.59l79.56,60.53-68.3,14.35,80.8,41.64-52.12,42.89"/><text class="cls-2" transform="translate(0.5 341.96)"><tspan class="cls-3">N</tspan><tspan x="49.43" y="0" xml:space="preserve">iDS  </tspan></text><text class="cls-4" transform="translate(2.33 375.44)">Neu<tspan class="cls-5" x="29.07" y="0">r</tspan><tspan x="34.46" y="0">oima</tspan><tspan class="cls-6" x="70.14" y="0">g</tspan><tspan x="79.54" y="0">ing &amp; D</tspan><tspan class="cls-7" x="131.27" y="0">a</tspan><tspan x="139.4" y="0">ta </tspan><tspan class="cls-8" x="156.82" y="0">S</tspan><tspan x="165.31" y="0">cien</tspan><tspan class="cls-9" x="194.85" y="0">c</tspan><tspan x="202.37" y="0">e </tspan><tspan class="cls-7" x="214.49" y="0">a</tspan><tspan x="222.61" y="0">t</tspan><tspan class="cls-10" x="228.24" y="0"> </tspan><tspan class="cls-11" x="231.06" y="0">Y</tspan><tspan x="239.07" y="0">ale</tspan></text><path class="cls-12" d="M186.84,346l-.53-.3v0l-.15-.22a.47.47,0,0,1,.06-.09"/><line class="cls-13" x1="186.31" y1="345.69" x2="180.46" y2="355.76"/><path class="cls-14" d="M178.29,287.56c3.29-4.89-15.39,28.31,4.28,41.34,27,17.92-4.53,10.61,8.65,15.52"/><path class="cls-14" d="M179.29,284.06s26.57,17.49,18.6,49.11,5.36,2.41-2.74,14.6"/><line class="cls-15" x1="368.14" y1="234.65" x2="412.1" y2="234.65"/><polyline class="cls-16" points="364.28 195.76 420.54 159.13 412.1 125.41"/><polyline class="cls-1" points="124.91 158.13 124.91 224.29 161.92 224.29"/><polyline class="cls-1" points="351.78 139.76 420.54 159.13 412.1 234.65 351.78 139.76 412.1 125.41 353.78 57.21"/><polygon class="cls-1" points="56.71 159.13 86.63 238.65 42.35 218.98 56.71 159.13"/><polyline class="cls-1" points="56.71 159.13 13.97 186.26 42.35 218.98"/><polyline class="cls-1" points="116.55 46.52 177.28 104.29 177.28 18.8 299.17 46.52 272.22 79.24 227.15 139.76 196.63 253.01"/><path class="cls-1" d="M412.1,125.41c-8.45-33.72-25.34-56.6-72.68-93.25s-45.58-19.1-74.86-27.72"/><polyline class="cls-1" points="161.92 224.29 196.63 253.01 274.14 243.24 283.48 154.13 312.16 238.65 368.14 234.65 364.28 195.76 351.78 139.76 353.78 57.21 309.99 85.93 299.17 46.52 323.78 46.52"/><line class="cls-1" x1="56.71" y1="159.12" x2="116.55" y2="46.52"/><polygon class="cls-1" points="116.55 46.52 124.91 158.13 177.28 104.29 187.63 200.62 227.15 139.76 283.48 154.13 272.22 79.24 220.32 57.21 191.63 79.24 196.63 42.85 177.28 18.8 116.55 46.52"/><circle class="cls-17" cx="177.28" cy="104.29" r="14.36"/><circle class="cls-17" cx="283.48" cy="154.12" r="14.36"/><circle class="cls-17" cx="274.14" cy="243.24" r="14.36"/><circle class="cls-17" cx="227.15" cy="139.77" r="14.36"/><circle class="cls-17" cx="272.22" cy="79.24" r="14.36"/><circle class="cls-17" cx="309.99" cy="85.93" r="14.36"/><circle class="cls-17" cx="351.78" cy="139.77" r="14.36"/><circle class="cls-17" cx="353.78" cy="57.21" r="14.36"/><circle class="cls-17" cx="368.14" cy="234.65" r="14.36"/><circle class="cls-17" cx="220.32" cy="57.21" r="14.36"/><circle class="cls-17" cx="312.16" cy="238.65" r="14.36"/><path class="cls-17" d="M71.07,159.12a14.36,14.36,0,1,1-14.36-14.35A14.35,14.35,0,0,1,71.07,159.12Z"/><circle class="cls-17" cx="116.55" cy="46.52" r="14.36"/><circle class="cls-17" cx="187.63" cy="200.62" r="14.36"/><circle class="cls-17" cx="161.92" cy="224.29" r="14.36"/><circle class="cls-17" cx="124.9" cy="158.12" r="14.36"/><circle class="cls-17" cx="196.63" cy="253.01" r="14.36"/><circle class="cls-17" cx="191.63" cy="79.24" r="9.5"/><path class="cls-17" d="M177.28,4.44A14.36,14.36,0,1,1,162.92,18.8,14.35,14.35,0,0,1,177.28,4.44"/><circle class="cls-17" cx="364.28" cy="195.76" r="9.5"/><circle class="cls-17" cx="299.17" cy="46.52" r="9.5"/><circle class="cls-17" cx="196.63" cy="42.85" r="9.5"/><circle class="cls-17" cx="323.78" cy="46.52" r="9.5"/><path class="cls-18" d="M250.59,299.29s-6.53,12.81-27.14,10.41h0l10.15-12.44"/><path class="cls-12" d="M175.14,349.48a330.23,330.23,0,0,1,21.17-25.89c6.18-6.71,12.72-13,18.88-17.29,2.93-1.7,6.42-3.55,10.23-5.28h0c2.41-1.1,4.95-2.14,7.56-3"/><path class="cls-12" d="M233.54,296.46l-12.95,15.39h0S198.37,360,174.89,349.11"/><path class="cls-14" d="M175.14,349.48c-1.06-2.87-3.34-34.11,29.44-36.63l-8.27,10.74-20.42,26.52"/><path class="cls-13" d="M369.5,279s-2.24-17.53-22.68-16.75-.95-2.39-9.34,0"/><path class="cls-19" d="M371.92,280s-23.9,9.89-33.05-9.49-3.58.75-4.67-8.6"/><polygon class="cls-20" points="311.68 261.44 281.12 262.46 306.66 309.68 311.68 261.44"/><polygon class="cls-20" points="331.19 288.83 310.68 314.31 358.24 316.34 331.19 288.83"/><polygon class="cls-20" points="326.8 273.22 318.38 265.44 314.4 291.82 326.8 273.22"/><path d="M331.43,259.16s0,0,0,0a31.67,31.67,0,0,1-3.78-3.08,29.69,29.69,0,0,1-3.73-4.31c-.59-.88-.89-1.71-.72-1.81s.72.56,1.3,1.42a35.1,35.1,0,0,0,3.4,4.46A31.15,31.15,0,0,0,331.43,259.16Z"/><path class="cls-21" d="M331.33,259.08c.08.07.08.07,0,0s-.3-.24-.81-.69a26.5,26.5,0,0,1-2.07-1.95c-.41-.42-.84-.9-1.29-1.42s-.89-1.09-1.35-1.69c-.22-.31-.45-.61-.67-.94l-.33-.49-.08-.12-.06-.09-.1-.16-.11-.16-.1-.13-.08-.1,0,0v0l0,0-.28-.31-.1-.09-.09,0a.13.13,0,0,0-.11,0c-.05,0-.07.09-.05.21a1.67,1.67,0,0,0,.06.24l.06.15.07.17.1.2,0,.06,0,0v0h0v0l.05.08,0,0,0,0,0,0h0l0,0,.06.09.28.36c.18.24.36.48.54.7.36.44.7.83,1,1.17.61.67,1.07,1.14,1.31,1.38,1,.94,1.93,1.78,2.7,2.4l1,.76.32.24.06.05h0l0,0h0l0,0,.05,0v0h0l-.15-.09-.7-.46a28.17,28.17,0,0,1-2.55-2.07c-.25-.24-.76-.7-1.43-1.4-.33-.35-.7-.76-1.1-1.23-.21-.23-.41-.48-.63-.75l-.33-.43-.09-.12-.14-.17-.15-.2-.14-.21-.15-.21-.14-.22-.27-.42-.06-.1-.06-.1,0-.05,0-.05-.06-.09-.09-.17,0-.08,0-.08,0-.08,0-.07,0,0v0l0,0,0-.08,0-.08-.09-.24-.05-.18,0-.14a.34.34,0,0,1,0-.17c0-.08.09-.09.18,0l.18.14.12.12.13.15.4.49,0,0,0,.06.05.06,0,.07.21.29c.11.15.19.28.24.35l.06.09.07.1,0,0v0l0,0,.07.1.12.19.06.09.06.09.12.17.09.13.34.5c.21.3.44.61.66.91.44.59.88,1.13,1.3,1.63s.84,1,1.24,1.35c.78.82,1.47,1.44,2,1.87S331.33,259.08,331.33,259.08Z"/></g></g></svg>