<!-- Generator: Adobe Illustrator 23.0.1, SVG Export Plug-In  -->
<svg version="1.1" xmlns="http://www.w3.org/2000/svg" xmlns:xlink="http://www.w3.org/1999/xlink" x="0px" y="0px"
	 width="65.919px" height="48.743px" viewBox="0 0 65.919 48.743" style="enable-background:new 0 0 65.919 48.743;"
	 xml:space="preserve">
<style type="text/css">
	.st0{fill:#FFD36A;stroke:#000000;stroke-miterlimit:10;}
	.st1{fill:#FFFFFF;stroke:#000000;stroke-miterlimit:10;}
	.st2{fill:#F4E798;stroke:#000000;stroke-miterlimit:10;}
	.st3{fill:#231F20;stroke:#231F20;stroke-miterlimit:10;}
	.st4{fill:#414042;stroke:#231F20;stroke-miterlimit:10;}
	.st5{fill:#8A8C8E;stroke:#231F20;stroke-miterlimit:10;}
	.st6{opacity:0.66;fill:none;stroke:#000000;stroke-miterlimit:10;enable-background:new    ;}
</style>
<defs>
</defs>
<polygon class="st0" points="32.961,30.9 29.561,32.8 1.961,47.9 1.961,14 12.961,20 "/>
<polygon class="st1" points="12.961,14 12.961,20 1.961,14 "/>
<polygon class="st2" points="63.961,14 63.961,47.9 1.961,47.9 29.561,32.8 32.961,30.9 52.061,20.5 "/>
<polygon class="st1" points="63.961,14 52.061,20.5 52.061,14 "/>
<polygon class="st1" points="52.061,0.5 52.061,22.4 32.961,30.9 12.961,22 12.961,0.5 "/>
<circle class="st3" cx="7.461" cy="30.9" r="2.4"/>
<circle class="st3" cx="16.061" cy="30.9" r="2.4"/>
<circle class="st4" cx="52.061" cy="32.8" r="7.3"/>
<circle class="st5" cx="52.061" cy="32.8" r="4.6"/>
<line class="st6" x1="15.461" y1="5.7" x2="49.561" y2="5.7"/>
<line class="st6" x1="15.661" y1="11.8" x2="49.661" y2="11.8"/>
<line class="st6" x1="15.961" y1="17" x2="49.961" y2="17"/>
</svg>