<!-- Generator: Adobe Illustrator 23.0.1, SVG Export Plug-In  -->
<svg version="1.1" xmlns="http://www.w3.org/2000/svg" xmlns:xlink="http://www.w3.org/1999/xlink" x="0px" y="0px"
	 width="273.007px" height="178.803px" viewBox="0 0 273.007 178.803" style="enable-background:new 0 0 273.007 178.803;"
	 xml:space="preserve">
<style type="text/css">
	.st0{fill:#D4DF36;stroke:#231F20;stroke-miterlimit:10;}
	.st1{fill:#F8EDC5;stroke:#231F20;stroke-miterlimit:10;}
	.st2{fill:#F6EE6E;stroke:#231F20;stroke-miterlimit:10;}
	.st3{fill:#FFFFFF;stroke:#231F20;stroke-miterlimit:10;}
	.st4{fill:#F6EE9A;}
	.st5{fill:#F6EEBD;}
	.st6{fill:#F6EEC2;}
	.st7{fill:#F6EEAD;}
</style>
<defs>
</defs>
<g>
	<g>
		<path class="st0" d="M272.507,38.303c0,77.32-61.265,140-136.84,140c-68.127,0-124.622-50.93-135.1-117.61l266.916-60.1
			C270.757,12.593,272.507,25.233,272.507,38.303z"/>
		<path class="st1" d="M267.43,41.619c0,72.307-58.457,130.922-130.568,130.922c-65.004,0-118.91-47.628-128.908-109.984
			L262.636,6.354C265.76,17.576,267.43,29.397,267.43,41.619z"/>
		<path class="st2" d="M86.782,108.312c-23.729,25.734-34.183,29.684-58.188-10.968s22.502-43.297,22.502-43.297l65.902-5.556
			l10.894-0.697C127.892,47.794,110.511,82.578,86.782,108.312z"/>
		<path class="st2" d="M152.797,118.862c2.979,34.429-1.108,44.746-46.84,35.773s-16.636-45.06-16.636-45.06l39.908-52.324
			l6.759-8.504C135.988,48.747,149.818,84.433,152.797,118.862z"/>
		<path class="st2" d="M216.958,19.113c33.596-9.828,44.591-7.827,44.218,39.382c-0.374,47.209-41.595,25.512-41.595,25.512
			l-59.343-29.195l-9.695-5.016C150.543,49.796,183.362,28.94,216.958,19.113z"/>
		<path class="st2" d="M205.227,86.455c26.557,20.098,31.039,29.306-7.261,52.834s-43.648-18.154-43.648-18.154l-9.345-58.976
			l-1.328-9.76C143.645,52.4,178.67,66.357,205.227,86.455z"/>
		<path class="st3" d="M117.241,53.618c0,0-10.734-2.296-8.355,5.656C111.191,67.159,117.241,53.618,117.241,53.618z"/>
		<path class="st3" d="M158.814,49.544c0,0,11.613,10.57,20.74,2.724C188.682,44.533,158.814,49.544,158.814,49.544z"/>
		<path class="st3" d="M154.421,63.424c0,0-1.893,10.813,5.965,8.138C168.179,68.963,154.421,63.424,154.421,63.424z"/>
	</g>
	<path class="st4" d="M206.845,38.68c5.491-5.244,13.607-4.13,18.475-3.462c4.168,0.572,9.284,1.274,13.525,5.462
		c0.844,0.833,6.862,6.777,5,13c-2.231,7.455-14.299,10.388-18,7c-3.298-3.019,1.321-9.896-2-13c-4.688-4.382-17.892,5.578-21,2
		C201.043,47.606,203.453,41.92,206.845,38.68z"/>
	<path class="st5" d="M124.845,87.68c-2.62,0.995-8.762,3.762-12.615,10.282c-1.207,2.043-1.935,4.023-2.385,5.718
		c2.409,5.771,4.685,13.888,1,20c-3.482,5.776-10.033,6.022-10,9c0.062,5.568,23.049,11.912,26,7c1.539-2.562-4.154-5.224-5-13
		c-0.339-3.117,0.318-5.056,9-25c0.741-1.702,2.443-5.609,4-11c3.201-11.083,1.428-13.344,0.555-14.045
		c-1.201-0.963-2.61-1.384-3.834-1.445"/>
	<path class="st6" d="M169.845,76.68c3.734-1.623,10.179,1.519,12,6c2.175,5.352-3.431,9.707-1,14c1.921,3.392,5.98,1.664,12,6
		c1.918,1.382,7.159,5.157,7,10c-0.214,6.528-10.144,12.168-14,10c-3.126-1.757-0.006-7.379-4-13c-3.773-5.31-8.787-3.432-13-8
		C162.395,94.687,163.96,79.238,169.845,76.68z"/>
	<g>
		<path class="st7" d="M54.845,70.68c-1.554,1.743-2.036,4.828-3,11c-1.23,7.875-2.777,17.779,1,20c4.935,2.903,19.794-6.82,22-19
			c0.991-5.471-1.373-7.008,0-11c4.291-12.473,33.328-14.808,34.041-12.406c0.42,1.417-8.499,6.212-17.041,8.406
			C73.225,72.464,61.079,63.69,54.845,70.68z"/>
		<path class="st3" d="M131.512,61.958c0,0-7.5,8.016,0.542,10.075C139.999,74.121,131.512,61.958,131.512,61.958z"/>
	</g>
</g>
</svg>