<!-- Generator: Adobe Illustrator 23.0.1, SVG Export Plug-In  -->
<svg version="1.1" xmlns="http://www.w3.org/2000/svg" xmlns:xlink="http://www.w3.org/1999/xlink" x="0px" y="0px"
	 width="131.204px" height="196.62px" viewBox="0 0 131.204 196.62" style="enable-background:new 0 0 131.204 196.62;"
	 xml:space="preserve">
<style type="text/css">
	.st0{fill:none;stroke:#000000;stroke-width:0;stroke-linecap:round;stroke-linejoin:round;}
	.st1{stroke:#000000;stroke-width:0;stroke-linecap:round;stroke-linejoin:round;}
</style>
<defs>
</defs>
<g>
	<path class="st0" d="M37.381,192.146c-2.599-0.927-5.097-2.014-7.493-3.248"/>
	<path class="st0" d="M0.927,116.698c-0.227,2.059-0.415,4.079-0.559,6.05"/>
	<path class="st0" d="M19.192,181.704c-1.475-1.285-2.88-2.658-4.209-4.124"/>
	<path class="st0" d="M124.222,84.593c0.462,1.779,0.904,3.554,1.324,5.324"/>
	<path class="st0" d="M85.04,8.189c-0.952-0.803-1.913-1.552-2.883-2.247"/>
	<path class="st1" d="M131.034,137.85c0.1-1.84,0.17-3.71,0.17-5.64c0-2.86-0.11-5.87-0.33-9c-0.84,3.64-2.24,6.75-4.67,5.11
		c-0.51-0.34,1.95-11.33,3.26-18.04c-0.95-6.55-2.27-13.41-3.92-20.36c-3.01-3.72-7.61-5.81-14.25-4.45
		c-14.13,2.9-11.15,16.44-13.32,26.73c-5.88,27.92-32.3,47.15-60.36,47c-13.74-0.07-26.32-4.52-36.45-12.04
		c0.37,2.23,0.82,4.37,1.35,6.43c7.07,4.01,14.15,7.77,15.84,8.24c12.36,3.48,25.6,3.4,37.96-0.04c11.77-3.27,22.72-9.6,31.19-18.44
		c2.39-2.48,14.6-22.71,15.44-22.41c5.08,1.86-12.43,23.69-14.6,25.83c-8.65,8.54-19.54,14.66-31.22,17.91
		c-13.57,3.78-28.27,3.69-41.72-0.56c-1.22-0.39-6.05-2.67-11.46-5.62c0.98,2.87,2.14,5.55,3.45,8.07
		c15.46,6.5,33.07,7.9,49.93,3.52c8.43-2.2,15.1-6.55,22.92-9.98c10.57-4.62,2.09,2.48-3.34,5.43c-13.64,7.38-29.22,10.91-44.71,10
		c-7.74-0.46-15.25-2.06-22.32-4.67c1.55,2.42,3.25,4.66,5.11,6.71c8.45,2.31,17.25,3.38,26.06,3.07
		c21.78-0.76,42.92-9.81,58.18-25.42c12.02-12.3,26.33-36.13,22.62-54.36c-1.48-7.31-9.91-10.61-13.81-2.6
		c-0.42,0.86-2.51,26.31-5.3,18.1c-0.79-2.34,0.99-13.74,1.43-16.08c0.57-2.99,1.72-6.35,4.89-8.4c9.72-6.26,16.22,4.56,15.69,12.05
		c-3.22,45.54-41.66,80-87.26,79.76c-6.17-0.03-12.3-0.71-18.29-2c3.24,2.83,6.83,5.21,10.69,7.2c7.72-0.7,21.52-0.95,24.04-1.39
		c11.98-2.07,23.59-6.4,33.97-12.75c9.22-5.63,17.49-12.88,24.16-21.38c2.14-2.72,12.72-22.2,14.04-21.68
		c4.24,1.69-10.62,22.31-12.86,25.04c-7.12,8.66-15.84,15.93-25.51,21.59c-10.21,5.98-21.5,10.09-33.15,12.14
		c-1.5,0.26-9.74,1.36-17.19,1.68c4.69,1.67,9.68,2.85,14.91,3.58c10.72-1.63,21.2-4.81,31.01-9.43
		c2.85-1.34,22.33-14.64,23.4-13.77c3.61,2.91-20.76,15.91-23.98,17.36c-6.26,2.81-12.79,5.04-19.46,6.69
		c0.78,0.02,1.55,0.04,2.34,0.04c7.48,0,14.67-0.8,21.37-2.44c5.48-2.62,10.76-5.68,15.73-9.18c8.41-5.92,15.96-13,22.37-21.01
		c2.4-5.28,4.15-11.28,5.15-18.02c-1.58,2.95-3.3,5.83-5.16,8.62c-2.26,3.37-4.72,6.62-7.36,9.7c-1.77,2.07-3.63,4.08-5.56,6
		c-2.12,0.7-2.83,0-2.12-2.12C116.634,161.59,124.864,150.35,131.034,137.85z M111.004,118.26c0.8-3.08,1.05-21.64,3.49-21.53
		c5.89,0.26-1.44,25.68-3.07,29.89c-2.68,6.89-6.42,13.34-10.99,19.14c-1.98,2.51-4.16,5.65-6.8,7.56c-0.9,2.19-2.26,3.09-4.07,2.7
		c-1.43,0.25-1.74-0.48-0.91-2.2C99.344,144.54,107.404,132,111.004,118.26z"/>
	<path class="st0" d="M0.009,131.265C0.007,131.579,0,131.898,0,132.209c0,1.323,0.031,2.618,0.078,3.895"/>
	<path class="st0" d="M101.885,29.007c-0.561-0.928-1.128-1.839-1.701-2.735"/>
	<path class="st0" d="M89.124,12.017c0.787,0.808,1.567,1.648,2.338,2.524"/>
	<path class="st0" d="M97.065,21.64c-0.61-0.856-1.226-1.692-1.847-2.508"/>
	<path class="st0" d="M3.949,158.495c-0.535-1.574-1.003-3.218-1.435-4.901"/>
	<path class="st0" d="M0.629,143.267c0.153,1.324,0.332,2.621,0.54,3.89"/>
	<path class="st0" d="M7.393,166.57c0.773,1.494,1.598,2.931,2.479,4.304"/>
	<path class="st0" d="M2.591,104.922c0.636-3.726,1.385-7.529,2.237-11.375"/>
	<path class="st0" d="M118.663,66.074c0.417,1.221,0.828,2.445,1.227,3.673"/>
	<path class="st0" d="M130.874,123.213c-0.289-4.119-0.765-8.452-1.412-12.929"/>
	<path class="st0" d="M130.22,145.97c0.385-2.595,0.659-5.301,0.815-8.121"/>
	<path class="st0" d="M122.522,78.359c-0.324-1.13-0.659-2.26-0.999-3.389"/>
	<path class="st0" d="M116.781,60.769c-0.314-0.854-0.632-1.704-0.955-2.551"/>
	<path class="st0" d="M86.972,194.182c7.492-1.836,14.378-4.738,20.365-8.854"/>
	<path class="st0" d="M125.07,163.99c-3.024,6.653-7.077,12.185-11.947,16.691"/>
	<path class="st0" d="M52.294,195.729c3.558,0.494,7.225,0.768,10.968,0.851"/>
	<path class="st0" d="M113.123,180.681c-1.823,1.686-3.746,3.245-5.787,4.648"/>
	<path class="st0" d="M56.604,1.774c-3.44,1.341-6.795,3.41-10.043,6.095"/>
	<path class="st0" d="M104.7,33.883c0.507,0.92,1.009,1.852,1.505,2.796"/>
	<path class="st0" d="M113.493,52.342c-0.459-1.11-0.924-2.214-1.398-3.307"/>
	<path class="st0" d="M71.035,0.655c1.513,0.357,3.012,0.85,4.494,1.487"/>
	<path class="st0" d="M27.943,31.342c-2.858,4.949-5.547,10.3-8.045,15.912"/>
	<path class="st0" d="M110.114,44.621c-0.324-0.699-0.65-1.393-0.98-2.082"/>
	<path class="st1" d="M71.034,0.65c-3.03,1.22-6.01,2.55-8.92,4.01c-12.68,6.39-24.45,15.61-34.17,26.68
		c5.62-9.73,11.89-17.91,18.62-23.47c3.24-2.19,6.59-4.23,10.04-6.1c2.94-1.14,5.95-1.77,9-1.77C67.434,0,69.244,0.23,71.034,0.65z"
		/>
	<path class="st0" d="M69.554,77.56c-1.44,0-4.02,20.49-4.2,22.35c-0.56,5.91-2.25,12.26-6.62,17.29
		c-10.87,12.51-31.46,12.28-42.03-0.49c-9.83-11.87-6.49-27.99-2.67-41.75c1.12-4.02,22.22-50.11,28.03-44.35
		c1.01,0.99-14.08,19.93-15.65,22.64c-4.56,7.93-8.02,16.42-10.2,25.31c-2.87,11.72-5.32,26.48,2.94,36.33
		c10.17,12.13,30.22,11.23,39.04-2C61.544,107.87,62.864,75.58,69.554,77.56z"/>
	<path class="st0" d="M4.828,93.547c0.437-9.609,3.15-19.448,6.07-27.588c2.347-6.544,5.387-12.802,8.999-18.705"/>
	<path class="st0" d="M113.123,180.681c-1.877,1.613-3.807,3.162-5.787,4.648"/>
	<path class="st0" d="M63.524,46.96c-10.65,9.34-18.64,21.93-22.16,35.68c-0.85,3.31-0.69,21.18-3.42,21.15
		c-5.74-0.07,1.42-25.5,2.95-29.51c2.64-6.9,6.35-13.37,10.89-19.19c1.97-2.53,4.14-5.67,6.76-7.6c0.89-2.19,2.25-3.1,4.06-2.72
		C64.034,44.51,64.334,45.24,63.524,46.96z"/>
	<path class="st0" d="M62.954,144.79c-5,2.57-19.71,9.18-25.41,5.92c-4.25-2.43,3.98-2.87,4.32-2.95
		c5.61-1.39,10.84-1.74,16.31-4.07c4.54-1.94,8.76-4.48,12.56-7.63c2.3-1.9,7.26-9.96,9.87-9.96
		C84.884,126.12,66.264,143.09,62.954,144.79z"/>
	<path class="st1" d="M122.524,78.36c-11.13-3.67-24.45,0.76-29.86,12.06c-2.87,5.98-1.7,12.01-2.77,18.23
		c-0.35,2.06-5.03,19.9-7.49,13.53c-0.56-1.47,3.79-10.12,4.22-12.16c0.89-4.12,0.02-7.64,0.44-11.49
		c0.65-5.99,3.96-12.98,8.81-17.4c7.06-6.44,16.88-8.37,25.65-6.16c-0.53-1.75-1.07-3.49-1.63-5.22c-0.53-0.23-0.91-0.45-1.07-0.67
		c-0.4-0.56-2.35-2.98-0.16-3.01c-0.61-1.78-1.24-3.54-1.88-5.3c-13.33-0.65-26.73,4.88-35.14,15.6
		c-10.28,13.11-4.76,27.58-12.77,40.96c-4.11,6.88-10.67,12.23-18.16,15.02c-1.71,0.64-16.92,4.44-11.51-0.67
		c1.9-1.8,10.41-1.91,13.29-3.31c3.49-1.69,6.66-4.02,9.35-6.82c5.43-5.67,8.32-12.54,8.18-20.11
		c-0.93-26.62,22.44-43.42,45.8-43.22c-0.75-1.98-1.53-3.94-2.33-5.88c-1.43,0.3-3.01,0.41-3.15,0.44
		c-5.61,1.43-10.84,1.8-16.29,4.16c-4.53,1.96-8.73,4.52-12.52,7.69c-2.29,1.92-7.22,10.01-9.82,10.01
		c-4.28,0,14.26-17.06,17.56-18.78c4.35-2.27,16.11-7.66,22.82-6.82c-0.65-1.5-1.31-2.97-1.98-4.42
		c-16.55,1.26-32.5,9.14-42.87,22.9c-8.61,11.42-8.59,21.75-10.39,34.73c-1.81,13.07-17.96,20.4-29.36,12.96
		c-11.91-7.77-9.96-26.51-5.37-38.21c3.56-9.08,3.83-3.14,2.33,3.13c-1.56,6.51-2.9,13.8-2.11,20.45c1.3,11,13.64,19.45,24.46,12.13
		c9.58-6.48,6.23-22.04,9.92-32.11c8.94-24.41,30.25-36.58,52.41-38.06c-0.95-2-1.93-3.95-2.93-5.86c-2.8,0.36-5.58,0.87-8.31,1.56
		c-11.96,3-23.13,9.18-31.86,17.88c-2.37,2.37-16.1,23.8-16.63,23.8c-5.09-1.83,12.31-23.76,14.46-25.91
		c8.61-8.58,19.47-14.76,31.13-18.07c3.18-0.9,6.43-1.58,9.71-2.06c-0.92-1.67-1.86-3.29-2.82-4.87c-2.38,0.4-4.76,0.9-7.12,1.53
		c-8.42,2.23-15.06,6.63-22.87,10.09c-10.54,4.68-2.1-2.47,3.32-5.44c7.8-4.28,16.26-7.28,24.97-8.92c-1.02-1.6-2.06-3.14-3.12-4.63
		c-15.54,3.18-30.14,10.55-41.74,21.59c-12.97,12.35-28.72,37.33-24.7,56.45c1.39,6.61,9.78,11.32,13.9,3.14
		c1.1-2.2-0.32-23.3,4.95-19.46c0.53,0.38-1.51,14.13-1.77,16.09c-0.45,3.34,0.79,5.1-3.34,8.49c-8.93,7.35-16.42-2.56-16.73-9.72
		c-1.68-39.15,31.37-70.54,67.58-79.09c-1.23-1.61-2.48-3.14-3.75-4.59c-9.61,2.41-18.87,6.27-27.3,11.48
		c-9.18,5.68-17.41,12.97-24.04,21.5c-2.12,2.74-12.61,22.27-13.93,21.75c-4.24-1.66,10.51-22.36,12.74-25.1
		c7.07-8.7,15.75-16.01,25.39-21.72c7.74-4.59,16.11-8.09,24.8-10.43c-1.34-1.38-2.7-2.66-4.08-3.83c-4.96,1.47-9.82,3.26-14.52,5.4
		c-4.86,2.21-9.57,4.77-14.05,7.67c-1.93,1.26-8.39,7.71-10.52,7.36c-4.2-0.69,18.38-15.4,21.44-16.86
		c4.78-2.28,9.72-4.21,14.76-5.82c-2.17-1.55-4.38-2.83-6.63-3.8c-0.23,0.09-0.47,0.17-0.7,0.25c-10.34,3.84-20.1,9.21-28.85,15.92
		c-10.38,7.97-19.27,17.81-26.08,28.94c-6.45,14.5-11.62,30.74-15.07,46.3c-0.36,7.9,0.82,15.64,4.7,22.15
		c4.34,7.3,11.08,11.92,18.98,14.62c9.05,3.11,5.7,5.14-2.09,2.54c-12.73-4.26-21.47-15.15-23.82-27.94
		c-0.69,4.03-1.25,7.97-1.67,11.78c4.65,11.19,13.86,19.8,29.64,22.54c16.49,2.86,34.02-4.42,42.88-18.78
		c7.77-12.61,2.77-26.06,10.9-38.42c4.43-6.72,11.1-11.85,18.76-14.39c1.92-0.63,15.02-3.65,9.98,1.2
		c-1.74,1.67-11.93,2.63-14.73,4.19c-3.38,1.88-6.46,4.31-8.99,7.24c-4.76,5.53-7.11,11.98-6.94,18.97
		c1.63,40.74-53.85,57.85-79.08,27.58c-1.1-1.32-2.09-2.69-2.98-4.08c-0.21,2.95-0.33,5.8-0.36,8.51
		c5.07,5.64,11.45,10.08,18.47,12.93c2.33,0.95,18.48,3.29,14.36,6.31c-4.86,3.57-21.61-6.23-25.6-8.96
		c-2.12-1.45-4.84-3.33-7.16-5.44c0.1,2.48,0.29,4.86,0.55,7.17c0.69,0.55,1.4,1.09,2.13,1.62c23.15,16.79,56.61,14.5,77.02-5.63
		c10.42-10.29,15.34-23.19,16.41-37.58c0.8-10.78,7.95-21.58,21.57-19.26c2.53,0.43,4.66,1.18,6.47,2.17
		C123.684,82.52,123.114,80.44,122.524,78.36z M41.364,82.64c-0.85,3.31-0.69,21.18-3.42,21.15c-5.74-0.07,1.42-25.5,2.95-29.51
		c2.64-6.9,6.35-13.37,10.89-19.19c1.97-2.53,4.14-5.67,6.76-7.6c0.89-2.19,2.25-3.1,4.06-2.72c1.43-0.26,1.73,0.47,0.92,2.19
		C52.874,56.3,44.884,68.89,41.364,82.64z M16.704,116.71c-9.83-11.87-6.49-27.99-2.67-41.75c1.12-4.02,22.22-50.11,28.03-44.35
		c1.01,0.99-14.08,19.93-15.65,22.64c-4.56,7.93-8.02,16.42-10.2,25.31c-2.87,11.72-5.32,26.48,2.94,36.33
		c10.17,12.13,30.22,11.23,39.04-2c3.35-5.02,4.67-37.31,11.36-35.33c-1.44,0-4.02,20.49-4.2,22.35
		c-0.56,5.91-2.25,12.26-6.62,17.29C47.864,129.71,27.274,129.48,16.704,116.71z M62.954,144.79c-5,2.57-19.71,9.18-25.41,5.92
		c-4.25-2.43,3.98-2.87,4.32-2.95c5.61-1.39,10.84-1.74,16.31-4.07c4.54-1.94,8.76-4.48,12.56-7.63c2.3-1.9,7.26-9.96,9.87-9.96
		C84.884,126.12,66.264,143.09,62.954,144.79z"/>
	<path class="st0" d="M111.424,126.62c-2.68,6.89-6.42,13.34-10.99,19.14c-1.98,2.51-4.16,5.65-6.8,7.56
		c-0.9,2.19-2.26,3.09-4.07,2.7c-1.43,0.25-1.74-0.48-0.91-2.2c10.69-9.28,18.75-21.82,22.35-35.56c0.8-3.08,1.05-21.64,3.49-21.53
		C120.384,96.99,113.054,122.41,111.424,126.62z"/>
</g>
</svg>