<!-- Generator: Adobe Illustrator 23.0.1, SVG Export Plug-In  -->
<svg version="1.1" xmlns="http://www.w3.org/2000/svg" xmlns:xlink="http://www.w3.org/1999/xlink" x="0px" y="0px"
	 width="154.36px" height="201.21px" viewBox="0 0 154.36 201.21" style="enable-background:new 0 0 154.36 201.21;"
	 xml:space="preserve">
<style type="text/css">
	.st0{fill:#FFFFFF;stroke:#231F20;stroke-miterlimit:10;}
	.st1{fill:#098040;stroke:#231F20;stroke-width:2;stroke-miterlimit:10;}
	.st2{fill:#6DBE45;stroke:#000000;stroke-miterlimit:10;}
	.st3{fill:#EC7075;stroke:#231F20;stroke-miterlimit:10;}
	.st4{fill:#F3A7AA;stroke:#231F20;stroke-miterlimit:10;}
	.st5{stroke:#231F20;stroke-miterlimit:10;}
	.st6{fill:none;stroke:#231F20;stroke-width:2;stroke-miterlimit:10;}
	.st7{fill:none;stroke:#231F20;stroke-miterlimit:10;}
	.st8{fill:#ED1C24;stroke:#ED1C24;stroke-miterlimit:10;}
</style>
<defs>
</defs>
<path class="st0" d="M77.18,1L77.18,1c42.073,0,76.18,34.107,76.18,76.18v47.35c0,42.073-34.107,76.18-76.18,76.18h0
	C35.107,200.71,1,166.603,1,124.53V77.18C1,35.107,35.107,1,77.18,1z"/>
<path class="st1" d="M65.433,186.523C31.743,184.968,5,145.788,5.372,97.967s27.722-86.482,61.431-87.39L65.433,186.523z"/>
<path class="st2" d="M66.129,186.122c-29.465-1.515-52.818-40.663-52.446-88.483s24.331-86.514,53.815-87.463L66.129,186.122z"/>
<path class="st3" d="M73.966,10.577c-0.009,0.607-0.009,1.213-0.018,1.82c-0.018,2.466-0.036,4.942-0.054,7.409
	c-0.43,55.57-0.869,111.149-1.298,166.719c-0.501-0.03-1.003-0.06-1.504-0.109c-1.675-0.159-3.331-0.438-4.961-0.845
	c-0.233-0.05-0.457-0.109-0.69-0.179c-25.996-6.891-45.635-43.477-45.286-87.352c0.34-43.875,20.534-80.073,46.638-86.457
	c0.233-0.07,0.466-0.129,0.698-0.169C69.614,10.925,71.772,10.646,73.966,10.577z"/>
<path class="st4" d="M73.948,12.396c-0.01,2.466-0.021,4.942-0.031,7.409c-0.248,55.57-0.501,111.149-0.749,166.719
	c-0.289-0.03-0.579-0.06-0.868-0.109c-0.925-0.428-1.927-1.183-2.852-2.486c-0.134-0.189-0.269-0.388-0.398-0.607
	c-0.212-0.348-0.419-0.726-0.615-1.144c-1.762-3.739-2.553-9.706-2.186-14.947c0.408-5.768,1.995-7.428,2.925-11.227
	c0.16-0.656,0.3-1.382,0.408-2.208c0.067-0.467,0.119-0.965,0.16-1.502c0.16-2.019,0.078-3.57-0.129-4.962
	c-0.103-0.706-0.243-1.372-0.393-2.039c-0.589-2.526-1.421-5.042-1.659-9.815c-0.326-6.474,0.785-10.392,1.767-14.36
	c0.14-0.567,0.279-1.134,0.408-1.71c0.646-2.844,1.121-5.897,0.878-10.074c-0.134-2.297-0.429-3.978-0.811-5.35
	c-0.119-0.457-0.253-0.875-0.393-1.273c-1.101-3.152-2.599-5.002-3.162-11.118c-0.946-10.322,2.48-14.091,3.317-24.036
	c0.155-1.74,0.222-3.67,0.176-5.847c-0.021-1.034-0.067-1.999-0.134-2.894c-0.553-7.926-2.496-11.108-2.046-21.39
	c0.041-0.975,0.336-7.2,1.746-13.067c0.145-0.597,0.295-1.183,0.465-1.77c0.124-0.467,0.258-0.925,0.403-1.382
	C71.189,17.985,72.496,14.982,73.948,12.396z"/>
<path class="st5" d="M50.533,57.285c0,0-5.559-9.254-11.059-5.15C33.974,56.238,50.533,57.285,50.533,57.285z"/>
<path class="st5" d="M62.043,33.298c0,0-4.12-5.102-7.299-1.304C51.563,35.792,62.043,33.298,62.043,33.298z"/>
<path class="st5" d="M41.378,117.992c0,0-5.521-9.459-9.782-2.417C27.336,122.618,41.378,117.992,41.378,117.992z"/>
<path class="st5" d="M41.378,86.401c0,0-5.521-9.459-9.782-2.417C27.336,91.027,41.378,86.401,41.378,86.401z"/>
<path class="st5" d="M61.595,111.866c0,0-3.653-5.102-6.472-1.304C52.304,114.361,61.595,111.866,61.595,111.866z"/>
<path class="st5" d="M49.801,147.649c0,0-6.407-3.158-8.742,3.023C38.723,156.853,49.801,147.649,49.801,147.649z"/>
<path class="st5" d="M61.595,76.978c0,0-3.653-5.102-6.472-1.304C52.304,79.473,61.595,76.978,61.595,76.978z"/>
<path class="st6" d="M83.79,9.59c16.82-5.95,72.63,54.14,61.54,112.84c-6.7,35.45-37.29,67.59-52.57,62.82
	c-13.52-4.22-14.15-37-15.38-101.28C76.51,36.21,76,12.34,83.79,9.59z"/>
<ellipse class="st6" cx="77.18" cy="100.35" rx="76.18" ry="99.35"/>
<polyline class="st7" points="153.357,167.869 140.147,167.869 133.377,167.869 127.967,167.869 123.547,167.869 102.567,167.869 
	82.087,167.869 77.177,167.869 72.357,167.869 70.327,167.869 "/>
<polyline class="st7" points="153.357,134.579 152.757,134.579 148.837,134.579 142.237,134.579 127.967,134.579 102.567,134.579 
	78.717,134.579 77.177,134.579 75.727,134.579 73.737,134.579 "/>
<polyline class="st7" points="153.357,101.299 146.577,101.299 127.967,101.299 102.567,101.299 77.707,101.299 77.177,101.299 
	76.747,101.299 74.767,101.299 "/>
<polyline class="st7" points="153.357,68.009 152.757,68.009 149.107,68.009 138.777,68.009 127.967,68.009 102.567,68.009 
	77.377,68.009 77.177,68.009 77.097,68.009 75.367,68.009 "/>
<polyline class="st7" points="153.357,34.729 140.137,34.729 134.067,34.729 127.967,34.729 119.557,34.729 102.567,34.729 
	77.337,34.729 77.177,34.729 77.127,34.729 75.637,34.729 "/>
<line class="st7" x1="127.964" y1="1.454" x2="127.964" y2="201.154"/>
<line class="st7" x1="102.564" y1="1.454" x2="102.564" y2="201.154"/>
<circle class="st8" cx="115.997" cy="148.979" r="3.38"/>
<circle class="st8" cx="115.997" cy="118.459" r="3.38"/>
<circle class="st8" cx="90.107" cy="117.999" r="3.38"/>
<circle class="st8" cx="115.997" cy="52.659" r="3.38"/>
<circle class="st8" cx="115.997" cy="86.049" r="3.38"/>
<circle class="st8" cx="90.107" cy="149.949" r="3.38"/>
<circle class="st8" cx="90.487" cy="52.659" r="3.38"/>
<circle class="st8" cx="90.487" cy="86.049" r="3.38"/>
<circle class="st8" cx="136.987" cy="118.459" r="3.38"/>
</svg>