<!-- Generator: Adobe Illustrator 23.0.1, SVG Export Plug-In  -->
<svg version="1.1" xmlns="http://www.w3.org/2000/svg" xmlns:xlink="http://www.w3.org/1999/xlink" x="0px" y="0px" width="154.4px"
	 height="200.8px" viewBox="0 0 154.4 200.8" style="enable-background:new 0 0 154.4 200.8;" xml:space="preserve">
<style type="text/css">
	.st0{fill:none;stroke:#231F20;stroke-width:2;stroke-miterlimit:10;}
	.st1{fill:#231F20;}
	.st2{fill:none;stroke:#231F20;stroke-miterlimit:10;}
	.st3{fill:#ED1C24;stroke:#231F20;stroke-miterlimit:10;}
	.st4{fill:#BE1E2D;stroke:#231F20;stroke-miterlimit:10;}
	.st5{fill:#231F20;stroke:#231F20;stroke-miterlimit:10;}
	.st6{fill:#ED1C24;stroke:#ED1C24;stroke-miterlimit:10;}
	.st7{opacity:0.33;fill:none;stroke:#231F20;stroke-width:2;stroke-miterlimit:10;enable-background:new    ;}
	.st8{opacity:0.33;}
	.st9{opacity:0.33;fill:#231F20;stroke:#231F20;stroke-miterlimit:10;enable-background:new    ;}
</style>
<defs>
</defs>
<path class="st0" d="M83.8,9.6c16.8-6,72.6,54.1,61.5,112.8c-6.7,35.4-37.3,67.6-52.6,62.8C79.2,181,78.6,148.1,77.3,83.9
	C76.5,36.3,76,12.4,83.8,9.6z"/>
<path class="st0" d="M77.2,199.8C35.116,199.8,1,155.297,1,100.4S35.116,1,77.2,1s76.2,44.503,76.2,99.4S119.284,199.8,77.2,199.8"
	/>
<path class="st1" d="M57.5,186.8c-3.5,0-7.5-1.3-11.9-3.9c-14.8-8.9-33.3-33-38.4-60.2c-4.5-24.1,2.4-46.5,9-61.1
	c7.6-16.7,19.4-32.9,31.5-43.3C56.8,10.5,65,7,70,8.8c8.5,3,8,25.7,7.1,75.3c-1.2,65.1-1.9,97.8-16.1,102.2
	C59.9,186.6,58.7,186.8,57.5,186.8z M67.2,10.2c-4.4,0-11,3.4-18.1,9.5c-11.9,10.2-23.5,26.2-31,42.6c-6.5,14.3-13.4,36.3-8.9,59.9
	c5,26.6,23.1,50.2,37.5,58.8c5.4,3.2,10.2,4.4,13.8,3.2c12.8-4,13.5-38.2,14.7-100.3c0-1.9,0.2-11.9,0.5-32
	c0.3-24.8,0.3-39-6.2-41.4C68.7,10.4,67.9,10.2,67.2,10.2z"/>
<path class="st2" d="M77.2,199.8C35.1,199.8,1,165.7,1,123.6V77.2c0-42,34.1-76.1,76.2-76.1l0,0c42.1,0,76.2,34.1,76.2,76.2v46.3
	C153.4,165.7,119.3,199.8,77.2,199.8"/>
<line class="st2" x1="1" y1="166.6" x2="153.4" y2="166.6"/>
<line class="st2" x1="1" y1="133.5" x2="153.4" y2="133.5"/>
<line class="st2" x1="1" y1="100.4" x2="153.4" y2="100.4"/>
<line class="st2" x1="1" y1="67.3" x2="153.4" y2="67.3"/>
<line class="st2" x1="1" y1="34.2" x2="153.4" y2="34.2"/>
<line class="st2" x1="128" y1="1.1" x2="128" y2="199.8"/>
<line class="st2" x1="102.6" y1="1.1" x2="102.6" y2="199.8"/>
<line class="st2" x1="77.2" y1="1.1" x2="77.2" y2="199.8"/>
<line class="st2" x1="51.8" y1="1.1" x2="51.8" y2="199.8"/>
<line class="st2" x1="26.4" y1="1.1" x2="26.4" y2="199.8"/>
<circle class="st3" cx="62.1" cy="19.9" r="3.4"/>
<circle class="st3" cx="34.8" cy="143" r="3.4"/>
<circle class="st3" cx="41.7" cy="119.1" r="3.4"/>
<circle class="st4" cx="92.9" cy="19.9" r="3.4"/>
<circle class="st3" cx="86.1" cy="122.5" r="3.4"/>
<circle class="st3" cx="34.8" cy="85.3" r="3.4"/>
<circle class="st3" cx="38.4" cy="54.8" r="3.4"/>
<circle class="st3" cx="62.1" cy="81.9" r="3.4"/>
<circle class="st3" cx="114.1" cy="119.1" r="3.4"/>
<circle class="st3" cx="89.5" cy="146.4" r="3.4"/>
<circle class="st3" cx="112.4" cy="58.2" r="3.4"/>
<circle class="st3" cx="92.9" cy="51.4" r="3.4"/>
<circle class="st3" cx="15.3" cy="85.3" r="3.4"/>
<circle class="st5" cx="18.7" cy="113.8" r="3.4"/>
<circle class="st5" cx="114.1" cy="85.3" r="3.4"/>
<circle class="st3" cx="62.1" cy="50.9" r="3.4"/>
<circle class="st3" cx="107.4" cy="152.6" r="3.4"/>
<circle class="st3" cx="86.1" cy="91" r="3.4"/>
<circle class="st3" cx="136.3" cy="125.8" r="3.4"/>
<circle class="st3" cx="58.7" cy="109.5" r="3.4"/>
<circle class="st3" cx="18.7" cy="114.2" r="3.4"/>
<circle class="st6" cx="113.9" cy="85.3" r="3.4"/>
<circle class="st6" cx="62.3" cy="150.2" r="3.4"/>
<path class="st7" d="M83.8,9.6c16.8-6,72.6,54.1,61.5,112.8c-6.7,35.4-37.3,67.6-52.6,62.8C79.2,181,78.6,148.1,77.3,83.9
	C76.5,36.3,76,12.4,83.8,9.6z"/>
<path class="st7" d="M77.2,199.8C35.116,199.8,1,155.297,1,100.4S35.116,1,77.2,1s76.2,44.503,76.2,99.4S119.284,199.8,77.2,199.8"
	/>
<g class="st8">
	<path class="st1" d="M57.5,186.8c-3.5,0-7.5-1.3-11.9-3.9c-14.8-8.9-33.3-33-38.4-60.2c-4.5-24.1,2.4-46.5,9-61.1
		c7.6-16.7,19.4-32.9,31.5-43.3C56.8,10.5,65,7,70,8.8c8.5,3,8,25.7,7.1,75.3c-1.2,65.1-1.9,97.8-16.1,102.2
		C59.9,186.6,58.7,186.8,57.5,186.8z M67.2,10.2c-4.4,0-11,3.4-18.1,9.5c-11.9,10.2-23.5,26.2-31,42.6c-6.5,14.3-13.4,36.3-8.9,59.9
		c5,26.6,23.1,50.2,37.5,58.8c5.4,3.2,10.2,4.4,13.8,3.2c12.8-4,13.5-38.2,14.7-100.3c0-1.9,0.2-11.9,0.5-32
		c0.3-24.8,0.3-39-6.2-41.4C68.7,10.4,67.9,10.2,67.2,10.2z"/>
</g>
<circle class="st9" cx="62.1" cy="19.9" r="3.4"/>
<circle class="st9" cx="34.8" cy="143" r="3.4"/>
<circle class="st9" cx="41.7" cy="119.1" r="3.4"/>
<circle class="st9" cx="41.7" cy="155" r="3.4"/>
<circle class="st9" cx="92.9" cy="19.9" r="3.4"/>
<circle class="st9" cx="86.1" cy="122.5" r="3.4"/>
<circle class="st9" cx="45.1" cy="78.5" r="3.4"/>
<circle class="st9" cx="34.8" cy="85.3" r="3.4"/>
<circle class="st9" cx="86.1" cy="78.5" r="3.4"/>
<circle class="st9" cx="38.4" cy="54.8" r="3.4"/>
<circle class="st9" cx="62.1" cy="81.9" r="3.4"/>
<circle class="st9" cx="119.7" cy="146.4" r="3.4"/>
<circle class="st9" cx="114.1" cy="119.1" r="3.4"/>
<circle class="st9" cx="89.5" cy="146.4" r="3.4"/>
<circle class="st9" cx="112.4" cy="58.2" r="3.4"/>
<circle class="st9" cx="89.5" cy="35.7" r="3.4"/>
<circle class="st9" cx="92.9" cy="51.4" r="3.4"/>
<circle class="st9" cx="15.3" cy="85.3" r="3.4"/>
<circle class="st9" cx="114.1" cy="85.3" r="3.4"/>
<circle class="st9" cx="131.4" cy="110.5" r="3.4"/>
<circle class="st9" cx="62.1" cy="122.5" r="3.4"/>
<circle class="st9" cx="62.1" cy="50.9" r="3.4"/>
<circle class="st9" cx="58.7" cy="158.4" r="3.4"/>
<circle class="st9" cx="69.4" cy="143" r="3.4"/>
<circle class="st9" cx="111.9" cy="47.5" r="3.4"/>
<circle class="st9" cx="136.3" cy="88.7" r="3.4"/>
<circle class="st9" cx="107.4" cy="152.6" r="3.4"/>
<circle class="st9" cx="86.1" cy="91" r="3.4"/>
<circle class="st9" cx="136.3" cy="125.8" r="3.4"/>
<circle class="st9" cx="58.7" cy="109.5" r="3.4"/>
<circle class="st9" cx="86.1" cy="110.5" r="3.4"/>
<circle class="st9" cx="108.5" cy="106.1" r="3.4"/>
<circle class="st9" cx="58.7" cy="168" r="3.4"/>
<circle class="st9" cx="66" cy="41.3" r="3.4"/>
<circle class="st9" cx="45.4" cy="48.5" r="3.4"/>
<circle class="st9" cx="96.2" cy="171.4" r="3.4"/>
<circle class="st9" cx="108.5" cy="71.7" r="3.4"/>
<circle class="st9" cx="46.7" cy="132.5" r="3.4"/>
<circle class="st9" cx="43.3" cy="94.4" r="3.4"/>
<circle class="st9" cx="105.1" cy="133.5" r="3.4"/>
<circle class="st9" cx="27.4" cy="68.4" r="3.4"/>
<circle class="st9" cx="99.6" cy="92" r="3.4"/>
<circle class="st9" cx="131.4" cy="68.4" r="3.4"/>
<circle class="st9" cx="18.7" cy="133.5" r="3.4"/>
<circle class="st9" cx="62.3" cy="150.2" r="3.4"/>
<circle class="st9" cx="18.7" cy="114.2" r="3.4"/>
</svg>