<!-- Generator: Adobe Illustrator 23.0.1, SVG Export Plug-In  -->
<svg version="1.1" xmlns="http://www.w3.org/2000/svg" xmlns:xlink="http://www.w3.org/1999/xlink" x="0px" y="0px"
	 width="223.681px" height="336.734px" viewBox="0 0 223.681 336.734" style="enable-background:new 0 0 223.681 336.734;"
	 xml:space="preserve">
<style type="text/css">
	.st0{fill:#66B449;}
	.st1{fill:#7EC67E;stroke:#FFFFFF;stroke-width:0.5;stroke-miterlimit:10;}
	.st2{fill:#7EC67E;stroke:#FFFFFF;stroke-width:2;stroke-miterlimit:10;}
	.st3{fill:#008A2E;}
	.st4{fill:#7E727E;stroke:#6458A6;stroke-width:2;stroke-miterlimit:10;}
	.st5{fill:none;stroke:#4C4647;stroke-width:20;stroke-miterlimit:10;}
	.st6{fill:#7EC62B;stroke:#FFFFFF;stroke-width:2;stroke-miterlimit:10;}
	.st7{fill:#5B2C6F;}
	.st8{fill:#996699;}
	.st9{fill:#F4ECF7;}
	.st10{fill:#9D69A2;}
</style>
<defs>
</defs>
<path class="st0" d="M221.376,4.821c0,0-7.868,16.783-32.698,13.644l0.007-0.008l12.218-16.3
	C208.63-0.813,216.505-1.392,221.376,4.821z"/>
<path class="st1" d="M200.836,1.505l-15.6,20.16l-0.01,0.01c0,0-26.76,63.07-55.04,48.82c-0.25-0.12-0.5-0.25-0.75-0.39
	c0,0,0-0.01-0.01-0.02c-0.03-0.04-0.11-0.13-0.22-0.29c0.03-0.04,0.05-0.08,0.08-0.12c6.26-9.18,15.49-22.09,25.5-33.93
	c7.44-8.79,15.32-17,22.74-22.66c3.53-2.22,7.73-4.65,12.33-6.92c0.01,0,0.03-0.01,0.04-0.01c2.9-1.44,5.97-2.8,9.11-3.98
	c0.02-0.01,0.05-0.02,0.07-0.03C199.656,1.925,200.246,1.705,200.836,1.505z"/>
<path class="st2" d="M164.744,21.673l-9.96,14.07l-24.6,34.75l-1.48,2.1l-7.62,10.76l6.78-10.76l1.57-2.49c0,0,0-0.01-0.01-0.02
	c-0.02-0.05-0.07-0.19-0.14-0.41C127.744,65.123,115.894,25.753,164.744,21.673z"/>
<path class="st3" d="M211.742,20.9L211.742,20.9z"/>
<polygon class="st4" points="128.704,72.593 121.084,83.353 127.864,72.593 "/>
<circle class="st5" cx="111.801" cy="164.972" r="33.998"/>
<circle class="st5" cx="179.683" cy="163.766" r="33.998"/>
<circle class="st5" cx="43.998" cy="163.766" r="33.998"/>
<circle class="st5" cx="148.066" cy="231.761" r="33.998"/>
<circle class="st5" cx="78.061" cy="231.761" r="33.998"/>
<circle class="st5" cx="112.104" cy="292.736" r="33.998"/>
<path class="st5" d="M111.801,130.974c0,0-11.358-65.804,50.168-72.147"/>
<path class="st2" d="M115.158,58.828c0,0-4.391-34.876-44.522-33.326s-1.872-4.75-18.341-0.05"/>
<path class="st6" d="M119.913,60.883c0,0-46.93,19.689-64.882-18.871s-7.025,1.491-9.178-17.106"/>
<path class="st2" d="M197.405,121.353c0,0-32.855,12.496-50.327-23.665s-5.073,0.577-8.655-16.171"/>
<path class="st6" d="M201.451,124.586c0,0-4.648-50.681-47.122-48.428c-42.474,2.252-1.981-6.903-19.412-0.073"/>
<path class="st7" d="M102.173,231.874c0,13.46-10.91,24.38-24.37,24.38c-6.06,0-11.6-2.21-15.86-5.88
	c-5.21-4.46-8.51-11.1-8.51-18.5c0-13.46,10.91-24.37,24.37-24.37c5.81,0,11.14,2.03,15.32,5.43c3.78,3.06,6.63,7.22,8.05,12.01
	C101.823,227.144,102.173,229.464,102.173,231.874z"/>
<path class="st8" d="M101.173,224.944c-2.41,14.92-15.63,26.33-31.58,26.33c-2.64,0-5.2-0.31-7.65-0.9
	c-5.21-4.46-8.51-11.1-8.51-18.5c0-13.46,10.91-24.37,24.37-24.37c5.81,0,11.14,2.03,15.32,5.43
	C96.903,215.994,99.753,220.154,101.173,224.944z"/>
<path class="st9" d="M58.613,225.129c0,0,2.8-6.631,12.584-7.875s-0.011-0.054-6.297,3.91"/>
<path class="st7" d="M68.415,163.994c0,13.46-10.91,24.38-24.37,24.38c-6.06,0-11.6-2.21-15.86-5.88c-5.21-4.46-8.51-11.1-8.51-18.5
	c0-13.46,10.91-24.37,24.37-24.37c5.81,0,11.14,2.03,15.32,5.43c3.78,3.06,6.63,7.22,8.05,12.01
	C68.065,159.264,68.415,161.585,68.415,163.994z"/>
<path class="st8" d="M67.415,157.064c-2.41,14.92-15.63,26.33-31.58,26.33c-2.64,0-5.2-0.31-7.65-0.9
	c-5.21-4.46-8.51-11.1-8.51-18.5c0-13.46,10.91-24.37,24.37-24.37c5.81,0,11.14,2.03,15.32,5.43
	C63.145,148.114,65.995,152.275,67.415,157.064z"/>
<path class="st9" d="M24.909,157.522c0,0,4.743-10.538,20.977-12.657s-0.017-0.086-10.497,6.286"/>
<path class="st7" d="M136.344,165.327c0,13.46-10.91,24.38-24.37,24.38c-6.06,0-11.6-2.21-15.86-5.88
	c-5.21-4.46-8.51-11.1-8.51-18.5c0-13.46,10.91-24.37,24.37-24.37c5.81,0,11.14,2.03,15.32,5.43c3.78,3.06,6.63,7.22,8.05,12.01
	C135.994,160.597,136.344,162.917,136.344,165.327z"/>
<path class="st8" d="M135.344,158.397c-2.41,14.92-15.63,26.33-31.58,26.33c-2.64,0-5.2-0.31-7.65-0.9
	c-5.21-4.46-8.51-11.1-8.51-18.5c0-13.46,10.91-24.37,24.37-24.37c5.81,0,11.14,2.03,15.32,5.43
	C131.074,149.447,133.924,153.607,135.344,158.397z"/>
<path class="st9" d="M92.838,158.855c0,0,4.743-10.538,20.977-12.657s-0.017-0.086-10.497,6.286"/>
<path class="st7" d="M204.858,163.85c0,13.46-10.91,24.38-24.37,24.38c-6.06,0-11.6-2.21-15.86-5.88c-5.21-4.46-8.51-11.1-8.51-18.5
	c0-13.46,10.91-24.37,24.37-24.37c5.81,0,11.14,2.03,15.32,5.43c3.78,3.06,6.63,7.22,8.05,12.01
	C204.508,159.12,204.858,161.44,204.858,163.85z"/>
<path class="st8" d="M203.858,156.92c-2.41,14.92-15.63,26.33-31.58,26.33c-2.64,0-5.2-0.31-7.65-0.9
	c-5.21-4.46-8.51-11.1-8.51-18.5c0-13.46,10.91-24.37,24.37-24.37c5.81,0,11.14,2.03,15.32,5.43
	C199.588,147.97,202.438,152.13,203.858,156.92z"/>
<path class="st9" d="M180.131,147.204c0,1.793-1.454,3.248-3.247,3.248c-0.808,0-1.546-0.294-2.113-0.783
	c-0.694-0.594-1.134-1.479-1.134-2.465c0-1.793,1.454-3.247,3.247-3.247c0.774,0,1.484,0.27,2.041,0.723
	c0.504,0.408,0.883,0.962,1.073,1.6C180.085,146.574,180.131,146.883,180.131,147.204z"/>
<path class="st7" d="M172.436,231.756c0,13.46-10.91,24.38-24.37,24.38c-6.06,0-11.6-2.21-15.86-5.88
	c-5.21-4.46-8.51-11.1-8.51-18.5c0-13.46,10.91-24.37,24.37-24.37c5.81,0,11.14,2.03,15.32,5.43c3.78,3.06,6.63,7.22,8.05,12.01
	C172.086,227.026,172.436,229.346,172.436,231.756z"/>
<path class="st10" d="M171.436,224.826c-2.41,14.92-15.63,26.33-31.58,26.33c-2.64,0-5.2-0.31-7.65-0.9
	c-5.21-4.46-8.51-11.1-8.51-18.5c0-13.46,10.91-24.37,24.37-24.37c5.81,0,11.14,2.03,15.32,5.43
	C167.166,215.876,170.016,220.036,171.436,224.826z"/>
<path class="st7" d="M136.474,292.731c0,13.46-10.91,24.38-24.37,24.38c-6.06,0-11.6-2.21-15.86-5.88
	c-5.21-4.46-8.51-11.1-8.51-18.5c0-13.46,10.91-24.37,24.37-24.37c5.81,0,11.14,2.03,15.32,5.43c3.78,3.06,6.63,7.22,8.05,12.01
	C136.124,288.001,136.474,290.321,136.474,292.731z"/>
<path class="st8" d="M135.474,285.801c-2.41,14.92-15.63,26.33-31.58,26.33c-2.64,0-5.2-0.31-7.65-0.9
	c-5.21-4.46-8.51-11.1-8.51-18.5c0-13.46,10.91-24.37,24.37-24.37c5.81,0,11.14,2.03,15.32,5.43
	C131.204,276.851,134.054,281.011,135.474,285.801z"/>
<path class="st9" d="M101.306,283.375c0,1.793-1.454,3.248-3.247,3.248c-0.808,0-1.546-0.294-2.113-0.783
	c-0.694-0.594-1.134-1.479-1.134-2.465c0-1.793,1.454-3.247,3.247-3.247c0.774,0,1.484,0.27,2.041,0.723
	c0.504,0.408,0.883,0.962,1.073,1.6C101.259,282.745,101.306,283.054,101.306,283.375z"/>
</svg>