<!-- Generator: Adobe Illustrator 23.0.1, SVG Export Plug-In  -->
<svg version="1.1" xmlns="http://www.w3.org/2000/svg" xmlns:xlink="http://www.w3.org/1999/xlink" x="0px" y="0px"
	 width="167.332px" height="201.3px" viewBox="0 0 167.332 201.3" style="enable-background:new 0 0 167.332 201.3;"
	 xml:space="preserve">
<style type="text/css">
	.st0{fill:none;stroke:#231F20;stroke-miterlimit:10;}
	.st1{fill:#0C6A37;stroke:#231F20;stroke-width:2;stroke-miterlimit:10;}
	.st2{fill:none;stroke:#231F20;stroke-width:2;stroke-miterlimit:10;}
	.st3{fill:#ED1C24;stroke:#ED1C24;stroke-miterlimit:10;}
	.st4{fill:#D4DF36;stroke:#231F20;stroke-miterlimit:10;}
	.st5{fill:#F8EDC5;stroke:#231F20;stroke-miterlimit:10;}
	.st6{fill:#F6EE6E;stroke:#231F20;stroke-miterlimit:10;}
	.st7{fill:#FFFFFF;stroke:#231F20;stroke-miterlimit:10;}
	.st8{fill:#F6EE9A;}
	.st9{fill:#F6EEBD;}
	.st10{fill:#F6EEC2;}
	.st11{fill:#F6EEAD;}
</style>
<defs>
</defs>
<g>
	<path class="st0" d="M0,140.158"/>
	<path class="st0" d="M42.087,42.27"/>
</g>
<path class="st1" d="M34.056,124.603"/>
<path class="st1" d="M34.056,124.603"/>
<path class="st0" d="M90.132,1L90.132,1c42.1,0,76.2,34.1,76.2,76.2v47.4c0,42.1-34.1,76.2-76.2,76.2l0,0
	c-42.1,0-76.2-34.1-76.2-76.2V77.2C13.932,35.1,48.032,1,90.132,1z"/>
<path class="st2" d="M96.732,9.6c16.8-5.9,72.6,54.1,61.5,112.8c-6.7,35.4-37.3,67.6-52.6,62.8c-13.5-4.2-14.2-37-15.4-101.3
	C89.432,36.2,88.932,12.3,96.732,9.6z"/>
<ellipse class="st2" cx="90.132" cy="100.3" rx="76.2" ry="99.3"/>
<polyline class="st0" points="166.332,167.8 153.032,167.8 146.332,167.8 140.932,167.8 136.432,167.8 115.532,167.8 95.032,167.8 
	90.132,167.8 85.332,167.8 83.232,167.8 "/>
<polyline class="st0" points="166.332,134.5 165.732,134.5 161.732,134.5 155.132,134.5 140.932,134.5 115.532,134.5 91.632,134.5 
	90.132,134.5 88.632,134.5 86.632,134.5 "/>
<polyline class="st0" points="166.332,101.3 159.532,101.3 140.932,101.3 115.532,101.3 90.632,101.3 90.132,101.3 89.632,101.3 
	87.732,101.3 "/>
<polyline class="st0" points="166.332,68 165.732,68 162.032,68 151.732,68 140.932,68 115.532,68 90.332,68 90.132,68 90.032,68 
	88.332,68 "/>
<polyline class="st0" points="166.332,34.7 153.032,34.7 147.032,34.7 140.932,34.7 132.532,34.7 115.532,34.7 90.232,34.7 
	90.132,34.7 90.032,34.7 88.532,34.7 "/>
<line class="st0" x1="140.932" y1="1.4" x2="140.932" y2="201.1"/>
<line class="st0" x1="115.532" y1="1.4" x2="115.532" y2="201.1"/>
<circle class="st3" cx="128.932" cy="148.9" r="3.4"/>
<circle class="st3" cx="128.932" cy="118.4" r="3.4"/>
<circle class="st3" cx="103.032" cy="118" r="3.4"/>
<circle class="st3" cx="128.932" cy="52.6" r="3.4"/>
<circle class="st3" cx="128.932" cy="86" r="3.4"/>
<circle class="st3" cx="103.032" cy="149.9" r="3.4"/>
<circle class="st3" cx="103.432" cy="52.6" r="3.4"/>
<circle class="st3" cx="103.432" cy="86" r="3.4"/>
<circle class="st3" cx="149.932" cy="118.4" r="3.4"/>
<g>
	<g>
		<path class="st4" d="M69.042,182.911c-35.639-11.352-57.885-58.777-49.687-105.927c7.39-42.503,36.994-70.271,68.865-67.018
			l-1.252,175.347C81.083,185.594,75.067,184.83,69.042,182.911z"/>
		<path class="st5" d="M68.065,179.256C34.736,168.64,14.059,123.564,21.882,78.575c7.051-40.555,34.852-67.193,64.679-64.275
			l-1.721,167.143C79.328,181.745,73.698,181.051,68.065,179.256z"/>
		<path class="st6" d="M56.92,56.762C47.632,38.18,46.945,31.078,68.287,22.07s17.516,20.396,17.516,20.396l-4.588,41.931
			l-0.861,6.899C80.355,91.295,66.207,75.345,56.92,56.762z"/>
		<path class="st6" d="M44.896,96.398c-16.193-3.197-20.504-7.261-11.408-34.475s22.574-3.763,22.574-3.763l19.789,32.58
			l3.186,5.465C79.037,96.206,61.088,99.595,44.896,96.398z"/>
		<path class="st6" d="M83.913,151.073c0.886,22.403-1.229,28.969-22.949,21.804c-21.72-7.165-7.247-29.696-7.247-29.696
			l19.894-32.736l3.364-5.312C76.975,105.133,83.028,128.67,83.913,151.073z"/>
		<path class="st6" d="M54.146,133.867C42.001,147.484,37.27,148.928,30.58,121.58s13.102-24.566,13.102-24.566l28.198,2.829
			l4.643,0.604C76.523,100.447,66.29,120.249,54.146,133.867z"/>
		<path class="st7" d="M78.825,83.795c0,0,2.223-6.36-1.701-6.043C73.24,78.033,78.825,83.795,78.825,83.795z"/>
		<path class="st7" d="M76.194,110.33c0,0-6.132,5.693-3.506,12.539C75.263,129.7,76.194,110.33,76.194,110.33z"/>
		<path class="st7" d="M70.273,105.551c0,0-4.779-2.769-4.398,2.526C66.227,113.321,70.273,105.551,70.273,105.551z"/>
	</g>
	<path class="st8" d="M75.991,141.891c1.822,4.196,0.428,9.096-0.408,12.035c-0.716,2.516-1.594,5.605-3.985,7.636
		c-0.476,0.404-3.868,3.286-6.535,1.211c-3.194-2.486-3.237-10.446-1.274-12.258c1.749-1.614,4.418,2.277,6.209,0.661
		c2.528-2.281-0.63-11.981,1.356-13.395C72.506,136.96,74.866,139.299,75.991,141.891z"/>
	<path class="st9" d="M62.3,83.538c-0.174-1.781-0.784-6.019-3.371-9.38c-0.811-1.053-1.644-1.798-2.377-2.327
		c-2.921,0.656-6.91,0.884-9.327-2.313c-2.285-3.021-1.688-7.144-3.064-7.56c-2.573-0.779-7.991,12.631-6.047,15.193
		c1.014,1.336,2.859-1.824,6.535-1.211c1.473,0.246,2.296,0.941,10.547,9.285c0.704,0.712,2.32,2.348,4.636,4.111
		c4.762,3.624,5.996,2.85,6.414,2.408c0.574-0.608,0.921-1.425,1.082-2.18"/>
	<path class="st10" d="M62.489,113.228c0.343,2.568-1.804,6.128-4.067,6.606c-2.703,0.571-4.102-3.566-6.345-2.679
		c-1.772,0.7-1.416,3.487-4.067,6.606c-0.845,0.994-3.153,3.709-5.369,2.899c-2.986-1.092-4.508-8.115-3.091-10.203
		c1.149-1.692,3.402,1.079,6.426-0.587c2.857-1.574,2.535-4.978,5.098-6.936C54.998,105.936,61.948,109.181,62.489,113.228z"/>
	<g>
		<path class="st11" d="M77.729,42.363c-0.635-1.225-2.005-1.979-4.745-3.487c-3.497-1.924-7.893-4.343-9.327-2.313
			c-1.873,2.653,0.996,13.351,6.371,16.515c2.414,1.421,3.379,0.172,5.07,1.615c5.284,4.508,3.21,22.967,2.026,23.059
			c-0.699,0.054-1.941-6.214-2.026-11.866C74.913,53.568,80.275,47.278,77.729,42.363z"/>
		<path class="st7" d="M73.433,91.474c0,0-2.881-5.856-4.703-1.141C66.906,94.983,73.433,91.474,73.433,91.474z"/>
	</g>
</g>
</svg>