<!-- Generator: Adobe Illustrator 23.0.1, SVG Export Plug-In  -->
<svg version="1.1" xmlns="http://www.w3.org/2000/svg" xmlns:xlink="http://www.w3.org/1999/xlink" x="0px" y="0px" width="277.2px"
	 height="290.725px" viewBox="0 0 277.2 290.725" style="enable-background:new 0 0 277.2 290.725;" xml:space="preserve">
<style type="text/css">
	.st0{fill:#222222;}
	.st1{fill:#00356B;}
	.st2{fill:#FFFFFF;}
	.st3{fill:#FABD0A;}
</style>
<defs>
</defs>
<g transform="matrix(1.25 0 0 -1.25 26.771 762.62)">
	<g transform="matrix(3.125 0 0 3.125 -189.27 -1045.1)">
		<path class="st0" d="M61.99,529.662c-0.243-5.951-0.072-12.274-0.072-18.353c0-3.844-0.207-7.939,0.072-11.657
			c0.378-5.054,0.474-9.141,2.086-12.741c3.361-7.494,11.776-12.188,19.865-15.042c1.291-0.454,2.58-0.834,4.031-1.223
			c0.312-0.083,0.783-0.403,1.078-0.433c0.767-0.072,3.992,1.229,4.823,1.512c8.202,2.814,17.347,7.943,20.584,15.618
			c1.383,3.288,1.6,6.824,1.942,11.372c0.245,3.292,0.072,6.95,0.072,10.364v20.583L61.99,529.662L61.99,529.662z M122.447,478.635
			c-0.682-0.104-2.512-1.684-3.239-2.087c-2.609-1.444-5.21-2.944-8.133-4.03c0-1.376-0.192-1.354,0.791-0.936
			c3.254,1.393,6.008,3.128,8.998,4.678c-0.187-0.479-1.137-4.034-1.009-4.534c0.122-0.481,2.593-3.026,3.095-3.383
			c-1.485-0.387-2.526-1.12-3.959-1.583c-0.013-0.096-0.083-0.31-0.072-0.503c0.012-0.255,0.089-0.642,0.433-0.648
			c1.095-0.018,4.086,2.031,5.325,2.447c-0.576,0.394-3.551,3.45-3.67,3.958c-0.116,0.493,0.779,3.783,0.936,4.391
			c0.171,0.679,0.5,1.429,0.577,2.016C122.527,478.503,122.558,478.653,122.447,478.635L122.447,478.635z M56.016,478.347
			c-0.178,0.043,0.523-1.932,0.647-2.519c0.13-0.63,0.895-3.718,0.791-4.103c-0.137-0.499-3.181-3.65-3.741-4.03
			c0.313-0.092,0.494-0.091,0.791-0.217c1.567-0.659,2.998-1.598,4.75-2.158c0.216,0.872,0.307,1.042-0.503,1.367
			c-1.039,0.418-2.033,1.117-3.167,1.367c1.192,0.972,1.986,2.329,3.095,3.381c-0.36,1.22-0.481,2.735-0.864,3.959
			c-0.009,0.023-0.186,0.505-0.216,0.505c0,0,0.128,0.096,0.719-0.289c1.887-1.226,3.883-2.285,6.047-3.239
			c0.913-0.403,1.866-0.786,2.806-1.223c0.02,0.278,0.072,0.768,0.072,1.152c-2.51,1.165-4.919,2.226-7.269,3.528
			c-1.116,0.618-2.198,1.342-3.311,2.014C56.472,477.958,56.234,478.298,56.016,478.347L56.016,478.347z M117.407,472.589
			c-2.029-1.433-4.623-2.33-7.125-3.239c-4.015-1.453-8.488-2.951-13.385-3.456c-13.862-1.423-27.245,1.168-35.844,6.406
			c0-2.998-0.864-8.62-1.872-10.795c1.217-0.267,2.122-0.825,3.167-1.223c1.977-0.749,3.989-1.527,6.045-2.159
			c8.601-2.636,21.088-3.78,31.596-2.087c4.41,0.713,8.693,1.708,12.523,3.095c2.233,0.812,4.297,2.103,6.694,2.591
			c-0.47,0.952-0.569,2.112-0.792,3.311C117.977,467.378,117.407,469.85,117.407,472.589L117.407,472.589z"/>
		<path class="st1" d="M114.89,528.363c-12.06,0.146-24.765-0.144-37.066-0.144h-9.86c-1.501,0-3.23-0.112-4.607,0.072
			c0.383-2.589,0.144-5.872,0.144-8.709v-14.61c0-8.381,0.099-15.555,3.599-20.296c2.521-3.415,5.884-5.866,9.716-7.989
			c3.03-1.678,6.253-2.897,9.861-4.103c0.632-0.211,1.849-0.836,2.447-0.863c0.4-0.016,1.107,0.461,1.511,0.575
			c2.58,0.743,4.818,1.59,7.054,2.591c5.748,2.58,11.351,5.902,14.394,11.156c0.362,0.63,0.637,1.266,0.936,1.943
			c0.184,0.421,0.422,0.864,0.576,1.296c0.087,0.252,0.063,0.394,0.144,0.648c0.094,0.303,0.193,0.625,0.288,1.007
			c0.074,0.308,0.139,0.625,0.215,1.008c0.073,0.366,0.136,0.764,0.217,1.223c0.087,0.511,0.157,1.094,0.215,1.728
			c0.039,0.443,0.101,0.944,0.144,1.511c0.191,2.562,0.072,5.452,0.072,8.133v15.69c0,2.544-0.119,5.472,0.144,7.774
			C114.895,528.071,115.361,528.359,114.89,528.363"/>
		<path class="st0" d="M104.166,519.516c-1.147-0.524-2.348-1.085-3.886-1.225c-5.351-0.477-10.279,1.946-11.156-3.742
			c-0.446,5.643-6.136,3.297-11.156,3.67c-1.48,0.113-2.736,0.636-3.744,1.225c-0.501-0.891-1.22-1.672-1.798-2.52
			c-0.673,0.077-1.444,0.059-2.087,0.145c0.38-2.575,0.072-5.703,0.072-8.421V488.71h10.22c1.752,0,4.102-0.23,5.398,0.289
			c-0.828-2.226-0.044-3.163,2.662-3.167c2.91-0.005,4.707,0.442,3.598,3.167c1.51-0.382,3.747-0.289,5.687-0.289h10.003v28.431
			c-0.693,0-1.428,0.016-2.016-0.072C105.378,517.892,104.744,518.67,104.166,519.516L104.166,519.516z M109.85,517.572
			c-0.117,0.016-0.083-0.13-0.072-0.216c0.162-1.259,0.329-2.875,0.217-4.391c-0.091-1.172-0.126-1.849-1.439-1.656
			c0-0.168,0.036-0.336,0-0.503c0.774-0.195,1.719-0.288,2.806-0.288c-0.036-0.218-0.002-0.345-0.072-0.505
			c-0.36-0.808-1.783-0.537-2.734-0.431c0.017-0.193,0.067-0.48,0.072-0.577c0.706-0.094,1.772-0.368,2.375-0.072
			c1.608,0.797,1.113,6.232,1.583,8.35c-1.068-0.67-1.291-1.022-2.303-0.145C110.162,517.245,110.035,517.552,109.85,517.572
			L109.85,517.572z M68.467,516.995l-0.072-0.072c-1.192-0.934-1.082-0.927-2.519-0.216c0.292-2.164-0.044-7.649,1.8-8.061
			c0.72-0.159,1.475,0.126,2.086,0.216c0.003,0.085,0.054,0.395,0.072,0.577c-1.387-0.153-2.03-0.26-2.806,0.503
			c0.025,0.015,0,0.324,0,0.359c1.01,0.081,1.994,0.15,2.806,0.361c0,0.131-0.033,0.307,0,0.431c-0.33,0-0.716-0.004-0.934,0.072
			C68.061,511.465,68.467,515.815,68.467,516.995L68.467,516.995z M68.54,501.881c-0.317-0.299-0.602-0.742-0.938-1.008
			c-0.587-0.459-1.217,0.233-1.655,0.577c0.11-1.401,0.263-6.302,0.792-7.125c0.398-0.619,1.268-0.703,2.231-0.577
			c1.27,0.169,1.237,0.798-0.216,0.648c-1.037-0.106-1.446,0.091-1.728,0.934l0.073,0.217c1.009,0,1.96,0.025,2.733,0.216
			c-0.252,1.129-0.691,0.002-1.15,0.648C68.126,497.197,68.374,500.765,68.54,501.881L68.54,501.881z M109.679,501.287
			c0.167-1.116,0.414-4.685-0.144-5.47c-0.459-0.646-0.901,0.481-1.152-0.648c0.773-0.191,1.726-0.216,2.736-0.216l0.072-0.216
			c-0.281-0.843-0.691-1.042-1.728-0.936c-1.453,0.151-1.486-0.478-0.216-0.647c0.963-0.126,1.833-0.044,2.231,0.575
			c0.529,0.823,0.682,5.724,0.792,7.125c-0.438-0.344-1.069-1.034-1.656-0.575C110.28,500.546,109.996,500.988,109.679,501.287
			L109.679,501.287z"/>
		<path class="st2" d="M103.446,518.436c-1.097-0.639-2.622-1.103-4.462-1.009c-2.436,0.126-5.955,0.665-7.7-0.43
			c-0.799-0.5-1.417-1.541-1.656-2.592c-0.105-0.456-0.034-0.899-0.072-1.439c-0.521-6.966-0.072-14.415-0.072-21.52
			c2.054,4.111,7.908,1.624,12.38,3.023c0.54,0.171,1.356,0.389,1.655,0.792c0.378,0.517,0.144,3.663,0.144,4.605v18.57
			C103.64,518.437,103.448,518.426,103.446,518.436L103.446,518.436z M74.73,518.291v-18.425c0-0.925-0.274-4.088,0.072-4.676
			c0.704-1.199,5.083-1.382,7.197-1.225c3.439,0.259,5.773-0.247,6.837-2.375v16.049c0,2.2,0.295,4.884-0.144,6.837
			c-0.196,0.868-0.705,1.736-1.295,2.231c-2.168,1.826-6.539,0.364-10.005,0.719C76.357,517.535,75.543,517.96,74.73,518.291
			L74.73,518.291z M110.427,516.277c0.065-1.624,0.099-3.496-0.072-5.039c0.331-0.074,0.615-0.14,1.078-0.072
			c0.358,1.41,0.238,3.408,0.362,4.967C111.015,515.577,111.099,515.454,110.427,516.277L110.427,516.277z M67.892,515.918
			c-0.758-0.691-0.475-0.772-1.369-0.073c0.212-1.574,0.148-3.389,0.361-4.966c0.369,0,0.819,0.052,1.08,0.072
			c0,0.31-0.059,0.743-0.072,0.936C67.791,513.22,67.937,514.802,67.892,515.918L67.892,515.918z M108.541,510.818v-1.223
			c0.951-0.106,2.374-0.377,2.734,0.431c0.069,0.16,0.036,0.287,0.072,0.505C110.261,510.53,109.314,510.622,108.541,510.818
			L108.541,510.818z M69.838,510.655c-0.812-0.211-1.798-0.278-2.808-0.359c0-0.036,0.025-0.343,0-0.359
			c0.776-0.763,1.42-0.658,2.808-0.505V510.655z M67.892,500.587c-0.699-0.891-0.482-0.837-1.369-0.144
			c0.153-1.374,0.247-2.882,0.433-4.247c0.295-0.032,0.792-0.023,1.08,0C67.977,497.619,67.946,499.238,67.892,500.587
			L67.892,500.587z M110.327,499.993c-0.053-1.35-0.086-2.968-0.144-4.392c0.288-0.022,0.785-0.031,1.08,0
			c0.186,1.366,0.278,2.872,0.431,4.247C110.807,499.155,111.027,499.102,110.327,499.993L110.327,499.993z M69.844,495.746
			c-0.774-0.191-1.726-0.216-2.736-0.216l-0.072-0.216c0.281-0.843,0.691-1.041,1.728-0.936c0.435,0.046,0.744,0.021,0.927-0.041
			L69.844,495.746L69.844,495.746z M108.371,495.163l0.058-1.45c0.16,0.09,0.498,0.138,1.022,0.083
			c1.037-0.105,1.447,0.092,1.728,0.936l-0.073,0.216C110.095,494.948,109.145,494.972,108.371,495.163L108.371,495.163z
			 M86.604,488.999c0.128-0.439,0.122-1.065,0.361-1.441c0.477-0.76,3.248-0.799,4.102-0.286c0.457,0.276,0.54,1.176,0.72,1.727
			c-0.014,0-0.404-0.027-0.287-0.072C90.186,487.899,87.884,488.165,86.604,488.999L86.604,488.999z M116.329,470.79
			c-13.542-8.403-40.768-8.454-54.411-0.144c0.286-1.939-0.644-7.01-1.297-8.42c1.242-0.272,2.198-0.962,3.311-1.367
			c1.921-0.695,3.913-1.445,5.903-2.016c7.993-2.29,19.356-3.217,29.004-1.8c4.393,0.648,8.614,1.589,12.38,2.952
			c1.381,0.502,2.774,1.055,4.173,1.583c0.778,0.297,1.301,0.754,2.305,0.864C116.965,464.035,116.412,468.696,116.329,470.79
			L116.329,470.79z"/>
		<path class="st3" d="M104.31,517.86c0.284-1.921,0.144-4.394,0.144-6.548v-12.092c0-1.532-0.293-3.392,0-4.894
			c0.14-0.72,0.854-1.456,1.223-2.016c0.319-0.488,0.655-0.861,1.008-1.295c-0.348,2.566-0.144,5.696-0.144,8.492v15.978
			C105.549,515.946,104.864,516.969,104.31,517.86L104.31,517.86z M74.126,517.799c-0.025,0.019-0.063,0.021-0.117-0.011
			c-0.184-0.106-0.24-0.601-0.359-0.792c-0.422-0.672-1.04-1.23-1.8-1.583v-16.193c0-2.481,0.225-5.28-0.072-7.63
			c-0.023-0.169-0.146-0.812,0.072-0.72c0.29,0.126,2.067,2.988,2.159,3.456c0.304,1.572,0,3.505,0,5.109v12.523
			c0,1.82-0.18,3.925,0.072,5.614C74.155,517.53,74.2,517.742,74.126,517.799L74.126,517.799z M103.446,494.253
			c-0.913-0.454-1.896-0.948-3.166-1.081c-3.165-0.323-7.192,0.617-9.214-0.791c-0.956-0.664-1.506-1.914-1.583-3.239
			c0.642,0.162,1.214,0.282,1.727,0.577c0.202,0.119,0.49,0.532,0.72,0.575c0.738,0.144,1.927-0.292,2.95-0.216
			c1.93,0.147,4.144-0.081,6.191,0.072c1.415,0.108,3.746,0.309,5.037-0.072C105.24,491.462,104.236,492.778,103.446,494.253
			L103.446,494.253z M74.801,494.11c-0.695-1.705-1.749-2.932-2.662-4.391c0.924,0.429,2.403,0.359,3.814,0.359
			c3.059,0,6.72-0.404,9.716,0c0.137,0.021,0.625,0.302,0.72,0.288c0.146-0.018,0.501-0.485,0.648-0.575
			c0.501-0.306,1.164-0.506,1.798-0.648c-0.092,1.563-0.692,2.693-1.87,3.383c-2.076,1.217-6.105,0.236-9.069,0.575
			C76.697,493.24,75.759,493.725,74.801,494.11L74.801,494.11z"/>
		<path class="st0" d="M76.599,513.469l-0.072-0.072c-1.008-0.789-0.788-2.09,0.289-2.591c-0.292-0.411-0.812-0.913-0.864-1.511
			c-0.09-0.981,0.327-1.586-0.072-2.447c-0.033,0.024-0.045-0.149,0.144-0.216c0.245,0.36,0.706,0.84,0.792,1.294
			c0.137,0.747-0.193,1.402,0,2.016c0.148,0.479,0.585,0.973,0.864,1.367c1-0.463,2.763-0.882,2.23-2.447
			c-0.083-0.241-0.154-0.548-0.359-0.647c-0.495-0.234-1.511-0.097-2.087-0.144c-0.171-0.459-0.278-0.815-0.431-1.297
			c0.117,0.01,0.505,0.073,0.503,0.073c2.033,0,2.119-0.329,2.664,1.295c0.231,0.697,0.723,1.705,0.575,2.591
			c-0.226,1.325-2.282,0.663-2.159,2.734c-0.593-0.533-0.948-2.016-1.798-1.222C76.485,512.557,76.523,513.078,76.599,513.469
			L76.599,513.469z M81.494,513.397c-0.236-1.073-0.409-2.231,0.72-2.591c-0.344-0.853-0.157-1.545-0.073-2.591
			c-1.285-0.335-1.101-0.147-1.439-1.441c2.954,0,2.344,0.604,1.8,2.664c-0.349,1.314,0.272,1.815,1.655,1.367
			c0.662-0.214,0.359-3.057,0.359-3.958c0.558,0.247,0.716,0.601,1.009,1.078c-0.734,0.722-0.209,3.921-0.864,4.247
			C83.177,512.912,81.962,511.26,81.494,513.397L81.494,513.397z M101.574,513.397c-0.198-0.259-0.646-0.589-0.719-0.936
			c-0.255-1.171,1.268-0.86,0.431-2.086c-1.294,0.522-2.694,1.148-2.591,2.878c-0.254-0.22-0.471-0.351-0.577-0.72
			c-0.384-1.324,0.446-2.114,1.152-2.591c-0.196-0.133-0.408-0.269-0.575-0.431c-0.538-0.515-0.406-1.228-0.289-2.087
			c-0.094-0.027-0.383-0.065-0.503-0.144c-0.085-0.054-0.008-0.316-0.072-0.361c0.855-0.114,2.101-0.26,1.872,0.936
			c-0.057,0.286-0.453,0.589-0.505,0.864c-0.09,0.468,0.147,0.739,0.289,1.008c1.17-0.551,2.851-1.159,2.086-2.808
			c0.398,0.05,0.251-0.109,0.505,0.217c0.735,0.952,0.829,2.03-0.216,2.734c-0.142,0.095-0.399,0.316-0.361,0.287
			c0.627,0.385,1.361,1.29,0.72,2.088c-0.11,0.138-0.462,0.328-0.503,0.505C101.616,513.195,101.924,513.125,101.574,513.397
			L101.574,513.397z M85.885,513.326c-0.459-1.233-0.594-2.616,1.08-2.519c-0.165-1.204-0.048-2.749-0.216-3.887
			c0.713,0.083,0.772,0.555,1.15,1.153c-0.132,0.081-0.215,0.079-0.287,0.216c-0.193,0.364-0.342,1.932-0.144,2.519
			c0.097,0.292,0.609,0.344,0.431,1.008c-0.175,0.652-1.539,0.165-1.798,0.862C86.067,512.763,85.887,513.31,85.885,513.326
			L85.885,513.326z M95.241,513.254c-0.418-1.127-0.605-2.695,1.08-2.447c-0.176-0.841-0.597-5.486,0.575-3.311
			c0.075,0.14,0.072,0.218,0.144,0.359c0-0.002-0.058,0.26-0.072,0.289c-0.351,0.715-0.146,1.77-0.216,2.662
			c0.493,0.185,0.948,0.529,0.505,1.152C96.705,512.731,95.667,511.673,95.241,513.254L95.241,513.254z M90.851,513.038
			c-0.261-0.418-0.227-0.758-0.072-1.439c0.382-1.703,2.392-0.228,2.88-1.152c0.4-0.762,0.144-2.5,0.144-3.528
			c0.53,0.14,0.576,0.385,0.864,0.936c0.191,0,0.008,0.248,0,0.217c-0.489,0.702-0.181,3.499-0.648,3.886
			C92.866,512.91,91.672,511.162,90.851,513.038L90.851,513.038z M99.919,504.544c-0.443-0.709-1.072-1.528-0.287-2.302
			c0.131-0.128,0.503-0.419,0.575-0.577c0.203-0.445-0.014-1.461,0.433-0.505c0.998,2.142-0.443,1.546-0.648,2.592
			C99.917,504.121,100.219,504.371,99.919,504.544L99.919,504.544z M84.733,504.329c-1.743-2.142,0.49-1.816,0.216-3.67
			c0.249,0.183,0.426,0.237,0.577,0.505C86.406,502.761,84.645,502.862,84.733,504.329L84.733,504.329z M94.377,504.114
			c-0.438-0.929-0.759-2.004,0.433-2.447c-0.657-1.192-0.601-2.384-0.792-4.103c1.309,0,2.955,0.09,4.389-0.072
			c0.052,1.282,0.465,2.354,0.289,3.744c-0.339,2.683-1.911,1.133-3.886,1.87C94.396,503.262,94.602,503.9,94.377,504.114
			L94.377,504.114z M79.192,503.97c-0.504-0.913-0.678-1.923,0.431-2.375c-0.765-0.971-0.662-2.418-0.792-4.103
			c1.338,0.106,2.979,0.106,4.319,0c0.052,1.321,0.512,2.466,0.287,3.959C83.044,504.058,79.428,501.881,79.192,503.97
			L79.192,503.97z M63.788,467.985c-0.254-1.638-0.724-3.262-1.136-4.794c0.235-0.038,0.402-0.033,0.633-0.1
			c0.549-0.158,1.219-0.607,1.728-0.72c0.038-0.006,0.251,0.023,0.158,0.048c0.104,0.155,0.499,0.692,0.603,0.847
			c0.15,0.226-2.234-0.098-2.07,0.469c0.344,1.186,0.66,2.666,0.948,3.817C64.355,467.692,64.083,467.848,63.788,467.985
			L63.788,467.985z M114.458,467.913c-0.924-0.241-2.069-0.23-2.423-1.075c-0.827-1.975,1.496-1.641,2.558-2.275
			c0.108-0.066,0.233-0.152,0.283-0.3c0.616-1.835-1.933-0.779-2.433-0.453c0.07-0.232,0.07-0.339,0.144-0.503
			c0.084-0.187,0.23-0.513,0.361-0.72c0.226-0.367,1.092-0.054,1.653,0.144c0.788,0.279,1.501,1.048,1.081,2.087
			c-0.383,0.942-1.58,0.795-2.448,1.223c-0.427,0.211-0.43,0.648-0.43,0.648c0.53,1.484,2.561-0.905,2.166,0.073
			C114.911,466.906,114.489,467.812,114.458,467.913L114.458,467.913z M67.242,466.472c-0.223-1.066-1.113-3.154-0.864-4.317
			c0.081-0.387,0.531-0.715,0.864-0.864c2.609-1.156,3.076,2.305,3.528,4.03c-0.293,0.088-0.482,0.127-0.792,0.217
			c-0.169-1.276-0.385-4.51-2.303-3.67c-0.961,0.421,0.264,3.535,0.503,4.317C67.836,466.271,67.6,466.355,67.242,466.472
			L67.242,466.472z M109.203,466.041c-0.216,0.009-0.585-0.215-0.792-0.287c0-1.959-0.382-3.523-0.719-5.183
			c0.292,0.101,0.6,0.201,0.936,0.289c0,0.557,0.078,1.202,0.172,1.709c0.451,0.188,1.523,0.47,1.523,0.47
			c0.263-0.188,0.633-0.866,0.789-1.147c0.187-0.337,0.263-0.227,0.753-0.027c0.18,0.074,0.356,0.102,0.505,0.144
			c-0.643,0.819-1.373,1.569-1.944,2.448C110.185,464.827,109.203,466.041,109.203,466.041L109.203,466.041z M106.673,465.114
			c-1.206-0.508-2.42-0.755-3.528-0.795c-0.017-0.247-0.132-0.575-0.148-0.825c-0.027-0.338,0.148-0.539,0.148-0.539
			c0.347,0.527,0.673,0.787,1.411,1c0.491-1.475,0.723-2.73,0.978-4.075c1.29,0.429,1.171,0.151,0.975,0.561
			c-0.207,0.434-1.021,3.806-0.991,3.812c0.404,0.083,1.279-0.187,1.564-0.369c0.04,0.032,0.22-0.057,0.252-0.067
			c-0.117,0.257-0.253,0.385-0.228,0.43C106.932,464.59,106.828,464.799,106.673,465.114L106.673,465.114z M71.641,465.089
			c-0.022,0.09,0.069-0.284,0.075-0.319c0.032-0.255,0.235-0.586,0.35-0.888c0.159-0.423,0.314-0.802,0.431-1.369
			c-0.743-0.581-1.461-1.161-2.303-1.655c0.698-0.23,0.964-0.665,1.439,0.07c1.246,1.944,1.279,0.422,1.655-1.078
			c0.488-0.072,0.757-0.12,1.225-0.217c-0.38,1.026-0.844,1.871-1.008,3.095c0.657,0.466,1.295,0.949,2.014,1.367
			c-0.659,0.138-0.852,0.443-1.295-0.072c-1.173-1.362-0.984-1.061-1.367,0.72C72.442,464.85,72.013,464.979,71.641,465.089
			L71.641,465.089z M102.275,464.093c-0.162,0-0.348-0.015-0.508-0.019c-0.11,0-0.444-0.172-0.553-0.192
			c0.366-1.478,0.452-3.116,0.703-4.809c0.01,0,0.337,0.079,0.339,0.075c0.225,0.047,0.605,0.202,0.845,0.262
			C102.75,460.809,102.45,462.516,102.275,464.093L102.275,464.093z M77.824,463.81c-0.239-1.527-0.591-3.334-0.898-4.756
			c0.846,0,1.978-0.116,2.633-0.264c0.848-0.191,0.766-0.111,1.072,0.558c0.047,0.106,0.085,0.186,0.144,0.359
			c-0.711-0.287-1.672-0.419-2.662-0.286c0.412,1.89-0.077,1.964,1.583,1.294c-0.013,0.083-0.072,0.289-0.072,0.289
			c-0.018,0.113-0.072,0.426-0.072,0.431c-0.002,0.002,0,0.207,0,0.216c-0.443-0.066-0.727-0.063-1.152,0
			c0.074,0.677,0.199,1.54,0.331,1.503c0.303-0.087,1.027-0.344,1.252-0.495c0.266-0.179,0.529-0.404,0.72-0.648
			c-0.016,0.066-0.072,0.361-0.072,0.361c-0.047,0.345-0.146,0.722-0.216,1.008C79.442,463.512,78.575,463.605,77.824,463.81
			L77.824,463.81z M98.74,463.602c-0.101,0.004-0.213,0.002-0.334-0.008c-0.692-0.052-1.362-0.372-2.086-0.431
			c0.063-0.432,0.174-0.9,0.216-1.295c0.117-1.125,0.106-2.26,0.153-3.416c0.306,0.036,0.739,0.13,1.07,0.177
			c-0.105,0.699-0.193,1.483-0.216,2.086c0.284,0.043,0.467,0.039,0.791,0.073c0.655-1.077,1.741-2.156,3.167-2.016
			c0,0,0.054,0.172,0.072,0.216c-0.969,0.61-1.928,1.401-2.519,2.375C99.588,462.044,100.262,463.543,98.74,463.602L98.74,463.602z
			 M81.709,463.307c-0.094-0.229-0.309-0.505-0.403-0.737c-0.133-0.312-0.028-0.559-0.028-0.559
			c0.495,0.392,0.888,0.537,1.655,0.505c0-1.554-0.177-2.819-0.359-4.175c1.358,0,1.159-0.226,1.102,0.225
			c-0.059,0.478,0.234,3.934,0.264,3.93c0.409-0.048,1.155-0.579,1.369-0.842c0.047,0.017,0.19-0.125,0.217-0.145
			c-0.03,0.28-0.119,0.446-0.081,0.481c-0.056,0.38-0.089,0.61-0.136,0.958C84.003,462.845,82.773,462.994,81.709,463.307
			L81.709,463.307z M94.663,463.091c-0.679-0.007-1.442-0.217-2.303-0.217c0.171-1.55,0.145-3.172,0.145-4.822
			c0.975,0.132,1.979,0.217,3.167,0.217c0.418,1.032,0.769,1.114-0.289,0.791c-1.874-0.571-1.967-0.609-1.948,1.403
			c1.956-0.169,1.539-0.391,1.353,0.866c-0.422-0.196-0.725-0.255-1.348-0.325c-0.013,0.152-0.072,1.439-0.072,1.439
			c1.084,0,1.574-0.189,2.159-0.648c-0.108,0.349-0.093,0.542-0.216,0.864C95.195,462.959,95.121,463.097,94.663,463.091
			L94.663,463.091z M87.323,462.874c0,0,0.129-0.354,0.208-0.511c0.551-1.121,0.938-2.419,1.505-3.648
			c0.339-0.733,0.476-1.461,1.022-0.447c0.299,0.555,0.422,1.181,0.633,1.764c0.344,0.953,0.749,1.871,1.167,2.77
			c-0.373,0-0.817-0.049-1.081-0.072c-0.247-1.19-0.536-2.184-0.934-3.167c-0.596,0.961-1.041,2.117-1.439,3.311
			C87.948,462.813,87.775,462.813,87.323,462.874L87.323,462.874z"/>
		<path class="st2" d="M79.981,501.594c-0.382-0.821-0.525-1.765-0.431-2.952c0.999,0.25,2.303,0.238,3.239,0
			C82.674,501.598,83.056,501.178,79.981,501.594L79.981,501.594z M95.097,501.594c-0.214-0.72-0.334-1.428-0.289-2.303
			c0.011-0.252,0.009-0.449,0-0.577c0.911,0.295,2.348,0.272,3.239,0C98.047,501.549,97.915,501.594,95.097,501.594L95.097,501.594z
			 M109.025,464.995c-0.001-0.575-0.03-1.062-0.15-1.711l1.147,0.319L109.025,464.995L109.025,464.995z M98.063,462.962
			c-0.192,0.009-0.429-0.012-0.716-0.073c0,0,0.13-1.72,0.189-1.712C98.557,461.325,99.404,462.898,98.063,462.962L98.063,462.962z"
			/>
	</g>
</g>
</svg>