<!-- Generator: Adobe Illustrator 23.0.1, SVG Export Plug-In  -->
<svg version="1.1" xmlns="http://www.w3.org/2000/svg" xmlns:xlink="http://www.w3.org/1999/xlink" x="0px" y="0px"
	 width="429.686px" height="415.024px" viewBox="0 0 429.686 415.024" style="enable-background:new 0 0 429.686 415.024;"
	 xml:space="preserve">
<style type="text/css">
	.st0{fill:none;}
	.st1{fill:#303030;stroke:#000000;stroke-miterlimit:10;}
	.st2{opacity:0.61;}
	.st3{fill:#303030;}
	.st4{fill:#FFB955;stroke:#FFFFFF;stroke-width:2;stroke-miterlimit:10;}
	.st5{fill:#7EC67E;stroke:#FFFFFF;stroke-width:0.5;stroke-miterlimit:10;}
	.st6{fill:#7EC67E;stroke:#4C4647;stroke-width:2;stroke-miterlimit:10;}
	.st7{fill:#7EC67E;stroke:#FFFFFF;stroke-width:2;stroke-miterlimit:10;}
	.st8{fill:#355CFF;stroke:#FFFFFF;stroke-width:2;stroke-miterlimit:10;}
	.st9{fill:none;stroke:#000000;stroke-width:2;stroke-miterlimit:10;}
	.st10{opacity:0.73;fill:none;stroke:#000000;stroke-width:2;stroke-miterlimit:10;}
	.st11{opacity:0.67;fill:none;stroke:#000000;stroke-width:2;stroke-miterlimit:10;}
	.st12{fill:#E90013;stroke:#FFFFFF;stroke-width:2;stroke-miterlimit:10;}
	.st13{fill:none;stroke:#FFFFFF;stroke-miterlimit:10;}
	.st14{fill:none;stroke:#7B7B7B;stroke-width:0.0109;stroke-miterlimit:10;}
	.st15{fill:none;stroke:#7B7B7B;stroke-width:0.001;stroke-miterlimit:10;}
	.st16{fill:none;stroke:#7B7B7B;stroke-width:0.0017;stroke-miterlimit:10;}
	.st17{fill:none;stroke:#7B7B7B;stroke-width:0.0039;stroke-miterlimit:10;}
	.st18{fill:#7EC62B;stroke:#FFFFFF;stroke-width:2;stroke-miterlimit:10;}
	.st19{fill:none;stroke:#7B7B7B;stroke-width:6.286339e-04;stroke-miterlimit:10;}
	.st20{fill:#355CFF;}
	.st21{fill:#355CFF;stroke:#FFFFFF;stroke-width:0.5;stroke-miterlimit:10;}
	.st22{font-family:'MyriadPro-Regular';}
	.st23{font-size:74px;}
	.st24{font-size:17px;}
	.st25{letter-spacing:-1;}
</style>
<defs>
</defs>
<g>
	<polyline class="st0" points="228.563,415.024 0.5,415.024 0.5,320.42 228.563,320.42 	"/>
	<path class="st1" d="M6.124,372.959v-49.88h7.03l15.985,25.236c3.7,5.847,6.587,11.101,8.955,16.207l0.147-0.074
		c-0.592-6.66-0.74-12.729-0.74-20.499v-20.87h6.068v49.88h-6.512l-15.838-25.31c-3.478-5.551-6.808-11.249-9.324-16.651
		l-0.222,0.074c0.37,6.29,0.518,12.284,0.518,20.573v21.313H6.124z"/>
	<path class="st1" d="M62.586,327.077c0.074,2.22-1.555,3.996-4.145,3.996c-2.294,0-3.922-1.776-3.922-3.996
		c0-2.295,1.702-4.07,4.07-4.07C61.031,323.006,62.586,324.782,62.586,327.077z M55.333,372.959v-35.818h6.513v35.818H55.333z"/>
	<path class="st1" d="M72.871,323.745c3.922-0.592,8.584-1.035,13.69-1.035c9.251,0,15.837,2.146,20.203,6.216
		c4.44,4.07,7.031,9.843,7.031,17.909c0,8.141-2.517,14.801-7.179,19.39c-4.662,4.662-12.359,7.179-22.054,7.179
		c-4.588,0-8.437-0.223-11.692-0.593V323.745z M79.31,367.853c1.628,0.296,3.996,0.37,6.512,0.37c13.766,0,21.24-7.696,21.24-21.165
		c0.073-11.768-6.587-19.242-20.204-19.242c-3.33,0-5.846,0.297-7.548,0.666V367.853z"/>
	<path class="st1" d="M121.266,365.115c2.886,1.776,7.104,3.257,11.545,3.257c6.586,0,10.435-3.479,10.435-8.511
		c0-4.662-2.664-7.327-9.398-9.917c-8.141-2.886-13.174-7.104-13.174-14.135c0-7.771,6.438-13.543,16.134-13.543
		c5.106,0,8.807,1.184,11.026,2.442l-1.776,5.254c-1.628-0.888-4.958-2.368-9.473-2.368c-6.808,0-9.398,4.07-9.398,7.475
		c0,4.662,3.034,6.956,9.917,9.621c8.437,3.256,12.729,7.326,12.729,14.652c0,7.696-5.698,14.357-17.465,14.357
		c-4.811,0-10.064-1.406-12.729-3.183L121.266,365.115z"/>
</g>
<g class="st2">
	<path class="st3" d="M9.617,406.44v-11.457h1.614l3.672,5.797c0.85,1.343,1.513,2.55,2.057,3.723l0.034-0.018
		c-0.136-1.529-0.17-2.924-0.17-4.708v-4.794h1.394v11.457h-1.496l-3.637-5.813c-0.8-1.274-1.564-2.584-2.143-3.824l-0.051,0.017
		c0.085,1.445,0.119,2.821,0.119,4.726v4.896H9.617z"/>
	<path class="st3" d="M21.585,402.598c0.034,2.023,1.326,2.855,2.821,2.855c1.071,0,1.717-0.187,2.278-0.425l0.255,1.071
		c-0.527,0.238-1.428,0.51-2.737,0.51c-2.532,0-4.045-1.666-4.045-4.147s1.462-4.437,3.858-4.437c2.686,0,3.399,2.362,3.399,3.876
		c0,0.306-0.034,0.544-0.051,0.696H21.585z M25.971,401.528c0.017-0.952-0.392-2.431-2.074-2.431c-1.513,0-2.176,1.394-2.295,2.431
		H25.971z"/>
	<path class="st3" d="M36.152,404.196c0,0.851,0.018,1.599,0.068,2.244h-1.326l-0.085-1.343h-0.033
		c-0.392,0.663-1.259,1.529-2.72,1.529c-1.292,0-2.839-0.714-2.839-3.604v-4.811h1.495v4.556c0,1.564,0.477,2.618,1.836,2.618
		c1.003,0,1.7-0.697,1.972-1.36c0.085-0.221,0.137-0.492,0.137-0.765v-5.049h1.495V404.196z"/>
	<path class="st3" d="M38.636,400.78c0-0.969-0.017-1.802-0.068-2.567h1.31l0.051,1.615h0.067c0.374-1.104,1.275-1.802,2.278-1.802
		c0.17,0,0.289,0.017,0.425,0.051v1.411c-0.153-0.034-0.306-0.051-0.51-0.051c-1.054,0-1.802,0.799-2.006,1.921
		c-0.034,0.203-0.068,0.441-0.068,0.696v4.386h-1.479V400.78z"/>
	<path class="st3" d="M51.47,402.258c0,3.043-2.108,4.368-4.097,4.368c-2.227,0-3.943-1.632-3.943-4.232
		c0-2.754,1.802-4.368,4.079-4.368C49.872,398.026,51.47,399.743,51.47,402.258z M44.942,402.343c0,1.802,1.037,3.162,2.499,3.162
		c1.428,0,2.498-1.343,2.498-3.196c0-1.394-0.696-3.161-2.465-3.161C45.707,399.148,44.942,400.78,44.942,402.343z"/>
	<path class="st3" d="M55.023,395.901c0.017,0.51-0.357,0.918-0.952,0.918c-0.527,0-0.901-0.408-0.901-0.918
		c0-0.526,0.392-0.935,0.936-0.935C54.666,394.966,55.023,395.374,55.023,395.901z M53.357,406.44v-8.228h1.496v8.228H53.357z"/>
	<path class="st3" d="M57.335,400.44c0-0.851-0.017-1.547-0.067-2.228h1.309l0.068,1.326h0.051c0.459-0.782,1.224-1.513,2.584-1.513
		c1.121,0,1.972,0.68,2.328,1.648h0.034c0.255-0.459,0.578-0.815,0.918-1.07c0.493-0.374,1.037-0.578,1.819-0.578
		c1.088,0,2.702,0.714,2.702,3.569v4.845h-1.462v-4.657c0-1.581-0.578-2.533-1.784-2.533c-0.851,0-1.514,0.629-1.769,1.36
		c-0.067,0.204-0.119,0.476-0.119,0.748v5.082h-1.461v-4.93c0-1.309-0.578-2.261-1.718-2.261c-0.935,0-1.614,0.748-1.853,1.496
		c-0.085,0.221-0.119,0.476-0.119,0.73v4.964h-1.462V400.44z"/>
	<path class="st3" d="M76.068,406.44l-0.119-1.037h-0.051c-0.459,0.646-1.343,1.224-2.516,1.224c-1.666,0-2.516-1.173-2.516-2.362
		c0-1.989,1.768-3.077,4.946-3.06v-0.17c0-0.68-0.187-1.904-1.869-1.904c-0.766,0-1.564,0.238-2.143,0.612l-0.34-0.986
		c0.68-0.441,1.666-0.73,2.703-0.73c2.516,0,3.128,1.717,3.128,3.365v3.077c0,0.714,0.033,1.411,0.136,1.972H76.068z
		 M75.848,402.242c-1.632-0.034-3.484,0.255-3.484,1.853c0,0.969,0.646,1.428,1.41,1.428c1.071,0,1.751-0.68,1.989-1.377
		c0.051-0.153,0.085-0.323,0.085-0.476V402.242z"/>
	<path class="st3" d="M86.795,398.212c-0.033,0.596-0.067,1.258-0.067,2.261v4.777c0,1.887-0.374,3.042-1.173,3.756
		c-0.799,0.748-1.955,0.986-2.992,0.986c-0.985,0-2.073-0.238-2.736-0.68l0.374-1.14c0.544,0.341,1.394,0.646,2.413,0.646
		c1.53,0,2.652-0.799,2.652-2.873v-0.918h-0.034c-0.459,0.766-1.343,1.377-2.618,1.377c-2.039,0-3.501-1.733-3.501-4.012
		c0-2.787,1.818-4.368,3.705-4.368c1.428,0,2.21,0.748,2.567,1.428h0.033l0.068-1.241H86.795z M85.248,401.459
		c0-0.255-0.017-0.476-0.085-0.68c-0.271-0.867-1.003-1.581-2.091-1.581c-1.428,0-2.447,1.207-2.447,3.11
		c0,1.615,0.815,2.958,2.431,2.958c0.918,0,1.751-0.578,2.074-1.53c0.085-0.255,0.118-0.544,0.118-0.799V401.459z"/>
	<path class="st3" d="M90.773,395.901c0.018,0.51-0.356,0.918-0.952,0.918c-0.526,0-0.9-0.408-0.9-0.918
		c0-0.526,0.391-0.935,0.935-0.935C90.417,394.966,90.773,395.374,90.773,395.901z M89.107,406.44v-8.228h1.496v8.228H89.107z"/>
	<path class="st3" d="M93.086,400.44c0-0.851-0.017-1.547-0.068-2.228h1.326l0.085,1.36h0.034c0.408-0.782,1.359-1.547,2.72-1.547
		c1.139,0,2.906,0.68,2.906,3.502v4.912h-1.495v-4.742c0-1.326-0.493-2.431-1.904-2.431c-0.986,0-1.751,0.696-2.006,1.529
		c-0.068,0.188-0.102,0.442-0.102,0.697v4.946h-1.496V400.44z"/>
	<path class="st3" d="M109.609,398.212c-0.034,0.596-0.068,1.258-0.068,2.261v4.777c0,1.887-0.374,3.042-1.173,3.756
		c-0.799,0.748-1.955,0.986-2.991,0.986c-0.986,0-2.074-0.238-2.737-0.68l0.374-1.14c0.544,0.341,1.395,0.646,2.414,0.646
		c1.529,0,2.651-0.799,2.651-2.873v-0.918h-0.034c-0.459,0.766-1.343,1.377-2.617,1.377c-2.04,0-3.502-1.733-3.502-4.012
		c0-2.787,1.819-4.368,3.706-4.368c1.428,0,2.21,0.748,2.566,1.428h0.034l0.068-1.241H109.609z M108.062,401.459
		c0-0.255-0.018-0.476-0.085-0.68c-0.272-0.867-1.003-1.581-2.091-1.581c-1.428,0-2.448,1.207-2.448,3.11
		c0,1.615,0.816,2.958,2.431,2.958c0.918,0,1.751-0.578,2.074-1.53c0.085-0.255,0.119-0.544,0.119-0.799V401.459z"/>
	<path class="st3" d="M122.852,406.44c-0.323-0.323-0.629-0.646-1.071-1.122c-0.985,0.918-2.09,1.309-3.349,1.309
		c-2.227,0-3.519-1.495-3.519-3.212c0-1.564,0.936-2.635,2.244-3.349v-0.052c-0.595-0.747-0.952-1.58-0.952-2.396
		c0-1.394,1.003-2.821,2.907-2.821c1.428,0,2.532,0.951,2.532,2.431c0,1.207-0.696,2.158-2.516,3.06v0.051
		c0.969,1.122,2.057,2.38,2.788,3.196c0.526-0.8,0.884-1.904,1.104-3.349h1.36c-0.307,1.802-0.799,3.229-1.649,4.232
		c0.612,0.646,1.207,1.292,1.887,2.022H122.852z M121.05,404.468c-0.68-0.748-1.955-2.142-3.229-3.604
		c-0.612,0.391-1.479,1.122-1.479,2.328c0,1.31,0.97,2.312,2.347,2.312C119.673,405.505,120.506,405.063,121.05,404.468z
		 M117.565,397.482c0,0.815,0.374,1.444,0.866,2.057c1.156-0.663,1.904-1.274,1.904-2.244c0-0.696-0.391-1.479-1.326-1.479
		C118.059,395.816,117.565,396.598,117.565,397.482z"/>
	<path class="st3" d="M129.567,395.136c0.9-0.136,1.972-0.238,3.145-0.238c2.125,0,3.638,0.493,4.641,1.428
		c1.02,0.936,1.614,2.261,1.614,4.114c0,1.869-0.578,3.399-1.648,4.453c-1.071,1.071-2.839,1.648-5.065,1.648
		c-1.054,0-1.938-0.051-2.686-0.136V395.136z M131.046,405.267c0.374,0.068,0.918,0.085,1.496,0.085
		c3.161,0,4.878-1.768,4.878-4.861c0.018-2.703-1.513-4.42-4.641-4.42c-0.765,0-1.343,0.068-1.733,0.153V405.267z"/>
	<path class="st3" d="M145.394,406.44l-0.119-1.037h-0.051c-0.459,0.646-1.343,1.224-2.516,1.224c-1.666,0-2.517-1.173-2.517-2.362
		c0-1.989,1.769-3.077,4.947-3.06v-0.17c0-0.68-0.188-1.904-1.87-1.904c-0.765,0-1.563,0.238-2.142,0.612l-0.34-0.986
		c0.68-0.441,1.666-0.73,2.702-0.73c2.516,0,3.128,1.717,3.128,3.365v3.077c0,0.714,0.034,1.411,0.136,1.972H145.394z
		 M145.173,402.242c-1.632-0.034-3.485,0.255-3.485,1.853c0,0.969,0.646,1.428,1.411,1.428c1.071,0,1.751-0.68,1.988-1.377
		c0.052-0.153,0.086-0.323,0.086-0.476V402.242z"/>
	<path class="st3" d="M150.766,395.85v2.362h2.142v1.14h-2.142v4.437c0,1.02,0.289,1.598,1.122,1.598
		c0.391,0,0.68-0.051,0.867-0.103l0.067,1.122c-0.289,0.119-0.748,0.204-1.326,0.204c-0.696,0-1.258-0.221-1.614-0.629
		c-0.425-0.442-0.578-1.173-0.578-2.142v-4.487h-1.274v-1.14h1.274v-1.972L150.766,395.85z"/>
	<path class="st3" d="M159.146,406.44l-0.119-1.037h-0.051c-0.459,0.646-1.343,1.224-2.516,1.224c-1.666,0-2.517-1.173-2.517-2.362
		c0-1.989,1.769-3.077,4.947-3.06v-0.17c0-0.68-0.188-1.904-1.87-1.904c-0.765,0-1.563,0.238-2.142,0.612l-0.34-0.986
		c0.68-0.441,1.666-0.73,2.702-0.73c2.516,0,3.128,1.717,3.128,3.365v3.077c0,0.714,0.034,1.411,0.136,1.972H159.146z
		 M158.926,402.242c-1.632-0.034-3.485,0.255-3.485,1.853c0,0.969,0.646,1.428,1.411,1.428c1.071,0,1.751-0.68,1.988-1.377
		c0.052-0.153,0.086-0.323,0.086-0.476V402.242z"/>
	<path class="st3" d="M166.235,404.638c0.663,0.408,1.632,0.748,2.652,0.748c1.513,0,2.396-0.799,2.396-1.955
		c0-1.07-0.612-1.683-2.159-2.277c-1.869-0.663-3.025-1.632-3.025-3.247c0-1.785,1.479-3.11,3.706-3.11
		c1.173,0,2.022,0.271,2.532,0.561l-0.408,1.207c-0.374-0.204-1.139-0.544-2.176-0.544c-1.563,0-2.158,0.935-2.158,1.717
		c0,1.071,0.696,1.598,2.277,2.21c1.938,0.748,2.924,1.683,2.924,3.365c0,1.768-1.309,3.298-4.012,3.298
		c-1.104,0-2.312-0.323-2.924-0.73L166.235,404.638z"/>
	<path class="st3" d="M180.736,406.134c-0.392,0.204-1.258,0.476-2.363,0.476c-2.481,0-4.097-1.683-4.097-4.198
		c0-2.533,1.734-4.369,4.42-4.369c0.884,0,1.666,0.222,2.073,0.425l-0.34,1.156c-0.356-0.204-0.918-0.391-1.733-0.391
		c-1.887,0-2.907,1.394-2.907,3.11c0,1.904,1.225,3.077,2.856,3.077c0.85,0,1.41-0.222,1.835-0.408L180.736,406.134z"/>
	<path class="st3" d="M184.153,395.901c0.017,0.51-0.357,0.918-0.952,0.918c-0.527,0-0.901-0.408-0.901-0.918
		c0-0.526,0.392-0.935,0.936-0.935C183.796,394.966,184.153,395.374,184.153,395.901z M182.487,406.44v-8.228h1.496v8.228H182.487z"
		/>
	<path class="st3" d="M187.298,402.598c0.034,2.023,1.326,2.855,2.822,2.855c1.07,0,1.717-0.187,2.277-0.425l0.255,1.071
		c-0.526,0.238-1.428,0.51-2.736,0.51c-2.533,0-4.046-1.666-4.046-4.147s1.462-4.437,3.858-4.437c2.687,0,3.4,2.362,3.4,3.876
		c0,0.306-0.034,0.544-0.052,0.696H187.298z M191.684,401.528c0.018-0.952-0.391-2.431-2.073-2.431
		c-1.514,0-2.176,1.394-2.295,2.431H191.684z"/>
	<path class="st3" d="M194.982,400.44c0-0.851-0.017-1.547-0.068-2.228h1.326l0.085,1.36h0.034c0.408-0.782,1.359-1.547,2.72-1.547
		c1.139,0,2.906,0.68,2.906,3.502v4.912h-1.495v-4.742c0-1.326-0.493-2.431-1.904-2.431c-0.986,0-1.751,0.696-2.006,1.529
		c-0.068,0.188-0.102,0.442-0.102,0.697v4.946h-1.496V400.44z"/>
	<path class="st3" d="M210.281,406.134c-0.391,0.204-1.258,0.476-2.362,0.476c-2.482,0-4.097-1.683-4.097-4.198
		c0-2.533,1.733-4.369,4.419-4.369c0.884,0,1.666,0.222,2.074,0.425l-0.34,1.156c-0.357-0.204-0.918-0.391-1.734-0.391
		c-1.887,0-2.906,1.394-2.906,3.11c0,1.904,1.224,3.077,2.855,3.077c0.85,0,1.411-0.222,1.836-0.408L210.281,406.134z"/>
	<path class="st3" d="M212.764,402.598c0.034,2.023,1.326,2.855,2.822,2.855c1.07,0,1.717-0.187,2.277-0.425l0.255,1.071
		c-0.526,0.238-1.428,0.51-2.736,0.51c-2.533,0-4.046-1.666-4.046-4.147s1.462-4.437,3.858-4.437c2.687,0,3.4,2.362,3.4,3.876
		c0,0.306-0.034,0.544-0.052,0.696H212.764z M217.149,401.528c0.018-0.952-0.391-2.431-2.073-2.431
		c-1.514,0-2.176,1.394-2.295,2.431H217.149z"/>
	<path class="st3" d="M228.607,406.44l-0.119-1.037h-0.051c-0.459,0.646-1.343,1.224-2.516,1.224c-1.666,0-2.517-1.173-2.517-2.362
		c0-1.989,1.769-3.077,4.947-3.06v-0.17c0-0.68-0.188-1.904-1.87-1.904c-0.765,0-1.563,0.238-2.142,0.612l-0.34-0.986
		c0.68-0.441,1.666-0.73,2.702-0.73c2.516,0,3.128,1.717,3.128,3.365v3.077c0,0.714,0.034,1.411,0.136,1.972H228.607z
		 M228.387,402.242c-1.632-0.034-3.485,0.255-3.485,1.853c0,0.969,0.646,1.428,1.411,1.428c1.071,0,1.751-0.68,1.988-1.377
		c0.052-0.153,0.086-0.323,0.086-0.476V402.242z"/>
	<path class="st3" d="M233.979,395.85v2.362h2.142v1.14h-2.142v4.437c0,1.02,0.289,1.598,1.122,1.598
		c0.391,0,0.68-0.051,0.867-0.103l0.067,1.122c-0.289,0.119-0.748,0.204-1.326,0.204c-0.696,0-1.258-0.221-1.614-0.629
		c-0.425-0.442-0.578-1.173-0.578-2.142v-4.487h-1.274v-1.14h1.274v-1.972L233.979,395.85z"/>
	<path class="st3" d="M243.228,406.44v-4.861l-3.62-6.596h1.683l1.614,3.162c0.442,0.866,0.782,1.563,1.14,2.362h0.033
		c0.323-0.748,0.714-1.496,1.156-2.362l1.648-3.162h1.684l-3.842,6.578v4.879H243.228z"/>
	<path class="st3" d="M253.189,406.44l-0.119-1.037h-0.051c-0.459,0.646-1.343,1.224-2.516,1.224c-1.666,0-2.517-1.173-2.517-2.362
		c0-1.989,1.769-3.077,4.947-3.06v-0.17c0-0.68-0.188-1.904-1.87-1.904c-0.765,0-1.563,0.238-2.142,0.612l-0.34-0.986
		c0.68-0.441,1.666-0.73,2.702-0.73c2.516,0,3.128,1.717,3.128,3.365v3.077c0,0.714,0.034,1.411,0.136,1.972H253.189z
		 M252.969,402.242c-1.632-0.034-3.485,0.255-3.485,1.853c0,0.969,0.646,1.428,1.411,1.428c1.071,0,1.751-0.68,1.988-1.377
		c0.052-0.153,0.086-0.323,0.086-0.476V402.242z"/>
	<path class="st3" d="M256.827,394.371h1.496v12.068h-1.496V394.371z"/>
	<path class="st3" d="M261.672,402.598c0.034,2.023,1.326,2.855,2.822,2.855c1.07,0,1.717-0.187,2.277-0.425l0.255,1.071
		c-0.526,0.238-1.428,0.51-2.736,0.51c-2.533,0-4.046-1.666-4.046-4.147s1.462-4.437,3.858-4.437c2.687,0,3.4,2.362,3.4,3.876
		c0,0.306-0.034,0.544-0.052,0.696H261.672z M266.058,401.528c0.018-0.952-0.391-2.431-2.073-2.431
		c-1.514,0-2.176,1.394-2.295,2.431H266.058z"/>
</g>
<g>
	<path class="st4" d="M174.52,310.945"/>
</g>
<path class="st5" d="M171.836,376.985c-0.175-0.091-0.35-0.19-0.526-0.296c0,0,0-0.008-0.007-0.015
	c-0.021-0.03-0.077-0.099-0.154-0.22c0.021-0.03,0.035-0.061,0.056-0.091"/>
<path class="st6" d="M171.31,376.687"/>
<line class="st7" x1="171.31" y1="376.687" x2="165.459" y2="386.759"/>
<g>
	<path class="st8" d="M163.287,318.561c3.291-4.888-15.39,28.307,4.279,41.341c27.045,17.921-4.524,10.604,8.652,15.515"/>
	<path class="st8" d="M164.293,315.059c0,0,26.564,17.493,18.599,49.114c-7.965,31.621,5.358,2.404-2.739,14.598"/>
</g>
<line class="st9" x1="376.136" y1="234.648" x2="420.096" y2="234.648"/>
<polyline class="st10" points="372.277,195.764 428.543,159.125 420.096,125.406 "/>
<polyline class="st11" points="132.905,158.125 132.905,224.289 169.916,224.289 "/>
<polyline class="st11" points="359.777,139.765 428.543,159.125 420.096,234.648 359.777,139.765 420.096,125.406 361.777,57.21 "/>
<polygon class="st11" points="64.709,159.125 94.627,238.648 50.35,218.983 "/>
<polyline class="st11" points="64.709,159.125 21.966,186.264 50.35,218.983 "/>
<polyline class="st11" points="124.545,46.519 185.275,104.289 185.275,18.8 307.172,46.519 280.217,79.238 235.147,139.765 
	204.635,253.008 "/>
<path class="st11" d="M272.558,4.441c-29.282-8.623-87.283,0-117.002,14.36s-45.37,27.719-60.929,27.719s-22.539,30.74-29.918,39.41
	c-7.379,8.67-31.477,21.738-41.613,73.196s50.681,83.691,71.531,79.524s38.278-14.36,38.278-14.36l-68.196-65.164l68.196-1
	l62.73,42.499l-25.719,23.665l112.224,18.95l-46.992-103.473l-35.512-60.527h80.582l79.56,60.527l-68.293,14.36l80.793,41.639
	l-52.117,42.884"/>
<path class="st11" d="M420.096,125.406c-8.447-33.719-25.34-56.593-72.678-93.246s-45.577-19.096-74.859-27.719"/>
<polyline class="st11" points="169.916,224.289 204.635,253.008 282.139,243.238 291.484,154.125 320.16,238.648 376.136,234.648 
	372.277,195.764 359.777,139.765 361.777,57.21 317.989,85.929 307.172,46.519 331.781,46.519 "/>
<line class="st11" x1="64.709" y1="159.125" x2="124.545" y2="46.519"/>
<polygon class="st11" points="124.545,46.519 132.905,158.125 185.275,104.289 195.635,200.623 235.147,139.765 291.484,154.125 
	280.217,79.238 228.318,57.21 199.635,79.238 204.635,42.85 185.275,18.8 "/>
<circle class="st12" cx="185.275" cy="104.289" r="14.36"/>
<circle class="st12" cx="291.484" cy="154.125" r="14.36"/>
<circle class="st12" cx="282.139" cy="243.238" r="14.36"/>
<circle class="st12" cx="235.147" cy="139.765" r="14.36"/>
<circle class="st12" cx="280.217" cy="79.238" r="14.36"/>
<circle class="st12" cx="317.989" cy="85.929" r="14.36"/>
<circle class="st12" cx="359.777" cy="139.765" r="14.36"/>
<circle class="st12" cx="361.777" cy="57.21" r="14.36"/>
<circle class="st12" cx="376.136" cy="234.648" r="14.36"/>
<circle class="st12" cx="228.318" cy="57.21" r="14.36"/>
<circle class="st12" cx="320.16" cy="238.648" r="14.36"/>
<path class="st12" d="M79.069,159.125c0,7.931-6.429,14.36-14.36,14.36c-7.931,0-14.36-6.429-14.36-14.36
	c0-7.93,6.429-14.359,14.36-14.359C72.64,144.765,79.069,151.194,79.069,159.125z"/>
<circle class="st12" cx="124.545" cy="46.519" r="14.36"/>
<circle class="st12" cx="195.635" cy="200.623" r="14.36"/>
<circle class="st12" cx="169.916" cy="224.289" r="14.36"/>
<circle class="st12" cx="132.905" cy="158.125" r="14.36"/>
<circle class="st12" cx="204.635" cy="253.008" r="14.36"/>
<circle class="st12" cx="199.635" cy="79.238" r="9.5"/>
<path class="st12" d="M185.275,4.441c7.931,0,14.36,6.429,14.36,14.36s-6.429,14.36-14.36,14.36s-14.36-6.429-14.36-14.36
	S177.345,4.441,185.275,4.441"/>
<circle class="st12" cx="372.277" cy="195.764" r="9.5"/>
<circle class="st12" cx="307.172" cy="46.519" r="9.5"/>
<circle class="st12" cx="204.635" cy="42.85" r="9.5"/>
<circle class="st12" cx="331.781" cy="46.519" r="9.5"/>
<g class="st2">
	<g>
		<path class="st13" d="M333.939,334.041"/>
	</g>
</g>
<path class="st12" d="M124.545,60.879"/>
<g class="st2">
	<g>
		<g>
			<g>
				<path d="M179.382,281.277c-0.795-0.251-0.785-0.299,0.017-0.108c0,0,0.17,0.054,0.51,0.108c0.34,0.054,0.844,0.133,1.503,0.238
					c1.313,0.219,3.268,0.371,5.748,0.377c2.482-0.055,5.488-0.336,8.876-1.014c3.39-0.669,7.154-1.72,11.215-3.063
					c4.063-1.345,8.422-2.976,13.12-4.618c4.7-1.627,9.749-3.296,15.278-4.313c5.49-1.04,11.626-1.269,17.674,0.411
					c3.005,0.811,5.968,2.179,8.602,3.816c2.65,1.619,5.067,3.413,7.457,5c2.403,1.615,4.697,2.901,7.296,3.949
					c2.569,1.072,5.327,1.95,8.154,2.876c2.833,0.936,5.757,1.895,8.669,3.209c0.728,0.323,1.453,0.668,2.172,1.045
					c0.361,0.179,0.72,0.368,1.075,0.576l0.533,0.303c0.222,0.13,0.451,0.253,0.689,0.411l0.683,0.493
					c0.217,0.178,0.424,0.367,0.633,0.555c0.207,0.18,0.409,0.405,0.613,0.622c0.192,0.203,0.349,0.376,0.491,0.552
					c0.616,0.716,1.102,1.389,1.574,2.063c1.838,2.677,3.246,5.269,4.602,7.855c1.336,2.581,2.563,5.135,3.72,7.652
					c2.31,5.033,4.347,9.917,6.195,14.553c7.355,18.545,11.638,33.155,12.944,38.076c2.596,9.84,3.813,19.081,3.777,25.884
					c-0.024,6.816-1.268,11.114-3.075,11.303c-1.831,0.194-3.867-3.584-6.154-9.688c-2.28-6.116-4.853-14.613-7.364-24.136
					c-1.259-4.743-4.642-19.167-10.655-37.625c-1.509-4.604-3.179-9.459-5.071-14.408c-0.947-2.472-1.951-4.967-3.028-7.436
					c-1.076-2.45-2.246-4.937-3.502-7.056c-0.309-0.516-0.631-1.024-0.912-1.401c-0.072-0.108-0.147-0.202-0.192-0.255
					c-0.031-0.035-0.043-0.081-0.098-0.132c-0.085-0.104-0.179-0.199-0.283-0.287l-0.203-0.144l-0.391-0.259
					c-0.256-0.178-0.526-0.344-0.805-0.505c-0.541-0.335-1.108-0.654-1.692-0.962c-2.32-1.251-4.933-2.324-7.658-3.432
					c-2.737-1.111-5.608-2.236-8.482-3.67c-2.876-1.384-5.746-3.268-8.152-5.154c-2.446-1.886-4.657-3.772-6.887-5.355
					c-2.217-1.599-4.457-2.823-6.917-3.686c-4.877-1.742-10.234-2.002-15.411-1.393c-5.191,0.573-10.217,1.831-14.964,3.107
					c-4.75,1.288-9.248,2.614-13.446,3.678c-4.201,1.063-8.108,1.859-11.609,2.293c-3.5,0.444-6.582,0.509-9.1,0.385
					c-2.518-0.187-4.473-0.482-5.779-0.797c-0.653-0.152-1.153-0.269-1.49-0.347C179.549,281.344,179.382,281.277,179.382,281.277z"
					/>
				<g>
					<g>
						<g>
							<path class="st14" d="M181.789,281.897c-2.014-0.476-1.936-0.47,0.172,0.013c0,0,0.112,0.035,0.339,0.069
								c0.227,0.035,0.565,0.087,1.012,0.155c0.448,0.06,1.002,0.174,1.667,0.235c0.667,0.055,1.44,0.118,2.315,0.19
								c3.503,0.18,8.707-0.099,15.121-1.473c3.21-0.676,6.722-1.589,10.511-2.65c3.788-1.058,7.855-2.263,12.209-3.369
								c2.177-0.544,4.425-1.075,6.743-1.487c2.316-0.434,4.702-0.757,7.133-0.89c4.859-0.329,9.918,0.271,14.582,2.305
								c2.34,1.002,4.497,2.428,6.754,4.144c2.251,1.703,4.55,3.668,7.205,5.563c1.32,0.951,2.777,1.861,4.258,2.678
								c1.482,0.825,2.997,1.53,4.517,2.214c3.04,1.337,6.089,2.477,8.997,3.7c1.447,0.615,2.859,1.255,4.214,1.943
								c0.66,0.359,1.337,0.703,1.963,1.092c0.319,0.189,0.643,0.373,0.942,0.58l0.45,0.297c0.091,0.067,0.184,0.118,0.244,0.176
								c0.301,0.27,0.392,0.397,0.817,0.986c0.365,0.539,0.75,1.14,1.123,1.807c0.751,1.315,1.476,2.764,2.174,4.251
								c2.787,5.99,5.234,12.566,7.575,19.297c2.325,6.751,4.52,13.737,6.581,20.875c1.031,3.567,2.031,7.176,2.988,10.779
								l0.706,2.684c0.164,0.631,0.347,1.336,0.492,1.896c0.309,1.196,0.612,2.371,0.911,3.529c0.301,1.176,0.638,2.411,0.956,3.529
								c0.323,1.119,0.614,2.112,0.892,2.99c0.267,0.857,0.512,1.612,0.736,2.261c0.106,0.306,0.213,0.617,0.318,0.921l0.14,0.386
								c0.062,0.172,0.138,0.386,0.211,0.589c1.145,3.153,2.125,5.455,2.983,7.185c0.43,0.883,0.827,1.606,1.206,2.216
								c0.379,0.631,0.726,1.108,1.063,1.517c0.669,0.785,1.261,1.212,1.785,1.261c1.052,0.127,1.865-1.03,2.365-3.425
								c0.249-1.179,0.408-2.741,0.464-4.592c0.026-0.956,0.023-1.946-0.014-3.086c-0.042-1.116-0.102-2.322-0.225-3.645
								c-0.114-1.316-0.269-2.709-0.473-4.201c-0.057-0.385-0.11-0.75-0.165-1.124c-0.063-0.403-0.119-0.756-0.178-1.135
								c-0.034-0.203-0.066-0.389-0.095-0.565l-0.025-0.141c-0.006-0.028-0.006-0.03-0.01-0.045l-0.013-0.067
								c-0.026-0.128-0.055-0.276-0.082-0.407c-0.115-0.556-0.245-1.157-0.405-1.793c-0.087-0.326-0.171-0.643-0.254-0.959
								c-0.084-0.287-0.172-0.586-0.255-0.867c-0.082-0.261-0.151-0.484-0.234-0.747l-0.082-0.26
								c-0.036-0.115-0.022-0.071-0.159-0.515c-0.211-0.686-0.422-1.369-0.632-2.05c-0.856-2.753-1.762-5.546-2.682-8.28
								c-1.84-5.479-3.743-10.782-5.656-15.816c-3.837-10.078-7.674-19.137-11.57-26.965c-1.981-3.916-3.889-7.51-6.273-10.785
								c-0.309-0.41-0.626-0.817-0.979-1.223c-0.327-0.379-0.797-0.889-1.235-1.252c-0.439-0.386-0.95-0.719-1.425-0.979
								c-0.413-0.229-0.803-0.462-1.205-0.668c-1.597-0.839-3.148-1.499-4.614-2.09c-2.94-1.14-5.548-1.952-7.764-2.678
								c-2.219-0.718-4.05-1.347-5.495-1.908c-2.917-1.093-5.579-2.439-8.15-4.134c-2.578-1.674-5.081-3.56-7.745-5.231
								c-1.331-0.835-2.704-1.616-4.131-2.281c-1.443-0.627-2.887-1.213-4.377-1.625c-2.965-0.858-5.991-1.233-8.936-1.254
								c-5.913-0.05-11.439,1.26-16.544,2.697c-5.106,1.491-9.841,3.19-14.282,4.694c-4.436,1.515-8.591,2.815-12.427,3.746
								c-3.832,0.936-7.347,1.485-10.409,1.653c-3.061,0.161-5.656,0.011-7.658-0.319c-0.504-0.055-0.965-0.161-1.39-0.257
								l-0.312-0.07l-0.038-0.009l-0.019-0.004l-0.009-0.002c-0.266-0.079,0.582,0.174-0.599-0.177l-0.037-0.011l-0.082-0.023
								c-0.122-0.033-0.22-0.059-0.294-0.079c-0.169-0.043-0.291-0.068-0.333-0.085l-0.033-0.01
								c-0.025-0.007-0.166-0.048-0.244-0.071l-0.568-0.163c-0.374-0.108-0.753-0.221-1.036-0.321
								c-0.284-0.1-0.443-0.177-0.365-0.196c0.038-0.01,0.127-0.006,0.264,0.011l0.111,0.015l0.064,0.01l0.004-0.004l0.024-0.015
								c0.041-0.018,0.119-0.026,0.235-0.026c0.466-0.018,1.498,0.207,3.1,0.32c1.585,0.19,3.737,0.242,6.353,0.129
								c2.62-0.131,5.71-0.587,9.178-1.396c3.472-0.803,7.311-2.023,11.507-3.507c4.2-1.478,8.755-3.258,13.784-5.008
								c5.042-1.709,10.566-3.491,16.872-4.25c3.143-0.372,6.485-0.469,9.928-0.036c3.441,0.42,6.952,1.421,10.289,2.987
								c1.671,0.79,3.637,1.93,5.756,3.347c2.119,1.403,4.396,3.092,6.856,4.647c1.236,0.784,2.491,1.477,3.896,2.14
								c1.403,0.669,2.985,1.283,4.706,1.901c3.443,1.252,7.523,2.38,12.133,4.257c1.151,0.477,2.333,0.998,3.532,1.613
								c0.6,0.301,1.204,0.616,1.808,0.974c0.251,0.156,0.746,0.399,1.158,0.715c0.435,0.294,0.851,0.617,1.236,0.983
								c0.198,0.178,0.387,0.352,0.585,0.569l0.529,0.573c0.27,0.321,0.549,0.651,0.799,0.969c0.487,0.627,0.921,1.24,1.336,1.848
								c0.812,1.209,1.53,2.405,2.229,3.617c2.747,4.831,5.122,9.916,7.512,15.351c2.375,5.439,4.688,11.19,7.017,17.416
								c1.165,3.12,2.325,6.334,3.521,9.799c0.3,0.88,0.602,1.764,0.904,2.651c0.442,1.333,0.887,2.671,1.333,4.014
								c0.472,1.485,0.965,3.036,1.444,4.542c0.467,1.552,0.939,3.125,1.399,4.653c0.458,1.564,0.893,3.137,1.321,4.716
								c0.426,1.577,0.842,3.17,1.227,4.771c0.801,3.222,1.494,6.389,2.087,9.391l0.43,2.24c0.126,0.71,0.253,1.428,0.379,2.143
								l0.182,1.072c0.055,0.337,0.111,0.683,0.166,1.025c0.102,0.671,0.204,1.344,0.306,2.02c0.182,1.302,0.354,2.567,0.49,3.775
								l0.188,1.742c0.054,0.56,0.107,1.113,0.163,1.689l0.124,1.592c0.043,0.535,0.081,1.063,0.105,1.558l0.038,0.748l0.03,0.625
								c0.011,0.34,0.021,0.673,0.031,0.993c0.011,0.606,0.037,1.268,0.031,1.813c-0.003,0.541-0.005,1.09-0.008,1.628
								c-0.046,2.064-0.157,3.685-0.324,5.138c-0.156,1.453-0.366,2.641-0.596,3.683c-0.225,1.064-0.485,1.9-0.748,2.661
								c-0.535,1.455-1.109,2.446-1.68,2.962c-1.134,1.058-2.192,0.547-3.214-1.235c-0.527-0.885-1.047-2.152-1.645-3.805
								c-0.29-0.841-0.612-1.761-0.944-2.849c-0.34-1.067-0.702-2.262-1.106-3.655c-0.823-2.789-1.742-6.096-3.148-11.264
								c-0.092-0.341-0.18-0.668-0.28-1.039c-0.119-0.438-0.239-0.881-0.353-1.301l-0.371-1.387
								c-0.128-0.479-0.256-0.958-0.381-1.427c-0.592-2.231-1.166-4.391-1.723-6.49c-0.695-2.64-1.37-5.203-2.036-7.73l-0.546-2.086
								l-0.55-2.119c-0.047-0.175-0.092-0.343-0.141-0.526l-0.137-0.528c-0.091-0.352-0.181-0.7-0.272-1.053
								c-0.179-0.697-0.357-1.386-0.537-2.086c-0.35-1.35-0.705-2.725-1.063-4.108l-0.527-2.021l-0.523-1.991
								c-0.356-1.327-0.676-2.522-1.015-3.784l-0.788-2.889c-1.042-3.779-2.084-7.394-3.146-10.935
								c-2.119-7.066-4.318-13.826-6.663-20.297c-1.173-3.23-2.385-6.386-3.66-9.419c-1.273-3-2.63-5.994-4.053-8.396
								c-0.349-0.604-0.706-1.118-0.983-1.496c-0.055-0.09-0.126-0.175-0.216-0.28c-0.112-0.104-0.124-0.13-0.419-0.324
								c-1.14-0.781-2.387-1.482-3.695-2.142c-2.607-1.328-5.484-2.456-8.422-3.664c-2.94-1.199-5.967-2.492-8.888-4.128
								c-2.972-1.656-5.556-3.669-7.845-5.508c-2.305-1.853-4.416-3.589-6.542-4.959c-2.095-1.37-4.317-2.349-6.607-3.07
								c-2.288-0.717-4.655-1.109-7.026-1.222c-2.368-0.118-4.73-0.063-7.047,0.214c-4.636,0.498-9.062,1.54-13.21,2.601
								c-8.295,2.196-15.577,4.408-21.738,5.539c-6.138,1.186-11.103,1.378-14.437,1.118c-0.833-0.076-1.568-0.144-2.202-0.202
								c-0.629-0.101-1.158-0.185-1.584-0.253C182.219,282.01,181.789,281.897,181.789,281.897z"/>
						</g>
					</g>
				</g>
			</g>
		</g>
	</g>
</g>
<g>
	<g>
		<g>
			<g>
				<path d="M296.921,264.625c-0.077,0.001-0.078-0.004-0.002-0.01c0,0,0.264-0.022,0.725-0.061
					c0.465-0.074,1.129-0.011,1.942,0.022c1.614,0.162,3.758,0.849,5.656,2.098c3.866,2.449,6.665,6.459,7.174,7.227
					c1.05,1.598,1.546,3.089,1.247,3.25c-0.305,0.165-1.269-1.021-2.283-2.563c-0.497-0.749-2.94-4.785-6.491-7.396
					c-1.741-1.329-3.76-2.141-5.332-2.416c-0.789-0.088-1.447-0.2-1.91-0.159C297.185,264.622,296.921,264.625,296.921,264.625z"/>
				<g>
					<g>
						<g>
							<path class="st15" d="M297.15,264.625c-0.191,0.001-0.184,0,0.016-0.003c0,0,0.171-0.002,0.494-0.007
								c0.322-0.026,0.794,0.013,1.391,0.094c1.187,0.15,2.892,0.585,4.672,1.675c0.436,0.284,0.91,0.549,1.346,0.91
								c0.225,0.171,0.452,0.345,0.683,0.521c0.219,0.195,0.441,0.393,0.665,0.592c0.903,0.797,1.764,1.75,2.611,2.784
								c0.411,0.529,0.838,1.061,1.229,1.637c0.197,0.286,0.411,0.563,0.595,0.86l0.142,0.218c0.033,0.051,0.074,0.113,0.101,0.154
								c0.076,0.115,0.143,0.216,0.189,0.285c0.078,0.112,0.062,0.09,0.195,0.282c0.039,0.055,0.1,0.141,0.169,0.24
								c0.04,0.055,0.085,0.116,0.132,0.18l0.056,0.073l0.024,0.03c0.011,0.014,0.024,0.03,0.036,0.046
								c0.197,0.246,0.358,0.42,0.49,0.546c0.067,0.064,0.126,0.115,0.18,0.157c0.053,0.045,0.098,0.076,0.14,0.102
								c0.083,0.049,0.149,0.068,0.196,0.056c0.097-0.022,0.131-0.151,0.103-0.379c-0.014-0.113-0.053-0.253-0.106-0.417
								c-0.033-0.093-0.066-0.184-0.098-0.271c-0.045-0.11-0.089-0.216-0.131-0.316c-0.06-0.129-0.116-0.252-0.166-0.36
								l-0.047-0.096c-0.018-0.035-0.033-0.063-0.05-0.095c-0.01-0.017-0.018-0.033-0.026-0.047l-0.007-0.012l-0.002-0.004
								l-0.003-0.006l-0.02-0.033c-0.044-0.07-0.077-0.122-0.092-0.146c-0.034-0.05-0.03-0.044-0.052-0.077
								c-0.007-0.01-0.029-0.041-0.05-0.069l-0.044-0.059l-0.015-0.021c-0.007-0.01-0.006-0.008-0.03-0.041l-0.118-0.163
								c-0.153-0.207-0.319-0.432-0.485-0.658c-0.327-0.406-0.664-0.824-0.991-1.23c-0.331-0.374-0.653-0.737-0.962-1.086
								c-0.32-0.325-0.626-0.635-0.914-0.927c-1.171-1.133-2.128-1.844-2.613-2.201c-1.966-1.406-4.127-2.291-5.86-2.571
								c-0.428-0.101-0.834-0.129-1.201-0.146c-0.366-0.013-0.693-0.077-0.976-0.042c-0.262,0.011-0.298,0.013-0.707,0.031
								c-0.037,0.001-0.08,0.002-0.13,0.004l-0.029,0h-0.004h-0.002h-0.001c-0.026-0.001,0.056,0.003-0.058-0.003l-0.004,0l-0.008,0
								c-0.012,0-0.022,0-0.028-0.001c-0.023,0-0.032,0-0.032,0h-0.003c0,0-0.018,0.001-0.023,0.001l-0.055,0.002
								c-0.014,0-0.037,0-0.101,0.002c-0.028-0.001-0.045-0.003-0.039-0.007c0,0,0.011-0.004,0.023-0.007l0.01-0.002l0.006-0.001
								l0,0l0.002-0.002c0,0,0.009-0.006,0.019-0.009c0.04-0.013,0.138-0.031,0.288-0.052c0.3-0.02,0.814-0.154,1.504-0.121
								c1.377-0.045,3.511,0.322,5.698,1.521c0.545,0.292,1.654,0.907,2.992,2.026c0.667,0.56,1.403,1.229,2.164,2.037
								c0.397,0.392,0.758,0.849,1.176,1.316c0.209,0.235,0.398,0.495,0.614,0.764l0.163,0.207l0.246,0.314
								c0.092,0.113,0.177,0.24,0.265,0.361c0.091,0.129,0.2,0.283,0.263,0.373c0.146,0.21,0.195,0.281,0.262,0.377
								c0.085,0.127,0.177,0.252,0.256,0.384c0.062,0.102,0.236,0.39,0.465,0.769l0.108,0.183c0.032,0.056,0.068,0.117,0.101,0.175
								l0.051,0.087c0.014,0.026,0.031,0.056,0.047,0.084l0.088,0.168c0.05,0.099,0.103,0.203,0.16,0.314l0.072,0.145
								c0.022,0.046,0.044,0.09,0.069,0.141l0.063,0.133c0.02,0.042,0.04,0.084,0.061,0.13l0.029,0.062l0.024,0.052l0.037,0.083
								l0.066,0.152l0.054,0.139l0.154,0.442c0.04,0.126,0.069,0.231,0.091,0.325c0.023,0.095,0.037,0.173,0.048,0.245
								c0.018,0.138,0.017,0.242-0.004,0.309c-0.041,0.136-0.149,0.152-0.32,0.051c-0.085-0.05-0.189-0.134-0.311-0.252
								l-0.201-0.211l-0.238-0.282c-0.171-0.221-0.382-0.478-0.679-0.893c-0.02-0.028-0.038-0.054-0.059-0.084
								c-0.025-0.036-0.051-0.072-0.074-0.105l-0.077-0.113c-0.027-0.04-0.055-0.08-0.079-0.116
								c-0.138-0.199-0.259-0.376-0.361-0.524c-0.182-0.273-0.331-0.496-0.419-0.627l-0.11-0.171
								c-0.052-0.081-0.076-0.117-0.112-0.173c-0.01-0.015-0.004-0.005-0.029-0.042l-0.029-0.042
								c-0.02-0.029-0.024-0.035-0.057-0.084c-0.037-0.055-0.062-0.092-0.113-0.168c-0.051-0.077-0.13-0.197-0.219-0.332
								l-0.107-0.164l-0.105-0.162c-0.073-0.109-0.13-0.208-0.202-0.306l-0.161-0.229c-0.199-0.284-0.403-0.576-0.61-0.871
								c-0.42-0.544-0.808-1.087-1.231-1.574c-0.825-0.995-1.68-1.875-2.547-2.632c-0.419-0.398-0.884-0.704-1.301-1.044
								c-0.438-0.309-0.88-0.575-1.296-0.846c-1.715-1.003-3.338-1.404-4.469-1.531c-0.284-0.035-0.538-0.066-0.758-0.093
								c-0.222,0.001-0.411,0.002-0.563,0.002C297.313,264.624,297.15,264.625,297.15,264.625z"/>
						</g>
					</g>
				</g>
			</g>
		</g>
	</g>
</g>
<g class="st2">
	<g>
		<g>
			<g>
				<path d="M281.522,258.155c0.038-0.125,0.046-0.124,0.017,0.003c0,0-0.025,0.11-0.071,0.315c-0.04,0.207-0.135,0.503-0.165,0.897
					c-0.119,0.777-0.168,1.913,0.023,3.25c0.195,1.338,0.696,2.854,1.472,4.372c0.771,1.522,1.798,3.053,2.923,4.542
					c2.259,2.975,4.866,5.837,6.783,8.362c1.949,2.497,3.159,4.676,3.499,5.433c0.707,1.503,1.096,3.001,1.114,4.115
					c0.034,1.112-0.165,1.793-0.459,1.817c-0.594,0.022-1.212-2.334-2.557-5.033c-0.31-0.686-1.3-2.747-3.041-5.294
					c-1.702-2.565-4.115-5.602-6.207-8.79c-1.041-1.595-1.986-3.241-2.67-4.867c-0.69-1.622-1.096-3.228-1.198-4.615
					c-0.098-1.389,0.037-2.534,0.213-3.309c0.059-0.394,0.175-0.686,0.23-0.889C281.49,258.263,281.522,258.155,281.522,258.155z"/>
				<g>
					<g>
						<g>
							<path class="st16" d="M281.404,258.528c0.096-0.312,0.094-0.299-0.004,0.027c0,0-0.021,0.071-0.062,0.207
								c-0.048,0.135-0.099,0.34-0.142,0.614c-0.114,0.541-0.248,1.35-0.233,2.396c-0.039,2.098,0.788,5.102,2.629,8.24
								c0.903,1.578,2.013,3.21,3.235,4.901c1.221,1.691,2.549,3.449,3.851,5.318c0.64,0.939,1.294,1.898,1.884,2.902
								c0.311,0.494,0.578,1.013,0.866,1.518l0.193,0.385c0.045,0.09,0.1,0.198,0.137,0.271c0.1,0.198,0.189,0.374,0.255,0.504
								c0.09,0.19,0.098,0.207,0.241,0.509c0.052,0.1,0.131,0.254,0.221,0.427c0.07,0.121,0.114,0.233,0.164,0.326l0.068,0.133
								l0.03,0.056c0.013,0.025,0.029,0.055,0.045,0.085c0.256,0.451,0.44,0.787,0.595,1.041c0.081,0.129,0.155,0.234,0.224,0.323
								c0.069,0.092,0.136,0.16,0.191,0.22c0.109,0.115,0.205,0.176,0.288,0.178c0.161,0.011,0.299-0.184,0.338-0.57
								c0.02-0.19,0.018-0.441-0.002-0.74c-0.015-0.153-0.019-0.318-0.057-0.496c-0.043-0.2-0.084-0.395-0.123-0.577
								c-0.052-0.207-0.101-0.433-0.177-0.664c-0.021-0.06-0.04-0.116-0.06-0.174c-0.023-0.064-0.042-0.116-0.063-0.175
								c-0.012-0.032-0.022-0.061-0.032-0.087l-0.008-0.022c-0.002-0.005-0.003-0.007-0.003-0.007l-0.004-0.01l-0.025-0.062
								c-0.055-0.129-0.097-0.227-0.117-0.275c-0.036-0.078-0.041-0.089-0.068-0.146c-0.011-0.022-0.039-0.079-0.065-0.132
								c-0.02-0.036-0.04-0.071-0.062-0.11l-0.022-0.038c-0.01-0.018-0.009-0.015-0.043-0.076l-0.171-0.302
								c-0.226-0.408-0.468-0.815-0.722-1.203c-0.492-0.789-1.012-1.526-1.523-2.215c-1.021-1.382-2.008-2.583-2.881-3.633
								c-1.757-2.09-3.032-3.609-3.657-4.401c-2.521-3.124-4.609-6.449-5.205-9.407c-0.334-1.459-0.292-2.758-0.181-3.715
								c0.075-0.479,0.119-0.886,0.223-1.19c0.018-0.062,0.038-0.134,0.061-0.214l0.014-0.048l0.002-0.006l0.001-0.003l0-0.001
								c0.015-0.041-0.033,0.09,0.034-0.092l0.002-0.006l0.005-0.013c0.007-0.02,0.012-0.035,0.015-0.045
								c0.011-0.037,0.016-0.052,0.016-0.052l0.001-0.005c0.001-0.005,0.008-0.028,0.011-0.039l0.025-0.09
								c0.007-0.025,0.019-0.064,0.049-0.164c0.015-0.045,0.027-0.07,0.03-0.058c0.002,0.006,0.001,0.02-0.001,0.042l-0.002,0.018
								l-0.001,0.01l0.001,0.001l0.002,0.004c0.003,0.006,0.004,0.019,0.004,0.037c0,0.074-0.021,0.242-0.062,0.494
								c-0.037,0.253-0.12,0.585-0.139,1.008c-0.044,0.418-0.084,0.914-0.057,1.481c0.025,1.13,0.238,2.535,0.807,4.053
								c0.56,1.521,1.452,3.145,2.584,4.804c0.572,0.831,1.766,2.478,3.606,4.678c0.945,1.146,2.006,2.433,3.138,3.806
								c0.581,0.727,1.188,1.497,1.812,2.355c0.315,0.428,0.633,0.873,0.958,1.366l0.252,0.374l0.364,0.579
								c0.138,0.223,0.277,0.449,0.405,0.657c0.131,0.238,0.284,0.516,0.382,0.694c0.126,0.234,0.258,0.464,0.368,0.71
								c0.105,0.228,0.17,0.368,0.34,0.733c0.225,0.496,0.396,1.007,0.571,1.478l0.105,0.363c0.031,0.111,0.065,0.231,0.097,0.347
								l0.048,0.173c0.014,0.051,0.03,0.11,0.045,0.165c0.03,0.109,0.06,0.217,0.078,0.328c0.035,0.195,0.073,0.402,0.112,0.62
								l0.048,0.285c0.014,0.09,0.027,0.176,0.043,0.276l0.019,0.263c0.006,0.084,0.012,0.167,0.018,0.257l0.007,0.123l0.006,0.103
								l0.008,0.162l0.011,0.295c0.006,0.088-0.006,0.182-0.009,0.265c-0.022,0.336-0.049,0.598-0.078,0.829
								c-0.022,0.232-0.068,0.419-0.12,0.583c-0.048,0.167-0.095,0.297-0.142,0.415c-0.093,0.225-0.184,0.377-0.272,0.456
								c-0.177,0.161-0.347,0.08-0.51-0.212c-0.081-0.144-0.161-0.351-0.237-0.617c-0.043-0.136-0.064-0.283-0.125-0.456
								c-0.053-0.17-0.107-0.359-0.162-0.577c-0.095-0.437-0.263-0.948-0.489-1.728c-0.018-0.052-0.034-0.1-0.053-0.156
								c-0.022-0.066-0.045-0.133-0.065-0.195l-0.067-0.208c-0.023-0.073-0.047-0.147-0.067-0.213
								c-0.096-0.29-0.233-0.607-0.356-0.956c-0.121-0.355-0.307-0.722-0.464-1.124c-0.041-0.101-0.082-0.203-0.132-0.301
								c-0.058-0.123-0.097-0.204-0.144-0.303c-0.012-0.026-0.011-0.022-0.036-0.075l-0.035-0.076
								c-0.024-0.051-0.038-0.083-0.07-0.151c-0.045-0.1-0.079-0.175-0.136-0.3c-0.074-0.146-0.179-0.353-0.296-0.584l-0.145-0.288
								l-0.143-0.284c-0.096-0.173-0.194-0.35-0.296-0.532l-0.225-0.408c-0.31-0.528-0.604-1.037-0.919-1.528
								c-0.614-0.985-1.258-1.915-1.89-2.823c-1.26-1.758-2.505-3.495-3.691-5.15c-1.151-1.641-2.185-3.226-3.012-4.758
								c-1.7-3.05-2.352-5.955-2.294-7.947c-0.004-0.497,0.067-0.938,0.089-1.321c0.056-0.38,0.13-0.698,0.177-0.957
								c0.042-0.26,0.102-0.453,0.145-0.582C281.384,258.595,281.404,258.528,281.404,258.528z"/>
						</g>
					</g>
				</g>
			</g>
		</g>
	</g>
</g>
<g class="st2">
	<g>
		<g>
			<g>
				<path d="M369.854,247.592c-0.051-0.281-0.036-0.289,0.038-0.011c-0.014,0.001,0.076,0.24,0.1,0.708
					c0.042,0.468-0.048,1.178-0.415,1.999c-0.731,1.614-2.752,3.674-5.937,4.358c-1.565,0.301-3.296,0.344-5.091,0.382
					c-1.789,0.046-3.684,0.102-5.458,0.676c-1.759,0.607-3.372,1.697-4.671,3.195c-1.315,1.485-2.372,3.281-3.381,5.151
					c-1.011,1.874-1.974,3.838-3.128,5.75c-1.151,1.905-2.517,3.784-4.305,5.293c-1.772,1.556-3.89,2.501-5.816,3.21
					c-1.948,0.709-3.779,1.218-5.398,1.783c-6.594,1.971-8.535,6.623-9.262,8.029c-0.713,1.45-1.274,2.94-1.745,4.343
					c-0.496,1.392-0.881,2.707-1.27,3.813c-0.746,2.224-1.42,3.656-2.096,3.605c-0.649-0.048-1.18-1.572-1.275-4.086
					c-0.029-1.256,0.028-2.761,0.342-4.429c0.288-1.666,0.812-3.506,1.71-5.343c0.103-0.208,0.237-0.477,0.424-0.852
					c0.182-0.298,0.411-0.674,0.69-1.132c0.244-0.433,0.603-0.873,0.97-1.363c0.351-0.501,0.818-0.988,1.315-1.508
					c0.469-0.545,1.098-1.008,1.711-1.539c0.645-0.492,1.368-0.963,2.134-1.416c1.567-0.87,3.34-1.511,5.142-2.006
					c3.583-1.021,7.473-1.521,10.367-3.696c2.979-2.161,5.082-5.995,7.392-9.68c1.171-1.849,2.435-3.713,4.042-5.293
					c1.586-1.597,3.601-2.775,5.683-3.32c2.1-0.513,4.095-0.408,5.891-0.332c1.803,0.091,3.46,0.166,4.956-0.01
					c1.448-0.186,2.731-0.761,3.724-1.443c1.003-0.679,1.702-1.5,2.117-2.247C370.195,248.639,369.802,247.564,369.854,247.592z"/>
				<g>
					<g>
						<g>
							<path class="st17" d="M369.878,248.439c0.038-0.352,0-0.521,0.005-0.51c0.007,0.01,0.037,0.2,0.001,0.569
								c0,0,0.016,0.161-0.066,0.46c-0.061,0.299-0.177,0.749-0.481,1.267c-0.561,1.037-1.869,2.412-3.986,3.21
								c-1.045,0.414-2.27,0.567-3.675,0.578c-1.392,0.023-2.917-0.099-4.6-0.135c-1.667-0.024-3.576,0.015-5.475,0.751
								c-1.908,0.664-3.692,1.961-5.148,3.567c-2.949,3.218-4.821,7.449-7.538,11.063c-1.361,1.803-2.937,3.379-4.898,4.387
								c-1.982,1.032-4.368,1.601-6.945,2.243c-2.549,0.658-5.466,1.395-8.09,3.218c-1.326,0.843-2.466,1.965-3.512,3.133
								l-0.705,0.924c-0.16,0.221-0.356,0.455-0.482,0.663c-0.286,0.469-0.552,0.905-0.787,1.29
								c-0.255,0.433-0.457,0.916-0.661,1.347c-0.208,0.432-0.347,0.827-0.461,1.181c-0.09,0.284-0.187,0.591-0.289,0.914
								c-0.043,0.137-0.074,0.251-0.099,0.377l-0.033,0.16c-0.015,0.072-0.033,0.158-0.051,0.243
								c-0.291,1.304-0.33,2.281-0.343,3.021c-0.001,0.378,0.036,0.693,0.071,0.962c0.036,0.278,0.085,0.494,0.14,0.684
								c0.109,0.366,0.258,0.592,0.433,0.677c0.34,0.179,0.757-0.123,1.263-0.838c0.249-0.352,0.509-0.838,0.832-1.402
								c0.158-0.293,0.318-0.599,0.486-0.952c0.188-0.338,0.381-0.702,0.582-1.106c0.186-0.408,0.44-0.807,0.67-1.253
								c0.061-0.115,0.117-0.223,0.176-0.334c0.056-0.11,0.116-0.229,0.185-0.331c0.036-0.06,0.068-0.112,0.098-0.161l0.024-0.04
								c0.005-0.009,0.005-0.009,0.007-0.013l0.011-0.019l0.067-0.119c0.124-0.235,0.219-0.416,0.281-0.532
								c0.055-0.115,0.092-0.192,0.141-0.292c0.034-0.062,0.088-0.161,0.14-0.256c0.04-0.073,0.077-0.143,0.12-0.222l0.042-0.078
								c0.019-0.035,0.015-0.027,0.083-0.153l0.333-0.61c0.253-0.375,0.515-0.763,0.78-1.156c0.281-0.369,0.593-0.711,0.884-1.07
								c0.634-0.665,1.299-1.289,2.038-1.803c0.709-0.552,1.498-0.971,2.311-1.356c3.276-1.51,6.878-2.203,9.853-3.619
								c1.486-0.691,2.854-1.526,3.892-2.524c1.084-0.944,1.883-1.962,2.573-2.876c1.329-1.867,2.113-3.418,2.684-4.438
								c1.097-2.055,2.1-4.099,3.282-5.961c1.175-1.857,2.563-3.539,4.29-4.681c0.218-0.142,0.433-0.282,0.647-0.422
								c0.22-0.13,0.461-0.219,0.689-0.33c0.459-0.219,0.919-0.427,1.401-0.563c0.958-0.288,1.94-0.426,2.898-0.502
								c1.921-0.146,3.758-0.061,5.454-0.161c1.695-0.089,3.262-0.352,4.502-1.033c1.26-0.625,2.22-1.474,2.879-2.312
								c0.663-0.842,0.992-1.701,1.071-2.388c0.025-0.171,0.018-0.333,0.03-0.482l0.006-0.109l0.001-0.013l0-0.007l0-0.003
								c-0.001-0.095,0.001,0.208-0.001-0.214l-0.001-0.013l-0.002-0.029c-0.003-0.046-0.006-0.08-0.008-0.105
								c-0.009-0.081-0.011-0.107-0.012-0.119l-0.001-0.012c-0.001-0.01-0.008-0.061-0.011-0.087
								c-0.005-0.069-0.021-0.135-0.045-0.2c-0.023-0.078-0.049-0.167-0.107-0.363c-0.026-0.103-0.034-0.166-0.013-0.148
								c0.01,0.008,0.026,0.035,0.048,0.078l0.017,0.035l0.01,0.021l0.002,0l0.009,0.004c0.013,0.008,0.031,0.029,0.054,0.064
								c0.046,0.069,0.111,0.191,0.195,0.367c0.047,0.184,0.128,0.424,0.175,0.724c0.085,0.601,0.017,1.464-0.412,2.407
								c-0.419,0.946-1.203,1.93-2.313,2.785c-1.093,0.853-2.587,1.599-4.328,1.859c-1.694,0.288-3.536,0.298-5.409,0.37
								c-1.866,0.088-3.807,0.227-5.486,1.072c-1.717,0.783-3.201,2.17-4.468,3.939c-0.634,0.892-1.527,2.299-2.58,4.314
								c-1.094,1.994-2.284,4.613-4.396,7.514c-1.042,1.451-2.482,2.917-4.281,4.152c-1.814,1.204-3.896,2.017-5.963,2.691
								c-2.076,0.683-4.175,1.249-6.115,2.094c-0.972,0.432-1.879,0.889-2.718,1.57c-0.214,0.17-0.453,0.309-0.653,0.5l-0.905,0.848
								c-0.305,0.358-0.617,0.725-0.913,1.071c-0.27,0.404-0.559,0.784-0.825,1.198c-0.236,0.439-0.51,0.847-0.734,1.3
								c-0.207,0.465-0.457,0.904-0.649,1.387c-0.404,0.962-0.749,1.942-1.043,2.89l-0.204,0.715
								c-0.065,0.231-0.14,0.451-0.197,0.684l-0.084,0.349c-0.026,0.104-0.055,0.221-0.083,0.333
								c-0.054,0.215-0.11,0.433-0.165,0.655c-0.088,0.393-0.18,0.806-0.277,1.238l-0.132,0.57c-0.036,0.183-0.071,0.36-0.11,0.56
								l-0.108,0.526c-0.035,0.169-0.07,0.334-0.108,0.514l-0.051,0.248l-0.04,0.208c-0.022,0.111-0.044,0.221-0.065,0.33
								c-0.041,0.199-0.084,0.403-0.125,0.601l-0.117,0.54c-0.137,0.686-0.266,1.225-0.388,1.707
								c-0.114,0.486-0.225,0.882-0.335,1.23c-0.112,0.356-0.215,0.637-0.316,0.896c-0.204,0.494-0.407,0.84-0.607,1.026
								c-0.401,0.383-0.794,0.242-1.176-0.425c-0.189-0.33-0.384-0.814-0.557-1.459c-0.086-0.329-0.171-0.69-0.252-1.12
								c-0.086-0.421-0.148-0.897-0.215-1.453c-0.132-1.113-0.218-2.445-0.149-4.54c0.01-0.141,0.019-0.271,0.029-0.422
								c0.013-0.18,0.026-0.361,0.038-0.529l0.047-0.564c0.017-0.188,0.026-0.369,0.059-0.581c0.11-0.796,0.217-1.68,0.441-2.643
								c0.194-0.977,0.495-2.023,0.874-3.126l0.315-0.833c0.108-0.279,0.211-0.563,0.35-0.838c0.033-0.069,0.052-0.111,0.097-0.206
								l0.099-0.206c0.066-0.137,0.127-0.262,0.199-0.41c0.14-0.268,0.251-0.546,0.418-0.802c0.316-0.519,0.615-1.038,0.949-1.531
								l0.539-0.718l0.537-0.701c0.39-0.414,0.769-0.817,1.163-1.236c0.295-0.315,0.651-0.575,0.974-0.861
								c1.291-1.097,2.728-1.951,4.151-2.573c2.853-1.229,5.537-1.708,7.916-2.341c2.379-0.622,4.491-1.317,6.112-2.583
								c1.677-1.225,3.058-2.938,4.288-4.748c2.461-3.621,4.415-7.674,7.581-10.559c1.56-1.447,3.453-2.429,5.326-2.922
								c1.895-0.448,3.664-0.401,5.25-0.339c3.159,0.158,5.836,0.365,7.779-0.558c1.963-0.843,3.182-2.146,3.688-3.146
								c0.272-0.499,0.379-0.923,0.435-1.208C369.896,248.592,369.866,248.438,369.878,248.439z"/>
						</g>
					</g>
				</g>
			</g>
		</g>
	</g>
</g>
<path class="st7" d="M392.921,282.786c0,0-2.237-17.534-22.678-16.754s-0.954-2.388-9.342-0.025"/>
<path class="st18" d="M395.343,283.82c0,0-23.905,9.899-33.049-9.487c-9.144-19.386-3.579,0.75-4.675-8.6"/>
<g>
	<g>
		<g>
			<g>
				<path d="M354.179,266.098c0.046,0.012,0.046,0.015-0.001,0.006c0,0-0.637-0.156-1.625-0.251
					c-0.988-0.088-2.329-0.073-3.666,0.175c-1.339,0.243-2.655,0.717-3.655,1.21c-1.008,0.482-1.694,0.986-1.931,1.136
					c-0.934,0.626-1.715,1.135-1.866,0.98c-0.147-0.146,0.441-0.948,1.439-1.618c0.251-0.159,1.006-0.651,2.092-1.089
					c1.077-0.45,2.475-0.847,3.864-1.001c1.39-0.159,2.751-0.076,3.738,0.083C353.557,265.897,354.179,266.098,354.179,266.098z"/>
				<g>
					<g>
						<g>
							<path class="st19" d="M354.042,266.06c0.114,0.031,0.11,0.031-0.01-0.001c0,0-0.103-0.027-0.297-0.079
								c-0.193-0.058-0.481-0.121-0.852-0.186c-0.74-0.137-1.826-0.279-3.15-0.208c-0.66,0.047-1.38,0.118-2.133,0.28
								c-0.758,0.144-1.541,0.391-2.345,0.69c-0.392,0.172-0.806,0.326-1.197,0.541c-0.207,0.109-0.41,0.216-0.595,0.314
								l-0.143,0.087c-0.033,0.021-0.074,0.045-0.101,0.062c-0.076,0.047-0.143,0.089-0.187,0.116
								c-0.077,0.05-0.05,0.032-0.185,0.12c-0.035,0.025-0.09,0.064-0.154,0.109c-0.033,0.029-0.07,0.06-0.109,0.094l-0.044,0.039
								l-0.018,0.017l-0.028,0.026c-0.148,0.138-0.251,0.248-0.324,0.337c-0.037,0.045-0.067,0.084-0.09,0.119
								c-0.025,0.035-0.04,0.068-0.052,0.097c-0.022,0.057-0.028,0.1-0.016,0.129c0.023,0.058,0.103,0.064,0.237,0.026
								c0.068-0.016,0.153-0.045,0.251-0.085c0.055-0.024,0.108-0.048,0.16-0.071c0.064-0.032,0.126-0.063,0.184-0.092
								c0.074-0.041,0.145-0.081,0.207-0.115l0.056-0.03c0.021-0.011,0.038-0.02,0.057-0.03l0.029-0.015l0.007-0.004l0.002-0.001
								l0.003-0.002l0.02-0.011c0.042-0.025,0.074-0.044,0.089-0.052c0.034-0.022,0.025-0.016,0.047-0.03
								c0.006-0.004,0.025-0.017,0.042-0.028l0.036-0.025l0.013-0.009c0.006-0.004,0.005-0.003,0.025-0.017l0.099-0.068
								c0.133-0.091,0.267-0.188,0.409-0.267c0.282-0.16,0.545-0.343,0.819-0.472c0.536-0.289,1.047-0.508,1.501-0.694
								c0.918-0.345,1.618-0.534,1.977-0.605c1.43-0.329,2.848-0.39,3.93-0.298c0.542,0.038,1.001,0.116,1.346,0.182
								c0.159,0.037,0.138,0.032,0.428,0.1c0.022,0.006,0.048,0.012,0.078,0.02l0.018,0.005l0.002,0l0.001,0l0.001,0
								c0.015,0.005-0.033-0.011,0.034,0.011l0.002,0.001l0.005,0.002c0.007,0.002,0.017,0.005,0.017,0.005
								c0.014,0.004,0.019,0.005,0.019,0.005l0.002,0l0.014,0.003l0.033,0.008c0.008,0.002,0.022,0.006,0.06,0.016
								c0.017,0.005,0.021,0.01,0.021,0.01s-0.01,0-0.015,0l-0.006-0.001l-0.004,0l0,0l-0.001,0.001l-0.014,0.002
								c-0.027,0.001-0.088-0.005-0.181-0.017c-0.187-0.017-0.495-0.09-0.913-0.129c-0.829-0.107-2.092-0.179-3.55,0.02
								c-0.363,0.054-1.104,0.145-2.091,0.437c-0.495,0.136-1.051,0.326-1.65,0.588c-0.305,0.121-0.612,0.274-0.939,0.443
								c-0.167,0.079-0.333,0.169-0.506,0.275l-0.134,0.078l-0.202,0.118c-0.073,0.044-0.154,0.085-0.226,0.135
								c-0.077,0.051-0.172,0.114-0.223,0.148c-0.137,0.089-0.173,0.113-0.226,0.147c-0.065,0.041-0.057,0.036-0.229,0.146
								c-0.049,0.035-0.214,0.153-0.43,0.306l-0.103,0.072l-0.098,0.067l-0.049,0.034l-0.047,0.032l-0.089,0.067
								c-0.052,0.04-0.107,0.082-0.165,0.126l-0.077,0.057c-0.024,0.018-0.048,0.035-0.075,0.055l-0.071,0.051l-0.069,0.05
								l-0.033,0.023l-0.028,0.019l-0.045,0.031l-0.082,0.055l-0.07,0.053l-0.227,0.161l-0.172,0.107l-0.135,0.069
								c-0.078,0.034-0.14,0.052-0.184,0.052c-0.089,0.001-0.121-0.057-0.092-0.175c0.014-0.058,0.046-0.135,0.096-0.229
								l0.093-0.158l0.131-0.195c0.099-0.151,0.242-0.305,0.47-0.542l0.046-0.047l0.058-0.059l0.063-0.062
								c0.022-0.022,0.045-0.044,0.065-0.064c0.086-0.09,0.198-0.171,0.312-0.267c0.168-0.132,0.305-0.24,0.384-0.302l0.105-0.08
								c0.059-0.039,0.076-0.05,0.112-0.073c0.01-0.007,0,0,0.028-0.018l0.028-0.018c0.02-0.012,0.015-0.01,0.056-0.036
								c0.037-0.023,0.059-0.037,0.111-0.07c0.049-0.031,0.129-0.08,0.219-0.136l0.108-0.066l0.107-0.065
								c0.072-0.045,0.14-0.075,0.209-0.113l0.161-0.083c0.213-0.106,0.41-0.219,0.616-0.307c0.41-0.177,0.801-0.353,1.199-0.482
								c0.783-0.29,1.556-0.462,2.281-0.607c0.731-0.117,1.419-0.191,2.052-0.207c1.266-0.038,2.299,0.097,3.002,0.244
								c0.353,0.062,0.626,0.13,0.809,0.186C353.944,266.033,354.042,266.06,354.042,266.06z"/>
						</g>
					</g>
				</g>
			</g>
		</g>
	</g>
</g>
<path class="st20" d="M236.591,330.992c0,0-6.532,12.807-27.145,10.411l0.006-0.006l10.143-12.439"/>
<path class="st21" d="M160.141,380.481c5.197-7.005,12.859-16.857,21.169-25.891c6.176-6.708,12.718-12.972,18.878-17.291
	c2.931-1.694,6.417-3.548,10.236-5.281c0.008,0,0.025-0.008,0.033-0.008c2.408-1.099,4.956-2.137,7.563-3.037"/>
<path class="st21" d="M219.54,328.461l-12.951,15.384l-0.008,0.008c0,0-22.215,48.128-45.693,37.254"/>
<path class="st8" d="M160.14,380.48c-1.059-2.875-3.336-34.112,29.438-36.628l-8.269,10.737l-20.422,26.517"/>
</svg>