<!-- Generator: Adobe Illustrator 23.0.1, SVG Export Plug-In  -->
<svg version="1.1" xmlns="http://www.w3.org/2000/svg" xmlns:xlink="http://www.w3.org/1999/xlink" x="0px" y="0px" width="155.4px"
	 height="201.618px" viewBox="0 0 155.4 201.618" style="enable-background:new 0 0 155.4 201.618;" xml:space="preserve">
<style type="text/css">
	.st0{fill:none;stroke:#231F20;stroke-miterlimit:10;}
	.st1{fill:none;stroke:#231F20;stroke-width:2;stroke-miterlimit:10;}
	.st2{fill:#ED1C24;stroke:#ED1C24;stroke-miterlimit:10;}
</style>
<defs>
</defs>
<path class="st0" d="M78.2,1L78.2,1c42.1,0,76.2,34.1,76.2,76.2v47.4c0,42.1-34.1,76.2-76.2,76.2l0,0C36.1,200.8,2,166.7,2,124.6
	V77.2C2,35.1,36.1,1,78.2,1z"/>
<path class="st1" d="M84.8,9.6c16.8-5.9,72.6,54.1,61.5,112.8c-6.7,35.4-37.3,67.6-52.6,62.8c-13.5-4.2-14.2-37-15.4-101.3
	C77.5,36.2,77,12.3,84.8,9.6z"/>
<ellipse class="st1" cx="78.2" cy="100.3" rx="76.2" ry="99.3"/>
<polyline class="st0" points="154.4,167.8 141.1,167.8 134.4,167.8 129,167.8 124.5,167.8 103.6,167.8 83.1,167.8 78.2,167.8 
	73.4,167.8 71.3,167.8 "/>
<polyline class="st0" points="154.4,134.5 153.8,134.5 149.8,134.5 143.2,134.5 129,134.5 103.6,134.5 79.7,134.5 78.2,134.5 
	76.7,134.5 74.7,134.5 "/>
<polyline class="st0" points="154.4,101.3 147.6,101.3 129,101.3 103.6,101.3 78.7,101.3 78.2,101.3 77.7,101.3 75.8,101.3 "/>
<polyline class="st0" points="154.4,68 153.8,68 150.1,68 139.8,68 129,68 103.6,68 78.4,68 78.2,68 78.1,68 76.4,68 "/>
<polyline class="st0" points="154.4,34.7 141.1,34.7 135.1,34.7 129,34.7 120.6,34.7 103.6,34.7 78.3,34.7 78.2,34.7 78.1,34.7 
	76.6,34.7 "/>
<line class="st0" x1="129" y1="1.4" x2="129" y2="201.1"/>
<line class="st0" x1="103.6" y1="1.4" x2="103.6" y2="201.1"/>
<circle class="st2" cx="117" cy="148.9" r="3.4"/>
<circle class="st2" cx="117" cy="118.4" r="3.4"/>
<circle class="st2" cx="91.1" cy="118" r="3.4"/>
<circle class="st2" cx="117" cy="52.6" r="3.4"/>
<circle class="st2" cx="117" cy="86" r="3.4"/>
<circle class="st2" cx="91.1" cy="149.9" r="3.4"/>
<circle class="st2" cx="91.5" cy="52.6" r="3.4"/>
<circle class="st2" cx="91.5" cy="86" r="3.4"/>
<circle class="st2" cx="138" cy="118.4" r="3.4"/>
<path class="st1" d="M69.6,9.6C52.8,3.7-3,63.7,8.1,122.4c6.7,35.4,37.3,67.6,52.6,62.8c13.5-4.2,14.2-37,15.4-101.3
	C76.9,36.2,77.4,12.3,69.6,9.6z"/>
<polyline class="st0" points="0,167.8 13.3,167.8 20,167.8 25.4,167.8 29.9,167.8 50.8,167.8 71.3,167.8 76.2,167.8 81,167.8 
	83.1,167.8 "/>
<polyline class="st0" points="0,134.5 0.6,134.5 4.6,134.5 11.2,134.5 25.4,134.5 50.8,134.5 74.7,134.5 76.2,134.5 77.7,134.5 
	79.7,134.5 "/>
<polyline class="st0" points="0,101.3 6.8,101.3 25.4,101.3 50.8,101.3 75.7,101.3 76.2,101.3 76.7,101.3 78.6,101.3 "/>
<polyline class="st0" points="0,68 0.6,68 4.3,68 14.6,68 25.4,68 50.8,68 76,68 76.2,68 76.3,68 78,68 "/>
<polyline class="st0" points="0,34.7 13.3,34.7 19.3,34.7 25.4,34.7 33.8,34.7 50.8,34.7 76.1,34.7 76.2,34.7 76.3,34.7 77.8,34.7 
	"/>
<line class="st0" x1="50.8" y1="1.4" x2="50.8" y2="201.1"/>
<circle class="st2" cx="37.4" cy="148.9" r="3.4"/>
<circle class="st2" cx="37.4" cy="118.4" r="3.4"/>
<circle class="st2" cx="63.3" cy="118" r="3.4"/>
<circle class="st2" cx="37.4" cy="52.6" r="3.4"/>
<circle class="st2" cx="37.4" cy="86" r="3.4"/>
<circle class="st2" cx="63.3" cy="149.9" r="3.4"/>
<circle class="st2" cx="62.9" cy="52.6" r="3.4"/>
<circle class="st2" cx="62.9" cy="86" r="3.4"/>
<line class="st0" x1="25.4" y1="1.919" x2="25.4" y2="201.618"/>
</svg>