<!-- Generator: Adobe Illustrator 23.0.1, SVG Export Plug-In  -->
<svg version="1.1" xmlns="http://www.w3.org/2000/svg" xmlns:xlink="http://www.w3.org/1999/xlink" x="0px" y="0px"
	 width="178.527px" height="78.473px" viewBox="0 0 178.527 78.473" style="enable-background:new 0 0 178.527 78.473;"
	 xml:space="preserve">
<style type="text/css">
	.st0{fill:none;stroke:#231F20;stroke-miterlimit:10;}
	.st1{fill:#3C3292;stroke:#231F20;stroke-width:2;stroke-miterlimit:10;}
	.st2{fill:#5966AF;stroke:#000000;stroke-miterlimit:10;}
	.st3{fill:#FDE680;stroke:#231F20;stroke-miterlimit:10;}
	.st4{fill:#FDDAC8;stroke:#231F20;stroke-miterlimit:10;}
	.st5{stroke:#231F20;stroke-miterlimit:10;}
</style>
<defs>
</defs>
<path class="st0" d="M10.452,25.4"/>
<path class="st0" d="M10.452,0"/>
<path class="st1" d="M177.529,18.893c-2.188,33.667-41.748,59.68-89.635,58.545C40.108,76.203,1.89,48.232,1.578,14.521
	L177.529,18.893"/>
<path class="st2" d="M176.457,19.371c-2.015,29.469-41.615,52.082-89.401,50.847S0.994,44.413,0.508,14.9L176.457,19.371"/>
<path class="st3" d="M176.329,18.872c-7.353,25.876-44.289,44.834-88.177,43.768C44.263,61.573,8.422,40.745,2.478,14.537
	c-0.096-0.202-0.091-0.502-0.188-0.703c-0.262-2.205-0.523-4.41-0.585-6.611c0.6,0.01,1.2,0.021,1.8,0.031
	c2.5,0.044,4.899,0.086,7.397,0.229c55.585,1.37,111.067,2.839,166.652,4.209"/>
<path class="st4" d="M177.549,11.992c-0.416,0.893-1.233,1.879-2.55,2.856c-0.202,0.096-0.405,0.293-0.607,0.389
	c-0.303,0.195-0.707,0.388-1.11,0.581c-3.731,1.735-9.744,2.43-14.936,1.94c-5.792-0.501-7.364-2.129-11.148-3.095
	c-0.696-0.212-1.395-0.324-2.193-0.438c-0.498-0.109-0.998-0.117-1.496-0.226c-1.996-0.235-3.598-0.163-5.001,0.013
	c-0.702,0.088-1.403,0.176-2.007,0.365c-2.51,0.556-5.024,1.313-9.828,1.529c-6.504,0.187-10.384-0.981-14.366-2.051
	c-0.598-0.11-1.095-0.319-1.693-0.43c-2.789-0.649-5.88-1.203-10.083-1.076c-2.301,0.06-4.006,0.33-5.413,0.706
	c-0.502,0.091-0.905,0.284-1.307,0.377c-3.219,1.044-5.045,2.512-11.154,3.006c-10.314,0.72-14.054-2.746-23.939-3.718
	c-1.696-0.23-3.696-0.265-5.796-0.301c-1-0.017-2.001,0.065-2.901,0.049c-7.909,0.462-11.142,2.306-21.432,1.626
	c-1-0.017-7.194-0.426-13.068-1.928c-0.598-0.11-1.195-0.321-1.791-0.531c-0.498-0.109-0.895-0.316-1.393-0.424
	c-3.182-1.056-6.159-2.408-8.734-3.853c2.5,0.044,4.899,0.086,7.399,0.129c55.588,1.17,111.074,2.439,166.662,3.609"/>
<path class="st5" d="M48.088,31.535c0,0-9.396,5.437-5.393,11.008C46.7,48.014,48.088,31.535,48.088,31.535z"/>
<path class="st5" d="M24.293,19.618c0,0-5.171,4.01-1.427,7.276C26.611,30.06,24.293,19.618,24.293,19.618z"/>
<path class="st5" d="M108.62,41.693c0,0-9.595,5.333-2.571,9.757C112.973,55.872,108.62,41.693,108.62,41.693z"/>
<path class="st5" d="M77.025,41.142c0,0-9.595,5.333-2.571,9.757C81.378,55.32,77.025,41.142,77.025,41.142z"/>
<path class="st5" d="M102.774,21.388c0,0-5.164,3.61-1.413,6.476C105.111,30.73,102.774,21.388,102.774,21.388z"/>
<path class="st5" d="M138.362,33.811c0,0-3.311,6.343,2.848,8.751C147.367,45.07,138.362,33.811,138.362,33.811z"/>
<path class="st5" d="M67.879,20.779c0,0-5.164,3.61-1.413,6.476C70.216,30.121,67.879,20.779,67.879,20.779z"/>
</svg>