<!-- Generator: Adobe Illustrator 23.0.1, SVG Export Plug-In  -->
<svg version="1.1" xmlns="http://www.w3.org/2000/svg" xmlns:xlink="http://www.w3.org/1999/xlink" x="0px" y="0px" width="154.4px"
	 height="201.3px" viewBox="0 0 154.4 201.3" style="enable-background:new 0 0 154.4 201.3;" xml:space="preserve">
<style type="text/css">
	.st0{fill:#432D88;stroke:#231F20;stroke-width:2;stroke-miterlimit:10;}
	.st1{fill:#525AA8;stroke:#000000;stroke-miterlimit:10;}
	.st2{fill:#FFE782;stroke:#231F20;stroke-miterlimit:10;}
	.st3{fill:#F8D9CA;stroke:#231F20;stroke-miterlimit:10;}
	.st4{stroke:#231F20;stroke-miterlimit:10;}
	.st5{fill:none;stroke:#231F20;stroke-miterlimit:10;}
	.st6{fill:none;stroke:#231F20;stroke-width:2;stroke-miterlimit:10;}
	.st7{fill:#ED1C24;stroke:#ED1C24;stroke-miterlimit:10;}
</style>
<defs>
</defs>
<path class="st0" d="M65.4,186.165c-33.7-1.6-60.4-40.7-60.1-88.6c0.4-47.8,27.7-86.5,61.4-87.4L65.4,186.165z"/>
<path class="st1" d="M64.903,185.103c-29.5-1.5-52.8-40.7-52.4-88.5s24.3-86.5,53.8-87.5L64.903,185.103z"/>
<path class="st2" d="M74,10.165c0,0.6,0,1.2,0,1.8c0,2.5,0,4.9-0.1,7.4c-0.4,55.6-0.9,111.1-1.3,166.7c-0.5,0-1-0.1-1.5-0.1
	c-1.7-0.2-3.3-0.4-5-0.8c-0.2,0-0.5-0.1-0.7-0.2c-26-6.9-45.6-43.5-45.3-87.4s20.5-80.1,46.6-86.5c0.2-0.1,0.5-0.1,0.7-0.2
	C69.6,10.565,71.8,10.265,74,10.165z"/>
<path class="st3" d="M73.9,12.065c0,2.5,0,4.9,0,7.4c-0.2,55.6-0.5,111.1-0.7,166.7c-0.3,0-0.6-0.1-0.9-0.1
	c-0.9-0.4-1.9-1.2-2.9-2.5c-0.1-0.2-0.3-0.4-0.4-0.6c-0.2-0.3-0.4-0.7-0.6-1.1c-1.8-3.7-2.6-9.7-2.2-14.9c0.4-5.8,2-7.4,2.9-11.2
	c0.2-0.7,0.3-1.4,0.4-2.2c0.1-0.5,0.1-1,0.2-1.5c0.2-2,0.1-3.6-0.1-5c-0.1-0.7-0.2-1.4-0.4-2c-0.6-2.5-1.4-5-1.7-9.8
	c-0.3-6.5,0.8-10.4,1.8-14.4c0.1-0.6,0.3-1.1,0.4-1.7c0.6-2.8,1.1-5.9,0.9-10.1c-0.1-2.3-0.4-4-0.8-5.4c-0.1-0.5-0.3-0.9-0.4-1.3
	c-1.1-3.2-2.6-5-3.2-11.1c-0.9-10.3,2.5-14.1,3.3-24c0.2-1.7,0.2-3.7,0.2-5.8c0-1-0.1-2-0.1-2.9c-0.6-7.9-2.5-11.1-2-21.4
	c0-1,0.3-7.2,1.7-13.1c0.1-0.6,0.3-1.2,0.5-1.8c0.1-0.5,0.3-0.9,0.4-1.4C71.2,17.665,72.5,14.665,73.9,12.065z"/>
<path class="st4" d="M50.5,56.965c0,0-5.6-9.3-11.1-5.2C34,55.865,50.5,56.965,50.5,56.965z"/>
<path class="st4" d="M62,32.965c0,0-4.1-5.1-7.3-1.3C51.6,35.465,62,32.965,62,32.965z"/>
<path class="st4" d="M41.4,117.665c0,0-5.5-9.5-9.8-2.4C27.3,122.265,41.4,117.665,41.4,117.665z"/>
<path class="st4" d="M41.4,86.065c0,0-5.5-9.5-9.8-2.4C27.3,90.665,41.4,86.065,41.4,86.065z"/>
<path class="st4" d="M61.6,111.465c0,0-3.7-5.1-6.5-1.3C52.3,113.965,61.6,111.465,61.6,111.465z"/>
<path class="st4" d="M49.8,147.265c0,0-6.4-3.2-8.7,3C38.7,156.465,49.8,147.265,49.8,147.265z"/>
<path class="st4" d="M61.6,76.565c0,0-3.7-5.1-6.5-1.3C52.3,79.065,61.6,76.565,61.6,76.565z"/>
<path class="st5" d="M77.2,1L77.2,1c42.1,0,76.2,34.1,76.2,76.2v47.4c0,42.1-34.1,76.2-76.2,76.2l0,0C35.1,200.8,1,166.7,1,124.6
	V77.2C1,35.1,35.1,1,77.2,1z"/>
<path class="st6" d="M83.8,9.6c16.8-5.9,72.6,54.1,61.5,112.8c-6.7,35.4-37.3,67.6-52.6,62.8c-13.5-4.2-14.2-37-15.4-101.3
	C76.5,36.2,76,12.3,83.8,9.6z"/>
<ellipse class="st6" cx="77.2" cy="100.3" rx="76.2" ry="99.3"/>
<polyline class="st5" points="153.4,167.8 140.1,167.8 133.4,167.8 128,167.8 123.5,167.8 102.6,167.8 82.1,167.8 77.2,167.8 
	72.4,167.8 70.3,167.8 "/>
<polyline class="st5" points="153.4,134.5 152.8,134.5 148.8,134.5 142.2,134.5 128,134.5 102.6,134.5 78.7,134.5 77.2,134.5 
	75.7,134.5 73.7,134.5 "/>
<polyline class="st5" points="153.4,101.3 146.6,101.3 128,101.3 102.6,101.3 77.7,101.3 77.2,101.3 76.7,101.3 74.8,101.3 "/>
<polyline class="st5" points="153.4,68 152.8,68 149.1,68 138.8,68 128,68 102.6,68 77.4,68 77.2,68 77.1,68 75.4,68 "/>
<polyline class="st5" points="153.4,34.7 140.1,34.7 134.1,34.7 128,34.7 119.6,34.7 102.6,34.7 77.3,34.7 77.2,34.7 77.1,34.7 
	75.6,34.7 "/>
<line class="st5" x1="128" y1="1.4" x2="128" y2="201.1"/>
<line class="st5" x1="102.6" y1="1.4" x2="102.6" y2="201.1"/>
<circle class="st7" cx="116" cy="148.9" r="3.4"/>
<circle class="st7" cx="116" cy="118.4" r="3.4"/>
<circle class="st7" cx="90.1" cy="118" r="3.4"/>
<circle class="st7" cx="116" cy="52.6" r="3.4"/>
<circle class="st7" cx="116" cy="86" r="3.4"/>
<circle class="st7" cx="90.1" cy="149.9" r="3.4"/>
<circle class="st7" cx="90.5" cy="52.6" r="3.4"/>
<circle class="st7" cx="90.5" cy="86" r="3.4"/>
<circle class="st7" cx="137" cy="118.4" r="3.4"/>
</svg>