<!-- Generator: Adobe Illustrator 23.0.1, SVG Export Plug-In  -->
<svg version="1.1" xmlns="http://www.w3.org/2000/svg" xmlns:xlink="http://www.w3.org/1999/xlink" x="0px" y="0px"
	 width="167.332px" height="201.3px" viewBox="0 0 167.332 201.3" style="enable-background:new 0 0 167.332 201.3;"
	 xml:space="preserve">
<style type="text/css">
	.st0{fill:none;stroke:#231F20;stroke-miterlimit:10;}
	.st1{fill:#0C6A37;stroke:#231F20;stroke-width:2;stroke-miterlimit:10;}
	.st2{fill:none;stroke:#231F20;stroke-width:2;stroke-miterlimit:10;}
	.st3{fill:#ED1C24;stroke:#ED1C24;stroke-miterlimit:10;}
	.st4{fill:#336699;stroke:#231F20;stroke-miterlimit:10;}
	.st5{fill:#00A5E1;stroke:#231F20;stroke-miterlimit:10;}
	.st6{fill:#336699;}
	.st7{fill:#FFFFFF;stroke:#231F20;stroke-miterlimit:10;}
	.st8{fill:#3378B8;}
</style>
<defs>
</defs>
<g>
	<path class="st0" d="M0,140.158"/>
	<path class="st0" d="M42.087,42.27"/>
</g>
<path class="st1" d="M34.056,124.603"/>
<path class="st1" d="M34.056,124.603"/>
<path class="st0" d="M90.132,1L90.132,1c42.1,0,76.2,34.1,76.2,76.2v47.4c0,42.1-34.1,76.2-76.2,76.2l0,0
	c-42.1,0-76.2-34.1-76.2-76.2V77.2C13.932,35.1,48.032,1,90.132,1z"/>
<path class="st2" d="M96.732,9.6c16.8-5.9,72.6,54.1,61.5,112.8c-6.7,35.4-37.3,67.6-52.6,62.8c-13.5-4.2-14.2-37-15.4-101.3
	C89.432,36.2,88.932,12.3,96.732,9.6z"/>
<ellipse class="st2" cx="90.132" cy="100.3" rx="76.2" ry="99.3"/>
<polyline class="st0" points="166.332,167.8 153.032,167.8 146.332,167.8 140.932,167.8 136.432,167.8 115.532,167.8 95.032,167.8 
	90.132,167.8 85.332,167.8 83.232,167.8 "/>
<polyline class="st0" points="166.332,134.5 165.732,134.5 161.732,134.5 155.132,134.5 140.932,134.5 115.532,134.5 91.632,134.5 
	90.132,134.5 88.632,134.5 86.632,134.5 "/>
<polyline class="st0" points="166.332,101.3 159.532,101.3 140.932,101.3 115.532,101.3 90.632,101.3 90.132,101.3 89.632,101.3 
	87.732,101.3 "/>
<polyline class="st0" points="166.332,68 165.732,68 162.032,68 151.732,68 140.932,68 115.532,68 90.332,68 90.132,68 90.032,68 
	88.332,68 "/>
<polyline class="st0" points="166.332,34.7 153.032,34.7 147.032,34.7 140.932,34.7 132.532,34.7 115.532,34.7 90.232,34.7 
	90.132,34.7 90.032,34.7 88.532,34.7 "/>
<line class="st0" x1="140.932" y1="1.4" x2="140.932" y2="201.1"/>
<line class="st0" x1="115.532" y1="1.4" x2="115.532" y2="201.1"/>
<circle class="st3" cx="128.932" cy="148.9" r="3.4"/>
<circle class="st3" cx="128.932" cy="118.4" r="3.4"/>
<circle class="st3" cx="103.032" cy="118" r="3.4"/>
<circle class="st3" cx="128.932" cy="52.6" r="3.4"/>
<circle class="st3" cx="128.932" cy="86" r="3.4"/>
<circle class="st3" cx="103.032" cy="149.9" r="3.4"/>
<circle class="st3" cx="103.432" cy="52.6" r="3.4"/>
<circle class="st3" cx="103.432" cy="86" r="3.4"/>
<circle class="st3" cx="149.932" cy="118.4" r="3.4"/>
<path class="st4" d="M69.518,183.809c-35.682-10.831-58.32-58.202-50.563-105.806C25.947,35.09,55.248,6.639,87.095,9.38
	l0.341,176.547C81.562,186.308,75.549,185.64,69.518,183.809z"/>
<path class="st5" d="M68.509,180.146C35.14,170.017,14.09,124.984,21.491,79.562c6.672-40.946,34.183-68.228,63.986-65.791
	l-0.202,168.295C79.775,182.463,74.149,181.858,68.509,180.146z"/>
<path class="st6" d="M56.272,57.015c-9.44-18.552-10.19-25.69,11.034-35.116s17.671,20.239,17.671,20.239l-4.2,42.289l-0.797,6.96
	C79.98,91.388,65.712,75.567,56.272,57.015z"/>
<path class="st6" d="M44.627,97.119c-16.194-2.947-20.536-6.966-11.701-34.515s22.502-4.167,22.502-4.167l20.051,32.468l3.231,5.449
	C78.709,96.353,60.822,100.066,44.627,97.119z"/>
<path class="st6" d="M84.075,151.507c1.087,22.539-0.965,29.184-22.712,22.335c-21.748-6.849-7.504-29.774-7.504-29.774
	l19.564-33.29l3.31-5.404C76.731,105.375,82.988,128.969,84.075,151.507z"/>
<path class="st6" d="M54.201,134.684c-12.001,13.913-16.71,15.446-23.637-11.975s12.857-24.95,12.857-24.95l28.176,2.375l4.64,0.531
	C76.238,100.665,66.202,120.771,54.201,134.684z"/>
<path class="st7" d="M78.385,83.863c0,0,2.161-6.44-1.753-6.055C72.757,78.155,78.385,83.863,78.385,83.863z"/>
<path class="st7" d="M75.999,110.62c0,0-6.07,5.834-3.386,12.682C75.246,130.135,75.999,110.62,75.999,110.62z"/>
<path class="st7" d="M70.044,105.909c0,0-4.796-2.707-4.368,2.617C66.076,113.799,70.044,105.909,70.044,105.909z"/>
<path class="st7" d="M72.967,92.357c0,0-3.828-4.783-4.76,0.42C67.261,97.918,72.967,92.357,72.967,92.357z"/>
<path class="st8" d="M76.585,61.846l1.196-21.297c0,0-3.683-11.723-7.484-5.344s-7.391,2.432-0.344,10.851
	s-5.529,14.523,0.552,15.157c6.081,0.634,2.267,4.067,5.159,7.294C78.555,71.735,76.585,61.846,76.585,61.846z"/>
<path class="st8" d="M73.357,128.432c0,0,4.528,11.12,0.009,17.272c-4.518,6.152-1.832,18.544-4.832,12.05
	c-3.001-6.494-10.833-0.939-3.001-6.494"/>
<path class="st8" d="M64.892,84.063c0,0-0.309-8.707-8.463-11.906s-6.244-17.256-12.397-9.827s-12.409,8.108-2.65,9.283
	c9.759,1.175,8.454-2.836,11.059,6.884S64.892,84.063,64.892,84.063z"/>
<path class="st8" d="M63.129,110.392c0,0,2.885-7.409-8.423-4.058s-18.452,5.827-10.365,7.426s9.57-2.137,7.918,4.262
	c-1.651,6.399-7.038,9.402,4.844-0.072S63.129,110.392,63.129,110.392z"/>
</svg>