<!-- Generator: Adobe Illustrator 23.0.1, SVG Export Plug-In  -->
<svg version="1.1" xmlns="http://www.w3.org/2000/svg" xmlns:xlink="http://www.w3.org/1999/xlink" x="0px" y="0px"
	 width="166.272px" height="158.15px" viewBox="0 0 166.272 158.15" style="enable-background:new 0 0 166.272 158.15;"
	 xml:space="preserve">
<style type="text/css">
	.st0{fill:#FF5733;}
	.st1{fill:#BF2F10;}
	.st2{fill:#F7DC6F;}
	.st3{fill:#D4AC0D;}
	.st4{fill:#FFFFFF;stroke:#231F20;stroke-miterlimit:10;}
	.st5{fill:#3C3292;stroke:#000000;stroke-miterlimit:10;}
	.st6{fill:#FFFFFF;stroke:#000000;stroke-miterlimit:10;}
	.st7{fill:#5966AF;stroke:#000000;stroke-miterlimit:10;}
	.st8{fill:#231F20;stroke:#231F20;stroke-miterlimit:10;}
	.st9{fill:#414042;stroke:#231F20;stroke-miterlimit:10;}
	.st10{fill:#8A8C8E;stroke:#231F20;stroke-miterlimit:10;}
	.st11{opacity:0.66;fill:none;stroke:#000000;stroke-miterlimit:10;enable-background:new    ;}
	.st12{fill:#FFD36A;stroke:#000000;stroke-miterlimit:10;}
	.st13{fill:#F4E798;stroke:#000000;stroke-miterlimit:10;}
</style>
<defs>
</defs>
<g>
	<path class="st0" d="M63,31.5H0C0,14.1,14.1,0,31.5,0C48.9,0,63,14.1,63,31.5z"/>
	<rect x="0.003" y="31" class="st0" width="62.995" height="38"/>
</g>
<rect x="31.5" y="0.503" class="st0" width="54.3" height="31.5"/>
<g>
	<path class="st1" d="M111.622,31.503h-63c0-17.4,14.1-31.5,31.5-31.5C97.522,0.003,111.622,14.103,111.622,31.503z"/>
	<rect x="48.625" y="31.003" class="st1" width="62.995" height="38"/>
</g>
<rect x="40.735" y="69.003" class="st2" width="8.029" height="89.073"/>
<rect x="48.771" y="69.077" class="st3" width="11.029" height="89.073"/>
<rect x="10.006" y="26.807" class="st4" width="35.094" height="7.3"/>
<g>
	<polygon class="st5" points="76.205,142.576 74.422,143.862 59.88,154.183 53.17,141.516 61.344,141.894 	"/>
	<polygon class="st6" points="60.157,139.652 61.344,141.894 53.17,141.516 	"/>
	<polygon class="st7" points="92.551,131.006 99.261,143.673 59.88,154.183 74.422,143.862 76.205,142.576 86.279,135.452 	"/>
	<polygon class="st6" points="92.551,131.006 86.279,135.452 84.992,133.024 	"/>
	<polygon class="st6" points="82.32,127.979 86.655,136.162 76.205,142.576 61.74,142.641 57.485,134.607 	"/>
	
		<ellipse transform="matrix(0.9927 -0.1202 0.1202 0.9927 -17.2278 8.2812)" class="st8" cx="60.008" cy="146.899" rx="1.604" ry="0.973"/>
	
		<ellipse transform="matrix(0.9927 -0.1202 0.1202 0.9927 -17.0129 8.9275)" class="st8" cx="65.471" cy="145.441" rx="1.604" ry="0.973"/>
	
		<ellipse transform="matrix(0.9927 -0.1202 0.1202 0.9927 -16.1958 11.683)" class="st9" cx="88.713" cy="140.048" rx="4.879" ry="2.959"/>
	
		<ellipse transform="matrix(0.9927 -0.1202 0.1202 0.9927 -16.1958 11.683)" class="st10" cx="88.713" cy="140.048" rx="3.074" ry="1.864"/>
	<line class="st11" x1="60.102" y1="136.127" x2="81.761" y2="130.346"/>
	<line class="st11" x1="61.436" y1="138.372" x2="83.032" y2="132.608"/>
	<line class="st11" x1="62.656" y1="140.264" x2="84.252" y2="134.501"/>
</g>
<g>
	<polygon class="st12" points="94.997,43.665 91.975,44.975 67.458,55.358 68.953,29.009 78.194,34.212 	"/>
	<polygon class="st6" points="78.459,29.549 78.194,34.212 68.953,29.009 	"/>
	<polygon class="st13" points="122.532,32.05 121.037,58.398 67.458,55.358 91.975,44.975 94.997,43.665 111.962,36.518 	"/>
	<polygon class="st6" points="122.532,32.05 111.962,36.518 112.248,31.466 	"/>
	<polygon class="st6" points="112.844,20.974 111.878,37.995 94.997,43.665 78.106,35.767 79.054,19.056 	"/>
	
		<ellipse transform="matrix(0.0567 -0.9984 0.9984 0.0567 26.4804 112.8545)" class="st8" cx="72.96" cy="42.414" rx="1.868" ry="2.077"/>
	
		<ellipse transform="matrix(0.0567 -0.9984 0.9984 0.0567 33.0703 120.6724)" class="st8" cx="80.392" cy="42.836" rx="1.868" ry="2.077"/>
	
		<ellipse transform="matrix(0.0567 -0.9984 0.9984 0.0567 59.1024 154.708)" class="st9" cx="111.419" cy="46.078" rx="5.683" ry="6.319"/>
	
		<ellipse transform="matrix(0.0567 -0.9984 0.9984 0.0567 59.1024 154.708)" class="st10" cx="111.419" cy="46.078" rx="3.581" ry="3.982"/>
	<line class="st11" x1="80.985" y1="23.22" x2="110.454" y2="24.893"/>
	<line class="st11" x1="80.889" y1="27.971" x2="110.271" y2="29.639"/>
	<line class="st11" x1="80.919" y1="32.028" x2="110.301" y2="33.695"/>
</g>
<g>
	<polygon class="st12" points="108.625,127.573 106.718,128.261 91.236,133.727 91.236,121.455 97.406,123.627 	"/>
	<polygon class="st6" points="97.406,121.455 97.406,123.627 91.236,121.455 	"/>
	<polygon class="st13" points="126.014,121.455 126.014,133.727 91.236,133.727 106.718,128.261 108.625,127.573 119.339,123.808 	
		"/>
	<polygon class="st6" points="126.014,121.455 119.339,123.808 119.339,121.455 	"/>
	<polygon class="st6" points="119.339,116.569 119.339,124.496 108.625,127.573 97.406,124.351 97.406,116.569 	"/>
	<ellipse class="st8" cx="94.321" cy="127.573" rx="1.346" ry="0.869"/>
	<ellipse class="st8" cx="99.145" cy="127.573" rx="1.346" ry="0.869"/>
	<ellipse class="st9" cx="119.339" cy="128.261" rx="4.095" ry="2.643"/>
	<ellipse class="st10" cx="119.339" cy="128.261" rx="2.58" ry="1.665"/>
	<line class="st11" x1="98.808" y1="118.451" x2="117.937" y2="118.451"/>
	<line class="st11" x1="98.921" y1="120.659" x2="117.993" y2="120.659"/>
	<line class="st11" x1="99.089" y1="122.541" x2="118.161" y2="122.541"/>
</g>
<g>
	<polygon class="st5" points="142.48,139.201 140.697,140.488 126.155,150.809 119.445,138.142 127.619,138.519 	"/>
	<polygon class="st6" points="126.432,136.277 127.619,138.519 119.445,138.142 	"/>
	<polygon class="st7" points="158.826,127.632 165.536,140.298 126.155,150.809 140.697,140.488 142.48,139.201 152.554,132.078 	
		"/>
	<polygon class="st6" points="158.826,127.632 152.554,132.078 151.267,129.649 	"/>
	<polygon class="st6" points="148.595,124.605 152.93,132.788 142.48,139.201 128.015,139.266 123.76,131.233 	"/>
	
		<ellipse transform="matrix(0.9927 -0.1202 0.1202 0.9927 -16.3412 16.2257)" class="st8" cx="126.283" cy="143.524" rx="1.604" ry="0.973"/>
	
		<ellipse transform="matrix(0.9927 -0.1202 0.1202 0.9927 -16.1263 16.8719)" class="st8" cx="131.746" cy="142.066" rx="1.604" ry="0.973"/>
	
		<ellipse transform="matrix(0.9927 -0.1202 0.1202 0.9927 -15.3092 19.6275)" class="st9" cx="154.988" cy="136.674" rx="4.879" ry="2.959"/>
	
		<ellipse transform="matrix(0.9927 -0.1202 0.1202 0.9927 -15.3092 19.6275)" class="st10" cx="154.988" cy="136.674" rx="3.074" ry="1.864"/>
	<line class="st11" x1="126.377" y1="132.752" x2="148.036" y2="126.971"/>
	<line class="st11" x1="127.711" y1="134.997" x2="149.307" y2="129.234"/>
	<line class="st11" x1="128.931" y1="136.889" x2="150.527" y2="131.126"/>
</g>
<g>
	<polygon class="st12" points="111.085,144.925 108.278,145.982 85.495,154.378 85.495,135.528 94.576,138.864 	"/>
	<polygon class="st6" points="94.576,135.528 94.576,138.864 85.495,135.528 	"/>
	<polygon class="st13" points="136.675,135.528 136.675,154.378 85.495,154.378 108.278,145.982 111.085,144.925 126.851,139.142 	
		"/>
	<polygon class="st6" points="136.675,135.528 126.851,139.142 126.851,135.528 	"/>
	<polygon class="st6" points="126.851,128.021 126.851,140.199 111.085,144.925 94.576,139.976 94.576,128.021 	"/>
	<ellipse class="st8" cx="90.035" cy="144.925" rx="1.981" ry="1.335"/>
	<ellipse class="st8" cx="97.135" cy="144.925" rx="1.981" ry="1.335"/>
	<ellipse class="st9" cx="126.851" cy="145.982" rx="6.026" ry="4.059"/>
	<ellipse class="st10" cx="126.851" cy="145.982" rx="3.797" ry="2.558"/>
	<line class="st11" x1="96.639" y1="130.912" x2="124.788" y2="130.912"/>
	<line class="st11" x1="96.804" y1="134.304" x2="124.87" y2="134.304"/>
	<line class="st11" x1="97.052" y1="137.196" x2="125.118" y2="137.196"/>
</g>
</svg>