<!-- Generator: Adobe Illustrator 23.0.1, SVG Export Plug-In  -->
<svg version="1.1" xmlns="http://www.w3.org/2000/svg" xmlns:xlink="http://www.w3.org/1999/xlink" x="0px" y="0px"
	 width="70.202px" height="178.628px" viewBox="0 0 70.202 178.628" style="enable-background:new 0 0 70.202 178.628;"
	 xml:space="preserve">
<style type="text/css">
	.st0{fill:#006E46;stroke:#231F20;stroke-width:2;stroke-miterlimit:10;}
	.st1{fill:#9ED086;stroke:#000000;stroke-miterlimit:10;}
	.st2{fill:#EC7075;stroke:#231F20;stroke-miterlimit:10;}
	.st3{fill:#F3A7AA;stroke:#231F20;stroke-miterlimit:10;}
	.st4{stroke:#231F20;stroke-miterlimit:10;}
</style>
<defs>
</defs>
<path class="st0" d="M61.103,177.58c-33.7-1.6-60.4-40.7-60.1-88.6c0.4-47.8,27.7-86.5,61.4-87.4L61.103,177.58z"/>
<path class="st1" d="M60.605,176.517c-29.5-1.5-52.8-40.7-52.4-88.5s24.3-86.5,53.8-87.5L60.605,176.517z"/>
<path class="st2" d="M69.702,1.58c0,0.6,0,1.2,0,1.8c0,2.5,0,4.9-0.1,7.4c-0.4,55.6-0.9,111.1-1.3,166.7c-0.5,0-1-0.1-1.5-0.1
	c-1.7-0.2-3.3-0.4-5-0.8c-0.2,0-0.5-0.1-0.7-0.2c-26-6.9-45.6-43.5-45.3-87.4c0.3-43.9,20.5-80.1,46.6-86.5c0.2-0.1,0.5-0.1,0.7-0.2
	C65.302,1.98,67.503,1.68,69.702,1.58z"/>
<path class="st3" d="M69.603,3.48c0,2.5,0,4.9,0,7.4c-0.2,55.6-0.5,111.1-0.7,166.7c-0.3,0-0.6-0.1-0.9-0.1
	c-0.9-0.4-1.9-1.2-2.9-2.5c-0.1-0.2-0.3-0.4-0.4-0.6c-0.2-0.3-0.4-0.7-0.6-1.1c-1.8-3.7-2.6-9.7-2.2-14.9c0.4-5.8,2-7.4,2.9-11.2
	c0.2-0.7,0.3-1.4,0.4-2.2c0.1-0.5,0.1-1,0.2-1.5c0.2-2,0.1-3.6-0.1-5c-0.1-0.7-0.2-1.4-0.4-2c-0.6-2.5-1.4-5-1.7-9.8
	c-0.3-6.5,0.8-10.4,1.8-14.4c0.1-0.6,0.3-1.1,0.4-1.7c0.6-2.8,1.1-5.9,0.9-10.1c-0.1-2.3-0.4-4-0.8-5.4c-0.1-0.5-0.3-0.9-0.4-1.3
	c-1.1-3.2-2.6-5-3.2-11.1c-0.9-10.3,2.5-14.1,3.3-24c0.2-1.7,0.2-3.7,0.2-5.8c0-1-0.1-2-0.1-2.9c-0.6-7.9-2.5-11.1-2-21.4
	c0-1,0.3-7.2,1.7-13.1c0.1-0.6,0.3-1.2,0.5-1.8c0.1-0.5,0.3-0.9,0.4-1.4C66.903,9.08,68.202,6.08,69.603,3.48z"/>
<path class="st4" d="M46.202,48.38c0,0-5.6-9.3-11.1-5.2C29.703,47.28,46.202,48.38,46.202,48.38z"/>
<path class="st4" d="M57.702,24.38c0,0-4.1-5.1-7.3-1.3C47.303,26.88,57.702,24.38,57.702,24.38z"/>
<path class="st4" d="M37.103,109.08c0,0-5.5-9.5-9.8-2.4C23.003,113.68,37.103,109.08,37.103,109.08z"/>
<path class="st4" d="M37.103,77.48c0,0-5.5-9.5-9.8-2.4C23.003,82.08,37.103,77.48,37.103,77.48z"/>
<path class="st4" d="M57.302,102.88c0,0-3.7-5.1-6.5-1.3C48.003,105.38,57.302,102.88,57.302,102.88z"/>
<path class="st4" d="M45.503,138.68c0,0-6.4-3.2-8.7,3C34.403,147.88,45.503,138.68,45.503,138.68z"/>
<path class="st4" d="M57.302,67.98c0,0-3.7-5.1-6.5-1.3C48.003,70.48,57.302,67.98,57.302,67.98z"/>
</svg>