<svg xmlns="http://www.w3.org/2000/svg" xmlns:xlink="http://www.w3.org/1999/xlink" viewBox="0 0 1252.9 548.37"><defs><style>.cls-1,.cls-2,.cls-3,.cls-47,.cls-48,.cls-49,.cls-50,.cls-52,.cls-55,.cls-56,.cls-57,.cls-60,.cls-62,.cls-63,.cls-65{fill:none;}.cls-1,.cls-2,.cls-3,.cls-47,.cls-48,.cls-49,.cls-50,.cls-52,.cls-55,.cls-56,.cls-57,.cls-62,.cls-63,.cls-65{stroke:#808285;stroke-width:0.75px;}.cls-1,.cls-2,.cls-3,.cls-4,.cls-46,.cls-47,.cls-48,.cls-49,.cls-50,.cls-51,.cls-52,.cls-54,.cls-55,.cls-56,.cls-57,.cls-58,.cls-59,.cls-6,.cls-62,.cls-63,.cls-64,.cls-65,.cls-7,.cls-8{stroke-miterlimit:10;}.cls-2{stroke-dasharray:12.43 12.43;}.cls-3{stroke-dasharray:12.03 12.03;}.cls-4,.cls-54{fill:#ff94ac;}.cls-4,.cls-46,.cls-51,.cls-54,.cls-58,.cls-6,.cls-64,.cls-7,.cls-8{stroke:#fff;}.cls-4,.cls-46,.cls-58,.cls-64,.cls-7,.cls-8{stroke-width:2px;}.cls-5{fill:#66b449;}.cls-6,.cls-7{fill:#7ec67e;}.cls-51,.cls-54,.cls-6{stroke-width:0.5px;}.cls-8{fill:#7ec62b;}.cls-10,.cls-11,.cls-12,.cls-13,.cls-14,.cls-15,.cls-16,.cls-17,.cls-18,.cls-19,.cls-20,.cls-21,.cls-22,.cls-23,.cls-24,.cls-25,.cls-26,.cls-27,.cls-28,.cls-29,.cls-30,.cls-31,.cls-32,.cls-33,.cls-34,.cls-35,.cls-36,.cls-37,.cls-38,.cls-39,.cls-40,.cls-41,.cls-42,.cls-43,.cls-44,.cls-45,.cls-58,.cls-59,.cls-9{isolation:isolate;}.cls-10,.cls-11,.cls-12,.cls-13,.cls-14,.cls-15,.cls-16,.cls-17,.cls-18,.cls-19,.cls-20,.cls-21,.cls-22,.cls-23,.cls-24,.cls-25,.cls-26,.cls-27,.cls-28,.cls-29,.cls-30,.cls-31,.cls-32,.cls-33,.cls-34,.cls-35,.cls-36,.cls-37,.cls-38,.cls-39,.cls-40,.cls-41,.cls-42,.cls-43,.cls-44,.cls-45{font-size:12px;font-family:ArialMT, Arial;}.cls-10,.cls-18,.cls-27{letter-spacing:-0.09em;}.cls-12,.cls-14,.cls-24,.cls-36{letter-spacing:-0.01em;}.cls-13,.cls-14,.cls-15,.cls-16,.cls-17,.cls-18,.cls-19,.cls-34{fill:#ed0000;}.cls-13,.cls-23,.cls-40,.cls-43{letter-spacing:-0.04em;}.cls-16,.cls-20,.cls-28,.cls-37{letter-spacing:0.01em;}.cls-17,.cls-26,.cls-32{letter-spacing:-0.05em;}.cls-19,.cls-29,.cls-33{letter-spacing:-0.04em;}.cls-21,.cls-22{fill:#e50000;}.cls-21,.cls-34{letter-spacing:-0.07em;}.cls-23,.cls-24,.cls-25,.cls-26,.cls-27,.cls-28,.cls-29{fill:#ee212b;}.cls-30{letter-spacing:-0.06em;}.cls-31{letter-spacing:-0.03em;}.cls-35,.cls-36,.cls-37{fill:#ed1a3a;}.cls-38{letter-spacing:0.02em;}.cls-39{letter-spacing:-0.05em;}.cls-41{letter-spacing:-0.02em;}.cls-42{letter-spacing:-0.03em;}.cls-43,.cls-44{fill:#ff1543;}.cls-45{letter-spacing:-0.02em;}.cls-46,.cls-51,.cls-53{fill:#ffe782;}.cls-47{stroke-dasharray:11.73 11.73;}.cls-48{stroke-dasharray:11.33 11.33;}.cls-49{stroke-dasharray:9.83 9.83;}.cls-50{stroke-dasharray:12.84 12.84;}.cls-52{stroke-dasharray:7.14 7.14;}.cls-55{stroke-dasharray:13.6 13.6;}.cls-56{stroke-dasharray:11.32 11.32;}.cls-57{stroke-dasharray:12.02 12.02;}.cls-58,.cls-61{fill:#333;}.cls-58{opacity:0.25;}.cls-59{fill:#d0d0d0;stroke:#8c8c8c;stroke-width:0.01px;opacity:0.11;}.cls-62{stroke-dasharray:12.41 12.41;}.cls-63{stroke-dasharray:11.62 11.62;}.cls-64{fill:#356dff;}.cls-65{stroke-dasharray:11.52 11.52;}</style></defs><title>treee</title><g id="Layer_2" data-name="Layer 2"><g id="Layer_1-2" data-name="Layer 1"><g id="Layer_1-2-2" data-name="Layer 1-2"><line class="cls-1" x1="722.66" y1="253.58" x2="722.66" y2="259.58"/><line class="cls-2" x1="722.66" y1="272.01" x2="722.66" y2="290.65"/><polyline class="cls-1" points="722.66 296.86 722.66 302.86 728.66 302.86"/><line class="cls-3" x1="740.69" y1="302.86" x2="903.06" y2="302.86"/><line class="cls-1" x1="909.07" y1="302.86" x2="915.07" y2="302.86"/><path class="cls-4" d="M782.74,218.37s-2.06-18.36-20.9-17.54-.88-2.5-8.62,0"/><path class="cls-4" d="M783.61,219.33s-22,10.37-30.47-9.93-3.3.78-4.31-9"/><path class="cls-5" d="M779.39,211.65A8.92,8.92,0,0,1,769.33,217h0l3.76-6.35C775.47,209.46,777.89,209.23,779.39,211.65Z"/><path class="cls-6" d="M773.07,210.36l-4.8,7.84h0s-5.78,23-14.48,17.5l-.23-.15h0l-.07-.11v-.05c1.92-3.57,4.76-8.6,7.84-13.2,2.29-3.42,2.26-5.12,4.54-7.32a40.76,40.76,0,0,1,3.8-2.7h0a27.27,27.27,0,0,1,2.8-1.55h0Z"/><path class="cls-7" d="M769.71,212.17h0a12.31,12.31,0,0,0-3.8,2.7"/><path class="cls-7" d="M762,218.21c-16,1.68-8.41,17.35-8.41,17.35L751,240.71"/><path class="cls-7" d="M817.35,270.45s-2.06-18.36-20.91-17.55-.87-2.5-8.61,0"/><path class="cls-8" d="M819.58,271.53s-22,10.36-30.46-9.94-3.3.79-4.31-9"/><path class="cls-7" d="M850.28,270.22s-2.06-18.36-20.9-17.54-.88-2.5-8.61,0"/><path class="cls-8" d="M852.52,271.3s-22,10.37-30.47-9.93-3.3.79-4.31-9"/><g class="cls-9"><text class="cls-10" transform="translate(681.49 467.51)">T</text><text class="cls-11" transform="translate(686.6 467.51)">odd </text><text class="cls-12" transform="translate(709.27 467.51)">C</text><text class="cls-11" transform="translate(716.1 467.51)">onstabl</text><text class="cls-12" transform="translate(753.51 467.51)">e</text><text class="cls-11" transform="translate(759.38 467.51)">,</text><text class="cls-13" transform="translate(681.49 481.91)">P</text><text class="cls-14" transform="translate(687.68 481.91)">r</text><text class="cls-15" transform="translate(691.49 481.91)">o</text><text class="cls-14" transform="translate(698.07 481.91)">f</text><text class="cls-15" transform="translate(701.42 481.91)">essor of </text><text class="cls-16" transform="translate(742.63 481.91)">R</text><text class="cls-15" transform="translate(749.23 481.91)">adiology </text><text class="cls-15" transform="translate(795.5 481.91)">a</text><text class="cls-15" transform="translate(801.24 481.91)">t</text><text class="cls-17" transform="translate(805.21 481.91)"> </text><text class="cls-18" transform="translate(807.2 481.91)">Y</text><text class="cls-15" transform="translate(812.85 481.91)">ale Uni</text><text class="cls-14" transform="translate(847.26 481.91)">v</text><text class="cls-15" transform="translate(852.91 481.91)">ersi</text><text class="cls-16" transform="translate(870.4 481.91)">t</text><text class="cls-19" transform="translate(874.48 481.91)">y</text><text class="cls-15" transform="translate(879.67 481.91)">,</text><text class="cls-11" transform="translate(681.49 496.31)">1994 -</text></g><image class="cls-9" width="400" height="400" transform="translate(643.98 452.68) scale(0.08)" xlink:href="BM2l8SG0_400x400.jpg"/><image class="cls-9" width="1365" height="2048" transform="translate(408.4 314.84) scale(0.02)" xlink:href="DfF6takv3Q41dDVz0W+b9GX.jpeg"/><g class="cls-9"><text class="cls-11" transform="translate(444.06 324.48)">D</text><text class="cls-11" transform="translate(452.09 324.48)">ustin </text><text class="cls-20" transform="translate(479.44 324.48)">S</text><text class="cls-11" transform="translate(485.42 324.48)">cheinos</text><text class="cls-11" transform="translate(524.28 324.48)">t</text><text class="cls-11" transform="translate(528.21 324.48)">,</text><text class="cls-21" transform="translate(444.06 338.88)">A</text><text class="cls-22" transform="translate(451.33 338.88)">ssista</text><text class="cls-22" transform="translate(478.15 338.88)">n</text><text class="cls-22" transform="translate(484.76 338.88)">t </text><text class="cls-23" transform="translate(491.28 338.88)">P</text><text class="cls-24" transform="translate(497.47 338.88)">r</text><text class="cls-25" transform="translate(501.28 338.88)">o</text><text class="cls-24" transform="translate(507.86 338.88)">f</text><text class="cls-25" transform="translate(511.21 338.88)"><tspan xml:space="preserve">essor  </tspan></text><text class="cls-25" transform="translate(542.33 338.88)">a</text><text class="cls-25" transform="translate(548.06 338.88)">t</text><text class="cls-26" transform="translate(552.04 338.88)"> </text><text class="cls-27" transform="translate(554.03 338.88)">Y</text><text class="cls-25" transform="translate(559.68 338.88)">ale</text><text class="cls-25" transform="translate(444.06 353.28)">Uni</text><text class="cls-24" transform="translate(461.29 353.28)">v</text><text class="cls-25" transform="translate(466.94 353.28)">ersi</text><text class="cls-28" transform="translate(484.44 353.28)">t</text><text class="cls-29" transform="translate(488.52 353.28)">y</text><text class="cls-11" transform="translate(493.7 353.28)">,</text><text class="cls-11" transform="translate(444.06 367.68)">2013-</text></g><image class="cls-9" width="512" height="512" transform="translate(932.47 224.44) scale(0.06)" xlink:href="Mehraveh_Salehi.jpg"/><image class="cls-9" width="400" height="400" transform="translate(305.21 138.04) scale(0.07 0.08)" xlink:href="VLJCPecf_400x400.jpg"/><image class="cls-9" width="399" height="399" transform="translate(747.14 377.36) scale(0.08)" xlink:href="EZcRPMpd_400x400-2.jpg"/><image class="cls-9" width="400" height="400" transform="translate(683.4 86.33) scale(0.07 0.08)" xlink:href="CmlpkDFS_400x400.jpg"/><image class="cls-9" width="400" height="400" transform="translate(267.82 70) scale(0.09)" xlink:href="94iMbTDD_400x400.jpg"/><image class="cls-9" width="400" height="400" transform="translate(823.94 177.2) scale(0.07 0.08)" xlink:href="HiUt9VUz_400x400.jpg"/><g class="cls-9"><text class="cls-30" transform="translate(862.31 185.13)">A</text><text class="cls-11" transform="translate(869.62 185.13)">bigail G</text><text class="cls-12" transform="translate(907.68 185.13)">r</text><text class="cls-11" transform="translate(911.49 185.13)">eene ,</text><text class="cls-31" transform="translate(862.31 199.53)">P</text><text class="cls-11" transform="translate(868.63 199.53)">hD stude</text><text class="cls-11" transform="translate(913.94 199.53)">n</text><text class="cls-11" transform="translate(920.56 199.53)">t </text><text class="cls-11" transform="translate(927.07 199.53)">a</text><text class="cls-11" transform="translate(932.81 199.53)">t</text><text class="cls-32" transform="translate(936.78 199.53)"> </text><text class="cls-10" transform="translate(938.77 199.53)">Y</text><text class="cls-11" transform="translate(944.42 199.53)">ale Uni</text><text class="cls-12" transform="translate(978.83 199.53)">v</text><text class="cls-11" transform="translate(984.48 199.53)">ersi</text><text class="cls-20" transform="translate(1001.97 199.53)">t</text><text class="cls-33" transform="translate(1006.05 199.53)">y</text><text class="cls-11" transform="translate(1011.24 199.53)">,</text><text class="cls-11" transform="translate(862.31 213.93)">2014-2021</text></g><g class="cls-9"><text class="cls-20" transform="translate(721.56 92.08)">M</text><text class="cls-11" transform="translate(731.29 92.08)">onica </text><text class="cls-11" transform="translate(761.12 92.08)">R</text><text class="cls-11" transform="translate(767.64 92.08)">osenbe</text><text class="cls-12" transform="translate(804.56 92.08)">r</text><text class="cls-12" transform="translate(808.4 92.08)">g</text><text class="cls-11" transform="translate(814.94 92.08)">,</text><text class="cls-34" transform="translate(721.56 106.48)">A</text><text class="cls-15" transform="translate(728.83 106.48)">ssista</text><text class="cls-15" transform="translate(755.65 106.48)">n</text><text class="cls-15" transform="translate(762.26 106.48)">t </text><text class="cls-13" transform="translate(768.78 106.48)">P</text><text class="cls-14" transform="translate(774.97 106.48)">r</text><text class="cls-15" transform="translate(778.78 106.48)">o</text><text class="cls-14" transform="translate(785.36 106.48)">f</text><text class="cls-15" transform="translate(788.71 106.48)">essor </text><text class="cls-35" transform="translate(817.28 106.48)">a</text><text class="cls-35" transform="translate(823.02 106.48)">t </text><text class="cls-35" transform="translate(721.56 120.88)">Uni</text><text class="cls-36" transform="translate(738.79 120.88)">v</text><text class="cls-35" transform="translate(744.44 120.88)">ersi</text><text class="cls-37" transform="translate(761.94 120.88)">t</text><text class="cls-35" transform="translate(766.02 120.88)">y of Chicago</text><text class="cls-11" transform="translate(721.56 135.28)">2019-</text></g><g class="cls-9"><text class="cls-38" transform="translate(337.11 148.04)">K</text><text class="cls-11" transform="translate(343.81 148.04)">angjoo </text><text class="cls-39" transform="translate(381.59 148.04)">L</text><text class="cls-11" transform="translate(387.09 148.04)">e</text><text class="cls-12" transform="translate(393.1 148.04)">e</text><text class="cls-11" transform="translate(398.97 148.04)">,</text><text class="cls-40" transform="translate(337.11 162.44)">P</text><text class="cls-11" transform="translate(343.19 162.44)">ost doc </text><text class="cls-11" transform="translate(382.33 162.44)">a</text><text class="cls-11" transform="translate(388.06 162.44)">t</text><text class="cls-32" transform="translate(392.03 162.44)"> </text><text class="cls-10" transform="translate(394.03 162.44)">Y</text><text class="cls-11" transform="translate(399.68 162.44)">ale</text><text class="cls-11" transform="translate(337.11 176.84)">2018-2020</text></g><g class="cls-9"><text class="cls-20" transform="translate(974.83 231.31)">M</text><text class="cls-11" transform="translate(984.55 231.31)">eh</text><text class="cls-11" transform="translate(997.22 231.31)">r</text><text class="cls-12" transform="translate(1001.09 231.31)">a</text><text class="cls-12" transform="translate(1006.77 231.31)">v</text><text class="cls-11" transform="translate(1012.43 231.31)">eh </text><text class="cls-11" transform="translate(1027.64 231.31)">S</text><text class="cls-11" transform="translate(1033.59 231.31)">alehi,</text><text class="cls-41" transform="translate(974.83 245.71)">P</text><text class="cls-11" transform="translate(981.15 245.71)">hD </text><text class="cls-11" transform="translate(998.35 245.71)">a</text><text class="cls-11" transform="translate(1004.09 245.71)">t Ele</text><text class="cls-20" transform="translate(1025.35 245.71)">c</text><text class="cls-11" transform="translate(1030.88 245.71)">t</text><text class="cls-11" transform="translate(1034.85 245.71)">r</text><text class="cls-11" transform="translate(1038.83 245.71)">ical En</text><text class="cls-12" transform="translate(1070.73 245.71)">g</text><text class="cls-11" transform="translate(1077.37 245.71)">inee</text><text class="cls-11" transform="translate(1098.86 245.71)">r</text><text class="cls-11" transform="translate(1102.83 245.71)">ing </text><text class="cls-11" transform="translate(1121.55 245.71)">a</text><text class="cls-11" transform="translate(1127.29 245.71)">t</text><text class="cls-32" transform="translate(1131.26 245.71)"> </text><text class="cls-10" transform="translate(1133.25 245.71)">Y</text><text class="cls-11" transform="translate(1138.9 245.71)">al</text><text class="cls-12" transform="translate(1147.52 245.71)">e</text><text class="cls-11" transform="translate(1153.39 245.71)">,</text><text class="cls-11" transform="translate(974.83 260.11)">2014-2019</text></g><image class="cls-9" width="400" height="400" transform="translate(71.98 114.67) scale(0.07 0.09)" xlink:href="Bgp2mZTm_400x400.jpg"/><g class="cls-9"><text class="cls-11" transform="translate(113.53 125.33)">Daniel Ba</text><text class="cls-11" transform="translate(160.45 125.33)">r</text><text class="cls-12" transform="translate(164.42 125.33)">r</text><text class="cls-11" transform="translate(168.22 125.33)">on,</text><text class="cls-40" transform="translate(113.53 139.73)">P</text><text class="cls-11" transform="translate(119.61 139.73)">ost doc </text><text class="cls-11" transform="translate(158.75 139.73)">a</text><text class="cls-11" transform="translate(164.48 139.73)">t</text><text class="cls-32" transform="translate(168.45 139.73)"> </text><text class="cls-10" transform="translate(170.44 139.73)">Y</text><text class="cls-11" transform="translate(176.1 139.73)">ale</text><text class="cls-11" transform="translate(113.53 154.13)">2016-2018</text></g><g class="cls-9"><text class="cls-11" transform="translate(789.49 386.29)">Emily </text><text class="cls-42" transform="translate(819.24 386.29)">F</text><text class="cls-11" transform="translate(824.77 386.29)">inn,</text><text class="cls-43" transform="translate(789.49 400.69)">P</text><text class="cls-44" transform="translate(795.57 400.69)">ost doc </text><text class="cls-44" transform="translate(834.71 400.69)">a</text><text class="cls-44" transform="translate(840.44 400.69)">t NIH,</text><text class="cls-11" transform="translate(789.49 415.09)">2017-</text></g><g class="cls-9"><text class="cls-12" transform="translate(309.87 77.51)">E</text><text class="cls-12" transform="translate(315.69 77.51)">v</text><text class="cls-11" transform="translate(321.34 77.51)">elyn Lak</text><text class="cls-12" transform="translate(362.12 77.51)">e</text><text class="cls-11" transform="translate(367.99 77.51)">,</text><text class="cls-40" transform="translate(309.87 91.91)">P</text><text class="cls-11" transform="translate(315.95 91.91)">os</text><text class="cls-12" transform="translate(327.29 91.91)">t</text><text class="cls-11" transform="translate(331.19 91.91)">doc </text><text class="cls-11" transform="translate(352.47 91.91)">a</text><text class="cls-11" transform="translate(358.2 91.91)">t</text><text class="cls-32" transform="translate(362.18 91.91)"> </text><text class="cls-10" transform="translate(364.17 91.91)">Y</text><text class="cls-11" transform="translate(369.82 91.91)">al</text><text class="cls-12" transform="translate(378.44 91.91)">e</text><text class="cls-11" transform="translate(384.31 91.91)">,</text><text class="cls-11" transform="translate(309.87 106.31)">2018-2020</text></g><image class="cls-9" width="613" height="600" transform="translate(0 175.12) scale(0.06)" xlink:href="IMG_3250.jpg"/><image class="cls-9" width="400" height="400" transform="translate(1018.83 141.95) scale(0.1 0.09)" xlink:href="ulkUmtzK_400x400.jpg"/><g class="cls-9"><text class="cls-11" transform="translate(47.08 183.39)">J</text><text class="cls-12" transform="translate(51.52 183.39)">a</text><text class="cls-11" transform="translate(57.21 183.39)">vid Dadash</text><text class="cls-38" transform="translate(112.84 183.39)">k</text><text class="cls-11" transform="translate(118.68 183.39)">a</text><text class="cls-11" transform="translate(124.47 183.39)">r</text><text class="cls-11" transform="translate(128.44 183.39)">imi,</text><text class="cls-41" transform="translate(47.08 197.79)">P</text><text class="cls-11" transform="translate(53.4 197.79)">hD in </text><text class="cls-12" transform="translate(82.61 197.79)">c</text><text class="cls-11" transform="translate(87.92 197.79)">ompu</text><text class="cls-12" transform="translate(117.95 197.79)">t</text><text class="cls-11" transform="translate(121.85 197.79)">er scien</text><text class="cls-12" transform="translate(159.94 197.79)">c</text><text class="cls-12" transform="translate(165.24 197.79)">e</text><text class="cls-11" transform="translate(171.11 197.79)">,</text><text class="cls-11" transform="translate(47.08 212.19)">2017-2023,</text><text class="cls-32" transform="translate(102.49 212.19)"> </text><text class="cls-10" transform="translate(104.49 212.19)">Y</text><text class="cls-11" transform="translate(110.14 212.19)">ale Uni</text><text class="cls-12" transform="translate(144.54 212.19)">v</text><text class="cls-11" transform="translate(150.19 212.19)">ersi</text><text class="cls-20" transform="translate(167.69 212.19)">t</text><text class="cls-11" transform="translate(171.77 212.19)">y</text></g><image class="cls-9" width="400" height="400" transform="translate(0 253.76) scale(0.1)" xlink:href="zsDNagy6_400x400.jpg"/><g class="cls-9"><text class="cls-11" transform="translate(49.11 262.1)">Siyuan </text><text class="cls-20" transform="translate(85.09 262.1)">G</text><text class="cls-11" transform="translate(92.93 262.1)">a</text><text class="cls-45" transform="translate(98.72 262.1)">o</text><text class="cls-11" transform="translate(105.02 262.1)">,</text><text class="cls-41" transform="translate(49.11 276.5)">P</text><text class="cls-11" transform="translate(55.43 276.5)">hD </text><text class="cls-11" transform="translate(72.63 276.5)">a</text><text class="cls-11" transform="translate(78.37 276.5)">t En</text><text class="cls-12" transform="translate(97.45 276.5)">g</text><text class="cls-11" transform="translate(104.08 276.5)">inee</text><text class="cls-11" transform="translate(125.57 276.5)">r</text><text class="cls-11" transform="translate(129.55 276.5)">ing and </text><text class="cls-30" transform="translate(170.02 276.5)">A</text><text class="cls-11" transform="translate(177.33 276.5)">pplied </text><text class="cls-20" transform="translate(211.95 276.5)">S</text><text class="cls-11" transform="translate(217.94 276.5)">cien</text><text class="cls-12" transform="translate(238.79 276.5)">c</text><text class="cls-12" transform="translate(244.1 276.5)">e</text><text class="cls-11" transform="translate(249.96 276.5)">,</text><text class="cls-10" transform="translate(49.11 290.9)">Y</text><text class="cls-11" transform="translate(54.76 290.9)">ale Uni</text><text class="cls-12" transform="translate(89.17 290.9)">v</text><text class="cls-11" transform="translate(94.82 290.9)">ersi</text><text class="cls-20" transform="translate(112.31 290.9)">t</text><text class="cls-33" transform="translate(116.39 290.9)">y</text><text class="cls-11" transform="translate(121.58 290.9)">, 2016-2022</text></g><path class="cls-7" d="M405.27,217.61s15.41-10.2,26.87,4.77,2.49-.93,5.55,6.59"/><path class="cls-8" d="M404,216.75s6.2,23.56,27.17,17,1.52,3,9.67-2.47"/><path class="cls-7" d="M383.08,240.54s17.05-7.1,25.48,9.77,2.61-.44,4.2,7.52"/><path class="cls-8" d="M381.05,239.11s1.62,24.3,23.46,21.83.92,3.26,10-.6"/><path class="cls-46" d="M504.78,243.79a18,18,0,0,0-5-2.45h0"/><polyline class="cls-1" points="415.42 201.8 415.42 194.8 409.42 194.8"/><line class="cls-47" x1="397.69" y1="194.8" x2="192.45" y2="194.8"/><line class="cls-1" x1="186.59" y1="194.8" x2="180.59" y2="194.8"/><line class="cls-1" x1="389.48" y1="267.32" x2="389.48" y2="273.32"/><polyline class="cls-1" points="389.48 274.31 389.48 280.31 383.48 280.31"/><line class="cls-48" x1="372.15" y1="280.3" x2="264.5" y2="280.3"/><line class="cls-1" x1="258.83" y1="280.3" x2="252.83" y2="280.3"/><g class="cls-9"><text class="cls-11" transform="translate(1072 146.61)">S</text><text class="cls-12" transform="translate(1077.88 146.61)">t</text><text class="cls-11" transform="translate(1081.78 146.61)">ephanie Nobl</text><text class="cls-12" transform="translate(1149.23 146.61)">e</text><text class="cls-11" transform="translate(1155.1 146.61)">,</text><text class="cls-40" transform="translate(1072 161.01)">P</text><text class="cls-11" transform="translate(1078.08 161.01)">ost doc </text><text class="cls-11" transform="translate(1117.22 161.01)">a</text><text class="cls-11" transform="translate(1122.95 161.01)">t</text><text class="cls-32" transform="translate(1126.92 161.01)"> </text><text class="cls-10" transform="translate(1128.92 161.01)">Y</text><text class="cls-11" transform="translate(1134.57 161.01)">ale Uni</text><text class="cls-12" transform="translate(1168.97 161.01)">v</text><text class="cls-11" transform="translate(1174.62 161.01)">ersi</text><text class="cls-20" transform="translate(1192.12 161.01)">t</text><text class="cls-33" transform="translate(1196.2 161.01)">y</text><text class="cls-11" transform="translate(1201.38 161.01)">,</text><text class="cls-11" transform="translate(1072 175.41)">2019-2021</text></g><path class="cls-46" d="M711.85,322.7s-2.06-18.36-20.91-17.54-.88-2.5-8.61,0"/><path class="cls-46" d="M714.08,323.78s-22,10.37-30.47-9.93-3.3.79-4.31-9"/><line class="cls-1" x1="711.56" y1="333.75" x2="711.56" y2="339.75"/><line class="cls-49" x1="711.56" y1="349.58" x2="711.56" y2="383.98"/><polyline class="cls-1" points="711.56 388.9 711.56 394.9 722.66 394.9"/><line class="cls-1" x1="808" y1="274.8" x2="808" y2="280.8"/><polyline class="cls-1" points="808 281.79 808 287.79 814 287.79"/><line class="cls-48" x1="825.34" y1="287.79" x2="932.99" y2="287.79"/><line class="cls-1" x1="938.66" y1="287.79" x2="944.66" y2="287.79"/><image class="cls-9" width="161" height="162" transform="translate(958.19 276.47) scale(0.21 0.19)" xlink:href="corey_horien21.jpg"/><g class="cls-9"><text class="cls-12" transform="translate(1000.53 285.66)">C</text><text class="cls-11" transform="translate(1007.36 285.66)">o</text><text class="cls-12" transform="translate(1013.95 285.66)">r</text><text class="cls-11" transform="translate(1017.75 285.66)">ey Ho</text><text class="cls-11" transform="translate(1046.37 285.66)">r</text><text class="cls-11" transform="translate(1050.34 285.66)">ien,</text><text class="cls-41" transform="translate(1000.53 300.06)">P</text><text class="cls-11" transform="translate(1006.85 300.06)">hD stude</text><text class="cls-11" transform="translate(1052.17 300.06)">n</text><text class="cls-11" transform="translate(1058.78 300.06)">t </text><text class="cls-11" transform="translate(1065.29 300.06)">a</text><text class="cls-11" transform="translate(1071.03 300.06)">t</text><text class="cls-32" transform="translate(1075 300.06)"> </text><text class="cls-10" transform="translate(1076.99 300.06)">Y</text><text class="cls-11" transform="translate(1082.65 300.06)">ale Uni</text><text class="cls-12" transform="translate(1117.05 300.06)">v</text><text class="cls-11" transform="translate(1122.7 300.06)">ersi</text><text class="cls-20" transform="translate(1140.2 300.06)">t</text><text class="cls-33" transform="translate(1144.28 300.06)">y</text><text class="cls-11" transform="translate(1149.46 300.06)">,</text><text class="cls-11" transform="translate(1000.53 314.46)">2014-2021</text></g><line class="cls-1" x1="838.91" y1="253.62" x2="838.9" y2="247.62"/><polyline class="cls-1" points="838.9 245.54 838.88 239.54 844.88 239.53"/><line class="cls-50" x1="857.72" y1="239.51" x2="902.66" y2="239.42"/><line class="cls-1" x1="909.07" y1="239.41" x2="915.07" y2="239.4"/><polyline class="cls-1" points="781.35 209.12 781.32 198.29 787.32 198.29"/><line class="cls-1" x1="799.73" y1="198.27" x2="805.73" y2="198.27"/><line class="cls-1" x1="438.58" y1="158.82" x2="438.58" y2="152.82"/><polyline class="cls-1" points="438.57 137.72 438.57 131.72 432.57 131.72"/><line class="cls-47" x1="420.85" y1="131.72" x2="215.61" y2="131.72"/><line class="cls-1" x1="209.74" y1="131.72" x2="203.74" y2="131.72"/><path class="cls-51" d="M421.78,176.79l7.09,8.65h0s8.53,25.41,21.37,19.3l.34-.17h0l.1-.12v-.06a177.6,177.6,0,0,0-11.58-14.55c-3.38-3.77-3.33-5.65-6.7-8.07a59,59,0,0,0-5.6-3h0c-1.32-.62-2.71-1.2-4.14-1.71h0A7.11,7.11,0,0,1,421.78,176.79Z"/><path class="cls-46" d="M436.36,183.79c23.55,1.86,12.41,19.13,12.41,19.13l3.79,5.68"/><line class="cls-1" x1="420.52" y1="309.63" x2="420.51" y2="303.63"/><polyline class="cls-1" points="420.5 301.55 420.49 295.55 426.49 295.53"/><line class="cls-50" x1="439.33" y1="295.51" x2="484.26" y2="295.43"/><line class="cls-1" x1="490.68" y1="295.42" x2="496.68" y2="295.4"/><image class="cls-9" width="400" height="400" transform="translate(915.07 344.97) scale(0.08 0.09)" xlink:href="FpuiGQ3b_400x400.jpg"/><g class="cls-9"><text class="cls-11" transform="translate(957.58 351.35)">D</text><text class="cls-12" transform="translate(965.58 351.35)">a</text><text class="cls-11" transform="translate(971.28 351.35)">vid O</text><text class="cls-11" transform="translate(997.5 351.35)">&apos;</text><text class="cls-12" transform="translate(999.74 351.35)">C</text><text class="cls-11" transform="translate(1006.58 351.35)">onno</text><text class="cls-32" transform="translate(1033.12 351.35)">r</text><text class="cls-11" transform="translate(1036.42 351.35)">,</text><text class="cls-41" transform="translate(957.58 365.75)">P</text><text class="cls-11" transform="translate(963.92 365.75)">hD stude</text><text class="cls-11" transform="translate(1009.32 365.75)">n</text><text class="cls-11" transform="translate(1015.95 365.75)">t </text><text class="cls-11" transform="translate(1022.49 365.75)">a</text><text class="cls-11" transform="translate(1028.24 365.75)">t</text><text class="cls-32" transform="translate(1032.22 365.75)"> </text><text class="cls-10" transform="translate(1034.22 365.75)">Y</text><text class="cls-11" transform="translate(1039.89 365.75)">al</text><text class="cls-12" transform="translate(1048.53 365.75)">e</text><text class="cls-11" transform="translate(1054.41 365.75)">,</text><text class="cls-11" transform="translate(957.58 380.15)">2017-2023</text></g><line class="cls-1" x1="664.72" y1="446.47" x2="664.72" y2="440.47"/><polyline class="cls-1" points="664.72 430.64 664.72 424.64 658.72 424.64"/><line class="cls-52" x1="651.58" y1="424.65" x2="640.86" y2="424.65"/><line class="cls-1" x1="637.29" y1="424.65" x2="631.29" y2="424.65"/><path class="cls-53" d="M505.7,173.8s2.72,4.37,11.3,3.55h0l-4.23-4.24C510.1,172.34,507.38,172.19,505.7,173.8Z"/><path class="cls-51" d="M512.8,172.94l5.39,5.24h0s9.25,16.41,19,12.7l.26-.1h0l.08-.07h0a122.46,122.46,0,0,0-8.82-8.83,49.59,49.59,0,0,0-7.86-5.89c-1.22-.58-2.67-1.21-4.26-1.8h0a27.59,27.59,0,0,0-3.15-1h0Z"/><path class="cls-46" d="M520.85,176a16.15,16.15,0,0,0-4.26-1.8h0"/><path class="cls-46" d="M525.27,178.18c17.93,1.13,12.21,12.6,12.21,12.6l2.88,3.44"/><path class="cls-54" d="M701.14,137.39l5.94,8.11h0s7.15,23.82,17.92,18.09l.28-.16h0l.08-.11v0c-2.38-3.69-5.9-8.88-9.71-13.64-2.83-3.54-2.8-5.29-5.62-7.57a51.77,51.77,0,0,0-4.7-2.78h0a37.49,37.49,0,0,0-3.47-1.6h0Z"/><path class="cls-4" d="M713.37,144c19.74,1.74,10.4,17.93,10.4,17.93l3.18,5.32"/><path class="cls-46" d="M443.7,154.49s17.06-7.1,25.48,9.77,2.62-.44,4.2,7.52"/><path class="cls-46" d="M441.67,153.06s1.63,24.3,23.47,21.83.91,3.26,10-.6"/><line class="cls-1" x1="498.79" y1="164.86" x2="498.79" y2="158.86"/><polyline class="cls-1" points="498.79 157.31 498.79 151.31 492.79 151.31"/><line class="cls-55" x1="479.19" y1="151.31" x2="431.59" y2="151.31"/><line class="cls-1" x1="424.79" y1="151.31" x2="418.79" y2="151.31"/><line class="cls-1" x1="422.33" y1="173.25" x2="422.33" y2="167.25"/><line class="cls-56" x1="422.33" y1="155.93" x2="422.33" y2="93.66"/><polyline class="cls-1" points="422.33 88 422.33 82 416.33 82"/><line class="cls-1" x1="415.59" y1="81.99" x2="409.59" y2="81.99"/><line class="cls-1" x1="671.59" y1="105.67" x2="665.59" y2="105.67"/><polyline class="cls-1" points="665.12 105.67 659.12 105.67 659.12 111.67"/><line class="cls-57" x1="659.12" y1="123.69" x2="659.12" y2="189.82"/><line class="cls-1" x1="659.12" y1="195.83" x2="659.11" y2="201.83"/><path class="cls-7" d="M709.64,245.86s1.77-10.39,18-9.93.75-1.42,7.41,0"/><path class="cls-8" d="M707.72,246.47s19,5.86,26.21-5.62,2.84.44,3.71-5.1"/><line class="cls-1" x1="930.87" y1="330.41" x2="930.87" y2="324.41"/><polyline class="cls-1" points="930.87 308.6 930.87 302.6 920 302.6"/><path class="cls-58" d="M1148.53,415.7a15.22,15.22,0,0,0,5.06-3.39h0"/><path class="cls-59" d="M1251.81,480.62c-.75.26-1.71.65-2.65,1.06h0a6.54,6.54,0,0,0-1.57.44l-1.3.44c-.85.29-2.12.72-3.8,1.17s-3.75,1-6.22,1.56l1.29-.3,2.57-.61.86-.24,3.06-.89a8.22,8.22,0,0,0,1.09-.37l-.87.27-2.87.78s-1.1.35-3.26.81c-1.08.25-2.42.58-4,.84l-2.59.47-3,.41a117.12,117.12,0,0,1-15.66.92,173.86,173.86,0,0,1-21.26-1.56c-8-1-16.78-2.65-26.43-4.6s-20.15-4.22-31.61-6.13c-5.72-.95-11.7-1.79-17.94-2.33-5.43-.49-11.07-.67-16.78-.63l.74-.32.38-.16.39-.17.79-.36.83-.38c1.11-.51,2.28-1.06,3.47-1.67l1.77-.89,1.75-.92,1.72-.93,1.69-.94,1.5-.83,1-.56,3.67-2.1,6.55-3.83,11-6.56,2.31-1.4a21.47,21.47,0,0,1,2-1.09,22.5,22.5,0,0,1,3.72-1.39,38.53,38.53,0,0,1,5.42-1.09c5-.65,9.71-.77,13.89-1.38A31,31,0,0,0,1174,442a17.69,17.69,0,0,0,5.3-4.27,8.29,8.29,0,0,0,.81-1.13v-.1h0l.06-.11-.15.1-.31.33h0l-.18.16-.16.15a3.81,3.81,0,0,1-.46.44l-.44.39.25-.23a5.57,5.57,0,0,0,.51-.46s-.13.13-.46.41l-.41.35c-.26.24-.68.54-1.22.94a19.84,19.84,0,0,1-5.1,2.51,32.91,32.91,0,0,1-8.59,1.36c-3.39.17-7.24,0-11.55.05a53.48,53.48,0,0,0-6.81.46,25.76,25.76,0,0,0-7.39,2.12l-14.58,7.31-7.92,3.92-4.17,2-1.1.53-1.45.71-.77.38-.77.37-1.57.78-.79.4-.4.2-.21.1-.2.11-.8.41-.79.42-2.93,1.58-2.44,1.39-.53.32-.52.31-.48.3-.39.23a49.89,49.89,0,0,0-4.15,2.78l-1.3,1c-.37.28-.7.59-1,.86l-.49.5c-10.57.52-21.4,1.58-32.4,2.28-3.49.24-7,.4-10.5.51s-6.9.08-10.42-.1a216.62,216.62,0,0,1-21.73-2.17c-5.76-.84-11.64-1.84-17.67-2.91.79-.4,1.58-.8,2.35-1.23s1.82-1,2.71-1.54,1.77-1.08,2.65-1.64,1.75-1.16,2.6-1.75,1.51-1.11,2.26-1.66l1.45-1.15c1.87-1.51,3.55-3,5.15-4.36,3.19-2.81,6-5.4,8.82-7.6a51.71,51.71,0,0,1,8-5.44,33.58,33.58,0,0,1,7.64-2.89c5-1.22,9.72-1.59,13.56-2.19a59.91,59.91,0,0,0,8.88-1.87,38.13,38.13,0,0,0,5.74-2.24c1.76-.87,3.42-1.76,5.06-2.65,3.26-1.78,6.3-3.58,9.12-5.32,5.64-3.5,10.39-6.77,14.15-9.48s6.51-4.83,8.11-6.14a17.42,17.42,0,0,0,1.51-1.34l.09-.13h.06a.69.69,0,0,0,.11-.13c0-.05-.08,0-.24.09l-.57.35h0a1,1,0,0,0-.32.16l-1.16.71c.89-.55.85-.54-.15.07l-2.71,1.61c-1.76,1-4.36,2.58-7.7,4.46s-7.43,4.13-12.21,6.53q-3.59,1.8-7.67,3.66c-1.36.62-2.77,1.23-4.21,1.85l-2.19.9c-.74.3-1.46.53-2.19.81a42.85,42.85,0,0,1-9.59,1.81c-3.41.31-7,.37-10.9.66a47,47,0,0,0-12.15,2.28,43.32,43.32,0,0,0-6.14,2.76,58.85,58.85,0,0,0-5.83,3.65c-3.81,2.63-7.44,5.6-11.16,8.43-1.87,1.42-3.75,2.81-5.72,4.11l-1.5,1c-.65.4-1.25.78-2,1.21l-1.09.62-1.11.62c-.75.42-1.5.83-2.27,1.24l-1.16.62-.59.3-.29.16-.29.15-1.19.62-1.17.6-4.36,2.18-3.7,1.78-.81.4-.8.38-.75.35-.6.29-1.06.51h0c-2.16-.29-4.32-.61-6.5-.86l-6.55-.53A196.93,196.93,0,0,0,938,466c-8.91.71-17.85,1.91-26.77,3.39-17.82,3-35.54,7.05-53.31,10l-6.66,1-1.67.25-1.59.2c-1,.12-2.11.28-3.17.36-4.25.45-8.56.68-12.93.74a201.41,201.41,0,0,1-27-1.59c-4.66-.56-9.4-1.24-14.25-2-2.33-.37-5.12-.81-7.79-1.19s-5.42-.72-8.17-1-5.6-.59-8.41-.82c-3.65-.29-7.08-.53-11-.7-1.92-.09-3.85-.16-5.78-.21s-3.9-.07-5.85-.1c-3.92,0-7.88,0-11.86.15-2,.05-4,.16-6,.25l-3,.18-1.52.09-1.51.12-6,.49-5.8.55-21.05,2.23-9.09,1-8.18.8-3.75.31-3.65.31-3.39.23-2.72.2c-1.7.15-3.27.15-4.82.25s-3,.2-4.41.22c-2.77,0-5.36.19-7.7.19h-6.57c-2,0-3.9-.12-5.73-.13l-9.57-.4c-1.43-.12-2.76-.2-4-.26s-2.49,0-3.6-.15c-2.22-.16-4.24-.21-6-.16-.92,0-1.74,0-2.51.05s-1.49.08-2.15.16c-5.36.68-7.8,3-6.46,7.59a16.29,16.29,0,0,0,1.82,3.87c.45.73,1,1.49,1.57,2.3.29.41.61.83.94,1.25l1.1,1.2a73,73,0,0,0,5.88,5.52c1.21.92,2.53,1.88,4,2.89l2.31,1.56,1.24.81c.43.26.88.5,1.33.75,1.82,1,3.76,2,5.93,3.15s4.57,2,7.29,3.12c.68.27,1.4.57,2.13.82l2.19.72,4.87,1.53c.8.27,1.71.5,2.68.72l1.69.41,2,.49c1.34.29,2.8.68,4.25.9l4.34.75c1.38.24,3.06.53,4.63.69l4.76.57c1.67.2,3.36.33,5.07.44l5.27.36,5.5.18,2.8.07h8.61l6-.17c8.07-.27,16.54-.78,25-1.41l12.28-.78q6.07-.35,12.11-.55c4-.12,8-.24,12-.24s7.91,0,11.7.13c3.47.09,6.91.27,10.34.48,2.28.16,4.56.33,6.82.54l7.12.64,7.07.54c4.69.3,9.3.5,13.89.59A206.44,206.44,0,0,0,838,522.28c4.38-.48,8.69-1.17,12.93-2l3.16-.63,3-.68,5.87-1.35c15.41-3.75,29.51-7.94,42.53-11.44,4.58-1.24,9-2.39,13.38-3.45.78.34,1.57.67,2.34,1s1.79.84,2.66,1.31,1.74.94,2.57,1.41,1.52.92,2.27,1.37c.51.3,1,.65,1.5,1,2,1.28,3.8,2.58,5.61,3.86,3.59,2.59,7,5.11,10.44,7.36a70.67,70.67,0,0,0,10.21,5.68l2.51,1,2.39.82c1.56.55,3.07,1.08,4.55,1.48a114.4,114.4,0,0,0,15.18,3.41c4.17.66,7.38.95,9.5,1.18a197,197,0,0,0,23.18.53c6.87-.22,12.79-.65,17.52-1.06s8.27-.79,10.36-1.07a15.28,15.28,0,0,0,2-.37l.14-.07h.28a.48.48,0,0,0-.27-.07h-1.09l-4.38-.08,2.68,0h.11l-12.55-.32a287.86,287.86,0,0,1-33.31-2.62,138.09,138.09,0,0,1-22-5.06A108.46,108.46,0,0,1,961.65,519a60.77,60.77,0,0,1-11.18-6.93c-3.72-2.83-7.47-6.06-11.59-9.37-1.33-1.08-2.73-2.16-4.18-3.23,2.38-.45,4.74-.85,7.06-1.2a158.9,158.9,0,0,1,30.89-1.85l3.5.18,1.72.09,1.81.16,7.06.63,13.27,1.2c6.53.57,12.56,1,18,1.16l1.33.45,1.46.51.74.26.78.27,1.53.58c.54.2,1.08.39,1.61.61,2.15.84,4.4,1.78,6.66,2.83,1.13.51,2.23,1.09,3.34,1.62s2.19,1.13,3.25,1.76l1.59.92,1.68,1,3.33,2,3,1.78,2,1.18c2.6,1.55,5,3,7.46,4.34,4.81,2.72,9.4,5.14,13.89,7.18a114.26,114.26,0,0,0,13,5c2.1.68,4.06,1.17,6,1.71s3.78,1,5.59,1.45c7.2,1.81,13.41,3.06,18.47,4s8.94,1.56,11.52,2c10.3,1.61,19.81,2.75,28.19,3.68s15.64,1.65,21.45,2.22,10.17,1,12.76,1.12a14.91,14.91,0,0,0,2.5,0,.61.61,0,0,0,.19,0h.16a.37.37,0,0,0,.21,0,.72.72,0,0,0-.31-.14l-.85-.18h0a1.86,1.86,0,0,0-.47-.14l-3.89-.86,1.83.4c1.68.36,1.74.36.14,0,0,0-5.5-1.25-15.21-3.29s-23.73-4.81-40.6-8.74c-8.43-2-17.57-4.33-27.19-7.29l-3.63-1.13-3.66-1.22c-2.47-.8-4.94-1.71-7.46-2.62a104.11,104.11,0,0,1-14.79-6.71c-4.94-2.7-9.91-5.82-15.07-9.26l-8-5.39-2.12-1.44-2.31-1.55c1.52-.19,3-.38,4.53-.59,4.24-.59,8.39-1.26,12.45-1.93,8.14-1.35,15.94-2.74,23.47-3.83a183.73,183.73,0,0,1,42.56-1.74c13.54.86,26.38,2.47,38.27,3.5a261.41,261.41,0,0,0,32.63,1.23,128.84,128.84,0,0,0,25.34-3.27A85.81,85.81,0,0,0,1244,486c2-.9,3.61-1.84,4.86-2.52a20.78,20.78,0,0,0,2.59-1.77,1.76,1.76,0,0,0,.45-.49v-.08h0l.15-.09.26-.16a2.22,2.22,0,0,0,.56-.45C1253,480.26,1252.56,480.35,1251.81,480.62Zm-52.76-33.38.06-.05Z"/><path class="cls-60" d="M523.09,107.13c3.07-.11,10.71,1.87,14.31.79-1.84.54-12.22-1.07-14.56-.79h0C523.42,107.12,525.07,107.05,523.09,107.13Z"/><path class="cls-61" d="M835.08,252.92a22.38,22.38,0,0,0-4.08-.47c.82,0,1.7.18,2.5.17-13.68.23-23.93,6.26-36,11.05-16.19,6.41-34.12,12.87-52,15.21-13.46,1.75-26.32-1.65-39.75-.88,15-7.6,35.87-20,53.64-22.14,10-1.24,28.67,5.48,36.65.49-5.31,3.21-25.18-2.34-32.32-2.68,14.67-5,29.66-9.25,44.87-13,4.12-1,12.18-1.54,15.53-4-.85.61-5.48.65-6.15.74l3-.42c-11.63,3.12-24.85,3.74-36.8,6.3a448.64,448.64,0,0,0-50.67,14c.56-2.92-.31-6.16,2-8.71,3.07-3.44,17-5.71,17-11v-.06a3.16,3.16,0,0,1-.62.53c-1.14.22-4.52,3.38-6.21,4.3-2.46,1.35-5.67,2-8,3.35-4.64,2.72-3.89,3.9-6.13,7.8-.7,1.22.24,3.11-.62,4.33-2.15,3.07-17.25,6.74-21.53,8.49-7.37,3-14.54,6.28-21.77,9.49,2.7-6.12,5.33-12.26,9.32-17.93,2.57-3.64,9.15-7.75,10.54-11.48-.58,1.48-7.21,5.69-9,7.5-5.77,5.94-8.78,12.62-12.83,19.25-2.25,3.68-.75,3.12-5,5.6-12.27,7.17-30.45,5.74-44.25,9.53,3.07-4.79,2.71-11,3.79-16.1,1.6-7.57,7.31-11.84,10.55-18.7.36-.78.92-2.88.23-3.67,1.61,1.91-2.9,6.21-4,7.5-7.27,8.39-8.89,15.42-11.87,25.28-2.23,7.36-6.26,7.62-13.68,12.11a60,60,0,0,0-3-40.34c-1.68-3.94-7.39-11.51-6.15-15.33.31-1,2-1.91,2.71-2.77,3.41-4.35,9.7-8.71,15.14-11,5.6-2.4,11.7-2.84,17.77-4,7.5-1.47,16.39-7,23.58-7.74,9-1,20.42,2.11,29.69,2.17,7.37,0,15-.32,21.83-2.86,7-2.61,10.66-7.8,16.85-11.21s9.75-2.17,15.53-.4c-.43-.14-1.34-1.28-1.69-1.48a4.45,4.45,0,0,1,.58.38c.72-.73-7.39-1.87-8.29-1.81-4.52.28-7.9,2.48-11.36,4.62-9.38,5.84-15.65,9-28,9-9.29,0-18.49-1.62-27.78-1.85,18.34-8.88,40.4-12.3,57.81-22.11,6.52-3.67,21.73-13.42,21.77-20.82,0,.76-2.79,3.22-3.12,3.58.61-.68,1.2-1.36,1.78-2-9.8,16.08-34.67,21.39-53.78,25.88a19.62,19.62,0,0,1,4.53-6.77c2.8-2.66,7.25-3.84,9.67-6.76s2-6.23,3.58-9.26c.86-1.71,2.5-3.09,3.32-4.64-.09.17-.81.45-.92.52-1.58,1-3.34,5.12-4.53,7.43-3.34,6.51-9.46,7.34-14.28,12.63-.88,1-1.38,2.28-2.25,3.2-3.86,4,1,3.27-8.34,6.09-12.29,3.69-23.36,9.6-35.65,13.27-9.81,2.92-20.48,2.58-30.16,5.63a41.26,41.26,0,0,0-20.87,15c-3.86-10-3.58-18.3-.32-28.34,1.63-5,2-9.71,6.83-12.25,4.57-2.4,12-3.19,17.1-4.46,3.71-.94,11.94-1.51,14.69-3.69-3.65,2.8-18.55,3.23-23.35,4.24-3.44.72-7,1.39-10.3,2.42C615.9,177.4,616,170.54,628.4,163c9.33-5.68,21-8.34,30.68-13.83,4.57-2.59,6-3.8,10.15-4.14a61.17,61.17,0,0,1,6.9.45c6.79.35,21.8,3.54,28,1.58-1.52.47-5.14-.83-6.68-1a211.79,211.79,0,0,0-21.16-2.29c-2.76-.11-5.67-.4-8.37.2,7.86-4.68,16.25-9,26-10.38,1.92-.28,5.06.08,6.83-.6-3.71,1.39-11.35.11-15.73,1.14-16.26,3.81-29,14-44.83,18.79,3.15-5.54,17.39-12.93,12.56-19.82V133c0,.05-1,3.67-.51,1.9a3.9,3.9,0,0,0,.38-1.46c-1.63,6.86-7.63,13.82-13.8,18.61s-16.74,6.91-23,13.21c-.11-15.18-3.83-30.27-3-45.47.33-6.18.57-16.49,5.84-20.89s17.39-4.42,21.56-9.61c0,0-1,.34-.64.23-6.44,2.44-14.61,5-21.44,8.15,2.46-5.8,10.34-17.48,7.35-24,.46,1.06-2.75,7-3.06,7.7a28.4,28.4,0,0,0,1.12-2.67c-.4,3-3.37,7.06-4.81,9.57-1.36-2.62-3.45-7.94-5.91-9.28,1.32.76,4.41,6.82,4.69,8.79.42,3,.93-2.12-.42,3.32-1.14,4.62-5.54,9.4-7.43,13.93a66.64,66.64,0,0,0-4.45,17.9A49.56,49.56,0,0,0,590,116.14c-8.56-2.4-22.67-1.38-29.56-5.45-7.84-4.62-1.91-21.41-11.77-22.66,7.48,1,3.82,17.46,9.17,22.48a97.94,97.94,0,0,1-28.48-9.84c-2-1-4.9-3.73-7.22-4.13,0,0,1.87,1.53,1.42,1.18a1.07,1.07,0,0,0-.22-.15c18.77,14.72,42.7,16,65.84,23.23,3.46,1.09,7.47,2.16,10.5,3.83,1.37.76,4.28,1.11,5.07,2.21,2.65,3.7-.34,18-.32,22.44-6-5.2-26.93-9.39-33.15-6.45,5.68-2.6,20.66,3.48,27.2,5.45,3.71,1.11,4.46,1.28,5.95,3.5,3.32,4.93-1.45,20.94-3,26.11-2.07,6.93-5.65,13.44-8.64,20.12a45.45,45.45,0,0,0-20-20.23c-9.71-4.95-21.3-6.54-31-11.6-7.33-3.83-18.64-9.39-23.85-15s-6.48-12.48-12.7-18.07c-10-9-.82-2,.65-11.24-.3,1.56-4.82,4.6-6.4,6.13-3.55-5,.33-18.49-4.3-21.63v-.09c3.69,3.57-.75,15.34,1.08,20.22,2.22,6,8.89,9.46,12.27,15,1.25,2.07,2.07,4.33,3.19,6.45-16.09-7.94-36-8.28-51.35-17.39C452.51,126,447,120.07,442,113.47c-.85-1.12-1.38-3-2.65-3.88.59.41,1.33,3.33,1.62,3.94-.3-.66-.64-1.3-.93-2,2.49,2.82,3.57,6.93,5.91,10a57.11,57.11,0,0,0,14.88,13.31A42.28,42.28,0,0,0,443,136h0a9.54,9.54,0,0,1,1.17-.2l-.76.14c6-1.11,13.48-1.32,19.56.32,3.36.9,6.66,3.15,10,4.42,7.4,2.85,15.3,4.67,22.77,7.39,13.95,5.08,23.75,14,35.28,21.85,15,10.2,34.7,12.79,47.14,25.47,1.89,1.93,3.58,4,5.31,6,2.53,3,4.87,5,5.17,8.33.24,2.75-1.18,5.91-1.24,8.78-.32,13.64,6.39,26.28,11,39.15a96.06,96.06,0,0,0-20-15c-8.21-4.53-24.43-6.46-29.33-12.62-5.06-6.37-4.38-16.72-7.92-23.93-1.47-3-4.44-11.44-8.11-13.55,2.65,1.56,4.41,9.09,5.45,11.57,3.59,8.54,3.58,17.39,6.66,25.92-13.57-6.59-25.68-15.23-39-22.16q-8.13-4.23-16.51-8.12c-2.82-1.31-8.75-2.82-10.75-5-5.11-5.64,4.14-18.76-7.66-20.09,7.53-2.28,3.55,16.25,4.82,19.08-9.72-4.12-19.68-8.07-29.93-11.25-1.83-.57-4.64-2-6.67-1.83,1-.06,4.26,1.87,4.73,2.07a22.77,22.77,0,0,0-2.52-1c19.29,5.21,39.16,18.18,55.4,27.71-5.31-.16-10.69.49-16,.09-6.91-.52-12.93-3-19.6-4.36-2.1-.43-7.76-2-10.11-.67.88-.47,4,.17,4.94.35,11.49,2.41,20.42,6.75,32.58,7.25,16.34.66,23,6.1,36,15.1a85.57,85.57,0,0,0-25.6-2.5h0a5.12,5.12,0,0,1,.78.06c6.72.37,16.46,1.29,23.89,3.5a22.05,22.05,0,0,1,8.13,3.91c10.88,7.34,23.59,10.23,35.27,16.38,9.51,5,17.51,11.69,25.67,18,8.66,6.7,10,7.34,7.63,17.29-2.43,10.21-7.74,19.84-10.76,29.94-12-14.46-28.57-27.37-50-31.47-10.44-2-11.72-.37-15.62-9.07a62.48,62.48,0,0,1-3.09-9,4.26,4.26,0,0,1,.08.8c-2.39,2,4,13.45,5.34,15.87-10.61-.47-25.88.59-32.86-7-5.45-5.88-5.58-12.57-13-18-9.08-6.55-19.27-12.39-28.92-18.35-2.88-1.78-7.95-6.34-11.59-6.82,0,0,3.68,2.73,2.14,1.6a4,4,0,0,0-.86-.61C458,244,480.21,255.26,486.82,273.12c-24.8-11-46.94-22.45-75.18-27a195.37,195.37,0,0,0-39.84-2.29c-3.54.17-10.38-.22-13.52,1.5.87-.46,5.5,0,6.09,0l-2.61.06c11.35-1.63,26,1,37,2.9a195.22,195.22,0,0,1,48.69,14.87c-7.76-.11-15.38,1.2-23.12,1.36-4.09.08-10.38-1.79-14.21-1.24,2.14-.29,9.56,2.16,13.23,2.34,8.76.43,18-1.32,26.65.15,10.46,1.77,19.17,9.22,28.06,14,17,9,32.06,10.6,51.47,13.41,23.63,3.43,36.76,18.82,51.48,32.49,4.35,4,7.23,6,8.61,11.34,1.92,7.46,5.34,14.57,9,21.55,7.13,13.53-8.28,26-7,40.86,1.92,23-3.42,45.8-4.09,68.72-.2,6.57-2.25,32.11,8.12,34.27,9,1.88,48.38-11.88,39.6-30.4-18.79-39.61-4.12-73.67-15.07-112.4-3.15-11.11-10.38-29.24-5.51-41.36,2.59-6.44,14.83-13.29,21.6-16.26,7.2-3.16,22.45-8.47,30.43-5.66,5.33,1.88,10.23,10.65,17.12,6.2-2.42,5.11-15.38-7-17.24-7.79a93.44,93.44,0,0,0,16.06-5.19c3.83-1.61,8.41-5.18,12.44-5.9,2.43-.44,6.28.39,8.92.6,10.21.82,20.38,2.52,30.67,2.23,22.1-.63,44.29-10.38,63.12-19.2C807.2,262.85,823.77,250.49,835.08,252.92Zm-112-85.1c.13-.11.25-.19.34-.26Zm-.23.19a1.24,1.24,0,0,0-.22.18Zm104.59,84.63h0Zm.9-.1h0Zm-178.14.65.09-.19Zm.31-.7a1.15,1.15,0,0,1,.11-.31c0,.1-.07.2-.11.31ZM620.12,85.62l.26-.49ZM650.8,251.53a2.63,2.63,0,0,1,.07-.46C650.85,251.21,650.83,251.36,650.8,251.53Zm100.53-52.87.21.06Zm.61.2.35.13Zm-54.4-66.34h-1.16a8.91,8.91,0,0,1,1.16,0Zm-76-49.74c.49-1,.74-1.55.75-1.57-.19.48-.44,1-.72,1.57Zm-72,5.9-.27-.21Zm-108,25.76c-.13-.23-.24-.44-.34-.64.09.2.21.42.33.64Zm30.73,60.5-.39-.11Zm.54.21h0ZM681.91,303.26h0Zm.52-.12-.2.05Z"/><line class="cls-1" x1="640.46" y1="252.97" x2="640.45" y2="246.97"/><line class="cls-62" x1="640.42" y1="234.56" x2="640.3" y2="166.3"/><polyline class="cls-1" points="640.29 160.09 640.28 154.09 646.28 154.08"/><line class="cls-63" x1="657.89" y1="154.06" x2="977.39" y2="153.47"/><line class="cls-1" x1="983.2" y1="153.46" x2="989.2" y2="153.45"/><path class="cls-46" d="M644.25,215.78s-11.66,10-.83,25.47-1.27,1.87,4.67,7.23"/><path class="cls-46" d="M644.87,213.7s19.22,13.8,9.68,30.05,2.34,2.41-3.93,7.68"/><path class="cls-64" d="M670,199.27s-1.86-19.49-18.78-18.63-.79-2.65-7.73,0"/><path class="cls-64" d="M672,200.42s-19.79,11-27.36-10.55-3,.83-3.87-9.56"/><image class="cls-9" width="100" height="100" transform="translate(679.51) scale(0.35 0.36)" xlink:href="../../../../Downloads/0.jpeg"/><line class="cls-1" x1="666.29" y1="26.92" x2="660.29" y2="26.92"/><polyline class="cls-1" points="657.65 26.92 651.65 26.92 651.65 32.92"/><line class="cls-65" x1="651.65" y1="44.45" x2="651.64" y2="153.93"/><line class="cls-1" x1="651.64" y1="159.69" x2="651.64" y2="165.69"/><g class="cls-9"><text class="cls-10" transform="translate(684.06 53.3)">Y</text><text class="cls-11" transform="translate(689.71 53.3)">anitza </text><text class="cls-11" transform="translate(722.4 53.3)">R</text><text class="cls-11" transform="translate(728.9 53.3)">od</text><text class="cls-11" transform="translate(742.26 53.3)">r</text><text class="cls-11" transform="translate(746.23 53.3)">íguez,</text><text class="cls-40" transform="translate(684.06 67.7)">P</text><text class="cls-11" transform="translate(690.14 67.7)">ost Ba</text><text class="cls-12" transform="translate(720.29 67.7)">c</text><text class="cls-11" transform="translate(725.59 67.7)">calau</text><text class="cls-12" transform="translate(751.98 67.7)">r</text><text class="cls-11" transform="translate(755.78 67.7)">e</text><text class="cls-11" transform="translate(761.8 67.7)">a</text><text class="cls-12" transform="translate(767.53 67.7)">t</text><text class="cls-11" transform="translate(771.43 67.7)">e </text><text class="cls-11" transform="translate(779.99 67.7)">a</text><text class="cls-11" transform="translate(785.72 67.7)">t</text><text class="cls-32" transform="translate(789.69 67.7)"> </text><text class="cls-10" transform="translate(791.69 67.7)">Y</text><text class="cls-11" transform="translate(797.34 67.7)">ale Uni</text><text class="cls-12" transform="translate(831.74 67.7)">v</text><text class="cls-11" transform="translate(837.39 67.7)">ersi</text><text class="cls-20" transform="translate(854.89 67.7)">t</text><text class="cls-11" transform="translate(858.97 67.7)">y</text></g></g></g></g></svg>